<svg xmlns="http://www.w3.org/2000/svg" xml:space="preserve" width="1025px" height="1025px" version="1.1"
     style="shape-rendering:geometricPrecision; text-rendering:geometricPrecision; image-rendering:optimizeQuality; fill-rule:evenodd; clip-rule:evenodd"
viewBox="0 0 1025 1025"
 xmlns:xlink="http://www.w3.org/1999/xlink">
 <g>
  <path
          d="M512 697.6c-39.68 0-71.68 32-69.12 72.96-2.56 37.12 32 69.12 69.12 69.12 38.4 0 71.68-32 71.68-70.4 0-39.68-33.28-71.68-71.68-71.68zM529.92 194.56c-34.56-7.68-67.84 8.96-83.2 40.96-3.84 11.52-6.4 23.040-6.4 35.84 2.56 35.84 5.12 71.68 6.4 107.52 3.84 55.040 7.68 110.080 10.24 165.12 1.28 17.92 1.28 34.56 1.28 52.48 2.56 29.44 24.32 51.2 53.76 51.2s51.2-20.48 53.76-49.92c3.84-85.76 8.96-170.24 14.080-256 1.28-23.040 2.56-46.080 5.12-69.12 0-37.12-21.76-67.84-55.040-78.080zM512 0c282.88 0 512 229.12 512 512s-229.12 512-512 512c-282.88 0-512-229.12-512-512s229.12-512 512-512z"/>
 </g>
</svg>
