<svg xmlns="http://www.w3.org/2000/svg" xml:space="preserve" width="1024px" height="1024px"
     version="1.1" viewBox="0 0 1024 1024">
 <path d="M512 432.532c-31.787 0-59.033 22.705-59.033 49.951v295.166c0 27.246 27.246 48.816 59.033 48.816 32.922 0 59.033-21.57 59.033-48.816v-295.166c0-27.246-26.111-49.951-59.033-49.951zM512 196.399c-31.787 0-59.033 27.246-59.033 59.033 0 32.922 27.246 59.033 59.033 59.033 32.922 0 59.033-26.111 59.033-59.033 0-31.787-26.111-59.033-59.033-59.033zM512 0c282.678 0 512 229.322 512 512s-229.322 512-512 512c-282.678 0-512-229.322-512-512s229.322-512 512-512z"/>
</svg>
