<svg xmlns="http://www.w3.org/2000/svg" xml:space="preserve" width="1168px" height="1024px" version="1.1"
     viewBox="0 0 1168 1024">
 <path class="fil0" d="M889.148 146.545v32.881c0 8.905 2.055 16.44 5.48 23.29 4.11 7.535 9.59 13.7 16.44 17.81l189.749 123.303c23.29 15.070 40.416 34.936 51.376 56.856 11.645 23.29 17.125 48.636 15.755 73.982-1.37 24.661-9.59 49.321-23.29 71.241v0c-13.7 21.235-32.881 39.046-57.541 51.376l-54.801 27.401c-7.535 3.425-13.7 8.905-18.495 15.755s-7.535 15.070-8.22 23.29l-18.495 188.379c-1.37 18.495-6.85 36.306-14.385 52.061-13.7 26.716-34.936 47.951-60.281 62.336-24.661 13.7-54.801 20.55-84.257 17.81-17.81-2.055-34.936-6.85-51.376-15.070l-89.052-44.526c-6.85-2.74-13.7-4.795-20.55-4.795-6.85-0.685-13.7 0.685-20.55 3.425l-213.724 89.737c-18.495 7.535-37.676 10.96-56.171 10.96-29.456 0-57.541-8.905-80.832-24.661-23.975-15.755-43.156-38.361-54.116-65.076-7.535-17.81-11.645-36.306-11.645-56.856v-57.541c0-8.22-2.055-15.755-5.48-22.605s-8.905-13.015-15.755-17.81l-143.853-96.587c-23.29-15.755-39.731-35.621-50.691-58.226-10.96-23.29-15.755-49.321-13.7-73.982 1.37-24.661 9.59-49.321 23.975-71.241 14.385-20.55 33.566-38.361 58.911-50.006l14.385-7.535c8.22-3.425 14.385-8.905 19.18-15.755s8.22-15.070 8.905-23.29l18.495-206.874c2.055-19.865 7.535-38.361 15.755-54.801 13.7-26.031 34.936-46.581 59.596-60.281 25.346-13.7 54.116-19.865 82.887-17.125 18.495 1.37 37.676 6.85 54.801 15.755l74.667 39.046c6.165 3.425 13.015 5.48 19.865 5.48 7.535 0 14.385-0.685 21.235-4.11l213.039-88.367c18.495-8.22 37.676-11.645 56.171-11.645 29.456 0 57.541 8.905 80.832 24.661 23.975 15.755 43.156 38.361 54.116 65.076 7.535 17.81 11.645 36.991 11.645 56.856zM791.191 179.426v-32.881c0-6.85-1.37-13.7-3.425-19.18-4.11-8.905-10.275-16.44-17.81-21.235-8.22-5.48-17.81-8.905-27.401-8.905-6.165 0-13.015 1.37-19.18 4.11l-212.354 89.052c-19.865 8.22-41.786 11.645-63.021 10.96s-41.786-6.85-60.966-16.44l-73.982-39.046c-6.165-3.425-12.33-4.795-18.495-5.48-9.59-0.685-19.18 1.37-28.086 5.48-8.22 4.795-15.070 11.645-19.865 20.55-2.74 5.48-4.795 11.645-5.48 18.495l-18.495 206.189c-2.055 26.031-10.96 50.006-25.346 70.556s-33.566 37.676-56.856 48.636l-15.070 6.85c-8.905 4.11-15.070 10.275-19.865 16.44-4.795 7.535-7.535 15.755-8.22 23.975 0 8.905 1.37 17.81 4.795 25.346 3.425 6.85 8.905 13.7 17.125 19.18l143.853 96.587c20.55 13.7 36.306 32.196 47.266 52.746 11.645 21.235 17.81 44.526 17.81 68.501v57.541c0 7.535 1.37 13.7 3.425 19.18 3.425 8.905 10.275 16.44 17.81 21.92 8.22 4.795 17.125 8.22 27.401 8.22 6.165 0 12.33-1.37 19.18-4.11l213.724-89.052c19.18-8.22 40.416-11.645 60.966-10.96 21.235 0.685 41.786 5.48 60.281 15.070l89.052 44.526c6.165 2.74 11.645 4.795 17.125 4.795 10.275 1.37 19.865-1.37 28.086-5.48 8.905-4.795 15.755-12.33 20.55-21.235 2.74-4.795 4.11-10.96 4.795-17.125l17.81-189.064c2.74-24.661 11.645-48.636 25.346-68.501s32.196-36.991 54.801-47.951l54.801-27.401c8.905-4.795 15.070-10.275 19.18-17.125 4.795-7.535 7.535-15.755 8.22-23.975 0-8.905-1.37-17.125-5.48-24.661-3.425-7.535-8.905-14.385-17.125-19.18l-189.749-122.618c-20.55-13.7-37.676-32.196-49.321-53.431s-17.81-45.211-17.81-69.871z"/>
</svg>
