<svg xmlns="http://www.w3.org/2000/svg" xml:space="preserve" width="1024px" height="1024px" version="1.1"
     viewBox="0 0 1024 1024" xmlns:xlink="http://www.w3.org/1999/xlink">
 <path d="M273.92 560.64l3.84 6.4 157.44 171.52c3.84 3.84 8.96 6.4 14.080 6.4 6.4 0 10.24-2.56 14.080-6.4l325.12-340.48c7.68-7.68 7.68-20.48 0-28.16l-29.44-28.16c-7.68-8.96-19.2-8.96-28.16 0h-1.28l-271.36 284.16c-5.12 3.84-10.24 3.84-14.080 0l-112.64-120.32-1.28-2.56c-7.68-7.68-20.48-7.68-28.16 0l-28.16 29.44c-5.12 3.84-6.4 10.24-6.4 14.080s1.28 10.24 6.4 14.080zM512 0c282.88 0 512 229.12 512 512s-229.12 512-512 512c-282.88 0-512-229.12-512-512s229.12-512 512-512z"/>
</svg>
