<?xml version="1.0" encoding="UTF-8" standalone="no"?>
<svg
  xmlns="http://www.w3.org/2000/svg"
  width="570px"
  height="189px"
  viewBox="0 0 570 189"
  fill="none"
  version="1.1">
  <path
    d="m 412.94715,61.680283 v 22.881892 h -1.81734 c -2.31297,-2.97382 -6.11285,-5.534609 -12.72134,-5.534609 -11.48225,0 -18.25595,9.33449 -18.25595,21.890614 0,12.30831 6.7737,21.89062 18.25595,21.89062 6.60849,0 10.65619,-2.64339 12.96916,-5.53461 h 1.81734 v 4.46073 h 6.7737 V 61.680283 Z m -12.96916,55.015667 c -8.34322,0 -12.80395,-6.52588 -12.80395,-15.77777 0,-9.25188 4.46073,-15.777763 12.80395,-15.777763 9.25188,0 13.05176,7.599762 13.05176,15.777763 0,8.17801 -3.79988,15.77777 -13.05176,15.77777 z m 40.99328,-47.415905 v -7.599762 h -7.43455 v 7.599762 z m -0.24782,10.8214 h -7.02152 v 41.633475 h 7.02152 z m 41.95505,29.077345 c -1.07388,4.62595 -4.54333,7.51716 -10.49097,7.51716 -9.33449,0 -13.21698,-7.59976 -13.21698,-15.94298 0,-8.260609 3.79988,-15.612553 13.21698,-15.612553 5.69982,0 8.92146,2.808608 10.24315,7.021519 h 7.02152 c -1.4043,-7.682367 -7.35194,-13.13437 -17.26467,-13.13437 -12.96916,0 -20.2385,9.33449 -20.2385,21.890614 0,12.30831 7.26934,21.89062 20.2385,21.89062 9.66491,0 15.94297,-5.452 17.51249,-13.63001 z M 536.26921,98.44 c -0.24782,-10.243157 -6.19546,-19.412434 -18.58932,-19.412434 -12.63579,0 -20.07034,8.673641 -20.07034,21.477584 0,12.80395 7.26934,22.30365 20.2385,22.30365 10.32576,0 16.35601,-5.452 17.67771,-12.55613 h -7.10413 c -1.23909,3.9651 -4.70855,6.44328 -10.57358,6.44328 -8.59103,0 -13.05176,-5.94764 -13.29958,-15.86037 h 31.72074 z M 517.51763,85.140417 c 7.02152,0 11.06921,4.543336 11.48225,9.830127 H 504.9615 c 0.90867,-5.286791 5.03897,-9.830127 12.55613,-9.830127 z"
    id="path2"
    style="fill:#0f0b44;stroke-width:2.95021796"/>
  <path
    d="m 113.9393,113.45956 c -7.37407,0 -10.59541,-6.25859 -10.59541,-13.20341 0,-6.945989 3.22134,-13.11932 10.59541,-13.11932 7.12094,0 10.42637,5.830516 10.42637,13.11932 0,7.28734 -3.30543,13.20341 -10.42637,13.20341 z M 103.34389,82.249499 V 78.218321 H 91.900581 v 61.223809 h 11.867549 v -21.17961 h 2.20411 c 2.28848,3.08651 5.76413,5.14341 11.7811,5.14341 11.44478,0 18.47899,-9.68793 18.47899,-23.14977 0,-13.291328 -6.94983,-23.152137 -18.47899,-23.152137 -6.10252,0 -9.83219,2.144219 -12.20534,5.145476 z m 51.63825,40.041541 H 143.1143 V 59.954111 h 11.86784 z m 35.50676,-17.66237 v -2.74399 h -9.32269 c -5.08617,0 -8.1367,1.88607 -8.1367,5.91607 0,4.03029 2.87942,6.08807 7.71187,6.08807 5.76473,0 9.74752,-3.77186 9.74752,-9.26015 z m 0.51039,13.88992 h -2.20381 c -2.62865,3.0877 -6.44328,4.88734 -12.208,4.88734 -9.83308,0 -15.42669,-6.85867 -15.42669,-14.6617 0,-6.85955 4.83245,-14.662587 17.71606,-14.662587 h 11.61205 v -1.114297 c 0,-4.545696 -2.54308,-6.859552 -7.71187,-6.859552 -4.7469,0 -7.03627,1.715257 -7.37554,4.716514 h -11.78022 c 0.25077,-8.489253 8.05114,-13.720285 18.56277,-13.720285 11.78022,0 19.74876,4.715334 19.74876,16.549839 v 28.638948 h -10.93351 z m 36.20508,-32.154717 c 3.81463,0 6.44327,0.943775 7.03627,3.945031 h 11.78317 c -0.93522,-7.888588 -7.54666,-13.204881 -18.48017,-13.204881 -12.8836,0 -18.56277,6.258593 -18.56277,13.805546 0,7.544888 4.82951,10.889841 11.69762,12.175841 l 8.47597,1.37156 c 4.32207,0.77178 6.27217,1.88578 6.27217,4.88822 0,3.17207 -2.79681,4.80059 -7.54371,4.80059 -5.00062,0 -8.05115,-1.71496 -8.64709,-5.74525 h -11.78022 c 0.92932,9.17576 7.28999,15.0054 20.51286,15.0054 12.79805,0 19.32393,-6.94393 19.32393,-14.31889 0,-8.83088 -5.67917,-12.862358 -13.89847,-14.148358 l -7.88299,-1.199559 c -2.96792,-0.599779 -4.66429,-1.200739 -4.66429,-3.601036 0,-2.658737 2.7142,-3.774214 6.35772,-3.774214 z m 91.32105,8.147027 v 27.78161 H 306.65669 V 96.825641 c 0,-5.830516 -1.86454,-9.087852 -6.61144,-9.087852 -5.42545,0 -7.96854,4.199636 -7.96854,9.944891 v 24.60983 H 280.21094 V 96.825641 c 0,-5.745255 -1.86454,-9.087852 -6.61144,-9.087852 -5.67917,0 -8.0541,4.971413 -8.0541,10.88955 V 122.29251 H 253.67962 V 78.218321 h 11.44095 v 4.031178 h 2.20676 c 2.11826,-3.430219 5.76178,-5.145476 10.84796,-5.145476 5.17173,0 8.81525,1.715257 11.10462,5.145476 h 2.20381 c 2.54309,-3.430219 6.52883,-5.145476 11.86873,-5.145476 10.42312,0 15.17297,6.774291 15.17297,17.406877 z m 35.1666,7.37378 v 2.74399 c 0,5.48829 -3.98575,9.26015 -9.74752,9.26015 -4.83246,0 -7.71482,-2.05778 -7.71482,-6.08807 0,-4.03 3.05347,-5.91608 8.1367,-5.91608 z m -1.69638,16.63391 h 2.20381 v 3.77422 h 10.93646 V 93.653862 c 0,-11.834505 -7.96854,-16.549839 -19.75171,-16.549839 -10.51162,0 -18.30905,5.231032 -18.56277,13.720285 h 11.78317 c 0.33633,-3.001257 2.6257,-4.716514 7.3726,-4.716514 5.16878,0 7.71482,2.313856 7.71482,6.859552 v 1.114297 h -11.61206 c -12.88655,0 -17.71606,7.803037 -17.71606,14.662587 0,7.80303 5.59361,14.6617 15.42669,14.6617 5.76178,0 9.57641,-1.79964 12.20505,-4.88734 z"
    id="path4"
    style="clip-rule:evenodd;fill:#0e0947;fill-rule:evenodd;stroke-width:2.95021796"/>
  <path
    d="m 75.01737,61.261647 c 0,8.960993 -7.265502,16.22561 -16.2262,16.22561 -8.961877,0 -16.226199,-7.264617 -16.226199,-16.22561 0,-8.962172 7.264322,-16.226789 16.226199,-16.226789 8.960698,0 16.2262,7.264617 16.2262,16.226789 z"
    id="path6"
    style="clip-rule:evenodd;fill:#fe453d;fill-rule:evenodd;stroke-width:2.95021796"/>
</svg>
