<?xml version="1.0" standalone="no"?>
<!DOCTYPE svg PUBLIC "-//W3C//DTD SVG 1.1//EN" "http://www.w3.org/Graphics/SVG/1.1/DTD/svg11.dtd" >
<svg xmlns="http://www.w3.org/2000/svg" xmlns:xlink="http://www.w3.org/1999/xlink" version="1.1">
<metadata>
Created by FontForge 20170910 at Thu Apr 17 09:59:03 2014
 By Jimmy Wärting
Copyright \(c\) 2014 by Vyacheslav Kirilenko, Gayane Bagdasaryan. All rights reserved.
</metadata>
<defs>
<font id="Formular-BlackItalic" horiz-adv-x="609" >
  <font-face 
    font-family="Formular"
    font-weight="900"
    font-style="italic"
    font-stretch="normal"
    units-per-em="1000"
    panose-1="2 0 0 0 0 0 0 0 0 0"
    ascent="800"
    descent="-200"
    x-height="520"
    cap-height="714"
    bbox="-110 -240 1479 983"
    underline-thickness="50"
    underline-position="-100"
    slope="-10"
    unicode-range="U+000D-FEFF"
  />
<missing-glyph horiz-adv-x="510" 
d="M104 0v714h412v-714h-412zM180 70h260v574h-260v-574z" />
    <glyph glyph-name="fi" unicode="fi" horiz-adv-x="719" 
d="M453 378h-122l-66 -378h-174l66 378h-68l25 142h68l7 32c27 137 111 175 233 175h93l-26 -142h-71c-39 0 -55 -24 -59 -48l-3 -17h122zM604 727h174l-26 -145h-174zM567 520h174l-91 -520h-174z" />
    <glyph glyph-name="fl" unicode="fl" horiz-adv-x="719" 
d="M453 378h-122l-66 -378h-174l66 378h-68l25 142h68l7 32c27 137 111 175 233 175h93l-26 -142h-71c-39 0 -55 -24 -59 -48l-3 -17h122zM604 727h174l-128 -727h-174z" />
    <glyph glyph-name=".notdef" horiz-adv-x="510" 
d="M104 0v714h412v-714h-412zM180 70h260v574h-260v-574z" />
    <glyph glyph-name="NULL" horiz-adv-x="0" 
 />
    <glyph glyph-name="NULL" horiz-adv-x="0" 
 />
    <glyph glyph-name="CR" unicode="&#xd;" horiz-adv-x="278" 
 />
    <glyph glyph-name="space" unicode=" " horiz-adv-x="278" 
 />
    <glyph glyph-name="exclam" unicode="!" horiz-adv-x="364" 
d="M220 714h174l-50 -287l-67 -196h-110l3 196zM274 0h-184l30 174h184z" />
    <glyph glyph-name="quotedbl" unicode="&#x22;" horiz-adv-x="515" 
d="M142 407l54 307h154l-54 -307h-154zM364 407l54 307h154l-54 -307h-154z" />
    <glyph glyph-name="numbersign" unicode="#" horiz-adv-x="669" 
d="M386 0l27 172h-99l-27 -172h-133l27 172h-95v128h116l16 100h-102v128h122l28 172h131l-27 -172h100l28 172h131l-27 -172h95v-128h-116l-15 -100h101v-128h-121l-27 -172h-133zM349 400l-15 -100h100l16 100h-101z" />
    <glyph glyph-name="dollar" unicode="$" horiz-adv-x="670" 
d="M684 496h-175c-3 33 -21 54 -46 62l-23 -129l57 -16c88 -27 159 -76 159 -191c0 -140 -124 -235 -288 -235h-7l-15 -85h-69l16 91c-135 23 -211 106 -211 238h175c1 -51 28 -76 63 -84l25 144l-54 17c-108 34 -144 105 -144 182c0 132 99 224 273 224l15 84h71l-16 -91
c116 -22 194 -91 194 -211zM476 209c0 35 -23 51 -64 63l-24 -133c44 0 88 19 88 70zM323 502c0 -31 19 -43 50 -54l21 118c-40 -3 -71 -25 -71 -64z" />
    <glyph glyph-name="percent" unicode="%" horiz-adv-x="907" 
d="M300 0h-117l547 700h116zM310 714c96 0 158 -60 158 -156c0 -108 -57 -222 -189 -222c-96 0 -157 60 -157 156c0 108 57 222 188 222zM284 430c57 0 75 72 75 125c0 36 -14 65 -53 65c-57 0 -75 -72 -75 -125c0 -36 14 -65 53 -65zM750 365c96 0 158 -60 158 -156
c0 -108 -57 -222 -189 -222c-96 0 -157 60 -157 156c0 108 57 222 188 222zM724 81c57 0 75 72 75 125c0 36 -14 65 -53 65c-57 0 -75 -72 -75 -125c0 -36 14 -65 53 -65z" />
    <glyph glyph-name="ampersand" unicode="&#x26;" horiz-adv-x="786" 
d="M604 368h166c-23 -88 -70 -167 -123 -227l119 -141h-195l-29 36h-28c-59 -33 -119 -49 -180 -49c-147 0 -248 76 -248 200c0 120 85 172 138 199l4 2v28c-27 37 -38 68 -38 115c0 115 99 183 208 183c120 0 206 -62 206 -168c0 -79 -53 -139 -140 -183l86 -108
c28 33 47 76 54 113zM349 135c33 0 60 7 91 26l-110 134l-19 -9c-35 -17 -54 -42 -54 -78c0 -43 32 -73 92 -73zM342 537c0 -29 15 -47 31 -67l9 -11c49 27 72 46 72 81c0 29 -21 51 -54 51s-58 -21 -58 -54z" />
    <glyph glyph-name="quotesingle" unicode="'" horiz-adv-x="293" 
d="M142 407l54 307h154l-54 -307h-154z" />
    <glyph glyph-name="parenleft" unicode="(" horiz-adv-x="354" 
d="M322 -141h-141c-51 80 -92 190 -92 349c0 220 97 410 249 551h149c-143 -170 -251 -326 -251 -560c0 -146 45 -256 86 -340z" />
    <glyph glyph-name="parenright" unicode=")" horiz-adv-x="354" 
d="M141 759h141c51 -80 92 -190 92 -349c0 -220 -97 -410 -249 -551h-149c143 170 251 326 251 560c0 146 -45 256 -86 340z" />
    <glyph glyph-name="asterisk" unicode="*" horiz-adv-x="511" 
d="M575 503l-157 -40l74 -120l-100 -67l-62 128l-107 -128l-87 71l117 120l-139 40l50 108l136 -53l20 152h117l-34 -152l147 53z" />
    <glyph glyph-name="plus" unicode="+" horiz-adv-x="667" 
d="M305 366v186h146v-186h187v-147h-187v-186h-146v186h-186v147h186z" />
    <glyph glyph-name="comma" unicode="," horiz-adv-x="314" 
d="M244 -28l-113 -130h-105l113 130l5 28h-79l30 174h184z" />
    <glyph glyph-name="hyphen" unicode="-" horiz-adv-x="413" 
d="M405 212h-323l27 149h322z" />
    <glyph glyph-name="period" unicode="." horiz-adv-x="314" 
d="M249 0h-184l30 174h184z" />
    <glyph glyph-name="slash" unicode="/" horiz-adv-x="459" 
d="M111 -141h-139l460 900h137z" />
    <glyph glyph-name="zero" unicode="0" horiz-adv-x="664" 
d="M682 441c0 -256 -127 -454 -327 -454c-128 0 -252 77 -252 273c0 256 127 454 327 454c128 0 252 -77 252 -273zM282 252c0 -72 32 -108 81 -108c99 0 140 177 140 305c0 72 -32 108 -81 108c-99 0 -140 -177 -140 -305z" />
    <glyph glyph-name="one" unicode="1" horiz-adv-x="548" 
d="M406 154h139l-27 -154h-469l27 154h153l65 371h-28l-140 -87l30 174l140 88h206z" />
    <glyph glyph-name="two" unicode="2" horiz-adv-x="619" 
d="M609 154l-27 -154h-535l30 182l230 137c96 57 146 108 146 169c0 52 -38 72 -73 72c-49 0 -84 -26 -91 -82h-178c23 148 121 236 282 236c138 0 239 -75 239 -207c0 -167 -146 -250 -277 -325l-4 -28h258z" />
    <glyph glyph-name="three" unicode="3" horiz-adv-x="626" 
d="M186 700h472l-31 -176l-123 -71l-5 -28c77 -23 124 -78 124 -181c0 -150 -127 -257 -291 -257c-168 0 -266 93 -266 236h179c4 -53 40 -83 95 -83c64 0 104 44 104 99c0 57 -38 88 -97 88c-20 0 -40 -2 -59 -7l24 133l123 71l5 28h-280z" />
    <glyph glyph-name="four" unicode="4" horiz-adv-x="645" 
d="M580 295h82l-27 -152h-82l-25 -143h-171l25 143h-323l32 180l368 377h192zM244 295h172l36 206h-28l-175 -178z" />
    <glyph glyph-name="five" unicode="5" horiz-adv-x="642" 
d="M448 480c112 0 193 -76 193 -212c0 -171 -133 -281 -285 -281c-174 0 -269 101 -269 236h179c3 -51 34 -83 93 -83c63 0 103 49 103 113s-41 91 -88 91c-40 0 -65 -13 -92 -44h-163l102 400h449l-26 -147h-313l-26 -110h28c20 17 51 37 115 37z" />
    <glyph glyph-name="six" unicode="6" horiz-adv-x="647" 
d="M449 467c109 0 204 -77 204 -205c0 -144 -114 -275 -282 -275c-159 0 -268 89 -268 281c0 257 131 446 326 446c174 0 244 -111 252 -197h-178c-4 25 -20 54 -76 54c-53 0 -113 -44 -132 -149h28c20 18 55 45 126 45zM474 251c0 57 -41 86 -89 86
c-56 0 -102 -45 -102 -113c0 -64 35 -93 91 -93c65 0 100 57 100 120z" />
    <glyph glyph-name="seven" unicode="7" horiz-adv-x="585" 
d="M632 519l-354 -519h-186l354 519l6 28h-311l27 153h497z" />
    <glyph glyph-name="eight" unicode="8" horiz-adv-x="654" 
d="M570 375l-5 -28c41 -22 81 -57 81 -137c0 -123 -99 -223 -287 -223c-191 0 -280 91 -280 204c0 108 83 159 128 175l6 28c-31 23 -59 61 -59 121c0 104 95 199 263 199s253 -84 253 -185c0 -88 -57 -138 -100 -154zM326 497c0 -49 40 -73 81 -73c49 0 89 30 89 82
c0 47 -41 72 -81 72c-49 0 -89 -32 -89 -81zM263 211c0 -53 46 -82 99 -82c61 0 105 35 105 91s-47 84 -100 84c-60 0 -104 -34 -104 -93z" />
    <glyph glyph-name="nine" unicode="9" horiz-adv-x="646" 
d="M319 234c-109 0 -204 77 -204 205c0 144 114 275 282 275c159 0 268 -89 268 -281c0 -257 -131 -446 -326 -446c-174 0 -244 111 -252 197h178c4 -25 20 -54 76 -54c53 0 113 44 132 149h-28c-20 -18 -55 -45 -126 -45zM294 450c0 -57 41 -86 89 -86c56 0 102 45 102 113
c0 64 -35 93 -91 93c-65 0 -100 -57 -100 -120z" />
    <glyph glyph-name="colon" unicode=":" horiz-adv-x="314" 
d="M249 0h-184l30 174h184zM310 346h-184l30 174h184z" />
    <glyph glyph-name="semicolon" unicode=";" horiz-adv-x="314" 
d="M244 -28l-113 -130h-105l113 130l5 28h-79l30 174h184zM310 346h-184l30 174h184z" />
    <glyph glyph-name="less" unicode="&#x3c;" horiz-adv-x="653" 
d="M624 158v-153l-505 230v114l505 230v-152l-270 -121v-28z" />
    <glyph glyph-name="equal" unicode="=" horiz-adv-x="667" 
d="M638 261v-147h-519v147h519zM638 471v-147h-519v147h519z" />
    <glyph glyph-name="greater" unicode="&#x3e;" horiz-adv-x="653" 
d="M119 5v153l270 120v28l-270 121v152l505 -230v-114z" />
    <glyph glyph-name="question" unicode="?" horiz-adv-x="592" 
d="M390 727c163 0 248 -90 248 -191c0 -115 -81 -162 -153 -202c-51 -31 -69 -51 -76 -80l-5 -23h-177l5 25c14 76 47 112 115 155c56 35 110 49 110 104c0 35 -30 58 -74 58c-55 0 -92 -32 -95 -88h-176c11 127 101 242 278 242zM368 0h-183l30 174h183z" />
    <glyph glyph-name="at" unicode="@" horiz-adv-x="973" 
d="M776 451l-43 -255c-3 -11 -4 -29 -4 -40c0 -40 19 -54 52 -54c51 0 123 52 123 218c0 180 -129 313 -345 313c-225 0 -396 -166 -396 -423c0 -174 101 -339 339 -339c88 0 166 26 231 70l31 -54c-75 -49 -162 -77 -267 -77c-245 0 -403 162 -403 398
c0 277 189 486 473 486c220 0 406 -144 406 -373c0 -165 -77 -290 -228 -290c-76 0 -117 25 -136 64h-17c-23 -33 -65 -64 -128 -64c-103 0 -161 69 -161 182c0 132 85 252 212 252c53 0 85 -24 98 -47h17l8 33h138zM509 135c56 0 92 68 92 142c0 69 -32 85 -60 85
c-55 0 -90 -68 -90 -142c0 -68 30 -85 58 -85z" />
    <glyph glyph-name="A" unicode="A" horiz-adv-x="739" 
d="M635 714l87 -714h-184l-19 185h-239l-83 -185h-180l338 714h280zM439 538l-93 -207h158l-21 207h-44z" />
    <glyph glyph-name="B" unicode="B" horiz-adv-x="741" 
d="M655 384l-5 -28c41 -21 73 -72 73 -140c0 -141 -109 -216 -264 -216h-382l125 714h331c138 0 219 -70 219 -169c0 -92 -46 -142 -97 -161zM494 564h-132l-22 -123h135c45 0 80 21 80 72c0 35 -28 51 -61 51zM458 291h-144l-25 -138h147c51 0 90 25 90 81
c0 39 -31 57 -68 57z" />
    <glyph glyph-name="C" unicode="C" horiz-adv-x="760" 
d="M565 243h191c-24 -154 -154 -256 -333 -256s-315 111 -315 316c0 244 152 424 387 424c156 0 268 -90 284 -234h-190c-11 47 -46 70 -107 70c-112 0 -183 -117 -183 -252c0 -104 53 -160 137 -160c65 0 116 33 129 92z" />
    <glyph glyph-name="D" unicode="D" horiz-adv-x="766" 
d="M202 714h251c204 0 332 -92 332 -296c0 -222 -128 -418 -392 -418h-316zM291 164h99c168 0 205 147 205 239c0 103 -65 147 -156 147h-79z" />
    <glyph glyph-name="E" unicode="E" horiz-adv-x="672" 
d="M587 284h-274l-22 -120h368l-28 -164h-554l125 714h545l-29 -164h-359l-18 -106h274z" />
    <glyph glyph-name="F" unicode="F" horiz-adv-x="656" 
d="M338 428h277l-28 -160h-277l-47 -268h-186l125 714h543l-29 -164h-357z" />
    <glyph glyph-name="G" unicode="G" horiz-adv-x="781" 
d="M477 408h318c-8 -233 -116 -421 -366 -421c-185 0 -321 113 -321 316c0 249 150 424 391 424c158 0 272 -85 288 -229h-191c-12 43 -47 65 -106 65c-120 0 -191 -109 -191 -252c0 -104 52 -163 145 -163c80 0 124 48 139 113h-131z" />
    <glyph glyph-name="H" unicode="H" horiz-adv-x="788" 
d="M650 714h186l-125 -714h-186l49 283h-262l-49 -283h-186l125 714h186l-46 -264h262z" />
    <glyph glyph-name="I" unicode="I" horiz-adv-x="350" 
d="M393 714l-125 -714h-186l125 714h186z" />
    <glyph glyph-name="J" unicode="J" horiz-adv-x="614" 
d="M297 -13c-135 0 -237 70 -237 197c0 16 1 33 4 50h184c-1 -8 -2 -15 -2 -22c0 -41 22 -61 66 -61c48 0 74 38 85 99l81 464h186l-83 -476c-28 -161 -127 -251 -284 -251z" />
    <glyph glyph-name="K" unicode="K" horiz-adv-x="772" 
d="M301 220l-38 -220h-186l125 714h186l-45 -260l290 260h211l-239 -219l147 -495h-193l-104 329h-28z" />
    <glyph glyph-name="L" unicode="L" horiz-adv-x="666" 
d="M291 164h362l-28 -164h-548l125 714h186z" />
    <glyph glyph-name="M" unicode="M" horiz-adv-x="893" 
d="M660 714h281l-125 -714h-171l85 483h-28l-126 -257h-180l-35 257h-28l-85 -483h-171l125 714h273l33 -259h28z" />
    <glyph glyph-name="N" unicode="N" horiz-adv-x="790" 
d="M671 714h167l-125 -714h-217l-151 415h-28l-73 -415h-167l125 714h217l151 -415h28z" />
    <glyph glyph-name="O" unicode="O" horiz-adv-x="806" 
d="M502 727c184 0 323 -111 323 -315c0 -244 -149 -425 -394 -425c-184 0 -323 113 -323 316c0 243 149 424 394 424zM443 151c122 0 192 121 192 253c0 104 -54 159 -145 159c-122 0 -192 -119 -192 -252c0 -104 54 -160 145 -160z" />
    <glyph glyph-name="P" unicode="P" horiz-adv-x="729" 
d="M202 714h332c131 0 233 -75 233 -211c0 -152 -104 -263 -308 -263h-154l-42 -240h-186zM501 552h-141l-27 -153h144c57 0 100 26 100 89c0 43 -35 64 -76 64z" />
    <glyph glyph-name="Q" unicode="Q" horiz-adv-x="806" 
d="M502 727c184 0 323 -111 323 -315c0 -165 -67 -299 -186 -371l49 -124h-156l-29 76c-23 -3 -47 -6 -72 -6c-184 0 -323 113 -323 316c0 243 149 424 394 424zM443 151l-71 188h151l49 -127c41 47 63 116 63 192c0 104 -54 159 -145 159c-122 0 -192 -119 -192 -252
c0 -104 54 -160 145 -160z" />
    <glyph glyph-name="R" unicode="R" horiz-adv-x="737" 
d="M202 714h337c127 0 227 -73 227 -206c0 -99 -43 -178 -131 -222l52 -286h-182l-45 251h-153l-44 -251h-186zM506 553h-146l-26 -143h151c53 0 92 24 92 83c0 41 -32 60 -71 60z" />
    <glyph glyph-name="S" unicode="S" horiz-adv-x="709" 
d="M723 508h-189c-4 48 -50 64 -102 64c-48 0 -93 -19 -93 -62c0 -35 24 -44 59 -55l126 -35c96 -27 170 -77 170 -194c0 -141 -132 -239 -308 -239c-192 0 -304 88 -304 243h189c3 -69 62 -88 126 -88c48 0 105 15 105 71c0 35 -25 52 -69 64l-128 36
c-117 32 -154 107 -154 186c0 133 107 228 288 228c163 0 284 -76 284 -219z" />
    <glyph glyph-name="T" unicode="T" horiz-adv-x="640" 
d="M751 714l-29 -164h-213l-96 -550h-185l96 550h-212l29 164h610z" />
    <glyph glyph-name="U" unicode="U" horiz-adv-x="769" 
d="M634 714h185l-78 -447c-32 -181 -143 -280 -336 -280c-176 0 -286 85 -286 229c0 17 2 39 5 58l76 440h185l-76 -426c-3 -11 -4 -29 -4 -38c0 -63 42 -99 110 -99c80 0 129 48 141 120z" />
    <glyph glyph-name="V" unicode="V" horiz-adv-x="726" 
d="M216 0l-73 714h186l41 -538h44l228 538h193l-321 -714h-298z" />
    <glyph glyph-name="W" unicode="W" horiz-adv-x="955" 
d="M853 714h177l-206 -714h-262l-10 344h-28l-131 -344h-262l44 714h169l-34 -490h28l114 290h222l13 -290h28z" />
    <glyph glyph-name="X" unicode="X" horiz-adv-x="719" 
d="M506 0l-78 276h-28l-176 -276h-206l249 374l-99 340h181l73 -248h28l163 248h192l-223 -337l119 -377h-195z" />
    <glyph glyph-name="Y" unicode="Y" horiz-adv-x="698" 
d="M410 454h28l175 260h198l-326 -471l-42 -243h-186l43 244l-161 470h186z" />
    <glyph glyph-name="Z" unicode="Z" horiz-adv-x="676" 
d="M743 714l-33 -191l-397 -331l-5 -28h355l-28 -164h-594l33 191l398 331l5 28h-312l29 164h549z" />
    <glyph glyph-name="bracketleft" unicode="[" horiz-adv-x="415" 
d="M341 -141h-300l158 900h301l-22 -125h-155l-115 -650h155z" />
    <glyph glyph-name="backslash" unicode="\" horiz-adv-x="423" 
d="M423 -141h-124l-141 900h121z" />
    <glyph glyph-name="bracketright" unicode="]" horiz-adv-x="415" 
d="M184 759h300l-158 -900h-301l22 125h155l115 650h-155z" />
    <glyph glyph-name="asciicircum" unicode="^" horiz-adv-x="614" 
d="M247 260h-165l294 434h107l140 -434h-157l-61 196h-28z" />
    <glyph glyph-name="underscore" unicode="_" horiz-adv-x="517" 
d="M488 -166h-518l19 107h518z" />
    <glyph glyph-name="grave" unicode="`" horiz-adv-x="354" 
d="M414 582h-148l-96 145h174z" />
    <glyph glyph-name="a" unicode="a" horiz-adv-x="607" 
d="M375 533c131 0 227 -52 227 -165c0 -15 -2 -31 -5 -50l-55 -318h-159l7 40h-28c-27 -31 -66 -53 -133 -53c-95 0 -165 64 -165 159c0 140 110 189 249 189h121c0 4 0 7 1 10c1 7 2 12 2 16c0 35 -27 49 -64 49c-44 0 -64 -16 -71 -45h-174c15 104 110 168 247 168z
M411 205l5 31h-82c-48 0 -91 -16 -91 -68c0 -29 21 -53 64 -53c56 0 95 39 104 90z" />
    <glyph glyph-name="b" unicode="b" horiz-adv-x="657" 
d="M409 -13c-64 0 -115 25 -136 60h-28l-8 -47h-168l128 727h174l-44 -250h28c23 32 62 56 119 56c120 0 188 -99 188 -229c0 -168 -97 -317 -253 -317zM372 127c73 0 112 81 112 164c0 64 -26 102 -82 102c-80 0 -118 -87 -118 -163c0 -64 32 -103 88 -103z" />
    <glyph glyph-name="c" unicode="c" 
d="M428 186h171c-19 -119 -113 -199 -263 -199c-139 0 -249 84 -249 236c0 181 108 310 300 310c124 0 219 -73 227 -189h-171c-4 28 -27 47 -66 47c-76 0 -116 -78 -116 -161c0 -64 30 -101 86 -101c41 0 70 22 81 57z" />
    <glyph glyph-name="d" unicode="d" horiz-adv-x="656" 
d="M335 533c64 0 112 -25 133 -60h28l45 254h174l-128 -727h-168l8 43h-28c-25 -33 -67 -56 -124 -56c-120 0 -188 98 -188 229c0 168 95 317 248 317zM377 393c-73 0 -112 -81 -112 -164c0 -64 26 -102 82 -102c80 0 118 87 118 163c0 64 -32 103 -88 103z" />
    <glyph glyph-name="e" unicode="e" 
d="M422 168h176c-23 -115 -117 -181 -262 -181c-139 0 -249 84 -249 236c0 181 107 310 292 310c113 0 236 -68 236 -228c0 -21 -2 -43 -6 -68h-351v-7c0 -64 33 -101 90 -101c35 0 62 12 74 39zM372 409c-47 0 -79 -23 -97 -68h167v4c0 35 -26 64 -70 64z" />
    <glyph glyph-name="f" unicode="f" horiz-adv-x="416" 
d="M453 378h-122l-66 -378h-174l66 378h-68l25 142h68l7 32c27 137 111 175 233 175h93l-26 -142h-71c-39 0 -55 -24 -59 -48l-3 -17h122z" />
    <glyph glyph-name="g" unicode="g" horiz-adv-x="653" 
d="M508 520h167l-87 -495c-27 -150 -136 -238 -291 -238c-137 0 -241 61 -241 184h171c3 -33 35 -53 79 -53c72 0 99 59 110 124l4 21h-25c-23 -31 -64 -52 -120 -52c-119 0 -187 94 -187 218c0 164 96 304 252 304c67 0 113 -29 132 -60h28zM352 151c74 0 113 72 113 144
c0 60 -40 98 -91 98c-67 0 -111 -69 -111 -146c0 -59 38 -96 89 -96z" />
    <glyph glyph-name="h" unicode="h" horiz-adv-x="652" 
d="M489 533c104 0 158 -73 158 -168c0 -17 -3 -41 -6 -60l-52 -305h-174l48 275c3 11 4 27 4 38c0 43 -21 68 -68 68c-52 0 -95 -35 -108 -107l-48 -274h-174l128 727h174l-44 -250h28c33 37 74 56 134 56z" />
    <glyph glyph-name="i" unicode="i" horiz-adv-x="312" 
d="M197 727h174l-26 -145h-174zM160 520h174l-91 -520h-174z" />
    <glyph glyph-name="j" unicode="j" horiz-adv-x="322" 
d="M80 6l90 514h174l-95 -541c-27 -147 -129 -179 -243 -179h-71l25 142h46c44 0 67 27 74 64zM207 727h174l-26 -145h-174z" />
    <glyph glyph-name="k" unicode="k" horiz-adv-x="624" 
d="M614 0h-174l-66 221h-28l-77 -69l-26 -152h-174l128 727h174l-66 -375l183 168h195l-173 -161z" />
    <glyph glyph-name="l" unicode="l" horiz-adv-x="312" 
d="M197 727h174l-128 -727h-174z" />
    <glyph glyph-name="m" unicode="m" horiz-adv-x="935" 
d="M770 533c110 0 160 -71 160 -164c0 -19 -2 -43 -5 -60l-53 -309h-174l51 295c2 10 3 20 3 29c0 36 -17 57 -56 57c-55 0 -81 -39 -90 -94l-49 -287h-174l25 148c13 75 27 147 26 148c1 8 3 19 3 28c0 36 -15 57 -54 57c-57 0 -80 -44 -91 -101l-49 -280h-174l91 520h168
l-8 -43h28c32 39 76 56 129 56c59 0 99 -19 119 -56h28c31 35 83 56 146 56z" />
    <glyph glyph-name="n" unicode="n" horiz-adv-x="652" 
d="M489 533c104 0 158 -73 158 -168c0 -17 -3 -41 -6 -60l-52 -305h-174l48 275c3 11 4 27 4 38c0 43 -21 68 -68 68c-52 0 -95 -35 -108 -107l-48 -274h-174l91 520h168l-7 -43h28c33 37 80 56 140 56z" />
    <glyph glyph-name="o" unicode="o" horiz-adv-x="635" 
d="M389 533c138 0 251 -87 251 -235c0 -181 -111 -311 -303 -311c-139 0 -250 84 -250 236c0 181 110 310 302 310zM348 129c76 0 121 80 121 162c0 64 -34 100 -91 100c-76 0 -120 -78 -120 -161c0 -64 34 -101 90 -101z" />
    <glyph glyph-name="p" unicode="p" horiz-adv-x="656" 
d="M413 -13c-64 0 -112 25 -133 60h-28l-44 -247h-174l127 720h168l-8 -43h28c25 33 67 56 124 56c120 0 188 -99 188 -229c0 -168 -95 -317 -248 -317zM371 127c73 0 112 81 112 164c0 64 -26 102 -82 102c-80 0 -118 -87 -118 -163c0 -64 32 -103 88 -103z" />
    <glyph glyph-name="q" unicode="q" horiz-adv-x="657" 
d="M340 533c64 0 112 -25 135 -60h28l8 47h168l-126 -720h-174l44 243h-28c-23 -32 -63 -56 -120 -56c-120 0 -188 98 -188 229c0 168 97 317 253 317zM377 393c-73 0 -112 -81 -112 -164c0 -64 26 -102 82 -102c80 0 118 87 118 163c0 64 -32 103 -88 103z" />
    <glyph glyph-name="r" unicode="r" horiz-adv-x="475" 
d="M543 520l-28 -161h-55c-112 0 -162 -49 -179 -145l-38 -214h-174l91 520h168l-10 -56h28c16 18 49 56 130 56h67z" />
    <glyph glyph-name="s" unicode="s" horiz-adv-x="565" 
d="M341 336l88 -25c88 -25 126 -74 126 -150c0 -108 -102 -174 -243 -174c-144 0 -241 63 -252 183h172c3 -35 31 -60 86 -60c39 0 64 16 64 43s-18 35 -61 47l-89 26c-83 24 -117 67 -117 135c0 104 89 170 228 170c121 0 217 -56 230 -159h-171c-5 25 -28 38 -60 38
c-36 0 -53 -14 -53 -37s20 -28 52 -37z" />
    <glyph glyph-name="t" unicode="t" horiz-adv-x="420" 
d="M114 520h68l25 140h174l-25 -140h102l-25 -142h-102l-33 -186c-1 -7 -2 -12 -2 -17c0 -21 15 -30 38 -30h58l-25 -145h-92c-99 0 -155 61 -155 138c0 13 2 37 5 49l32 191h-68z" />
    <glyph glyph-name="u" unicode="u" horiz-adv-x="652" 
d="M254 -13c-104 0 -158 73 -158 168c0 17 3 41 6 60l52 305h174l-48 -275c-3 -11 -4 -27 -4 -38c0 -43 21 -68 68 -68c52 0 95 35 108 107l48 274h174l-91 -520h-168l7 43h-28c-33 -37 -80 -56 -140 -56z" />
    <glyph glyph-name="v" unicode="v" horiz-adv-x="598" 
d="M152 0l-42 520h168l22 -372h43l147 372h180l-227 -520h-291z" />
    <glyph glyph-name="w" unicode="w" horiz-adv-x="780" 
d="M671 520h163l-159 -520h-199l-32 233h-28l-111 -233h-197l22 520h155l-22 -321h28l89 195h151l23 -195h27z" />
    <glyph glyph-name="x" unicode="x" horiz-adv-x="633" 
d="M425 0l-56 175h-37l-117 -175h-184l186 267l-81 253h171l49 -163h37l109 163h181l-172 -251l91 -269h-177z" />
    <glyph glyph-name="y" unicode="y" horiz-adv-x="625" 
d="M524 520h176l-440 -720h-174l156 260l-135 460h168l72 -252h27z" />
    <glyph glyph-name="z" unicode="z" horiz-adv-x="576" 
d="M574 350l-256 -180l-4 -28h236l-25 -142h-474l29 170l258 180l5 28h-210l25 142h446z" />
    <glyph glyph-name="braceleft" unicode="{" horiz-adv-x="450" 
d="M275 323l-4 -28c32 -11 56 -42 56 -90c0 -11 -1 -26 -4 -37l-14 -77c-3 -13 -5 -29 -5 -44c0 -44 21 -63 74 -63h37l-22 -125h-49c-117 0 -191 59 -191 151c0 15 2 41 5 53l14 79c3 11 4 27 4 36c0 43 -21 65 -64 65h-29l24 132h29c55 0 82 34 93 95l20 107
c21 112 92 182 241 182h61l-22 -125h-41c-67 0 -91 -39 -103 -110l-16 -89c-11 -64 -50 -99 -94 -112z" />
    <glyph glyph-name="bar" unicode="|" horiz-adv-x="282" 
d="M50 -141l158 900h134l-159 -900h-133z" />
    <glyph glyph-name="braceright" unicode="}" horiz-adv-x="450" 
d="M284 295l4 28c-32 11 -56 42 -56 90c0 11 1 26 4 37l14 77c3 13 5 29 5 44c0 44 -21 63 -74 63h-37l22 125h49c117 0 191 -59 191 -151c0 -15 -2 -41 -5 -53l-14 -79c-3 -11 -4 -27 -4 -36c0 -43 21 -65 64 -65h29l-24 -132h-29c-55 0 -82 -34 -93 -95l-20 -107
c-21 -112 -92 -182 -241 -182h-61l22 125h41c67 0 91 39 103 110l16 89c11 64 50 99 94 112z" />
    <glyph glyph-name="asciitilde" unicode="~" horiz-adv-x="672" 
d="M529 383h114c0 -135 -61 -195 -153 -195c-89 0 -155 81 -213 81c-25 0 -44 -19 -44 -66h-114c0 135 60 195 152 195c88 0 157 -81 213 -81c25 0 45 19 45 66z" />
    <glyph glyph-name="uni00A0" unicode="&#xa0;" horiz-adv-x="278" 
 />
    <glyph glyph-name="exclamdown" unicode="&#xa1;" horiz-adv-x="364" 
d="M233 -200h-174l52 293l67 196h110l-3 -196zM181 520h184l-30 -174h-184z" />
    <glyph glyph-name="cent" unicode="&#xa2;" 
d="M428 186h171c-16 -119 -114 -199 -263 -199h-5l-12 -67h-51l12 72c-111 18 -193 101 -193 231c0 179 104 305 289 310l12 67h51l-13 -70c104 -13 183 -84 188 -186h-171c-3 21 -18 39 -42 44l-45 -259c36 1 64 24 72 57zM261 230c0 -47 14 -82 45 -94l44 252
c-59 -11 -89 -86 -89 -158z" />
    <glyph glyph-name="sterling" unicode="&#xa3;" horiz-adv-x="662" 
d="M294 157h365l-27 -157h-594l27 157h15c56 0 77 29 86 80l5 29h-86l24 135h86l14 80c21 128 104 233 261 233c141 0 218 -79 218 -187c0 -13 -1 -26 -3 -40h-167c1 8 2 14 2 21c0 35 -25 53 -61 53c-43 0 -70 -21 -81 -84l-14 -76h221l-24 -135h-221l-2 -15
c-7 -39 -16 -50 -39 -66z" />
    <glyph glyph-name="currency" unicode="&#xa4;" horiz-adv-x="721" 
d="M119 496l73 73l68 -68c43 28 91 44 146 44s104 -16 145 -44l69 68l72 -73l-67 -69c27 -41 43 -91 43 -144c0 -55 -16 -103 -44 -146l68 -69l-72 -72l-69 67c-43 -28 -90 -44 -145 -44s-103 16 -146 44l-68 -67l-73 72l68 68c-28 43 -45 92 -45 147s16 102 44 145z
M406 117c88 0 157 72 157 165s-69 164 -157 164s-158 -71 -158 -164s70 -165 158 -165z" />
    <glyph glyph-name="yen" unicode="&#xa5;" horiz-adv-x="700" 
d="M149 403h91l-81 297h171l71 -297h28l174 297h182l-186 -297h92l-14 -77h-126l-34 -54h150l-13 -77h-185l-34 -195h-172l34 195h-185l13 77h151l-15 54h-126z" />
    <glyph glyph-name="brokenbar" unicode="&#xa6;" horiz-adv-x="282" 
d="M146 403l62 356h134l-62 -356h-134zM50 -141l62 356h134l-62 -356h-134z" />
    <glyph glyph-name="section" unicode="&#xa7;" horiz-adv-x="655" 
d="M99 265c0 91 75 134 114 144l5 27c-27 25 -36 58 -36 93c0 101 86 185 241 185c137 0 238 -63 241 -208h-158c-3 43 -26 73 -90 73c-49 0 -76 -20 -76 -51c0 -25 19 -41 59 -56l124 -46c92 -35 127 -81 127 -150c0 -92 -75 -134 -114 -144l-5 -27c27 -25 36 -63 36 -96
c0 -96 -87 -183 -242 -183c-137 0 -240 62 -240 208h157c0 -43 23 -73 90 -73c49 0 76 21 76 52c0 25 -19 41 -59 56l-124 46c-92 33 -126 81 -126 150zM445 303l-139 55c-27 -5 -50 -31 -50 -63c0 -31 12 -44 47 -57l139 -55c27 5 50 31 50 63c0 31 -12 44 -47 57z" />
    <glyph glyph-name="dieresis" unicode="&#xa8;" horiz-adv-x="425" 
d="M168 727h139l-26 -145h-139zM374 727h139l-26 -145h-139z" />
    <glyph glyph-name="copyright" unicode="&#xa9;" horiz-adv-x="846" 
d="M487 727c213 0 372 -156 372 -370c0 -216 -157 -370 -372 -370c-217 0 -372 154 -372 370c0 215 159 370 372 370zM487 48c179 0 304 132 304 309c0 178 -123 310 -304 310c-180 0 -302 -132 -302 -310c0 -179 121 -309 302 -309zM564 299h103
c-16 -83 -73 -140 -173 -140c-123 0 -188 85 -188 198s65 197 188 197c97 0 155 -54 170 -130h-103c-8 28 -32 41 -67 41c-57 0 -84 -44 -84 -108s27 -109 84 -109c37 0 63 16 70 51z" />
    <glyph glyph-name="ordfeminine" unicode="&#xaa;" horiz-adv-x="444" 
d="M355 485v23h-70c-39 0 -66 -18 -66 -47c0 -31 24 -47 60 -47c45 0 76 30 76 71zM290 721c104 0 175 -39 175 -145v-240h-105v29h-18c-23 -24 -54 -38 -103 -38c-85 0 -131 58 -131 125c0 60 41 125 154 125h93v9c0 37 -22 51 -59 51c-36 0 -52 -12 -57 -36h-111
c4 72 67 120 162 120z" />
    <glyph glyph-name="guillemotleft" unicode="&#xab;" horiz-adv-x="720" 
d="M471 495l-213 -194l-4 -28l142 -184h-177l-126 161l16 92l176 153h186zM761 495l-213 -194l-4 -28l142 -184h-177l-126 161l16 92l176 153h186z" />
    <glyph glyph-name="logicalnot" unicode="&#xac;" horiz-adv-x="681" 
d="M502 95v183h-388v147h533v-330h-145z" />
    <glyph glyph-name="uni00AD" unicode="&#xad;" horiz-adv-x="413" 
d="M405 212h-323l27 149h322z" />
    <glyph glyph-name="registered" unicode="&#xae;" horiz-adv-x="846" 
d="M487 727c213 0 372 -156 372 -370c0 -216 -157 -370 -372 -370c-217 0 -372 154 -372 370c0 215 159 370 372 370zM487 48c179 0 304 132 304 309c0 178 -123 310 -304 310c-180 0 -302 -132 -302 -310c0 -179 121 -309 302 -309zM338 547h187c88 0 139 -45 139 -124
c0 -48 -18 -82 -55 -103l55 -154h-102l-48 134h-75v-134h-101v381zM439 384h69c37 0 52 14 52 38s-15 38 -52 38h-69v-76z" />
    <glyph glyph-name="overscore" unicode="&#xaf;" horiz-adv-x="394" 
d="M147 607l17 98h314l-17 -98h-314z" />
    <glyph glyph-name="degree" unicode="&#xb0;" horiz-adv-x="459" 
d="M322 721c113 0 198 -85 198 -198c0 -112 -85 -197 -198 -197c-112 0 -197 85 -197 197c0 113 85 198 197 198zM322 423c56 0 95 44 95 100s-39 101 -95 101s-94 -45 -94 -101s38 -100 94 -100z" />
    <glyph glyph-name="plusminus" unicode="&#xb1;" horiz-adv-x="667" 
d="M295 431v154h146v-154h187v-147h-187v-137h187v-147h-519v147h186v137h-186v147h186z" />
    <glyph glyph-name="twosuperior" unicode="&#xb2;" horiz-adv-x="374" 
d="M415 425l-16 -91h-308l19 108l131 66c56 28 80 58 80 87c0 23 -16 36 -39 36c-25 0 -44 -14 -47 -43h-106c12 84 65 133 160 133c80 0 143 -40 143 -116c0 -80 -70 -116 -139 -151l-23 -12l-3 -17h148z" />
    <glyph glyph-name="threesuperior" unicode="&#xb3;" horiz-adv-x="376" 
d="M171 714h271l-17 -96l-71 -37l-3 -16c44 -13 71 -40 71 -99c0 -80 -74 -139 -167 -139c-96 0 -153 49 -153 128h103c3 -29 23 -45 54 -45c36 0 60 23 60 54c0 28 -19 47 -51 47c-11 0 -22 -1 -34 -3l14 74l61 36l3 16h-156z" />
    <glyph glyph-name="acute" unicode="&#xb4;" horiz-adv-x="354" 
d="M296 582h-157l122 145h183z" />
    <glyph glyph-name="mu" unicode="&#xb5;" horiz-adv-x="660" 
d="M297 -13h-14v-187h-174v720h174v-285c0 -60 27 -96 82 -96c59 0 92 50 92 107v274h174v-520h-168v45h-28c-32 -39 -73 -58 -138 -58z" />
    <glyph glyph-name="paragraph" unicode="&#xb6;" horiz-adv-x="755" 
d="M391 714h449l-20 -117h-80l-137 -774h-142l137 774h-87l-137 -774h-142l87 491c-117 0 -198 53 -198 169c0 156 122 231 270 231z" />
    <glyph glyph-name="middot" unicode="&#xb7;" horiz-adv-x="314" 
d="M296 264h-184l30 174h184z" />
    <glyph glyph-name="cedilla" unicode="&#xb8;" horiz-adv-x="319" 
d="M115 20h55l-44 -79h16c11 8 24 12 39 12c43 0 72 -31 72 -80c0 -56 -44 -113 -128 -113c-73 0 -112 43 -112 90h83c0 -13 9 -27 32 -27c21 0 39 14 39 38c0 19 -11 28 -32 28c-11 0 -21 -4 -30 -13h-70z" />
    <glyph glyph-name="onesuperior" unicode="&#xb9;" horiz-adv-x="338" 
d="M300 425h79l-16 -91h-272l16 91h86l32 184h-20l-73 -41l17 96l96 50h106z" />
    <glyph glyph-name="ordmasculine" unicode="&#xba;" horiz-adv-x="459" 
d="M321 422c57 0 85 46 85 101c0 53 -26 102 -85 102c-58 0 -86 -49 -86 -102c0 -54 28 -101 86 -101zM321 721c118 0 196 -83 196 -198s-78 -196 -196 -196c-116 0 -197 81 -197 196s81 198 197 198z" />
    <glyph glyph-name="guillemotright" unicode="&#xbb;" horiz-adv-x="720" 
d="M64 89l213 194l4 28l-142 184h177l126 -161l-16 -92l-176 -153h-186zM354 89l213 194l4 28l-142 184h177l126 -161l-16 -92l-176 -153h-186z" />
    <glyph glyph-name="onequarter" unicode="&#xbc;" horiz-adv-x="880" 
d="M833 160h43l-16 -88h-43l-12 -72h-102l12 72h-175l19 107l195 201h118zM735 160l18 106h-20l-82 -87l-3 -19h87zM294 0h-117l547 700h116zM300 425h79l-16 -91h-272l16 91h86l32 184h-20l-73 -41l17 96l96 50h106z" />
    <glyph glyph-name="onehalf" unicode="&#xbd;" horiz-adv-x="934" 
d="M294 0h-117l547 700h116zM300 425h79l-16 -91h-272l16 91h86l32 184h-20l-73 -41l17 96l96 50h106zM901 91l-16 -91h-308l19 108l131 66c56 28 80 58 80 87c0 23 -16 36 -39 36c-25 0 -44 -14 -47 -43h-106c12 84 65 133 160 133c80 0 143 -40 143 -116
c0 -80 -70 -116 -139 -151l-23 -12l-3 -17h148z" />
    <glyph glyph-name="threequarters" unicode="&#xbe;" horiz-adv-x="886" 
d="M171 714h271l-17 -96l-71 -37l-3 -16c44 -13 71 -40 71 -99c0 -80 -74 -139 -167 -139c-96 0 -153 49 -153 128h103c3 -29 23 -45 54 -45c36 0 60 23 60 54c0 28 -19 47 -51 47c-11 0 -22 -1 -34 -3l14 74l61 36l3 16h-156zM300 0h-117l547 700h116zM839 160h43l-16 -88
h-43l-12 -72h-102l12 72h-175l19 107l195 201h118zM741 160l18 106h-20l-82 -87l-3 -19h87z" />
    <glyph glyph-name="questiondown" unicode="&#xbf;" horiz-adv-x="592" 
d="M293 -213c-163 0 -248 90 -248 191c0 114 81 162 153 202c51 31 69 51 76 80l5 29h177l-5 -31c-13 -75 -48 -114 -115 -155c-56 -37 -110 -47 -110 -104c0 -35 30 -58 74 -58c55 0 92 32 95 88h176c-11 -127 -101 -242 -278 -242zM315 520h183l-30 -174h-183z" />
    <glyph glyph-name="Agrave" unicode="&#xc0;" horiz-adv-x="739" 
d="M635 714l87 -714h-184l-19 185h-239l-83 -185h-180l338 714h280zM439 538l-93 -207h158l-21 207h-44zM583 767h-152l-100 129h178z" />
    <glyph glyph-name="Aacute" unicode="&#xc1;" horiz-adv-x="739" 
d="M635 714l87 -714h-184l-19 185h-239l-83 -185h-180l338 714h280zM439 538l-93 -207h158l-21 207h-44zM417 767l118 129h185l-144 -129h-159z" />
    <glyph glyph-name="Acircumflex" unicode="&#xc2;" horiz-adv-x="739" 
d="M635 714l87 -714h-184l-19 185h-239l-83 -185h-180l338 714h280zM439 538l-93 -207h158l-21 207h-44zM554 767l-31 46h-28l-47 -46h-128l133 129h142l89 -129h-130z" />
    <glyph glyph-name="Atilde" unicode="&#xc3;" horiz-adv-x="739" 
d="M635 714l87 -714h-184l-19 185h-239l-83 -185h-180l338 714h280zM439 538l-93 -207h158l-21 207h-44zM400 767h-69c13 73 56 131 131 131c62 0 82 -36 124 -36c20 0 32 11 36 34h69c-13 -71 -55 -131 -131 -131c-61 0 -81 37 -124 37c-19 0 -32 -8 -36 -35z" />
    <glyph glyph-name="Adieresis" unicode="&#xc4;" horiz-adv-x="739" 
d="M635 714l87 -714h-184l-19 185h-239l-83 -185h-180l338 714h280zM439 538l-93 -207h158l-21 207h-44zM356 896h139l-22 -129h-139zM562 896h139l-22 -129h-139z" />
    <glyph glyph-name="Aring" unicode="&#xc5;" horiz-adv-x="739" 
d="M493 900c69 0 124 -53 124 -120c0 -25 -8 -47 -21 -66h39l87 -714h-184l-19 185h-239l-83 -185h-180l338 714h34c-13 19 -20 41 -20 66c0 67 56 120 124 120zM439 538l-93 -207h158l-21 207h-44zM493 734c25 0 46 21 46 46c0 27 -21 47 -46 47s-46 -20 -46 -47
c0 -25 21 -46 46 -46z" />
    <glyph glyph-name="AE" unicode="&#xc6;" horiz-adv-x="1074" 
d="M513 714h636l-29 -164h-308l-18 -106h222l-28 -160h-222l-22 -120h317l-28 -164h-502l32 185h-226l-128 -185h-209zM581 538l-143 -207h151l36 207h-44z" />
    <glyph glyph-name="Ccedilla" unicode="&#xc7;" horiz-adv-x="760" 
d="M565 243h191c-24 -154 -154 -256 -333 -256h-16l-25 -46h16c11 8 24 12 39 12c43 0 72 -31 72 -80c0 -56 -44 -113 -128 -113c-73 0 -112 43 -112 90h83c0 -13 9 -27 32 -27c21 0 39 14 39 38c0 19 -11 28 -32 28c-11 0 -21 -4 -30 -13h-70l64 117
c-144 24 -247 131 -247 310c0 244 152 424 387 424c156 0 268 -90 284 -234h-190c-11 47 -46 70 -107 70c-112 0 -183 -117 -183 -252c0 -104 53 -160 137 -160c65 0 116 33 129 92z" />
    <glyph glyph-name="Egrave" unicode="&#xc8;" horiz-adv-x="672" 
d="M587 284h-274l-22 -120h368l-28 -164h-554l125 714h545l-29 -164h-359l-18 -106h274zM587 767h-152l-100 129h178z" />
    <glyph glyph-name="Eacute" unicode="&#xc9;" horiz-adv-x="672" 
d="M587 284h-274l-22 -120h368l-28 -164h-554l125 714h545l-29 -164h-359l-18 -106h274zM368 767l118 129h185l-144 -129h-159z" />
    <glyph glyph-name="Ecircumflex" unicode="&#xca;" horiz-adv-x="672" 
d="M587 284h-274l-22 -120h368l-28 -164h-554l125 714h545l-29 -164h-359l-18 -106h274zM542 767l-31 46h-28l-47 -46h-128l133 129h142l89 -129h-130z" />
    <glyph glyph-name="Edieresis" unicode="&#xcb;" horiz-adv-x="672" 
d="M587 284h-274l-22 -120h368l-28 -164h-554l125 714h545l-29 -164h-359l-18 -106h274zM340 896h139l-22 -129h-139zM546 896h139l-22 -129h-139z" />
    <glyph glyph-name="Igrave" unicode="&#xcc;" horiz-adv-x="350" 
d="M393 714l-125 -714h-186l125 714h186zM391 767h-152l-100 129h178z" />
    <glyph glyph-name="Iacute" unicode="&#xcd;" horiz-adv-x="350" 
d="M393 714l-125 -714h-186l125 714h186zM230 767l118 129h185l-144 -129h-159z" />
    <glyph glyph-name="Icircumflex" unicode="&#xce;" horiz-adv-x="350" 
d="M393 714l-125 -714h-186l125 714h186zM363 767l-31 46h-28l-47 -46h-128l133 129h142l89 -129h-130z" />
    <glyph glyph-name="Idieresis" unicode="&#xcf;" horiz-adv-x="350" 
d="M393 714l-125 -714h-186l125 714h186zM161 896h139l-22 -129h-139zM367 896h139l-22 -129h-139z" />
    <glyph glyph-name="Eth" unicode="&#xd0;" horiz-adv-x="797" 
d="M69 288l25 140h89l50 286h251c204 0 332 -92 332 -296c0 -222 -128 -418 -392 -418h-316l50 288h-89zM322 164h99c168 0 205 147 205 239c0 103 -65 147 -156 147h-79l-22 -122h138l-25 -140h-138z" />
    <glyph glyph-name="Ntilde" unicode="&#xd1;" horiz-adv-x="790" 
d="M671 714h167l-125 -714h-217l-151 415h-28l-73 -415h-167l125 714h217l151 -415h28zM431 767h-69c13 73 56 131 131 131c62 0 82 -36 124 -36c20 0 32 11 36 34h69c-13 -71 -55 -131 -131 -131c-61 0 -81 37 -124 37c-19 0 -32 -8 -36 -35z" />
    <glyph glyph-name="Ograve" unicode="&#xd2;" horiz-adv-x="806" 
d="M502 727c184 0 323 -111 323 -315c0 -244 -149 -425 -394 -425c-184 0 -323 113 -323 316c0 243 149 424 394 424zM443 151c122 0 192 121 192 253c0 104 -54 159 -145 159c-122 0 -192 -119 -192 -252c0 -104 54 -160 145 -160zM607 767h-152l-100 129h178z" />
    <glyph glyph-name="Oacute" unicode="&#xd3;" horiz-adv-x="806" 
d="M427 767l118 129h185l-144 -129h-159zM502 727c184 0 323 -111 323 -315c0 -244 -149 -425 -394 -425c-184 0 -323 113 -323 316c0 243 149 424 394 424zM443 151c122 0 192 121 192 253c0 104 -54 159 -145 159c-122 0 -192 -119 -192 -252c0 -104 54 -160 145 -160z
" />
    <glyph glyph-name="Ocircumflex" unicode="&#xd4;" horiz-adv-x="806" 
d="M502 727c184 0 323 -111 323 -315c0 -244 -149 -425 -394 -425c-184 0 -323 113 -323 316c0 243 149 424 394 424zM443 151c122 0 192 121 192 253c0 104 -54 159 -145 159c-122 0 -192 -119 -192 -252c0 -104 54 -160 145 -160zM601 767l-31 46h-28l-47 -46h-128
l133 129h142l89 -129h-130z" />
    <glyph glyph-name="Otilde" unicode="&#xd5;" horiz-adv-x="806" 
d="M502 727c184 0 323 -111 323 -315c0 -244 -149 -425 -394 -425c-184 0 -323 113 -323 316c0 243 149 424 394 424zM443 151c122 0 192 121 192 253c0 104 -54 159 -145 159c-122 0 -192 -119 -192 -252c0 -104 54 -160 145 -160zM439 767h-69c13 73 56 131 131 131
c62 0 82 -36 124 -36c20 0 32 11 36 34h69c-13 -71 -55 -131 -131 -131c-61 0 -81 37 -124 37c-19 0 -32 -8 -36 -35z" />
    <glyph glyph-name="Odieresis" unicode="&#xd6;" horiz-adv-x="806" 
d="M502 727c184 0 323 -111 323 -315c0 -244 -149 -425 -394 -425c-184 0 -323 113 -323 316c0 243 149 424 394 424zM443 151c122 0 192 121 192 253c0 104 -54 159 -145 159c-122 0 -192 -119 -192 -252c0 -104 54 -160 145 -160zM388 896h139l-22 -129h-139zM594 896h139
l-22 -129h-139z" />
    <glyph glyph-name="multiply" unicode="&#xd7;" horiz-adv-x="668" 
d="M276 292l-157 158l102 103l158 -158l158 158l102 -103l-158 -157l158 -159l-102 -102l-158 158l-158 -158l-102 102z" />
    <glyph glyph-name="Oslash" unicode="&#xd8;" horiz-adv-x="806" 
d="M502 727c83 0 156 -23 212 -66l53 53h121l-116 -115c35 -49 53 -111 53 -187c0 -244 -149 -425 -394 -425c-83 0 -155 22 -211 65l-53 -52h-121l115 114c-35 49 -53 113 -53 189c0 243 149 424 394 424zM298 311c0 -21 2 -39 6 -56l280 278c-24 20 -55 30 -94 30
c-122 0 -192 -119 -192 -252zM443 151c122 0 192 121 192 253c0 19 -2 37 -6 53l-280 -277c25 -19 56 -29 94 -29z" />
    <glyph glyph-name="Ugrave" unicode="&#xd9;" horiz-adv-x="769" 
d="M634 714h185l-78 -447c-32 -181 -143 -280 -336 -280c-176 0 -286 85 -286 229c0 17 2 39 5 58l76 440h185l-76 -426c-3 -11 -4 -29 -4 -38c0 -63 42 -99 110 -99c80 0 129 48 141 120zM605 767h-152l-100 129h178z" />
    <glyph glyph-name="Uacute" unicode="&#xda;" horiz-adv-x="769" 
d="M634 714h185l-78 -447c-32 -181 -143 -280 -336 -280c-176 0 -286 85 -286 229c0 17 2 39 5 58l76 440h185l-76 -426c-3 -11 -4 -29 -4 -38c0 -63 42 -99 110 -99c80 0 129 48 141 120zM433 767l118 129h185l-144 -129h-159z" />
    <glyph glyph-name="Ucircumflex" unicode="&#xdb;" horiz-adv-x="769" 
d="M634 714h185l-78 -447c-32 -181 -143 -280 -336 -280c-176 0 -286 85 -286 229c0 17 2 39 5 58l76 440h185l-76 -426c-3 -11 -4 -29 -4 -38c0 -63 42 -99 110 -99c80 0 129 48 141 120zM568 767l-31 46h-28l-47 -46h-128l133 129h142l89 -129h-130z" />
    <glyph glyph-name="Udieresis" unicode="&#xdc;" horiz-adv-x="769" 
d="M634 714h185l-78 -447c-32 -181 -143 -280 -336 -280c-176 0 -286 85 -286 229c0 17 2 39 5 58l76 440h185l-76 -426c-3 -11 -4 -29 -4 -38c0 -63 42 -99 110 -99c80 0 129 48 141 120zM371 896h139l-22 -129h-139zM577 896h139l-22 -129h-139z" />
    <glyph glyph-name="Yacute" unicode="&#xdd;" horiz-adv-x="698" 
d="M410 454h28l175 260h198l-326 -471l-42 -243h-186l43 244l-161 470h186zM381 767l118 129h185l-144 -129h-159z" />
    <glyph glyph-name="Thorn" unicode="&#xde;" horiz-adv-x="700" 
d="M202 714h185l-21 -129h129c125 0 224 -72 224 -203c0 -147 -100 -253 -296 -253h-139l-22 -129h-186zM461 426h-124l-25 -138h127c51 0 90 24 90 80c0 39 -31 58 -68 58z" />
    <glyph glyph-name="germandbls" unicode="&#xdf;" horiz-adv-x="658" 
d="M576 405l-4 -28c60 -24 89 -80 89 -145c0 -147 -116 -232 -261 -232h-76l23 136h36c60 0 104 35 104 99c0 45 -26 82 -82 82h-12l25 141h12c39 0 68 29 68 72c0 35 -21 60 -60 60c-43 0 -70 -29 -80 -86l-89 -504h-174l66 378h-81l25 142h82c27 143 115 212 262 212
c134 0 221 -76 221 -181c0 -72 -34 -121 -94 -146z" />
    <glyph glyph-name="agrave" unicode="&#xe0;" horiz-adv-x="607" 
d="M375 533c131 0 227 -52 227 -165c0 -15 -2 -31 -5 -50l-55 -318h-159l7 40h-28c-27 -31 -66 -53 -133 -53c-95 0 -165 64 -165 159c0 140 110 189 249 189h121c0 4 0 7 1 10c1 7 2 12 2 16c0 35 -27 49 -64 49c-44 0 -64 -16 -71 -45h-174c15 104 110 168 247 168z
M411 205l5 31h-82c-48 0 -91 -16 -91 -68c0 -29 21 -53 64 -53c56 0 95 39 104 90zM497 582h-148l-96 145h174z" />
    <glyph glyph-name="aacute" unicode="&#xe1;" horiz-adv-x="607" 
d="M375 533c131 0 227 -52 227 -165c0 -15 -2 -31 -5 -50l-55 -318h-159l7 40h-28c-27 -31 -66 -53 -133 -53c-95 0 -165 64 -165 159c0 140 110 189 249 189h121c0 4 0 7 1 10c1 7 2 12 2 16c0 35 -27 49 -64 49c-44 0 -64 -16 -71 -45h-174c15 104 110 168 247 168z
M411 205l5 31h-82c-48 0 -91 -16 -91 -68c0 -29 21 -53 64 -53c56 0 95 39 104 90zM459 582h-157l122 145h183z" />
    <glyph glyph-name="acircumflex" unicode="&#xe2;" horiz-adv-x="607" 
d="M375 533c131 0 227 -52 227 -165c0 -15 -2 -31 -5 -50l-55 -318h-159l7 40h-28c-27 -31 -66 -53 -133 -53c-95 0 -165 64 -165 159c0 140 110 189 249 189h121c0 4 0 7 1 10c1 7 2 12 2 16c0 35 -27 49 -64 49c-44 0 -64 -16 -71 -45h-174c15 104 110 168 247 168z
M411 205l5 31h-82c-48 0 -91 -16 -91 -68c0 -29 21 -53 64 -53c56 0 95 39 104 90zM406 637l-54 -55h-127l138 145h140l86 -145h-121l-34 55h-28z" />
    <glyph glyph-name="atilde" unicode="&#xe3;" horiz-adv-x="607" 
d="M375 533c131 0 227 -52 227 -165c0 -15 -2 -31 -5 -50l-55 -318h-159l7 40h-28c-27 -31 -66 -53 -133 -53c-95 0 -165 64 -165 159c0 140 110 189 249 189h121c0 4 0 7 1 10c1 7 2 12 2 16c0 35 -27 49 -64 49c-44 0 -64 -16 -71 -45h-174c15 104 110 168 247 168z
M411 205l5 31h-82c-48 0 -91 -16 -91 -68c0 -29 21 -53 64 -53c56 0 95 39 104 90zM307 582h-69c16 83 58 145 134 145c62 0 79 -48 121 -48c19 0 34 20 39 48h69c-16 -80 -58 -145 -134 -145c-62 0 -79 48 -121 48c-19 0 -34 -19 -39 -48z" />
    <glyph glyph-name="adieresis" unicode="&#xe4;" horiz-adv-x="607" 
d="M375 533c131 0 227 -52 227 -165c0 -15 -2 -31 -5 -50l-55 -318h-159l7 40h-28c-27 -31 -66 -53 -133 -53c-95 0 -165 64 -165 159c0 140 110 189 249 189h121c0 4 0 7 1 10c1 7 2 12 2 16c0 35 -27 49 -64 49c-44 0 -64 -16 -71 -45h-174c15 104 110 168 247 168z
M411 205l5 31h-82c-48 0 -91 -16 -91 -68c0 -29 21 -53 64 -53c56 0 95 39 104 90zM268 727h139l-26 -145h-139zM474 727h139l-26 -145h-139z" />
    <glyph glyph-name="aring" unicode="&#xe5;" horiz-adv-x="607" 
d="M375 533c131 0 227 -52 227 -165c0 -15 -2 -31 -5 -50l-55 -318h-159l7 40h-28c-27 -31 -66 -53 -133 -53c-95 0 -165 64 -165 159c0 140 110 189 249 189h121c0 4 0 7 1 10c1 7 2 12 2 16c0 35 -27 49 -64 49c-44 0 -64 -16 -71 -45h-174c15 104 110 168 247 168z
M411 205l5 31h-82c-48 0 -91 -16 -91 -68c0 -29 21 -53 64 -53c56 0 95 39 104 90zM424 805c69 0 124 -53 124 -120c0 -66 -55 -119 -124 -119c-68 0 -124 53 -124 119c0 67 56 120 124 120zM424 639c25 0 46 21 46 46c0 27 -21 47 -46 47s-46 -20 -46 -47
c0 -25 21 -46 46 -46z" />
    <glyph glyph-name="ae" unicode="&#xe6;" horiz-adv-x="913" 
d="M913 236h-340v-5c0 -64 28 -102 84 -102c33 0 53 10 69 39h177c-25 -112 -109 -181 -249 -181c-76 0 -142 31 -183 80h-20c-34 -37 -99 -80 -197 -80c-121 0 -190 67 -190 162c0 140 113 187 249 187h114c0 3 0 6 1 9c1 7 2 12 2 16c0 35 -26 49 -59 49
c-41 0 -62 -16 -69 -45h-174c13 104 109 168 233 168c72 0 123 -22 155 -59h20c39 35 93 59 165 59c102 0 218 -68 218 -228c0 -21 -2 -44 -6 -69zM404 205l5 31h-78c-48 0 -88 -16 -88 -68c0 -29 18 -54 61 -54c56 0 91 40 100 91zM680 408c-44 0 -78 -23 -93 -67h159v4
c0 32 -22 63 -66 63z" />
    <glyph glyph-name="ccedilla" unicode="&#xe7;" 
d="M428 186h171c-19 -119 -113 -199 -263 -199c-7 0 -11 0 -18 1l-26 -47h16c11 8 24 12 39 12c43 0 72 -31 72 -80c0 -56 -44 -113 -128 -113c-73 0 -112 43 -112 90h83c0 -13 9 -27 32 -27c21 0 39 14 39 38c0 19 -11 28 -32 28c-11 0 -21 -4 -30 -13h-70l66 119
c-104 24 -180 103 -180 228c0 181 108 310 300 310c124 0 219 -73 227 -189h-171c-4 28 -27 47 -66 47c-76 0 -116 -78 -116 -161c0 -64 30 -101 86 -101c41 0 70 22 81 57z" />
    <glyph glyph-name="egrave" unicode="&#xe8;" 
d="M422 168h176c-23 -115 -117 -181 -262 -181c-139 0 -249 84 -249 236c0 181 107 310 292 310c113 0 236 -68 236 -228c0 -21 -2 -43 -6 -68h-351v-7c0 -64 33 -101 90 -101c35 0 62 12 74 39zM372 409c-47 0 -79 -23 -97 -68h167v4c0 35 -26 64 -70 64zM490 582h-148
l-96 145h174z" />
    <glyph glyph-name="eacute" unicode="&#xe9;" 
d="M422 168h176c-23 -115 -117 -181 -262 -181c-139 0 -249 84 -249 236c0 181 107 310 292 310c113 0 236 -68 236 -228c0 -21 -2 -43 -6 -68h-351v-7c0 -64 33 -101 90 -101c35 0 62 12 74 39zM372 409c-47 0 -79 -23 -97 -68h167v4c0 35 -26 64 -70 64zM459 582h-157
l122 145h183z" />
    <glyph glyph-name="ecircumflex" unicode="&#xea;" 
d="M422 168h176c-23 -115 -117 -181 -262 -181c-139 0 -249 84 -249 236c0 181 107 310 292 310c113 0 236 -68 236 -228c0 -21 -2 -43 -6 -68h-351v-7c0 -64 33 -101 90 -101c35 0 62 12 74 39zM372 409c-47 0 -79 -23 -97 -68h167v4c0 35 -26 64 -70 64zM393 637l-54 -55
h-127l138 145h140l86 -145h-121l-34 55h-28z" />
    <glyph glyph-name="edieresis" unicode="&#xeb;" 
d="M422 168h176c-23 -115 -117 -181 -262 -181c-139 0 -249 84 -249 236c0 181 107 310 292 310c113 0 236 -68 236 -228c0 -21 -2 -43 -6 -68h-351v-7c0 -64 33 -101 90 -101c35 0 62 12 74 39zM372 409c-47 0 -79 -23 -97 -68h167v4c0 35 -26 64 -70 64zM248 727h139
l-26 -145h-139zM454 727h139l-26 -145h-139z" />
    <glyph glyph-name="igrave" unicode="&#xec;" horiz-adv-x="312" 
d="M160 520h174l-91 -520h-174zM331 582h-148l-96 145h174z" />
    <glyph glyph-name="iacute" unicode="&#xed;" horiz-adv-x="312" 
d="M160 520h174l-91 -520h-174zM336 582h-157l122 145h183z" />
    <glyph glyph-name="icircumflex" unicode="&#xee;" horiz-adv-x="312" 
d="M160 520h174l-91 -520h-174zM258 637l-54 -55h-127l138 145h140l86 -145h-121l-34 55h-28z" />
    <glyph glyph-name="idieresis" unicode="&#xef;" horiz-adv-x="312" 
d="M160 520h174l-91 -520h-174zM113 727h139l-26 -145h-139zM319 727h139l-26 -145h-139z" />
    <glyph glyph-name="eth" unicode="&#xf0;" horiz-adv-x="620" 
d="M200 559l13 72h125c-37 35 -75 64 -106 87h197c31 -24 62 -52 90 -87h116l-13 -72h-55c37 -68 61 -150 61 -246c0 -196 -116 -326 -300 -326c-133 0 -241 84 -241 229c0 176 102 297 241 297c43 0 74 -13 90 -29h29c-9 24 -24 49 -44 75h-203zM261 223
c0 -59 29 -93 81 -93c71 0 111 73 111 150c0 59 -30 92 -83 92c-71 0 -109 -73 -109 -149z" />
    <glyph glyph-name="ntilde" unicode="&#xf1;" horiz-adv-x="652" 
d="M489 533c104 0 158 -73 158 -168c0 -17 -3 -41 -6 -60l-52 -305h-174l48 275c3 11 4 27 4 38c0 43 -21 68 -68 68c-52 0 -95 -35 -108 -107l-48 -274h-174l91 520h168l-7 -43h28c33 37 80 56 140 56zM333 582h-69c16 83 58 145 134 145c62 0 79 -48 121 -48
c19 0 34 20 39 48h69c-16 -80 -58 -145 -134 -145c-62 0 -79 48 -121 48c-19 0 -34 -19 -39 -48z" />
    <glyph glyph-name="ograve" unicode="&#xf2;" horiz-adv-x="635" 
d="M499 582h-148l-96 145h174zM389 533c138 0 251 -87 251 -235c0 -181 -111 -311 -303 -311c-139 0 -250 84 -250 236c0 181 110 310 302 310zM348 129c76 0 121 80 121 162c0 64 -34 100 -91 100c-76 0 -120 -78 -120 -161c0 -64 34 -101 90 -101z" />
    <glyph glyph-name="oacute" unicode="&#xf3;" horiz-adv-x="635" 
d="M389 533c138 0 251 -87 251 -235c0 -181 -111 -311 -303 -311c-139 0 -250 84 -250 236c0 181 110 310 302 310zM348 129c76 0 121 80 121 162c0 64 -34 100 -91 100c-76 0 -120 -78 -120 -161c0 -64 34 -101 90 -101zM471 582h-157l122 145h183z" />
    <glyph glyph-name="ocircumflex" unicode="&#xf4;" horiz-adv-x="635" 
d="M389 533c138 0 251 -87 251 -235c0 -181 -111 -311 -303 -311c-139 0 -250 84 -250 236c0 181 110 310 302 310zM348 129c76 0 121 80 121 162c0 64 -34 100 -91 100c-76 0 -120 -78 -120 -161c0 -64 34 -101 90 -101zM409 637l-54 -55h-127l138 145h140l86 -145h-121
l-34 55h-28z" />
    <glyph glyph-name="otilde" unicode="&#xf5;" horiz-adv-x="635" 
d="M389 533c138 0 251 -87 251 -235c0 -181 -111 -311 -303 -311c-139 0 -250 84 -250 236c0 181 110 310 302 310zM348 129c76 0 121 80 121 162c0 64 -34 100 -91 100c-76 0 -120 -78 -120 -161c0 -64 34 -101 90 -101zM311 582h-69c16 83 58 145 134 145
c62 0 79 -48 121 -48c19 0 34 20 39 48h69c-16 -80 -58 -145 -134 -145c-62 0 -79 48 -121 48c-19 0 -34 -19 -39 -48z" />
    <glyph glyph-name="odieresis" unicode="&#xf6;" horiz-adv-x="635" 
d="M389 533c138 0 251 -87 251 -235c0 -181 -111 -311 -303 -311c-139 0 -250 84 -250 236c0 181 110 310 302 310zM348 129c76 0 121 80 121 162c0 64 -34 100 -91 100c-76 0 -120 -78 -120 -161c0 -64 34 -101 90 -101zM274 727h139l-26 -145h-139zM480 727h139l-26 -145
h-139z" />
    <glyph glyph-name="divide" unicode="&#xf7;" horiz-adv-x="689" 
d="M487 0h-195v151h195v-151zM660 366v-147h-541v147h541zM487 434h-195v151h195v-151z" />
    <glyph glyph-name="oslash" unicode="&#xf8;" horiz-adv-x="635" 
d="M389 533c60 0 116 -17 159 -48l37 35h100l-87 -84c27 -36 42 -82 42 -138c0 -181 -111 -311 -303 -311c-63 0 -116 16 -159 47l-36 -34h-101l87 83c-27 37 -41 84 -41 140c0 181 110 310 302 310zM258 230c0 -8 0 -15 1 -22l174 167c-15 11 -33 16 -55 16
c-76 0 -120 -78 -120 -161zM348 129c76 0 121 80 121 162c0 7 -1 14 -2 21l-174 -167c16 -11 34 -16 55 -16z" />
    <glyph glyph-name="ugrave" unicode="&#xf9;" horiz-adv-x="652" 
d="M521 582h-148l-96 145h174zM254 -13c-104 0 -158 73 -158 168c0 17 3 41 6 60l52 305h174l-48 -275c-3 -11 -4 -27 -4 -38c0 -43 21 -68 68 -68c52 0 95 35 108 107l48 274h174l-91 -520h-168l7 43h-28c-33 -37 -80 -56 -140 -56z" />
    <glyph glyph-name="uacute" unicode="&#xfa;" horiz-adv-x="652" 
d="M490 582h-157l122 145h183zM254 -13c-104 0 -158 73 -158 168c0 17 3 41 6 60l52 305h174l-48 -275c-3 -11 -4 -27 -4 -38c0 -43 21 -68 68 -68c52 0 95 35 108 107l48 274h174l-91 -520h-168l7 43h-28c-33 -37 -80 -56 -140 -56z" />
    <glyph glyph-name="ucircumflex" unicode="&#xfb;" horiz-adv-x="652" 
d="M424 637l-54 -55h-127l138 145h140l86 -145h-121l-34 55h-28zM254 -13c-104 0 -158 73 -158 168c0 17 3 41 6 60l52 305h174l-48 -275c-3 -11 -4 -27 -4 -38c0 -43 21 -68 68 -68c52 0 95 35 108 107l48 274h174l-91 -520h-168l7 43h-28c-33 -37 -80 -56 -140 -56z" />
    <glyph glyph-name="udieresis" unicode="&#xfc;" horiz-adv-x="652" 
d="M279 727h139l-26 -145h-139zM485 727h139l-26 -145h-139zM254 -13c-104 0 -158 73 -158 168c0 17 3 41 6 60l52 305h174l-48 -275c-3 -11 -4 -27 -4 -38c0 -43 21 -68 68 -68c52 0 95 35 108 107l48 274h174l-91 -520h-168l7 43h-28c-33 -37 -80 -56 -140 -56z" />
    <glyph glyph-name="yacute" unicode="&#xfd;" horiz-adv-x="625" 
d="M524 520h176l-440 -720h-174l156 260l-135 460h168l72 -252h27zM478 582h-157l122 145h183z" />
    <glyph glyph-name="thorn" unicode="&#xfe;" horiz-adv-x="656" 
d="M413 -13c-64 0 -112 25 -133 60h-28l-44 -247h-174l162 927h174l-44 -250h28c24 33 61 56 121 56c115 0 186 -97 186 -229c0 -168 -95 -317 -248 -317zM371 127c73 0 112 81 112 164c0 64 -26 102 -82 102c-80 0 -118 -87 -118 -163c0 -64 32 -103 88 -103z" />
    <glyph glyph-name="ydieresis" unicode="&#xff;" horiz-adv-x="625" 
d="M524 520h176l-440 -720h-174l156 260l-135 460h168l72 -252h27zM264 727h139l-26 -145h-139zM470 727h139l-26 -145h-139z" />
    <glyph glyph-name="Amacron" unicode="&#x100;" horiz-adv-x="739" 
d="M635 714l87 -714h-184l-19 185h-239l-83 -185h-180l338 714h280zM439 538l-93 -207h158l-21 207h-44zM348 786l16 93h314l-16 -93h-314z" />
    <glyph glyph-name="amacron" unicode="&#x101;" horiz-adv-x="607" 
d="M375 533c131 0 227 -52 227 -165c0 -15 -2 -31 -5 -50l-55 -318h-159l7 40h-28c-27 -31 -66 -53 -133 -53c-95 0 -165 64 -165 159c0 140 110 189 249 189h121c0 4 0 7 1 10c1 7 2 12 2 16c0 35 -27 49 -64 49c-44 0 -64 -16 -71 -45h-174c15 104 110 168 247 168z
M411 205l5 31h-82c-48 0 -91 -16 -91 -68c0 -29 21 -53 64 -53c56 0 95 39 104 90zM253 607l17 98h314l-17 -98h-314z" />
    <glyph glyph-name="Abreve" unicode="&#x102;" horiz-adv-x="739" 
d="M635 714l87 -714h-184l-19 185h-239l-83 -185h-180l338 714h280zM439 538l-93 -207h158l-21 207h-44zM567 896h97c-16 -77 -71 -129 -170 -129c-88 0 -128 42 -128 106c0 7 1 15 2 23h98v-6c0 -23 15 -39 43 -39c31 0 53 18 58 45z" />
    <glyph glyph-name="abreve" unicode="&#x103;" horiz-adv-x="607" 
d="M375 533c131 0 227 -52 227 -165c0 -15 -2 -31 -5 -50l-55 -318h-159l7 40h-28c-27 -31 -66 -53 -133 -53c-95 0 -165 64 -165 159c0 140 110 189 249 189h121c0 4 0 7 1 10c1 7 2 12 2 16c0 35 -27 49 -64 49c-44 0 -64 -16 -71 -45h-174c15 104 110 168 247 168z
M411 205l5 31h-82c-48 0 -91 -16 -91 -68c0 -29 21 -53 64 -53c56 0 95 39 104 90zM485 727h98c-15 -84 -65 -145 -166 -145c-88 0 -134 44 -134 111c0 11 1 22 3 34h97c-1 -3 -1 -8 -1 -15c0 -25 15 -41 44 -41c33 0 52 21 59 56z" />
    <glyph glyph-name="Aogonek" unicode="&#x104;" horiz-adv-x="739" 
d="M635 714l87 -714c-37 -19 -60 -44 -60 -71c0 -19 12 -34 45 -34l-17 -95h-36c-94 0 -123 41 -123 84c0 56 41 96 93 116h-86l-19 185h-239l-83 -185h-180l338 714h280zM439 538l-93 -207h158l-21 207h-44z" />
    <glyph glyph-name="aogonek" unicode="&#x105;" horiz-adv-x="607" 
d="M375 533c131 0 227 -52 227 -165c0 -15 -2 -31 -5 -50l-55 -318c-37 -19 -60 -44 -60 -71c0 -19 12 -34 45 -34l-17 -95h-36c-94 0 -123 41 -123 84c0 56 41 96 93 116h-61l7 40h-28c-27 -31 -66 -53 -133 -53c-95 0 -165 64 -165 159c0 140 110 189 249 189h121
c0 4 0 7 1 10c1 7 2 12 2 16c0 35 -27 49 -64 49c-44 0 -64 -16 -71 -45h-174c15 104 110 168 247 168zM411 205l5 31h-82c-48 0 -91 -16 -91 -68c0 -29 21 -53 64 -53c56 0 95 39 104 90z" />
    <glyph glyph-name="Cacute" unicode="&#x106;" horiz-adv-x="760" 
d="M565 243h191c-24 -154 -154 -256 -333 -256s-315 111 -315 316c0 244 152 424 387 424c156 0 268 -90 284 -234h-190c-11 47 -46 70 -107 70c-112 0 -183 -117 -183 -252c0 -104 53 -160 137 -160c65 0 116 33 129 92zM419 767l118 129h185l-144 -129h-159z" />
    <glyph glyph-name="cacute" unicode="&#x107;" 
d="M428 186h171c-19 -119 -113 -199 -263 -199c-139 0 -249 84 -249 236c0 181 108 310 300 310c124 0 219 -73 227 -189h-171c-4 28 -27 47 -66 47c-76 0 -116 -78 -116 -161c0 -64 30 -101 86 -101c41 0 70 22 81 57zM466 582h-157l122 145h183z" />
    <glyph glyph-name="Ccaron" unicode="&#x10c;" horiz-adv-x="760" 
d="M565 243h191c-24 -154 -154 -256 -333 -256s-315 111 -315 316c0 244 152 424 387 424c156 0 268 -90 284 -234h-190c-11 47 -46 70 -107 70c-112 0 -183 -117 -183 -252c0 -104 53 -160 137 -160c65 0 116 33 129 92zM483 896l31 -46h28l47 46h128l-133 -129h-142
l-89 129h130z" />
    <glyph glyph-name="ccaron" unicode="&#x10d;" 
d="M428 186h171c-19 -119 -113 -199 -263 -199c-139 0 -249 84 -249 236c0 181 108 310 300 310c124 0 219 -73 227 -189h-171c-4 28 -27 47 -66 47c-76 0 -116 -78 -116 -161c0 -64 30 -101 86 -101c41 0 70 22 81 57zM428 672l54 55h127l-138 -145h-140l-86 145h121
l34 -55h28z" />
    <glyph glyph-name="Dcaron" unicode="&#x10e;" horiz-adv-x="766" 
d="M202 714h251c204 0 332 -92 332 -296c0 -222 -128 -418 -392 -418h-316zM291 164h99c168 0 205 147 205 239c0 103 -65 147 -156 147h-79zM462 896l31 -46h28l47 46h128l-133 -129h-142l-89 129h130z" />
    <glyph glyph-name="dcaron" unicode="&#x10f;" horiz-adv-x="821" 
d="M944 565l-106 -90h-95l106 90l5 28h-79l24 134h174zM335 533c64 0 112 -25 133 -60h28l45 254h174l-128 -727h-168l8 43h-28c-25 -33 -67 -56 -124 -56c-120 0 -188 98 -188 229c0 168 95 317 248 317zM377 393c-73 0 -112 -81 -112 -164c0 -64 26 -102 82 -102
c80 0 118 87 118 163c0 64 -32 103 -88 103z" />
    <glyph glyph-name="Dcroat" unicode="&#x110;" horiz-adv-x="797" 
d="M69 288l25 140h89l50 286h251c204 0 332 -92 332 -296c0 -222 -128 -418 -392 -418h-316l50 288h-89zM322 164h99c168 0 205 147 205 239c0 103 -65 147 -156 147h-79l-22 -122h138l-25 -140h-138z" />
    <glyph glyph-name="dslash" unicode="&#x111;" horiz-adv-x="682" 
d="M335 533c64 0 112 -25 133 -60h28l18 105h-149l13 72h149l14 77h174l-14 -77h77l-13 -72h-76l-102 -578h-168l8 43h-28c-25 -33 -67 -56 -124 -56c-120 0 -188 98 -188 229c0 168 95 317 248 317zM377 393c-73 0 -112 -81 -112 -164c0 -64 26 -102 82 -102
c80 0 118 87 118 163c0 64 -32 103 -88 103z" />
    <glyph glyph-name="Emacron" unicode="&#x112;" horiz-adv-x="672" 
d="M587 284h-274l-22 -120h368l-28 -164h-554l125 714h545l-29 -164h-359l-18 -106h274zM336 786l16 93h314l-16 -93h-314z" />
    <glyph glyph-name="emacron" unicode="&#x113;" 
d="M422 168h176c-23 -115 -117 -181 -262 -181c-139 0 -249 84 -249 236c0 181 107 310 292 310c113 0 236 -68 236 -228c0 -21 -2 -43 -6 -68h-351v-7c0 -64 33 -101 90 -101c35 0 62 12 74 39zM372 409c-47 0 -79 -23 -97 -68h167v4c0 35 -26 64 -70 64zM252 607l17 98
h314l-17 -98h-314z" />
    <glyph glyph-name="Edotaccent" unicode="&#x116;" horiz-adv-x="672" 
d="M587 284h-274l-22 -120h368l-28 -164h-554l125 714h545l-29 -164h-359l-18 -106h274zM405 896h174l-22 -129h-174z" />
    <glyph glyph-name="edotaccent" unicode="&#x117;" 
d="M422 168h176c-23 -115 -117 -181 -262 -181c-139 0 -249 84 -249 236c0 181 107 310 292 310c113 0 236 -68 236 -228c0 -21 -2 -43 -6 -68h-351v-7c0 -64 33 -101 90 -101c35 0 62 12 74 39zM372 409c-47 0 -79 -23 -97 -68h167v4c0 35 -26 64 -70 64zM347 727h174
l-26 -145h-174z" />
    <glyph glyph-name="Eogonek" unicode="&#x118;" horiz-adv-x="672" 
d="M587 284h-274l-22 -120h368l-28 -164c-37 -19 -60 -44 -60 -71c0 -19 12 -34 45 -34l-17 -95h-36c-94 0 -123 41 -123 84c0 56 41 96 93 116h-456l125 714h545l-29 -164h-359l-18 -106h274z" />
    <glyph glyph-name="eogonek" unicode="&#x119;" 
d="M422 168h176c-15 -72 -54 -118 -118 -154c-39 -23 -54 -41 -54 -66c0 -19 12 -34 45 -34l-17 -95h-36c-94 0 -123 41 -123 84c0 35 16 63 40 84c-138 0 -248 86 -248 236c0 181 107 310 292 310c113 0 236 -68 236 -228c0 -21 -2 -43 -6 -68h-351v-7
c0 -64 33 -101 90 -101c35 0 62 12 74 39zM372 409c-47 0 -79 -23 -97 -68h167v4c0 35 -26 64 -70 64z" />
    <glyph glyph-name="Ecaron" unicode="&#x11a;" horiz-adv-x="672" 
d="M587 284h-274l-22 -120h368l-28 -164h-554l125 714h545l-29 -164h-359l-18 -106h274zM440 896l31 -46h28l47 46h128l-133 -129h-142l-89 129h130z" />
    <glyph glyph-name="ecaron" unicode="&#x11b;" 
d="M422 168h176c-23 -115 -117 -181 -262 -181c-139 0 -249 84 -249 236c0 181 107 310 292 310c113 0 236 -68 236 -228c0 -21 -2 -43 -6 -68h-351v-7c0 -64 33 -101 90 -101c35 0 62 12 74 39zM372 409c-47 0 -79 -23 -97 -68h167v4c0 35 -26 64 -70 64zM423 672l54 55
h127l-138 -145h-140l-86 145h121l34 -55h28z" />
    <glyph glyph-name="uni0122" unicode="&#x122;" horiz-adv-x="781" 
d="M477 408h318c-8 -233 -116 -421 -366 -421c-185 0 -321 113 -321 316c0 249 150 424 391 424c158 0 272 -85 288 -229h-191c-12 43 -47 65 -106 65c-120 0 -191 -109 -191 -252c0 -104 52 -163 145 -163c80 0 124 48 139 113h-131zM360 -240h-97l87 63l4 22h-67l18 103
h165l-22 -125z" />
    <glyph glyph-name="uni0123" unicode="&#x123;" horiz-adv-x="653" 
d="M508 520h167l-87 -495c-27 -150 -136 -238 -291 -238c-137 0 -241 61 -241 184h171c3 -33 35 -53 79 -53c72 0 99 59 110 124l4 21h-25c-23 -31 -64 -52 -120 -52c-119 0 -187 94 -187 218c0 164 96 304 252 304c67 0 113 -29 132 -60h28zM352 151c74 0 113 72 113 144
c0 60 -40 98 -91 98c-67 0 -111 -69 -111 -146c0 -59 38 -96 89 -96zM457 770h97l-87 -63l-4 -22h67l-18 -103h-165l22 125z" />
    <glyph glyph-name="Itilde" unicode="&#x128;" horiz-adv-x="350" 
d="M393 714l-125 -714h-186l125 714h186zM211 767h-69c13 73 56 131 131 131c62 0 82 -36 124 -36c20 0 32 11 36 34h69c-13 -71 -55 -131 -131 -131c-61 0 -81 37 -124 37c-19 0 -32 -8 -36 -35z" />
    <glyph glyph-name="itilde" unicode="&#x129;" horiz-adv-x="312" 
d="M160 520h174l-91 -520h-174zM165 582h-69c16 83 58 145 134 145c62 0 79 -48 121 -48c19 0 34 20 39 48h69c-16 -80 -58 -145 -134 -145c-62 0 -79 48 -121 48c-19 0 -34 -19 -39 -48z" />
    <glyph glyph-name="Imacron" unicode="&#x12a;" horiz-adv-x="350" 
d="M393 714l-125 -714h-186l125 714h186zM157 786l16 93h314l-16 -93h-314z" />
    <glyph glyph-name="imacron" unicode="&#x12b;" horiz-adv-x="312" 
d="M160 520h174l-91 -520h-174zM107 607l17 98h314l-17 -98h-314z" />
    <glyph glyph-name="Iogonek" unicode="&#x12e;" horiz-adv-x="350" 
d="M393 714l-125 -714c-37 -19 -60 -44 -60 -71c0 -19 12 -34 45 -34l-17 -95h-36c-94 0 -123 41 -123 84c0 56 41 96 93 116h-88l125 714h186z" />
    <glyph glyph-name="iogonek" unicode="&#x12f;" horiz-adv-x="312" 
d="M160 520h174l-91 -520c-37 -19 -60 -44 -60 -71c0 -19 12 -34 45 -34l-17 -95h-36c-94 0 -123 41 -123 84c0 56 41 96 93 116h-76zM197 727h174l-26 -145h-174z" />
    <glyph glyph-name="dotlessi" unicode="&#x131;" horiz-adv-x="312" 
d="M160 520h174l-91 -520h-174z" />
    <glyph glyph-name="uni0136" unicode="&#x136;" horiz-adv-x="772" 
d="M301 220l-38 -220h-186l125 714h186l-45 -260l290 260h211l-239 -219l147 -495h-193l-104 329h-28zM374 -240h-97l87 63l4 22h-67l18 103h165l-22 -125z" />
    <glyph glyph-name="uni0137" unicode="&#x137;" horiz-adv-x="624" 
d="M614 0h-174l-66 221h-28l-77 -69l-26 -152h-174l128 727h174l-66 -375l183 168h195l-173 -161zM307 -240h-97l87 63l4 22h-67l18 103h165l-22 -125z" />
    <glyph glyph-name="kgreenlandic" unicode="&#x138;" horiz-adv-x="624" 
d="M614 0h-174l-66 221h-28l-77 -69l-26 -152h-174l91 520h174l-29 -168l183 168h195l-173 -161z" />
    <glyph glyph-name="Lacute" unicode="&#x139;" horiz-adv-x="666" 
d="M291 164h362l-28 -164h-548l125 714h186zM224 767l118 129h185l-144 -129h-159z" />
    <glyph glyph-name="lacute" unicode="&#x13a;" horiz-adv-x="312" 
d="M197 727h174l-128 -727h-174zM210 767l118 129h185l-144 -129h-159z" />
    <glyph glyph-name="uni013B" unicode="&#x13b;" horiz-adv-x="666" 
d="M291 164h362l-28 -164h-548l125 714h186zM313 -240h-97l87 63l4 22h-67l18 103h165l-22 -125z" />
    <glyph glyph-name="uni013C" unicode="&#x13c;" horiz-adv-x="312" 
d="M197 727h174l-128 -727h-174zM119 -240h-97l87 63l4 22h-67l18 103h165l-22 -125z" />
    <glyph glyph-name="Lcaron" unicode="&#x13d;" horiz-adv-x="666" 
d="M666 552l-106 -90h-95l106 90l5 28h-79l23 134h174zM291 164h362l-28 -164h-548l125 714h186z" />
    <glyph glyph-name="lcaron" unicode="&#x13e;" horiz-adv-x="477" 
d="M600 565l-106 -90h-95l106 90l5 28h-79l24 134h174zM197 727h174l-128 -727h-174z" />
    <glyph glyph-name="Lslash" unicode="&#x141;" horiz-adv-x="701" 
d="M82 356l95 36l57 322h186l-44 -248l190 71l-27 -155l-190 -71l-26 -148h365l-28 -163h-551l41 236l-95 -35z" />
    <glyph glyph-name="lslash" unicode="&#x142;" horiz-adv-x="394" 
d="M238 727h174l-44 -249l102 42l-27 -155l-102 -42l-57 -323h-174l43 245l-103 -42l28 155l102 42z" />
    <glyph glyph-name="Nacute" unicode="&#x143;" horiz-adv-x="790" 
d="M671 714h167l-125 -714h-217l-151 415h-28l-73 -415h-167l125 714h217l151 -415h28zM440 767l118 129h185l-144 -129h-159z" />
    <glyph glyph-name="nacute" unicode="&#x144;" horiz-adv-x="652" 
d="M489 533c104 0 158 -73 158 -168c0 -17 -3 -41 -6 -60l-52 -305h-174l48 275c3 11 4 27 4 38c0 43 -21 68 -68 68c-52 0 -95 -35 -108 -107l-48 -274h-174l91 520h168l-7 -43h28c33 37 80 56 140 56zM497 582h-157l122 145h183z" />
    <glyph glyph-name="uni0145" unicode="&#x145;" horiz-adv-x="790" 
d="M671 714h167l-125 -714h-217l-151 415h-28l-73 -415h-167l125 714h217l151 -415h28zM364 -240h-97l87 63l4 22h-67l18 103h165l-22 -125z" />
    <glyph glyph-name="uni0146" unicode="&#x146;" horiz-adv-x="652" 
d="M489 533c104 0 158 -73 158 -168c0 -17 -3 -41 -6 -60l-52 -305h-174l48 275c3 11 4 27 4 38c0 43 -21 68 -68 68c-52 0 -95 -35 -108 -107l-48 -274h-174l91 520h168l-7 -43h28c33 37 80 56 140 56zM294 -240h-97l87 63l4 22h-67l18 103h165l-22 -125z" />
    <glyph glyph-name="Ncaron" unicode="&#x147;" horiz-adv-x="790" 
d="M671 714h167l-125 -714h-217l-151 415h-28l-73 -415h-167l125 714h217l151 -415h28zM491 896l31 -46h28l47 46h128l-133 -129h-142l-89 129h130z" />
    <glyph glyph-name="ncaron" unicode="&#x148;" horiz-adv-x="652" 
d="M489 533c104 0 158 -73 158 -168c0 -17 -3 -41 -6 -60l-52 -305h-174l48 275c3 11 4 27 4 38c0 43 -21 68 -68 68c-52 0 -95 -35 -108 -107l-48 -274h-174l91 520h168l-7 -43h28c33 37 80 56 140 56zM450 672l54 55h127l-138 -145h-140l-86 145h121l34 -55h28z" />
    <glyph glyph-name="Eng" unicode="&#x14a;" horiz-adv-x="790" 
d="M671 714h167l-123 -701c-27 -152 -125 -212 -274 -213h-44l26 147h44c53 0 75 17 82 53h-53l-151 415h-28l-73 -415h-167l125 714h217l151 -415h28z" />
    <glyph glyph-name="eng" unicode="&#x14b;" horiz-adv-x="652" 
d="M416 6l47 269c3 11 4 27 4 38c0 43 -21 68 -68 68c-52 0 -95 -35 -108 -107l-48 -274h-174l91 520h168l-7 -43h28c33 37 80 56 140 56c104 0 158 -73 158 -168c0 -17 -3 -41 -6 -60l-55 -314c-26 -151 -136 -191 -251 -191h-65l25 142h46c44 0 68 27 75 64z" />
    <glyph glyph-name="Omacron" unicode="&#x14c;" horiz-adv-x="806" 
d="M502 727c184 0 323 -111 323 -315c0 -244 -149 -425 -394 -425c-184 0 -323 113 -323 316c0 243 149 424 394 424zM443 151c122 0 192 121 192 253c0 104 -54 159 -145 159c-122 0 -192 -119 -192 -252c0 -104 54 -160 145 -160zM383 786l16 93h314l-16 -93h-314z" />
    <glyph glyph-name="omacron" unicode="&#x14d;" horiz-adv-x="635" 
d="M389 533c138 0 251 -87 251 -235c0 -181 -111 -311 -303 -311c-139 0 -250 84 -250 236c0 181 110 310 302 310zM348 129c76 0 121 80 121 162c0 64 -34 100 -91 100c-76 0 -120 -78 -120 -161c0 -64 34 -101 90 -101zM267 607l17 98h314l-17 -98h-314z" />
    <glyph glyph-name="Ohungarumlaut" unicode="&#x150;" horiz-adv-x="806" 
d="M502 727c184 0 323 -111 323 -315c0 -244 -149 -425 -394 -425c-184 0 -323 113 -323 316c0 243 149 424 394 424zM443 151c122 0 192 121 192 253c0 104 -54 159 -145 159c-122 0 -192 -119 -192 -252c0 -104 54 -160 145 -160zM592 896l-120 -129h-134l95 129h159z
M794 896l-120 -129h-134l95 129h159z" />
    <glyph glyph-name="ohungarumlaut" unicode="&#x151;" horiz-adv-x="635" 
d="M389 533c138 0 251 -87 251 -235c0 -181 -111 -311 -303 -311c-139 0 -250 84 -250 236c0 181 110 310 302 310zM348 129c76 0 121 80 121 162c0 64 -34 100 -91 100c-76 0 -120 -78 -120 -161c0 -64 34 -101 90 -101zM476 727l-118 -145h-134l93 145h159zM678 727
l-118 -145h-134l93 145h159z" />
    <glyph glyph-name="OE" unicode="&#x152;" horiz-adv-x="1097" 
d="M1011 284h-221l-22 -120h316l-28 -164h-502l6 36h-28c-45 -31 -101 -49 -165 -49c-152 0 -259 108 -259 303c0 255 146 437 369 437c71 0 126 -23 166 -56h28l8 43h493l-29 -164h-307l-18 -106h221zM440 151c69 0 121 28 153 71l47 269c-25 43 -75 72 -139 72
c-128 0 -203 -110 -203 -254c0 -101 55 -158 142 -158z" />
    <glyph glyph-name="oe" unicode="&#x153;" horiz-adv-x="952" 
d="M952 237h-340v-7c0 -64 27 -101 83 -101c33 0 54 10 70 39h177c-25 -112 -109 -181 -249 -181c-68 0 -127 24 -168 64h-24c-43 -39 -98 -64 -177 -64c-120 0 -237 84 -237 236c0 181 111 310 288 310c76 0 132 -28 169 -65h24c40 39 98 65 175 65c98 0 215 -68 215 -228
c0 -21 -2 -43 -6 -68zM345 129c75 0 118 80 118 162c0 64 -32 100 -88 100c-74 0 -117 -78 -117 -161c0 -64 32 -101 87 -101zM720 408c-45 0 -77 -22 -94 -67h159v4c0 31 -22 63 -65 63z" />
    <glyph glyph-name="Racute" unicode="&#x154;" horiz-adv-x="737" 
d="M202 714h337c127 0 227 -73 227 -206c0 -99 -43 -178 -131 -222l52 -286h-182l-45 251h-153l-44 -251h-186zM506 553h-146l-26 -143h151c53 0 92 24 92 83c0 41 -32 60 -71 60zM393 767l118 129h185l-144 -129h-159z" />
    <glyph glyph-name="racute" unicode="&#x155;" horiz-adv-x="475" 
d="M543 520l-28 -161h-55c-112 0 -162 -49 -179 -145l-38 -214h-174l91 520h168l-10 -56h28c16 18 49 56 130 56h67zM398 582h-157l122 145h183z" />
    <glyph glyph-name="uni0156" unicode="&#x156;" horiz-adv-x="737" 
d="M202 714h337c127 0 227 -73 227 -206c0 -99 -43 -178 -131 -222l52 -286h-182l-45 251h-153l-44 -251h-186zM506 553h-146l-26 -143h151c53 0 92 24 92 83c0 41 -32 60 -71 60zM349 -240h-97l87 63l4 22h-67l18 103h165l-22 -125z" />
    <glyph glyph-name="uni0157" unicode="&#x157;" horiz-adv-x="475" 
d="M543 520l-28 -161h-55c-112 0 -162 -49 -179 -145l-38 -214h-174l91 520h168l-10 -56h28c16 18 49 56 130 56h67zM119 -240h-97l87 63l4 22h-67l18 103h165l-22 -125z" />
    <glyph glyph-name="Rcaron" unicode="&#x158;" horiz-adv-x="737" 
d="M202 714h337c127 0 227 -73 227 -206c0 -99 -43 -178 -131 -222l52 -286h-182l-45 251h-153l-44 -251h-186zM506 553h-146l-26 -143h151c53 0 92 24 92 83c0 41 -32 60 -71 60zM452 896l31 -46h28l47 46h128l-133 -129h-142l-89 129h130z" />
    <glyph glyph-name="rcaron" unicode="&#x159;" horiz-adv-x="475" 
d="M543 520l-28 -161h-55c-112 0 -162 -49 -179 -145l-38 -214h-174l91 520h168l-10 -56h28c16 18 49 56 130 56h67zM389 672l54 55h127l-138 -145h-140l-86 145h121l34 -55h28z" />
    <glyph glyph-name="Sacute" unicode="&#x15a;" horiz-adv-x="709" 
d="M723 508h-189c-4 48 -50 64 -102 64c-48 0 -93 -19 -93 -62c0 -35 24 -44 59 -55l126 -35c96 -27 170 -77 170 -194c0 -141 -132 -239 -308 -239c-192 0 -304 88 -304 243h189c3 -69 62 -88 126 -88c48 0 105 15 105 71c0 35 -25 52 -69 64l-128 36
c-117 32 -154 107 -154 186c0 133 107 228 288 228c163 0 284 -76 284 -219zM377 767l118 129h185l-144 -129h-159z" />
    <glyph glyph-name="sacute" unicode="&#x15b;" horiz-adv-x="565" 
d="M341 336l88 -25c88 -25 126 -74 126 -150c0 -108 -102 -174 -243 -174c-144 0 -241 63 -252 183h172c3 -35 31 -60 86 -60c39 0 64 16 64 43s-18 35 -61 47l-89 26c-83 24 -117 67 -117 135c0 104 89 170 228 170c121 0 217 -56 230 -159h-171c-5 25 -28 38 -60 38
c-36 0 -53 -14 -53 -37s20 -28 52 -37zM405 582h-157l122 145h183z" />
    <glyph glyph-name="Scedilla" unicode="&#x15e;" horiz-adv-x="709" 
d="M723 508h-189c-4 48 -50 64 -102 64c-48 0 -93 -19 -93 -62c0 -35 24 -44 59 -55l126 -35c96 -27 170 -77 170 -194c0 -141 -132 -239 -308 -239h-14l-25 -46h16c11 8 24 12 39 12c43 0 72 -31 72 -80c0 -56 -44 -113 -128 -113c-73 0 -112 43 -112 90h83
c0 -13 9 -27 32 -27c21 0 39 14 39 38c0 19 -11 28 -32 28c-11 0 -21 -4 -30 -13h-70l64 115c-152 19 -238 102 -238 239h189c3 -69 62 -88 126 -88c48 0 105 15 105 71c0 35 -25 52 -69 64l-128 36c-117 32 -154 107 -154 186c0 133 107 228 288 228
c163 0 284 -76 284 -219z" />
    <glyph glyph-name="scedilla" unicode="&#x15f;" horiz-adv-x="565" 
d="M341 336l88 -25c88 -25 126 -74 126 -150c0 -108 -102 -174 -243 -174h-12l-25 -46h16c11 8 24 12 39 12c43 0 72 -31 72 -80c0 -56 -44 -113 -128 -113c-73 0 -112 43 -112 90h83c0 -13 9 -27 32 -27c21 0 39 14 39 38c0 19 -11 28 -32 28c-11 0 -21 -4 -30 -13h-70
l64 116c-108 16 -179 77 -188 178h172c3 -35 31 -60 86 -60c39 0 64 16 64 43s-18 35 -61 47l-89 26c-83 24 -117 67 -117 135c0 104 89 170 228 170c121 0 217 -56 230 -159h-171c-5 25 -28 38 -60 38c-36 0 -53 -14 -53 -37s20 -28 52 -37z" />
    <glyph glyph-name="Scaron" unicode="&#x160;" horiz-adv-x="709" 
d="M723 508h-189c-4 48 -50 64 -102 64c-48 0 -93 -19 -93 -62c0 -35 24 -44 59 -55l126 -35c96 -27 170 -77 170 -194c0 -141 -132 -239 -308 -239c-192 0 -304 88 -304 243h189c3 -69 62 -88 126 -88c48 0 105 15 105 71c0 35 -25 52 -69 64l-128 36
c-117 32 -154 107 -154 186c0 133 107 228 288 228c163 0 284 -76 284 -219zM445 896l31 -46h28l47 46h128l-133 -129h-142l-89 129h130z" />
    <glyph glyph-name="scaron" unicode="&#x161;" horiz-adv-x="565" 
d="M341 336l88 -25c88 -25 126 -74 126 -150c0 -108 -102 -174 -243 -174c-144 0 -241 63 -252 183h172c3 -35 31 -60 86 -60c39 0 64 16 64 43s-18 35 -61 47l-89 26c-83 24 -117 67 -117 135c0 104 89 170 228 170c121 0 217 -56 230 -159h-171c-5 25 -28 38 -60 38
c-36 0 -53 -14 -53 -37s20 -28 52 -37zM383 672l54 55h127l-138 -145h-140l-86 145h121l34 -55h28z" />
    <glyph glyph-name="uni0162" unicode="&#x162;" horiz-adv-x="640" 
d="M751 714l-29 -164h-213l-96 -550h-185l96 550h-212l29 164h610zM283 -240h-97l87 63l4 22h-67l18 103h165l-22 -125z" />
    <glyph glyph-name="uni0163" unicode="&#x163;" horiz-adv-x="417" 
d="M115 520h68l25 140h174l-25 -140h102l-25 -142h-102l-33 -186c-1 -7 -2 -12 -2 -17c0 -21 15 -30 38 -30h58l-25 -145h-92c-99 0 -155 61 -155 138c0 13 2 37 5 49l32 191h-68zM202 -240h-97l87 63l4 22h-67l18 103h165l-22 -125z" />
    <glyph glyph-name="Tcaron" unicode="&#x164;" horiz-adv-x="640" 
d="M751 714l-29 -164h-213l-96 -550h-185l96 550h-212l29 164h610zM414 896l31 -46h28l47 46h128l-133 -129h-142l-89 129h130z" />
    <glyph glyph-name="tcaron" unicode="&#x165;" horiz-adv-x="477" 
d="M632 656l-106 -90h-95l106 90l5 28h-79l24 134h174zM114 520h68l25 140h174l-25 -140h102l-25 -142h-102l-33 -186c-1 -7 -2 -12 -2 -17c0 -21 15 -30 38 -30h58l-25 -145h-92c-99 0 -155 61 -155 138c0 13 2 37 5 49l32 191h-68z" />
    <glyph glyph-name="Tbar" unicode="&#x166;" horiz-adv-x="640" 
d="M751 714l-29 -164h-213l-21 -122h134l-25 -140h-134l-50 -288h-185l50 288h-135l25 140h135l21 122h-212l29 164h610z" />
    <glyph glyph-name="tbar" unicode="&#x167;" horiz-adv-x="417" 
d="M114 520h68l25 140h174l-25 -140h102l-21 -119h-102l-12 -66h103l-21 -119h-103l-4 -24c-1 -7 -2 -12 -2 -17c0 -21 15 -30 38 -30h58l-25 -145h-92c-99 0 -155 61 -155 138c0 13 2 37 5 49l5 29h-69l21 119h68l11 66h-68z" />
    <glyph glyph-name="Utilde" unicode="&#x168;" horiz-adv-x="769" 
d="M634 714h185l-78 -447c-32 -181 -143 -280 -336 -280c-176 0 -286 85 -286 229c0 17 2 39 5 58l76 440h185l-76 -426c-3 -11 -4 -29 -4 -38c0 -63 42 -99 110 -99c80 0 129 48 141 120zM421 767h-69c13 73 56 131 131 131c62 0 82 -36 124 -36c20 0 32 11 36 34h69
c-13 -71 -55 -131 -131 -131c-61 0 -81 37 -124 37c-19 0 -32 -8 -36 -35z" />
    <glyph glyph-name="utilde" unicode="&#x169;" horiz-adv-x="652" 
d="M326 582h-69c16 83 58 145 134 145c62 0 79 -48 121 -48c19 0 34 20 39 48h69c-16 -80 -58 -145 -134 -145c-62 0 -79 48 -121 48c-19 0 -34 -19 -39 -48zM254 -13c-104 0 -158 73 -158 168c0 17 3 41 6 60l52 305h174l-48 -275c-3 -11 -4 -27 -4 -38
c0 -43 21 -68 68 -68c52 0 95 35 108 107l48 274h174l-91 -520h-168l7 43h-28c-33 -37 -80 -56 -140 -56z" />
    <glyph glyph-name="Umacron" unicode="&#x16a;" horiz-adv-x="769" 
d="M634 714h185l-78 -447c-32 -181 -143 -280 -336 -280c-176 0 -286 85 -286 229c0 17 2 39 5 58l76 440h185l-76 -426c-3 -11 -4 -29 -4 -38c0 -63 42 -99 110 -99c80 0 129 48 141 120zM368 786l16 93h314l-16 -93h-314z" />
    <glyph glyph-name="umacron" unicode="&#x16b;" horiz-adv-x="652" 
d="M274 607l17 98h314l-17 -98h-314zM254 -13c-104 0 -158 73 -158 168c0 17 3 41 6 60l52 305h174l-48 -275c-3 -11 -4 -27 -4 -38c0 -43 21 -68 68 -68c52 0 95 35 108 107l48 274h174l-91 -520h-168l7 43h-28c-33 -37 -80 -56 -140 -56z" />
    <glyph glyph-name="Uring" unicode="&#x16e;" horiz-adv-x="769" 
d="M634 714h185l-78 -447c-32 -181 -143 -280 -336 -280c-176 0 -286 85 -286 229c0 17 2 39 5 58l76 440h185l-76 -426c-3 -11 -4 -29 -4 -38c0 -63 42 -99 110 -99c80 0 129 48 141 120zM522 983c69 0 124 -53 124 -120c0 -66 -55 -119 -124 -119c-68 0 -124 53 -124 119
c0 67 56 120 124 120zM522 817c25 0 46 21 46 46c0 27 -21 47 -46 47s-46 -20 -46 -47c0 -25 21 -46 46 -46z" />
    <glyph glyph-name="uring" unicode="&#x16f;" horiz-adv-x="652" 
d="M431 805c69 0 124 -53 124 -120c0 -66 -55 -119 -124 -119c-68 0 -124 53 -124 119c0 67 56 120 124 120zM431 639c25 0 46 21 46 46c0 27 -21 47 -46 47s-46 -20 -46 -47c0 -25 21 -46 46 -46zM254 -13c-104 0 -158 73 -158 168c0 17 3 41 6 60l52 305h174l-48 -275
c-3 -11 -4 -27 -4 -38c0 -43 21 -68 68 -68c52 0 95 35 108 107l48 274h174l-91 -520h-168l7 43h-28c-33 -37 -80 -56 -140 -56z" />
    <glyph glyph-name="Uhungarumlaut" unicode="&#x170;" horiz-adv-x="769" 
d="M634 714h185l-78 -447c-32 -181 -143 -280 -336 -280c-176 0 -286 85 -286 229c0 17 2 39 5 58l76 440h185l-76 -426c-3 -11 -4 -29 -4 -38c0 -63 42 -99 110 -99c80 0 129 48 141 120zM591 896l-120 -129h-134l95 129h159zM793 896l-120 -129h-134l95 129h159z" />
    <glyph glyph-name="uhungarumlaut" unicode="&#x171;" horiz-adv-x="652" 
d="M496 727l-118 -145h-134l93 145h159zM698 727l-118 -145h-134l93 145h159zM254 -13c-104 0 -158 73 -158 168c0 17 3 41 6 60l52 305h174l-48 -275c-3 -11 -4 -27 -4 -38c0 -43 21 -68 68 -68c52 0 95 35 108 107l48 274h174l-91 -520h-168l7 43h-28
c-33 -37 -80 -56 -140 -56z" />
    <glyph glyph-name="Uogonek" unicode="&#x172;" horiz-adv-x="769" 
d="M634 714h185l-78 -447c-25 -143 -92 -219 -201 -260c-51 -19 -85 -41 -85 -78c0 -19 12 -34 45 -34l-17 -95h-36c-94 0 -123 41 -123 84c0 47 27 80 66 103c-168 5 -271 89 -271 229c0 17 2 39 5 58l76 440h185l-76 -426c-3 -11 -4 -29 -4 -38c0 -63 42 -99 110 -99
c80 0 129 48 141 120z" />
    <glyph glyph-name="uogonek" unicode="&#x173;" horiz-adv-x="652" 
d="M254 -13c-104 0 -158 73 -158 168c0 17 3 41 6 60l52 305h174l-48 -275c-3 -11 -4 -27 -4 -38c0 -43 21 -68 68 -68c52 0 95 35 108 107l48 274h174l-91 -520c-37 -19 -60 -44 -60 -71c0 -19 12 -34 45 -34l-17 -95h-36c-94 0 -123 41 -123 84c0 56 41 96 93 116h-70
l7 43h-28c-33 -37 -80 -56 -140 -56z" />
    <glyph glyph-name="Ydieresis" unicode="&#x178;" horiz-adv-x="698" 
d="M410 454h28l175 260h198l-326 -471l-42 -243h-186l43 244l-161 470h186zM325 896h139l-22 -129h-139zM531 896h139l-22 -129h-139z" />
    <glyph glyph-name="Zacute" unicode="&#x179;" horiz-adv-x="676" 
d="M743 714l-33 -191l-397 -331l-5 -28h355l-28 -164h-594l33 191l398 331l5 28h-312l29 164h549zM380 767l118 129h185l-144 -129h-159z" />
    <glyph glyph-name="zacute" unicode="&#x17a;" horiz-adv-x="576" 
d="M574 350l-256 -180l-4 -28h236l-25 -142h-474l29 170l258 180l5 28h-210l25 142h446zM445 582h-157l122 145h183z" />
    <glyph glyph-name="Zdotaccent" unicode="&#x17b;" horiz-adv-x="676" 
d="M743 714l-33 -191l-397 -331l-5 -28h355l-28 -164h-594l33 191l398 331l5 28h-312l29 164h549zM409 896h174l-22 -129h-174z" />
    <glyph glyph-name="zdotaccent" unicode="&#x17c;" horiz-adv-x="576" 
d="M574 350l-256 -180l-4 -28h236l-25 -142h-474l29 170l258 180l5 28h-210l25 142h446zM330 727h174l-26 -145h-174z" />
    <glyph glyph-name="Zcaron" unicode="&#x17d;" horiz-adv-x="676" 
d="M743 714l-33 -191l-397 -331l-5 -28h355l-28 -164h-594l33 191l398 331l5 28h-312l29 164h549zM439 896l31 -46h28l47 46h128l-133 -129h-142l-89 129h130z" />
    <glyph glyph-name="zcaron" unicode="&#x17e;" horiz-adv-x="576" 
d="M574 350l-256 -180l-4 -28h236l-25 -142h-474l29 170l258 180l5 28h-210l25 142h446zM418 672l54 55h127l-138 -145h-140l-86 145h121l34 -55h28z" />
    <glyph glyph-name="florin" unicode="&#x192;" horiz-adv-x="455" 
d="M262 -200h-173l90 517h-87v142h112l6 34c32 179 116 234 258 234h55v-142h-42c-64 0 -88 -35 -101 -108l-3 -18h98v-142h-123z" />
    <glyph glyph-name="circumflex" unicode="&#x2c6;" horiz-adv-x="444" 
d="M323 637l-54 -55h-127l138 145h140l86 -145h-121l-34 55h-28z" />
    <glyph glyph-name="caron" unicode="&#x2c7;" horiz-adv-x="444" 
d="M351 672l54 55h127l-138 -145h-140l-86 145h121l34 -55h28z" />
    <glyph glyph-name="breve" unicode="&#x2d8;" horiz-adv-x="377" 
d="M367 727h98c-15 -84 -65 -145 -166 -145c-88 0 -134 44 -134 111c0 11 1 22 3 34h97c-1 -3 -1 -8 -1 -15c0 -25 15 -41 44 -41c33 0 52 21 59 56z" />
    <glyph glyph-name="dotaccent" unicode="&#x2d9;" horiz-adv-x="254" 
d="M168 727h174l-26 -145h-174z" />
    <glyph glyph-name="ring" unicode="&#x2da;" horiz-adv-x="328" 
d="M284 805c69 0 124 -53 124 -120c0 -66 -55 -119 -124 -119c-68 0 -124 53 -124 119c0 67 56 120 124 120zM284 639c25 0 46 21 46 46c0 27 -21 47 -46 47s-46 -20 -46 -47c0 -25 21 -46 46 -46z" />
    <glyph glyph-name="ogonek" unicode="&#x2db;" horiz-adv-x="255" 
d="M148 10l63 -10c-37 -19 -60 -44 -60 -71c0 -19 12 -34 45 -34l-17 -95h-36c-94 0 -123 41 -123 84c0 69 62 113 128 126z" />
    <glyph glyph-name="tilde" unicode="&#x2dc;" horiz-adv-x="417" 
d="M211 582h-69c16 83 58 145 134 145c62 0 79 -48 121 -48c19 0 34 20 39 48h69c-16 -80 -58 -145 -134 -145c-62 0 -79 48 -121 48c-19 0 -34 -19 -39 -48z" />
    <glyph glyph-name="hungarumlaut" unicode="&#x2dd;" horiz-adv-x="513" 
d="M394 727l-118 -145h-134l93 145h159zM596 727l-118 -145h-134l93 145h159z" />
    <glyph glyph-name="uni03A9" unicode="&#x3a9;" horiz-adv-x="780" 
d="M675 168v-28h105v-140h-306v149c83 60 115 136 115 228c0 123 -65 186 -153 186c-89 0 -154 -63 -154 -186c0 -92 32 -168 115 -228v-149h-305v140h105v28c-63 47 -105 126 -105 230c0 187 125 329 344 329s343 -142 343 -329c0 -104 -43 -183 -104 -230z" />
    <glyph glyph-name="pi" unicode="&#x3c0;" horiz-adv-x="665" 
d="M322 0h-174v379h-76v141h600v-141h-87v-179c0 -41 10 -59 55 -59h33v-141h-80c-109 0 -182 33 -182 186v193h-89v-379z" />
    <glyph glyph-name="uni0401" unicode="&#x401;" horiz-adv-x="672" 
d="M587 284h-274l-22 -120h368l-28 -164h-554l125 714h545l-29 -164h-359l-18 -106h274zM337 896h139l-22 -129h-139zM543 896h139l-22 -129h-139z" />
    <glyph glyph-name="uni0402" unicode="&#x402;" horiz-adv-x="846" 
d="M750 714l-28 -164h-239l-21 -122c44 8 83 12 134 12c163 0 240 -88 240 -208c0 -187 -146 -245 -281 -245c-20 0 -36 0 -47 1l-16 2l28 164l11 -2c7 -1 14 -1 21 -1c50 0 95 14 95 64c0 37 -30 62 -102 62c-35 0 -79 -4 -112 -12l-46 -265h-185l96 550h-186l28 164h610z
" />
    <glyph glyph-name="uni0403" unicode="&#x403;" horiz-adv-x="643" 
d="M359 550l-96 -550h-186l125 714h530l-29 -164h-344zM525 757h-157l122 145h183z" />
    <glyph glyph-name="uni0404" unicode="&#x404;" horiz-adv-x="759" 
d="M563 222h193c-24 -141 -154 -235 -333 -235s-315 111 -315 316c0 244 152 424 387 424c156 0 267 -86 283 -226h-190c-12 40 -43 62 -102 62c-77 0 -140 -48 -165 -125h228l-28 -159h-220c5 -84 58 -128 137 -128c64 0 110 27 125 71z" />
    <glyph glyph-name="uni0405" unicode="&#x405;" horiz-adv-x="709" 
d="M723 508h-189c-4 48 -50 64 -102 64c-48 0 -93 -19 -93 -62c0 -35 24 -44 59 -55l126 -35c96 -27 170 -77 170 -194c0 -141 -132 -239 -308 -239c-192 0 -304 88 -304 243h189c3 -69 62 -88 126 -88c48 0 105 15 105 71c0 35 -25 52 -69 64l-128 36
c-117 32 -154 107 -154 186c0 133 107 228 288 228c163 0 284 -76 284 -219z" />
    <glyph glyph-name="uni0406" unicode="&#x406;" horiz-adv-x="350" 
d="M393 714l-125 -714h-186l125 714h186z" />
    <glyph glyph-name="uni0407" unicode="&#x407;" horiz-adv-x="350" 
d="M393 714l-125 -714h-186l125 714h186zM160 896h139l-22 -129h-139zM366 896h139l-22 -129h-139z" />
    <glyph glyph-name="uni0408" unicode="&#x408;" horiz-adv-x="614" 
d="M297 -13c-135 0 -237 70 -237 197c0 16 1 33 4 50h184c-1 -8 -2 -15 -2 -22c0 -41 22 -61 66 -61c48 0 74 38 85 99l81 464h186l-83 -476c-28 -161 -127 -251 -284 -251z" />
    <glyph glyph-name="uni0409" unicode="&#x409;" horiz-adv-x="1160" 
d="M789 489h127c133 0 241 -77 241 -217c0 -157 -107 -272 -318 -272h-322l96 550h-192l-27 -158c-58 -340 -158 -392 -339 -392h-29l31 180h28c73 0 100 14 137 217l55 317h551zM882 330h-121l-30 -171h124c64 0 112 30 112 99c0 49 -38 72 -85 72z" />
    <glyph glyph-name="uni040A" unicode="&#x40a;" horiz-adv-x="1160" 
d="M642 714h186l-39 -225h127c133 0 241 -77 241 -217c0 -157 -107 -272 -318 -272h-322l49 283h-254l-49 -283h-186l125 714h186l-46 -264h254zM882 330h-121l-30 -171h124c64 0 112 30 112 99c0 49 -38 72 -85 72z" />
    <glyph glyph-name="uni040B" unicode="&#x40b;" horiz-adv-x="847" 
d="M797 0h-186l29 168c3 13 6 32 6 45c0 35 -13 63 -108 63c-28 0 -70 -4 -103 -13l-46 -263h-186l96 550h-187l29 164h611l-29 -164h-238l-22 -126c47 11 93 16 140 16c192 0 239 -65 239 -148c0 -23 -4 -59 -9 -87z" />
    <glyph glyph-name="uni040C" unicode="&#x40c;" horiz-adv-x="748" 
d="M77 0l125 714h186l-46 -263h135l169 263h193l-220 -347l104 -367h-179l-81 284h-151l-49 -284h-186zM430 767l118 129h185l-144 -129h-159z" />
    <glyph glyph-name="uni040E" unicode="&#x40e;" horiz-adv-x="713" 
d="M416 429h28l184 285h194l-465 -714h-183l136 210l-175 504h182zM472 751c-117 0 -179 55 -179 142v11h130c1 -21 17 -46 61 -46s63 23 71 46h134c-23 -92 -94 -153 -217 -153z" />
    <glyph glyph-name="uni040F" unicode="&#x40f;" horiz-adv-x="778" 
d="M701 0h-220l-30 -175h-186l30 175h-218l125 714h186l-97 -550h252l97 550h186z" />
    <glyph glyph-name="uni0410" unicode="&#x410;" horiz-adv-x="739" 
d="M635 714l87 -714h-184l-19 185h-239l-83 -185h-180l338 714h280zM439 538l-93 -207h158l-21 207h-44z" />
    <glyph glyph-name="uni0411" unicode="&#x411;" horiz-adv-x="729" 
d="M344 454h155c124 0 223 -72 223 -202c0 -146 -99 -252 -295 -252h-350l125 714h542l-29 -164h-355zM458 308h-141l-26 -149h143c56 0 98 26 98 87c0 43 -34 62 -74 62z" />
    <glyph glyph-name="uni0412" unicode="&#x412;" horiz-adv-x="741" 
d="M655 384l-5 -28c41 -21 73 -72 73 -140c0 -141 -109 -216 -264 -216h-382l125 714h331c138 0 219 -70 219 -169c0 -92 -46 -142 -97 -161zM494 564h-132l-22 -123h135c45 0 80 21 80 72c0 35 -28 51 -61 51zM458 291h-144l-25 -138h147c51 0 90 25 90 81
c0 39 -31 57 -68 57z" />
    <glyph glyph-name="uni0413" unicode="&#x413;" horiz-adv-x="643" 
d="M359 550l-96 -550h-186l125 714h530l-29 -164h-344z" />
    <glyph glyph-name="uni0414" unicode="&#x414;" horiz-adv-x="825" 
d="M587 -175l30 175h-416l-31 -175h-180l58 339h74c53 68 109 176 136 332l38 218h527l-97 -550h100l-59 -339h-180zM546 164l68 386h-181l-9 -54c-27 -155 -66 -265 -118 -332h240z" />
    <glyph glyph-name="uni0415" unicode="&#x415;" horiz-adv-x="672" 
d="M587 284h-274l-22 -120h368l-28 -164h-554l125 714h545l-29 -164h-359l-18 -106h274z" />
    <glyph glyph-name="uni0416" unicode="&#x416;" horiz-adv-x="1110" 
d="M462 0l49 279h-121l-162 -279h-190l214 362l-80 352h183l58 -268h127l47 268h180l-47 -268h120l153 268h189l-204 -352l88 -362h-182l-65 279h-128l-49 -279h-180z" />
    <glyph glyph-name="uni0417" unicode="&#x417;" horiz-adv-x="723" 
d="M339 499h-192c27 148 150 227 316 227c168 0 271 -81 271 -192c0 -77 -42 -129 -113 -153l-5 -28c47 -15 88 -57 88 -129c0 -160 -150 -237 -312 -237c-196 0 -317 86 -317 243h195c5 -49 44 -79 121 -79c68 0 117 28 117 75c0 39 -30 59 -89 59h-97l28 159h96
c48 0 91 16 91 63c0 36 -41 56 -88 56c-52 0 -99 -15 -110 -64z" />
    <glyph glyph-name="uni0418" unicode="&#x418;" horiz-adv-x="798" 
d="M202 714h169l-80 -451h28l288 451h239l-125 -714h-169l79 451h-28l-287 -451h-239z" />
    <glyph glyph-name="uni0419" unicode="&#x419;" horiz-adv-x="798" 
d="M202 714h169l-80 -451h28l288 451h239l-125 -714h-169l79 451h-28l-287 -451h-239zM528 751c-117 0 -179 55 -179 142v11h130c1 -21 17 -46 61 -46s63 23 71 46h134c-23 -92 -94 -153 -217 -153z" />
    <glyph glyph-name="uni041A" unicode="&#x41a;" horiz-adv-x="748" 
d="M77 0l125 714h186l-46 -263h135l169 263h193l-220 -347l104 -367h-179l-81 284h-151l-49 -284h-186z" />
    <glyph glyph-name="uni041B" unicode="&#x41b;" horiz-adv-x="780" 
d="M26 0l31 180h28c73 0 100 14 137 217l55 317h551l-125 -714h-186l96 550h-192l-27 -158c-58 -340 -158 -392 -339 -392h-29z" />
    <glyph glyph-name="uni041C" unicode="&#x41c;" horiz-adv-x="893" 
d="M660 714h281l-125 -714h-171l85 483h-28l-126 -257h-180l-35 257h-28l-85 -483h-171l125 714h273l33 -259h28z" />
    <glyph glyph-name="uni041D" unicode="&#x41d;" horiz-adv-x="788" 
d="M650 714h186l-125 -714h-186l49 283h-262l-49 -283h-186l125 714h186l-46 -264h262z" />
    <glyph glyph-name="uni041E" unicode="&#x41e;" horiz-adv-x="806" 
d="M502 727c184 0 323 -111 323 -315c0 -244 -149 -425 -394 -425c-184 0 -323 113 -323 316c0 243 149 424 394 424zM443 151c122 0 192 121 192 253c0 104 -54 159 -145 159c-122 0 -192 -119 -192 -252c0 -104 54 -160 145 -160z" />
    <glyph glyph-name="uni041F" unicode="&#x41f;" horiz-adv-x="780" 
d="M202 714h626l-125 -714h-186l96 550h-254l-96 -550h-186z" />
    <glyph glyph-name="uni0420" unicode="&#x420;" horiz-adv-x="729" 
d="M202 714h332c131 0 233 -75 233 -211c0 -152 -104 -263 -308 -263h-154l-42 -240h-186zM501 552h-141l-27 -153h144c57 0 100 26 100 89c0 43 -35 64 -76 64z" />
    <glyph glyph-name="uni0421" unicode="&#x421;" horiz-adv-x="760" 
d="M565 243h191c-24 -154 -154 -256 -333 -256s-315 111 -315 316c0 244 152 424 387 424c156 0 268 -90 284 -234h-190c-11 47 -46 70 -107 70c-112 0 -183 -117 -183 -252c0 -104 53 -160 137 -160c65 0 116 33 129 92z" />
    <glyph glyph-name="uni0422" unicode="&#x422;" horiz-adv-x="640" 
d="M751 714l-29 -164h-213l-96 -550h-185l96 550h-212l29 164h610z" />
    <glyph glyph-name="uni0423" unicode="&#x423;" horiz-adv-x="713" 
d="M416 429h28l184 285h194l-465 -714h-183l136 210l-175 504h182z" />
    <glyph glyph-name="uni0424" unicode="&#x424;" horiz-adv-x="931" 
d="M683 737l-15 -85c172 -11 286 -104 286 -254c0 -205 -164 -316 -379 -316h-7l-17 -95h-175l17 95c-172 11 -286 104 -286 254c0 205 164 316 379 316h7l15 85h175zM420 237l46 261h-7c-92 0 -165 -47 -165 -152c0 -67 46 -109 126 -109zM641 498l-46 -261h7
c92 0 165 47 165 151c0 67 -46 110 -126 110z" />
    <glyph glyph-name="uni0425" unicode="&#x425;" horiz-adv-x="719" 
d="M506 0l-78 276h-28l-176 -276h-206l249 374l-99 340h181l73 -248h28l163 248h192l-223 -337l119 -377h-195z" />
    <glyph glyph-name="uni0426" unicode="&#x426;" horiz-adv-x="827" 
d="M589 -175l30 175h-542l125 714h186l-97 -550h251l97 550h186l-97 -550h100l-59 -339h-180z" />
    <glyph glyph-name="uni0427" unicode="&#x427;" horiz-adv-x="719" 
d="M175 714h186l-34 -198c-3 -13 -6 -32 -6 -45c0 -35 13 -63 108 -63c27 0 68 4 100 12l52 294h186l-125 -714h-186l45 259c-45 -11 -92 -15 -137 -15c-192 0 -239 65 -239 148c0 23 4 59 9 87z" />
    <glyph glyph-name="uni0428" unicode="&#x428;" horiz-adv-x="1076" 
d="M999 0h-922l125 714h180l-97 -550h191l97 550h180l-97 -550h191l97 550h180z" />
    <glyph glyph-name="uni0429" unicode="&#x429;" horiz-adv-x="1126" 
d="M888 -175l30 175h-841l125 714h180l-97 -550h191l97 550h180l-97 -550h191l97 550h180l-97 -550h100l-59 -339h-180z" />
    <glyph glyph-name="uni042A" unicode="&#x42a;" horiz-adv-x="842" 
d="M462 489h136c133 0 241 -77 241 -217c0 -157 -107 -272 -318 -272h-332l97 550h-180l29 164h366zM564 330h-130l-30 -171h133c64 0 112 30 112 99c0 49 -38 72 -85 72z" />
    <glyph glyph-name="uni042B" unicode="&#x42b;" horiz-adv-x="979" 
d="M1027 714l-125 -714h-186l125 714h186zM350 489h103c133 0 241 -77 241 -217c0 -157 -107 -272 -318 -272h-299l126 714h186zM419 330h-97l-30 -171h100c64 0 112 30 112 99c0 49 -38 72 -85 72z" />
    <glyph glyph-name="uni042C" unicode="&#x42c;" horiz-adv-x="730" 
d="M350 489h136c133 0 241 -77 241 -217c0 -157 -107 -272 -318 -272h-332l126 714h186zM452 330h-130l-30 -171h133c64 0 112 30 112 99c0 49 -38 72 -85 72z" />
    <glyph glyph-name="uni042D" unicode="&#x42d;" horiz-adv-x="736" 
d="M311 279l28 159h223c-8 87 -62 125 -133 125c-60 0 -102 -23 -119 -62h-192c29 139 157 226 324 226c176 0 313 -111 313 -316c0 -244 -148 -424 -383 -424c-158 0 -286 91 -299 235h188c11 -48 59 -71 120 -71c81 0 140 48 161 128h-231z" />
    <glyph glyph-name="uni042E" unicode="&#x42e;" horiz-adv-x="1115" 
d="M815 727c181 0 319 -111 319 -315c0 -244 -147 -425 -389 -425c-175 0 -312 105 -320 296h-114l-49 -283h-185l125 714h185l-46 -264h104c48 165 181 277 370 277zM757 151c119 0 187 121 187 253c0 104 -54 159 -142 159c-119 0 -187 -119 -187 -252
c0 -104 54 -160 142 -160z" />
    <glyph glyph-name="uni042F" unicode="&#x42f;" horiz-adv-x="721" 
d="M769 714l-125 -714h-186l44 251h-116l-131 -251h-195l150 288c-53 35 -86 92 -86 169c0 149 101 257 301 257h344zM530 410l25 143h-150c-53 0 -92 -24 -92 -83c0 -41 32 -60 71 -60h146z" />
    <glyph glyph-name="uni0430" unicode="&#x430;" horiz-adv-x="607" 
d="M375 533c131 0 227 -52 227 -165c0 -15 -2 -31 -5 -50l-55 -318h-159l7 40h-28c-27 -31 -66 -53 -133 -53c-95 0 -165 64 -165 159c0 140 110 189 249 189h121c0 4 0 7 1 10c1 7 2 12 2 16c0 35 -27 49 -64 49c-44 0 -64 -16 -71 -45h-174c15 104 110 168 247 168z
M411 205l5 31h-82c-48 0 -91 -16 -91 -68c0 -29 21 -53 64 -53c56 0 95 39 104 90z" />
    <glyph glyph-name="uni0431" unicode="&#x431;" horiz-adv-x="640" 
d="M439 496c129 0 206 -81 206 -202c0 -188 -124 -307 -304 -307c-146 0 -249 90 -249 254c0 159 76 396 276 428l133 21c40 7 53 14 60 37h133c-11 -62 -34 -139 -133 -155l-180 -28c-60 -8 -113 -34 -137 -119h28c41 52 95 71 167 71zM353 129c76 0 121 72 121 145
c0 57 -34 90 -91 90c-76 0 -120 -71 -120 -144c0 -57 34 -91 90 -91z" />
    <glyph glyph-name="uni0432" unicode="&#x432;" horiz-adv-x="625" 
d="M552 283l-5 -28c31 -16 57 -48 57 -97c0 -104 -81 -158 -192 -158h-343l91 520h300c100 0 160 -48 160 -120c0 -65 -33 -102 -68 -117zM400 410h-90l-16 -90h92c33 0 59 16 59 53c0 25 -21 37 -45 37zM378 217h-102l-19 -106h104c39 0 69 19 69 62c0 29 -24 44 -52 44z
" />
    <glyph glyph-name="uni0433" unicode="&#x433;" horiz-adv-x="533" 
d="M69 0l91 520h437l-25 -142h-263l-66 -378h-174z" />
    <glyph glyph-name="uni0434" unicode="&#x434;" horiz-adv-x="721" 
d="M624 142h90l-51 -285h-162l26 143h-344l-26 -143h-162l50 285h74c39 60 66 131 82 224l27 154h462zM450 142l41 236h-131l-2 -13c-15 -91 -39 -162 -71 -223h163z" />
    <glyph glyph-name="uni0435" unicode="&#x435;" 
d="M422 168h176c-23 -115 -117 -181 -262 -181c-139 0 -249 84 -249 236c0 181 107 310 292 310c113 0 236 -68 236 -228c0 -21 -2 -43 -6 -68h-351v-7c0 -64 33 -101 90 -101c35 0 62 12 74 39zM372 409c-47 0 -79 -23 -97 -68h167v4c0 35 -26 64 -70 64z" />
    <glyph glyph-name="uni0436" unicode="&#x436;" horiz-adv-x="919" 
d="M336 195l-123 -195h-180l172 268l-72 252h165l51 -183h86l32 183h159l-32 -183h75l115 183h177l-161 -253l78 -267h-168l-55 195h-86l-34 -195h-159l34 195h-74z" />
    <glyph glyph-name="uni0437" unicode="&#x437;" horiz-adv-x="591" 
d="M268 351h-156c24 131 134 182 263 182c143 0 218 -65 218 -147c0 -54 -22 -90 -67 -108l-5 -28c31 -11 52 -36 52 -77c0 -132 -135 -186 -261 -186c-120 0 -246 41 -246 185h157c3 -36 42 -48 91 -48c28 0 85 5 85 48c0 23 -18 34 -55 34h-82l19 110h75c28 0 63 6 63 41
c0 23 -22 39 -65 39c-47 0 -76 -15 -86 -45z" />
    <glyph glyph-name="uni0438" unicode="&#x438;" horiz-adv-x="662" 
d="M215 0h-146l91 520h169l-42 -236h24l226 236h147l-91 -520h-169l41 236h-24z" />
    <glyph glyph-name="uni0439" unicode="&#x439;" horiz-adv-x="662" 
d="M215 0h-146l91 520h169l-42 -236h24l226 236h147l-91 -520h-169l41 236h-24zM424 561c-117 0 -179 55 -179 142v11h130c1 -21 17 -46 61 -46s63 23 71 46h134c-23 -92 -94 -153 -217 -153z" />
    <glyph glyph-name="uni043A" unicode="&#x43a;" horiz-adv-x="650" 
d="M430 0l-65 197h-88l-34 -197h-174l91 520h174l-32 -181h87l125 181h177l-171 -251l88 -269h-178z" />
    <glyph glyph-name="uni043B" unicode="&#x43b;" horiz-adv-x="667" 
d="M20 0l29 167h21c60 0 93 19 109 115l41 238h469l-91 -520h-174l66 378h-136l-19 -113c-35 -203 -118 -265 -287 -265h-28z" />
    <glyph glyph-name="uni043C" unicode="&#x43c;" horiz-adv-x="781" 
d="M564 280l-84 -135h-129l-36 135h-28l-49 -280h-169l91 520h211l55 -208h28l128 208h221l-91 -520h-169l49 280h-28z" />
    <glyph glyph-name="uni043D" unicode="&#x43d;" horiz-adv-x="657" 
d="M679 520l-91 -520h-174l34 196h-171l-34 -196h-174l91 520h174l-32 -182h171l32 182h174z" />
    <glyph glyph-name="uni043E" unicode="&#x43e;" horiz-adv-x="635" 
d="M389 533c138 0 251 -87 251 -235c0 -181 -111 -311 -303 -311c-139 0 -250 84 -250 236c0 181 110 310 302 310zM348 129c76 0 121 80 121 162c0 64 -34 100 -91 100c-76 0 -120 -78 -120 -161c0 -64 34 -101 90 -101z" />
    <glyph glyph-name="uni043F" unicode="&#x43f;" horiz-adv-x="653" 
d="M584 0h-174l66 378h-167l-66 -378h-174l91 520h515z" />
    <glyph glyph-name="uni0440" unicode="&#x440;" horiz-adv-x="656" 
d="M413 -13c-64 0 -112 25 -133 60h-28l-44 -247h-174l127 720h168l-8 -43h28c25 33 67 56 124 56c120 0 188 -99 188 -229c0 -168 -95 -317 -248 -317zM371 127c73 0 112 81 112 164c0 64 -26 102 -82 102c-80 0 -118 -87 -118 -163c0 -64 32 -103 88 -103z" />
    <glyph glyph-name="uni0441" unicode="&#x441;" 
d="M428 186h171c-19 -119 -113 -199 -263 -199c-139 0 -249 84 -249 236c0 181 108 310 300 310c124 0 219 -73 227 -189h-171c-4 28 -27 47 -66 47c-76 0 -116 -78 -116 -161c0 -64 30 -101 86 -101c41 0 70 22 81 57z" />
    <glyph glyph-name="uni0442" unicode="&#x442;" horiz-adv-x="564" 
d="M97 378l25 142h502l-25 -142h-164l-66 -378h-174l66 378h-164z" />
    <glyph glyph-name="uni0443" unicode="&#x443;" horiz-adv-x="625" 
d="M524 520h176l-440 -720h-174l156 260l-135 460h168l72 -252h27z" />
    <glyph glyph-name="uni0444" unicode="&#x444;" horiz-adv-x="829" 
d="M628 727l-37 -207c159 -13 243 -103 243 -223c0 -191 -145 -297 -334 -297h-1l-35 -200h-168l35 200c-157 13 -244 106 -244 225c0 192 148 295 336 295l37 207h168zM258 240c0 -59 29 -107 96 -111l46 262c-91 0 -142 -75 -142 -151zM663 281c0 59 -28 106 -95 110
l-46 -262c92 0 141 75 141 152z" />
    <glyph glyph-name="uni0445" unicode="&#x445;" horiz-adv-x="633" 
d="M425 0l-56 175h-37l-117 -175h-184l186 267l-81 253h171l49 -163h37l109 163h181l-172 -251l91 -269h-177z" />
    <glyph glyph-name="uni0446" unicode="&#x446;" horiz-adv-x="702" 
d="M69 0l91 520h174l-66 -378h163l66 378h174l-66 -378h90l-51 -285h-162l25 143h-438z" />
    <glyph glyph-name="uni0447" unicode="&#x447;" horiz-adv-x="613" 
d="M132 520h174l-26 -146c-1 -7 -3 -18 -3 -25c0 -24 11 -47 64 -47c29 0 56 3 83 8l37 210h174l-91 -520h-174l30 172c-43 -8 -95 -12 -134 -12c-135 0 -172 54 -172 117c0 16 1 34 4 46z" />
    <glyph glyph-name="uni0448" unicode="&#x448;" horiz-adv-x="888" 
d="M69 0l91 520h168l-66 -378h123l66 378h168l-66 -378h123l66 378h168l-91 -520h-750z" />
    <glyph glyph-name="uni0449" unicode="&#x449;" horiz-adv-x="941" 
d="M910 520l-66 -378h90l-51 -285h-162l25 143h-677l91 520h168l-66 -378h123l66 378h168l-66 -378h123l66 378h168z" />
    <glyph glyph-name="uni044A" unicode="&#x44a;" horiz-adv-x="694" 
d="M83 378l25 142h320l-26 -142h108c100 0 183 -60 183 -168c0 -145 -112 -210 -245 -210h-285l66 378h-146zM361 142h88c39 0 70 18 70 62c0 31 -23 46 -54 46h-85z" />
    <glyph glyph-name="uni044B" unicode="&#x44b;" horiz-adv-x="875" 
d="M308 378h95c100 0 183 -60 183 -168c0 -145 -112 -210 -245 -210h-272l91 520h174zM267 142h75c39 0 70 18 70 62c0 31 -23 46 -54 46h-72zM723 520h174l-91 -520h-174z" />
    <glyph glyph-name="uni044C" unicode="&#x44c;" horiz-adv-x="600" 
d="M308 378h108c100 0 183 -60 183 -168c0 -145 -112 -210 -245 -210h-285l91 520h174zM267 142h88c39 0 70 18 70 62c0 31 -23 46 -54 46h-85z" />
    <glyph glyph-name="uni044D" unicode="&#x44d;" 
d="M73 176h160c0 -37 28 -60 79 -60c64 0 103 38 118 87h-158l23 126h144c-7 45 -43 75 -90 75c-45 0 -73 -16 -84 -48h-160c31 116 124 177 261 177c150 0 248 -99 248 -232c0 -192 -119 -314 -295 -314c-137 0 -246 80 -246 189z" />
    <glyph glyph-name="uni044E" unicode="&#x44e;" horiz-adv-x="903" 
d="M660 533c136 0 248 -87 248 -235c0 -181 -110 -311 -300 -311c-128 0 -233 76 -246 209h-89l-34 -196h-170l91 520h170l-32 -182h79c37 119 135 195 283 195zM616 129c76 0 121 80 121 162c0 64 -34 100 -91 100c-76 0 -120 -78 -120 -161c0 -64 34 -101 90 -101z" />
    <glyph glyph-name="uni044F" unicode="&#x44f;" horiz-adv-x="610" 
d="M632 520l-91 -520h-174l27 155h-92l-86 -155h-170l109 196c-33 27 -54 68 -54 121c0 140 108 203 237 203h294zM434 384h-90c-39 0 -69 -18 -69 -61c0 -31 24 -46 53 -46h87z" />
    <glyph glyph-name="uni0451" unicode="&#x451;" 
d="M422 168h176c-23 -115 -117 -181 -262 -181c-139 0 -249 84 -249 236c0 181 107 310 292 310c113 0 236 -68 236 -228c0 -21 -2 -43 -6 -68h-351v-7c0 -64 33 -101 90 -101c35 0 62 12 74 39zM372 409c-47 0 -79 -23 -97 -68h167v4c0 35 -26 64 -70 64zM248 727h139
l-26 -145h-139zM454 727h139l-26 -145h-139z" />
    <glyph glyph-name="uni0452" unicode="&#x452;" horiz-adv-x="674" 
d="M219 727h174l-14 -77h165l-18 -105h-165l-21 -118h28c33 37 74 56 134 56c104 0 159 -73 159 -168c0 -17 -3 -41 -6 -60l-44 -255c-26 -151 -139 -200 -254 -200h-66l25 142h46c45 0 69 27 76 64l39 219c3 11 4 27 4 38c0 43 -21 68 -68 68c-52 0 -95 -35 -108 -107
l-40 -224h-174l96 545h-68l18 105h68z" />
    <glyph glyph-name="uni0453" unicode="&#x453;" horiz-adv-x="533" 
d="M69 0l91 520h437l-25 -142h-263l-66 -378h-174zM422 582h-157l122 145h183z" />
    <glyph glyph-name="uni0454" unicode="&#x454;" horiz-adv-x="608" 
d="M428 176h171c-19 -113 -112 -189 -263 -189c-139 0 -249 84 -249 236c0 181 108 310 300 310c123 0 218 -69 226 -177h-170c-4 28 -28 48 -67 48c-51 0 -87 -30 -102 -78h146l-22 -126h-137c3 -57 37 -84 85 -84c41 0 71 23 82 60z" />
    <glyph glyph-name="uni0455" unicode="&#x455;" horiz-adv-x="565" 
d="M341 336l88 -25c88 -25 126 -74 126 -150c0 -108 -102 -174 -243 -174c-144 0 -241 63 -252 183h172c3 -35 31 -60 86 -60c39 0 64 16 64 43s-18 35 -61 47l-89 26c-83 24 -117 67 -117 135c0 104 89 170 228 170c121 0 217 -56 230 -159h-171c-5 25 -28 38 -60 38
c-36 0 -53 -14 -53 -37s20 -28 52 -37z" />
    <glyph glyph-name="uni0456" unicode="&#x456;" horiz-adv-x="312" 
d="M197 727h174l-26 -145h-174zM160 520h174l-91 -520h-174z" />
    <glyph glyph-name="uni0457" unicode="&#x457;" horiz-adv-x="312" 
d="M160 520h174l-91 -520h-174zM113 727h139l-26 -145h-139zM319 727h139l-26 -145h-139z" />
    <glyph glyph-name="uni0458" unicode="&#x458;" horiz-adv-x="322" 
d="M80 6l90 514h174l-95 -541c-27 -147 -129 -179 -243 -179h-71l25 142h46c44 0 67 27 74 64zM207 727h174l-26 -145h-174z" />
    <glyph glyph-name="uni0459" unicode="&#x459;" horiz-adv-x="955" 
d="M663 378h108c100 0 183 -60 183 -168c0 -145 -112 -210 -245 -210h-285l66 378h-136l-19 -113c-35 -203 -118 -265 -287 -265h-28l29 167h21c60 0 93 19 109 115l41 238h469zM622 142h88c39 0 70 18 70 62c0 31 -23 46 -54 46h-85z" />
    <glyph glyph-name="uni045A" unicode="&#x45a;" horiz-adv-x="946" 
d="M334 520l-32 -182h172l32 182h174l-26 -142h108c100 0 183 -60 183 -168c0 -145 -112 -210 -245 -210h-285l34 196h-172l-34 -196h-174l91 520h174zM613 142h88c39 0 70 18 70 62c0 31 -23 46 -54 46h-85z" />
    <glyph glyph-name="uni045B" unicode="&#x45b;" horiz-adv-x="674" 
d="M137 650h68l14 77h174l-14 -77h165l-18 -105h-165l-21 -118h28c33 37 74 56 134 56c104 0 159 -73 159 -168c0 -17 -3 -41 -6 -60l-44 -255h-174l40 225c3 11 4 27 4 38c0 43 -21 68 -68 68c-52 0 -95 -35 -108 -107l-40 -224h-174l96 545h-68z" />
    <glyph glyph-name="uni045C" unicode="&#x45c;" horiz-adv-x="650" 
d="M430 0l-65 197h-88l-34 -197h-174l91 520h174l-32 -181h87l125 181h177l-171 -251l88 -269h-178zM482 582h-157l122 145h183z" />
    <glyph glyph-name="uni045E" unicode="&#x45e;" horiz-adv-x="625" 
d="M524 520h176l-440 -720h-174l156 260l-135 460h168l72 -252h27zM401 561c-117 0 -179 55 -179 142v11h130c1 -21 17 -46 61 -46s63 23 71 46h134c-23 -92 -94 -153 -217 -153z" />
    <glyph glyph-name="uni045F" unicode="&#x45f;" horiz-adv-x="649" 
d="M69 0l91 520h174l-66 -378h163l66 378h174l-91 -520h-174l-27 -153h-162l27 153h-175z" />
    <glyph glyph-name="uni0490" unicode="&#x490;" horiz-adv-x="644" 
d="M359 550l-96 -550h-186l125 714h345l27 150h186l-56 -314h-345z" />
    <glyph glyph-name="uni0491" unicode="&#x491;" horiz-adv-x="530" 
d="M448 663h162l-25 -143l-25 -142h-251l-66 -378h-174l91 520h263z" />
    <glyph glyph-name="uni0492" unicode="&#x492;" horiz-adv-x="674" 
d="M69 284l24 140h89l51 290h530l-28 -163h-344l-23 -127h178l-24 -140h-178l-50 -284h-186l49 284h-88z" />
    <glyph glyph-name="uni0493" unicode="&#x493;" horiz-adv-x="532" 
d="M61 279h68l42 241h425l-25 -141h-251l-17 -100h155l-21 -119h-155l-28 -160h-174l28 160h-68z" />
    <glyph glyph-name="uni049A" unicode="&#x49a;" horiz-adv-x="799" 
d="M77 0l125 714h186l-46 -263h135l169 263h193l-220 -347l57 -203h127l-59 -339h-180l30 175h-50l-81 284h-151l-49 -284h-186z" />
    <glyph glyph-name="uni049B" unicode="&#x49b;" horiz-adv-x="673" 
d="M430 0l-65 197h-88l-34 -197h-174l91 520h174l-32 -181h87l125 181h177l-171 -251l41 -127h105l-51 -285h-162l25 143h-48z" />
    <glyph glyph-name="uni04A2" unicode="&#x4a2;" horiz-adv-x="841" 
d="M650 714h186l-97 -550h103l-59 -339h-180l30 175h-108l49 283h-262l-49 -283h-186l125 714h186l-46 -264h262z" />
    <glyph glyph-name="uni04A3" unicode="&#x4a3;" horiz-adv-x="710" 
d="M679 520l-66 -378h90l-51 -285h-162l25 143h-101l34 196h-171l-34 -196h-174l91 520h174l-32 -182h171l32 182h174z" />
    <glyph glyph-name="uni04AE" unicode="&#x4ae;" horiz-adv-x="698" 
d="M410 454h28l175 260h198l-326 -471l-42 -243h-186l43 244l-161 470h186z" />
    <glyph glyph-name="uni04AF" unicode="&#x4af;" horiz-adv-x="601" 
d="M136 -39l-23 559h170l14 -413h44l152 413h180l-221 -559h-74l-28 -161h-174l28 161h-68z" />
    <glyph glyph-name="uni04B0" unicode="&#x4b0;" horiz-adv-x="698" 
d="M410 454h28l175 260h198l-257 -371h125l-25 -140h-176l-35 -203h-186l36 203h-178l25 140h126l-127 371h186z" />
    <glyph glyph-name="uni04B1" unicode="&#x4b1;" horiz-adv-x="601" 
d="M58 0h76l-21 520h170l14 -413h44l152 413h180l-206 -520h69l-18 -102h-151l-17 -98h-174l17 98h-153z" />
    <glyph glyph-name="uni04BA" unicode="&#x4ba;" horiz-adv-x="719" 
d="M669 0h-186l34 198c3 13 6 32 6 45c0 35 -13 63 -108 63c-27 0 -68 -4 -100 -12l-52 -294h-186l125 714h186l-45 -259c45 11 92 15 137 15c192 0 239 -65 239 -148c0 -23 -4 -59 -9 -87z" />
    <glyph glyph-name="uni04BB" unicode="&#x4bb;" horiz-adv-x="652" 
d="M489 533c104 0 158 -73 158 -168c0 -17 -3 -41 -6 -60l-52 -305h-174l48 275c3 11 4 27 4 38c0 43 -21 68 -68 68c-52 0 -95 -35 -108 -107l-48 -274h-174l128 727h174l-44 -250h28c33 37 74 56 134 56z" />
    <glyph glyph-name="uni04D8" unicode="&#x4d8;" horiz-adv-x="779" 
d="M467 567c-63 0 -102 -27 -117 -66h-192c29 133 152 226 330 226c184 0 310 -118 310 -318c0 -227 -131 -422 -384 -422c-200 0 -306 143 -306 316c0 32 1 61 13 121h484c-1 89 -50 143 -138 143zM587 284h-286v-9c0 -70 43 -128 127 -128c76 0 132 41 159 137z" />
    <glyph glyph-name="uni04D9" unicode="&#x4d9;" 
d="M279 352h-176c23 115 117 181 262 181c138 0 249 -84 249 -236c0 -181 -107 -310 -292 -310c-113 0 -236 67 -236 232c0 23 3 54 8 81h349c-3 60 -35 91 -90 91c-35 0 -62 -12 -74 -39zM330 111c49 0 87 22 102 86h-180v-6c0 -47 27 -80 78 -80z" />
    <glyph glyph-name="uni04E8" unicode="&#x4e8;" horiz-adv-x="806" 
d="M502 727c184 0 323 -111 323 -315c0 -244 -149 -425 -394 -425c-184 0 -323 113 -323 316c0 243 149 424 394 424zM443 151c85 0 149 58 173 138h-317c3 -89 60 -138 144 -138zM490 563c-84 0 -149 -55 -172 -134h316c-3 88 -61 134 -144 134z" />
    <glyph glyph-name="uni04E9" unicode="&#x4e9;" horiz-adv-x="635" 
d="M389 533c138 0 251 -87 251 -235c0 -181 -111 -311 -303 -311c-139 0 -250 84 -250 236c0 181 110 310 302 310zM347 123c53 0 92 31 111 87h-204c3 -59 40 -87 93 -87zM379 397c-53 0 -91 -30 -110 -83h203c-4 56 -41 83 -93 83z" />
    <glyph glyph-name="endash" unicode="&#x2013;" horiz-adv-x="623" 
d="M621 223h-541l22 128h541z" />
    <glyph glyph-name="emdash" unicode="&#x2014;" horiz-adv-x="879" 
d="M877 223h-797l22 128h797z" />
    <glyph glyph-name="quoteleft" unicode="&#x2018;" horiz-adv-x="314" 
d="M167 584l113 130h105l-113 -130l-5 -28h79l-30 -174h-184z" />
    <glyph glyph-name="quoteright" unicode="&#x2019;" horiz-adv-x="314" 
d="M338 512l-113 -130h-105l113 130l5 28h-79l30 174h184z" />
    <glyph glyph-name="quotesinglbase" unicode="&#x201a;" horiz-adv-x="314" 
d="M244 -28l-113 -130h-105l113 130l5 28h-79l30 174h184z" />
    <glyph glyph-name="quotedblleft" unicode="&#x201c;" horiz-adv-x="565" 
d="M167 584l113 130h105l-113 -130l-5 -28h79l-30 -174h-184zM418 584l113 130h105l-113 -130l-5 -28h79l-30 -174h-184z" />
    <glyph glyph-name="quotedblright" unicode="&#x201d;" horiz-adv-x="565" 
d="M338 512l-113 -130h-105l113 130l5 28h-79l30 174h184zM589 512l-113 -130h-105l113 130l5 28h-79l30 174h184z" />
    <glyph glyph-name="quotedblbase" unicode="&#x201e;" horiz-adv-x="565" 
d="M244 -28l-113 -130h-105l113 130l5 28h-79l30 174h184zM495 -28l-113 -130h-105l113 130l5 28h-79l30 174h184z" />
    <glyph glyph-name="dagger" unicode="&#x2020;" horiz-adv-x="551" 
d="M265 385h-166l26 145h166l32 184h154l-32 -184h167l-26 -145h-167l-95 -537h-154z" />
    <glyph glyph-name="daggerdbl" unicode="&#x2021;" horiz-adv-x="551" 
d="M586 385h-167l-36 -203h168l-26 -145h-167l-33 -189h-154l33 189h-166l26 145h165l36 203h-166l26 145h166l32 184h154l-32 -184h167z" />
    <glyph glyph-name="bullet" unicode="&#x2022;" horiz-adv-x="408" 
d="M119 356c0 81 66 147 147 147s147 -66 147 -147s-66 -147 -147 -147s-147 66 -147 147z" />
    <glyph glyph-name="ellipsis" unicode="&#x2026;" horiz-adv-x="890" 
d="M249 0h-184l30 174h184zM537 0h-184l30 174h184zM825 0h-184l30 174h184z" />
    <glyph glyph-name="perthousand" unicode="&#x2030;" horiz-adv-x="1280" 
d="M300 0h-117l547 700h116zM310 714c96 0 158 -60 158 -156c0 -108 -57 -222 -189 -222c-96 0 -157 60 -157 156c0 108 57 222 188 222zM284 430c57 0 75 72 75 125c0 36 -14 65 -53 65c-57 0 -75 -72 -75 -125c0 -36 14 -65 53 -65zM750 365c96 0 158 -60 158 -156
c0 -108 -57 -222 -189 -222c-96 0 -157 60 -157 156c0 108 57 222 188 222zM724 81c57 0 75 72 75 125c0 36 -14 65 -53 65c-57 0 -75 -72 -75 -125c0 -36 14 -65 53 -65zM1123 365c96 0 158 -60 158 -156c0 -108 -57 -222 -189 -222c-96 0 -157 60 -157 156
c0 108 57 222 188 222zM1097 81c57 0 75 72 75 125c0 36 -14 65 -53 65c-57 0 -75 -72 -75 -125c0 -36 14 -65 53 -65z" />
    <glyph glyph-name="guilsinglleft" unicode="&#x2039;" horiz-adv-x="430" 
d="M471 495l-213 -194l-4 -28l142 -184h-177l-126 161l16 92l176 153h186z" />
    <glyph glyph-name="guilsinglright" unicode="&#x203a;" horiz-adv-x="430" 
d="M64 89l213 194l4 28l-142 184h177l126 -161l-16 -92l-176 -153h-186z" />
    <glyph glyph-name="fraction" unicode="&#x2044;" horiz-adv-x="298" 
d="M7 0h-117l547 700h116z" />
    <glyph glyph-name="Euro" unicode="&#x20ac;" horiz-adv-x="718" 
d="M58 242l39 77h63c0 19 2 35 5 54h-84l40 77h60c40 159 161 264 317 264s245 -92 258 -227h-176c-8 45 -44 71 -95 71c-57 0 -104 -39 -124 -108h191l-40 -77h-169c-3 -17 -5 -35 -6 -54h147l-39 -77h-107c7 -67 43 -99 106 -99c56 0 93 35 110 92h179
c-32 -135 -136 -248 -298 -248c-177 0 -263 114 -274 255h-103z" />
    <glyph glyph-name="uni20B4" unicode="&#x20b4;" horiz-adv-x="750" 
d="M71 247l14 77h695l-14 -77h-441c-5 -11 -7 -24 -7 -38c0 -52 50 -72 94 -72c60 0 100 19 115 62h179c-29 -133 -137 -212 -304 -212c-151 0 -261 75 -261 207c0 17 2 34 5 53h-75zM377 503h-177c28 133 130 211 287 211c141 0 246 -75 246 -207c0 -19 -2 -36 -5 -52h75
l-14 -77h-695l14 77h447c5 13 8 25 8 38c0 52 -44 72 -84 72c-52 0 -89 -19 -102 -62z" />
    <glyph glyph-name="uni20B8" unicode="&#x20b8;" horiz-adv-x="564" 
d="M101 492l14 77h534l-14 -77h-178l-86 -492h-178l86 492h-178zM138 700h534l-14 -77h-534z" />
    <glyph glyph-name="uni20BD" unicode="&#x20bd;" horiz-adv-x="746" 
d="M87 383h89l56 317h323c128 0 229 -74 229 -207c0 -148 -102 -258 -302 -258h-154l-10 -54h151l-13 -77h-151l-18 -104h-178l18 104h-89l13 77h90l9 54h-89zM522 552h-138l-30 -169h141c64 0 111 30 111 98c0 47 -39 71 -84 71z" />
    <glyph glyph-name="uni2116" unicode="&#x2116;" horiz-adv-x="1162" 
d="M1153 197h-338l16 91h338zM659 700h163l-122 -700h-212l-148 407h-28l-71 -407h-164l123 700h212l147 -407h28zM1057 714c96 0 158 -60 158 -156c0 -108 -57 -222 -189 -222c-96 0 -157 60 -157 156c0 108 57 222 188 222zM1031 430c57 0 75 72 75 125
c0 36 -14 65 -53 65c-57 0 -75 -72 -75 -125c0 -36 14 -65 53 -65z" />
    <glyph glyph-name="trademark" unicode="&#x2122;" horiz-adv-x="865" 
d="M787 714h149l-67 -379h-93l46 256h-18l-68 -137h-90l-20 137h-18l-46 -256h-93l67 379h149l19 -137h17zM472 714l-15 -90h-113l-52 -289h-102l52 289h-112l15 90h327z" />
    <glyph glyph-name="Omega" unicode="&#x2126;" horiz-adv-x="780" 
d="M675 168v-28h105v-140h-306v149c83 60 115 136 115 228c0 123 -65 186 -153 186c-89 0 -154 -63 -154 -186c0 -92 32 -168 115 -228v-149h-305v140h105v28c-63 47 -105 126 -105 230c0 187 125 329 344 329s343 -142 343 -329c0 -104 -43 -183 -104 -230z" />
    <glyph glyph-name="arrowleft" unicode="&#x2190;" horiz-adv-x="802" 
d="M332 520h204l-159 -159v-28h409v-146h-409v-28l159 -159h-204l-260 260z" />
    <glyph glyph-name="arrowup" unicode="&#x2191;" horiz-adv-x="668" 
d="M654 454v-204l-159 159h-28v-409h-146v409h-28l-159 -159v204l260 260z" />
    <glyph glyph-name="arrowright" unicode="&#x2192;" horiz-adv-x="802" 
d="M354 520h204l260 -260l-260 -260h-204l159 159v28h-409v146h409v28z" />
    <glyph glyph-name="arrowdown" unicode="&#x2193;" horiz-adv-x="668" 
d="M654 464v-204l-260 -260l-260 260v204l159 -159h28v409h146v-409h28z" />
    <glyph glyph-name="uni2196" unicode="&#x2196;" horiz-adv-x="704" 
d="M302 202l-144 145v367h367l145 -144h-225l-20 -20l289 -289l-103 -103l-289 289l-20 -20v-225z" />
    <glyph glyph-name="uni2197" unicode="&#x2197;" horiz-adv-x="704" 
d="M673 347l-144 -145v225l-20 20l-289 -289l-103 103l289 289l-20 20h-225l145 144h367v-367z" />
    <glyph glyph-name="uni2198" unicode="&#x2198;" horiz-adv-x="704" 
d="M141 367l144 145v-225l20 -20l289 289l103 -103l-289 -289l20 -20h225l-145 -144h-367v367z" />
    <glyph glyph-name="uni2199" unicode="&#x2199;" horiz-adv-x="704" 
d="M524 512l144 -145v-367h-367l-145 144h225l20 20l-289 289l103 103l289 -289l20 20v225z" />
    <glyph glyph-name="partialdiff" unicode="&#x2202;" horiz-adv-x="639" 
d="M183 727h205c103 -69 252 -222 252 -455c0 -166 -99 -285 -275 -285c-171 0 -273 112 -273 267c0 156 91 259 206 259c47 0 81 -10 100 -29h32c-42 98 -175 195 -247 243zM366 129c70 0 99 54 99 125s-29 125 -99 125c-71 0 -100 -54 -100 -125s29 -125 100 -125z" />
    <glyph glyph-name="increment" unicode="&#x2206;" horiz-adv-x="661" 
d="M445 700l205 -535v-165h-581v165l205 535h171zM502 137v28l-127 333h-30l-127 -333v-28h284z" />
    <glyph glyph-name="product" unicode="&#x220f;" horiz-adv-x="639" 
d="M608 -200h-141v783h-121v-783h-141v783h-94v131h591v-131h-94v-783z" />
    <glyph glyph-name="summation" unicode="&#x2211;" horiz-adv-x="583" 
d="M598 550h-296v-28l130 -128v-76l-133 -126v-28h317v-164h-527v192l160 151v28l-154 151v192h503v-164z" />
    <glyph glyph-name="minus" unicode="&#x2212;" horiz-adv-x="667" 
d="M638 366v-147h-519v147h519z" />
    <glyph glyph-name="radical" unicode="&#x221a;" horiz-adv-x="681" 
d="M114 520h142l93 -347h28l153 527h211v-126h-108l-174 -574h-194z" />
    <glyph glyph-name="infinity" unicode="&#x221e;" horiz-adv-x="905" 
d="M485 324h25c49 51 111 120 202 120c96 0 164 -63 164 -162s-68 -162 -164 -162c-90 0 -155 67 -202 120h-25c-47 -53 -112 -120 -202 -120c-96 0 -164 63 -164 162s68 162 164 162c91 0 153 -69 202 -120zM454 282c-43 51 -96 111 -168 111c-61 0 -112 -39 -112 -111
s51 -111 112 -111c71 0 126 59 168 111zM541 282c42 -52 97 -111 168 -111c61 0 112 39 112 111s-51 111 -112 111c-72 0 -125 -60 -168 -111z" />
    <glyph glyph-name="integral" unicode="&#x222b;" horiz-adv-x="461" 
d="M387 477l-77 -443c-32 -179 -117 -234 -258 -234h-55v142h42c64 0 88 35 101 108l77 443c32 179 116 234 258 234h55v-142h-42c-64 0 -88 -35 -101 -108z" />
    <glyph glyph-name="approxequal" unicode="&#x2248;" horiz-adv-x="672" 
d="M529 499h114c0 -135 -61 -195 -153 -195c-89 0 -155 81 -213 81c-25 0 -44 -19 -44 -66h-114c0 135 60 195 152 195c88 0 157 -81 213 -81c25 0 45 19 45 66zM529 268h114c0 -135 -61 -195 -153 -195c-89 0 -155 81 -213 81c-25 0 -44 -19 -44 -66h-114
c0 135 60 195 152 195c88 0 157 -81 213 -81c25 0 45 19 45 66z" />
    <glyph glyph-name="notequal" unicode="&#x2260;" horiz-adv-x="667" 
d="M638 261v-147h-296l-71 -114h-152l72 114h-72v147h166l40 63h-206v147h299l73 114h147l-72 -114h72v-147h-164l-40 -63h204z" />
    <glyph glyph-name="lessequal" unicode="&#x2264;" horiz-adv-x="667" 
d="M398 333v28l-279 76v148l519 -156v-164l-393 -118h393v-147h-519v256z" />
    <glyph glyph-name="greaterequal" unicode="&#x2265;" horiz-adv-x="667" 
d="M359 361v-28l279 -77v-256h-519v147h392l-392 118v164l519 156v-148z" />
    <glyph glyph-name="lozenge" unicode="&#x25ca;" horiz-adv-x="599" 
d="M434 714l179 -357l-179 -357h-142l-179 357l179 357h142zM377 199l74 158l-74 158h-28l-74 -158l74 -158h28z" />
    <glyph glyph-name="commaaccent" unicode="&#xf6c3;" horiz-adv-x="255" 
d="M95 -240h-97l87 63l4 22h-67l18 103h165l-22 -125z" />
    <glyph glyph-name="uniFEFF" unicode="&#xfeff;" horiz-adv-x="0" 
 />
    <glyph glyph-name="eight.numr" horiz-adv-x="387" 
d="M392 540l-3 -19c19 -9 42 -34 42 -70c0 -85 -85 -124 -169 -124c-92 0 -150 52 -150 114c0 45 23 76 68 91l3 19c-15 9 -29 31 -29 60c0 80 76 110 152 110c87 0 136 -49 136 -98c0 -36 -17 -64 -50 -83zM301 643c-31 0 -46 -13 -46 -40c0 -19 14 -35 41 -35
c31 0 46 13 46 39c0 19 -14 36 -41 36zM324 456c0 23 -19 40 -50 40c-35 0 -55 -17 -55 -45c0 -23 20 -39 51 -39c33 0 54 16 54 44z" />
    <glyph glyph-name="nine.numr" horiz-adv-x="389" 
d="M244 457c-65 0 -109 46 -109 111c0 97 75 154 168 154c79 0 147 -49 147 -149c0 -127 -64 -245 -197 -245c-76 0 -130 44 -130 111h102c1 -15 11 -29 36 -29c32 0 66 21 78 74h-20c-13 -12 -35 -27 -75 -27zM298 637c-32 0 -55 -22 -55 -58c0 -24 17 -43 44 -43
c31 0 56 20 56 57c0 27 -18 44 -45 44z" />
    <glyph glyph-name="zero.dnom" horiz-adv-x="398" 
d="M401 239c0 -139 -74 -246 -190 -246c-75 0 -147 41 -147 148c0 139 74 246 191 246c74 0 146 -41 146 -148zM170 142c0 -37 15 -55 46 -55c53 0 77 87 77 151c0 37 -15 55 -46 55c-55 0 -77 -87 -77 -151z" />
    <glyph glyph-name="one.dnom" horiz-adv-x="338" 
d="M242 91h79l-16 -91h-272l16 91h86l32 184h-20l-73 -41l17 96l96 50h106z" />
    <glyph glyph-name="two.dnom" horiz-adv-x="374" 
d="M357 91l-16 -91h-308l19 108l131 66c56 28 80 58 80 87c0 23 -16 36 -39 36c-25 0 -44 -14 -47 -43h-106c12 84 65 133 160 133c80 0 143 -40 143 -116c0 -80 -70 -116 -139 -151l-23 -12l-3 -17h148z" />
    <glyph glyph-name="three.dnom" horiz-adv-x="376" 
d="M113 380h271l-17 -96l-71 -37l-3 -16c44 -13 71 -40 71 -99c0 -80 -74 -139 -167 -139c-96 0 -153 49 -153 128h103c3 -29 23 -45 54 -45c36 0 60 23 60 54c0 28 -19 47 -51 47c-11 0 -22 -1 -34 -3l14 74l61 36l3 16h-156z" />
    <glyph glyph-name="seven.numr" horiz-adv-x="345" 
d="M417 603l-182 -269h-110l181 269l3 20h-167l16 91h279z" />
    <glyph glyph-name="five.dnom" horiz-adv-x="379" 
d="M265 263c64 0 105 -46 105 -114c0 -88 -67 -156 -164 -156s-151 55 -151 134h106c0 -27 18 -44 49 -44c33 0 52 24 52 55c0 29 -17 46 -44 46c-22 0 -39 -8 -51 -24h-96l57 220h257l-16 -86h-178l-12 -51h20c13 11 31 20 66 20z" />
    <glyph glyph-name="six.dnom" horiz-adv-x="389" 
d="M270 258c65 0 109 -46 109 -111c0 -97 -75 -154 -168 -154c-79 0 -147 49 -147 149c0 127 64 245 197 245c76 0 130 -44 130 -111h-102c-1 15 -11 29 -36 29c-32 0 -66 -21 -78 -74h20c13 12 35 27 75 27zM216 78c32 0 55 22 55 58c0 24 -17 43 -44 43
c-31 0 -56 -20 -56 -57c0 -27 18 -44 45 -44z" />
    <glyph glyph-name="seven.dnom" horiz-adv-x="345" 
d="M359 269l-182 -269h-110l181 269l3 20h-167l16 91h279z" />
    <glyph glyph-name="eight.dnom" horiz-adv-x="387" 
d="M334 206l-3 -19c19 -9 42 -34 42 -70c0 -85 -85 -124 -169 -124c-92 0 -150 52 -150 114c0 45 23 76 68 91l3 19c-15 9 -29 31 -29 60c0 80 76 110 152 110c87 0 136 -49 136 -98c0 -36 -17 -64 -50 -83zM243 309c-31 0 -46 -13 -46 -40c0 -19 14 -35 41 -35
c31 0 46 13 46 39c0 19 -14 36 -41 36zM266 122c0 23 -19 40 -50 40c-35 0 -55 -17 -55 -45c0 -23 20 -39 51 -39c33 0 54 16 54 44z" />
    <glyph glyph-name="nine.dnom" horiz-adv-x="389" 
d="M186 123c-65 0 -109 46 -109 111c0 97 75 154 168 154c79 0 147 -49 147 -149c0 -127 -64 -245 -197 -245c-76 0 -130 44 -130 111h102c1 -15 11 -29 36 -29c32 0 66 21 78 74h-20c-13 -12 -35 -27 -75 -27zM240 303c-32 0 -55 -22 -55 -58c0 -24 17 -43 44 -43
c31 0 56 20 56 57c0 27 -18 44 -45 44z" />
    <glyph glyph-name="zero.onum" horiz-adv-x="650" 
d="M397 533c141 0 258 -88 258 -237c0 -176 -115 -309 -311 -309c-142 0 -257 87 -257 238c0 177 115 308 310 308zM358 138c80 0 123 68 123 148c0 60 -38 96 -98 96c-80 0 -122 -67 -122 -147c0 -60 38 -97 97 -97z" />
    <glyph glyph-name="one.onum" horiz-adv-x="548" 
d="M403 145h125l-25 -145h-440l25 145h141l37 207h-30l-124 -70l30 166l123 72h204z" />
    <glyph glyph-name="two.onum" horiz-adv-x="559" 
d="M548 145l-25 -145h-494l28 161l231 94c52 22 98 43 98 88c0 27 -22 45 -58 45c-39 0 -69 -19 -73 -66h-176c5 121 108 211 262 211c148 0 220 -74 220 -159c0 -104 -68 -145 -156 -182l-45 -19l-5 -28h193z" />
    <glyph glyph-name="three.onum" horiz-adv-x="626" 
d="M147 520h471l-31 -172l-122 -75l-5 -28c77 -23 121 -78 121 -181c0 -150 -124 -257 -288 -257c-168 0 -265 93 -265 236h176c4 -53 42 -85 97 -85c64 0 106 47 106 101c0 57 -40 89 -99 89c-19 0 -39 -2 -58 -7l24 132l123 75l5 28h-280z" />
    <glyph glyph-name="four.onum" horiz-adv-x="645" 
d="M553 145h83l-25 -145h-83l-32 -180h-169l32 180h-327l30 173l365 347h192zM222 145h169l33 189h-28l-169 -161z" />
    <glyph glyph-name="five.onum" horiz-adv-x="642" 
d="M417 300c112 0 191 -76 191 -212c0 -171 -131 -281 -283 -281c-173 0 -265 101 -265 236h174c3 -51 35 -85 94 -85c64 0 106 52 106 115c0 64 -43 92 -91 92c-40 0 -66 -14 -93 -45h-161l102 400h446l-26 -144h-312l-26 -113h28c20 17 52 37 116 37z" />
    <glyph glyph-name="six.onum" horiz-adv-x="647" 
d="M449 467c109 0 201 -77 201 -205c0 -144 -111 -275 -279 -275c-159 0 -265 89 -265 281c0 257 128 446 323 446c174 0 240 -111 248 -197h-174c-6 25 -19 56 -76 56c-53 0 -113 -47 -132 -151h28c20 18 55 45 126 45zM476 251c0 57 -43 86 -91 86
c-55 0 -104 -45 -104 -113c0 -64 37 -94 93 -94c64 0 102 58 102 121z" />
    <glyph glyph-name="seven.onum" horiz-adv-x="585" 
d="M600 342l-356 -522h-183l356 522l6 28h-314l27 150h496z" />
    <glyph glyph-name="eight.onum" horiz-adv-x="654" 
d="M568 375l-5 -28c41 -22 81 -57 81 -137c0 -123 -97 -223 -285 -223c-191 0 -278 91 -278 204c0 108 83 159 128 175l6 28c-31 23 -59 61 -59 121c0 104 92 199 261 199c168 0 251 -84 251 -185c0 -88 -57 -138 -100 -154zM324 499c0 -49 40 -75 83 -75c51 0 91 32 91 84
c0 47 -42 74 -83 74c-51 0 -91 -34 -91 -83zM261 212c0 -53 48 -82 101 -82c61 0 107 35 107 91s-49 85 -102 85c-60 0 -106 -35 -106 -94z" />
    <glyph glyph-name="nine.onum" horiz-adv-x="647" 
d="M285 54c-109 0 -201 77 -201 205c0 144 111 275 279 275c159 0 265 -89 265 -281c0 -257 -128 -446 -323 -446c-174 0 -240 111 -248 197h174c6 -25 19 -56 76 -56c53 0 113 47 132 151h-28c-20 -18 -55 -45 -126 -45zM258 270c0 -57 43 -86 91 -86c55 0 104 45 104 113
c0 64 -37 94 -93 94c-64 0 -102 -58 -102 -121z" />
    <glyph glyph-name="zero.tnum" horiz-adv-x="630" 
d="M667 441c0 -256 -127 -454 -327 -454c-128 0 -252 77 -252 273c0 256 127 454 327 454c128 0 252 -77 252 -273zM267 252v-10l193 294c-14 14 -32 21 -53 21c-99 0 -140 -177 -140 -305zM348 144c99 0 140 177 140 305v4l-191 -291c14 -12 31 -18 51 -18z" />
    <glyph glyph-name="one.tnum" horiz-adv-x="630" 
d="M450 154h147l-27 -154h-507l27 154h182l65 371h-28l-128 -75l31 174l127 76h207z" />
    <glyph glyph-name="two.tnum" horiz-adv-x="630" 
d="M606 154l-27 -154h-535l30 182l230 137c96 57 146 108 146 169c0 52 -38 72 -73 72c-49 0 -84 -26 -91 -82h-178c23 148 121 236 282 236c138 0 239 -75 239 -207c0 -167 -146 -250 -277 -325l-4 -28h258z" />
    <glyph glyph-name="three.tnum" horiz-adv-x="630" 
d="M186 700h472l-31 -176l-123 -71l-5 -28c77 -23 124 -78 124 -181c0 -150 -127 -257 -291 -257c-168 0 -266 93 -266 236h179c4 -53 40 -83 95 -83c64 0 104 44 104 99c0 57 -38 88 -97 88c-20 0 -40 -2 -59 -7l24 133l123 71l5 28h-280z" />
    <glyph glyph-name="four.tnum" horiz-adv-x="630" 
d="M576 295h82l-27 -152h-82l-25 -143h-171l25 143h-323l32 180l368 377h192zM240 295h172l36 206h-28l-175 -178z" />
    <glyph glyph-name="five.tnum" horiz-adv-x="630" 
d="M444 480c112 0 193 -76 193 -212c0 -171 -133 -281 -285 -281c-174 0 -269 101 -269 236h179c3 -51 34 -83 93 -83c63 0 103 49 103 113s-41 91 -88 91c-40 0 -65 -13 -92 -44h-163l102 400h449l-26 -147h-313l-26 -110h28c20 17 51 37 115 37z" />
    <glyph glyph-name="six.tnum" horiz-adv-x="630" 
d="M441 467c109 0 204 -77 204 -205c0 -144 -114 -275 -282 -275c-159 0 -268 89 -268 281c0 257 131 446 326 446c174 0 244 -111 252 -197h-178c-4 25 -20 54 -76 54c-53 0 -113 -44 -132 -149h28c20 18 55 45 126 45zM466 251c0 57 -41 86 -89 86
c-56 0 -102 -45 -102 -113c0 -64 35 -93 91 -93c65 0 100 57 100 120z" />
    <glyph glyph-name="seven.tnum" horiz-adv-x="630" 
d="M647 519l-354 -519h-186l354 519l6 28h-311l27 153h497z" />
    <glyph glyph-name="eight.tnum" horiz-adv-x="630" 
d="M564 375l-5 -28c41 -22 81 -57 81 -137c0 -123 -99 -223 -287 -223c-191 0 -280 91 -280 204c0 108 83 159 128 175l6 28c-31 23 -59 61 -59 121c0 104 95 199 263 199s253 -84 253 -185c0 -88 -57 -138 -100 -154zM320 497c0 -49 40 -73 81 -73c49 0 89 30 89 82
c0 47 -41 72 -81 72c-49 0 -89 -32 -89 -81zM257 211c0 -53 46 -82 99 -82c61 0 105 35 105 91s-47 84 -100 84c-60 0 -104 -34 -104 -93z" />
    <glyph glyph-name="nine.tnum" horiz-adv-x="630" 
d="M321 234c-109 0 -204 77 -204 205c0 144 114 275 282 275c159 0 268 -89 268 -281c0 -257 -131 -446 -326 -446c-174 0 -244 111 -252 197h178c4 -25 20 -54 76 -54c53 0 113 44 132 149h-28c-20 -18 -55 -45 -126 -45zM296 450c0 -57 41 -86 89 -86c56 0 102 45 102 113
c0 64 -35 93 -91 93c-65 0 -100 -57 -100 -120z" />
    <glyph glyph-name="dollar.tnum" horiz-adv-x="630" 
d="M661 496h-175c-3 33 -20 53 -44 61l-23 -127l58 -17c87 -26 155 -76 155 -192c0 -139 -118 -234 -281 -234h-11l-15 -85h-63l16 91c-133 21 -209 105 -209 238h175c1 -48 24 -77 61 -86l25 146l-54 17c-107 32 -143 105 -143 182c0 128 98 224 266 224h6l15 84h65
l-16 -90c113 -22 192 -93 192 -212zM391 273l-24 -136c42 0 88 20 88 72c0 35 -21 48 -53 60zM310 501c0 -32 17 -42 48 -53l21 116c-39 0 -69 -26 -69 -63z" />
    <glyph glyph-name="Euro.tnum" horiz-adv-x="630" 
d="M104 450h42c43 147 144 264 301 264c176 0 244 -103 252 -227h-176c-3 37 -23 71 -76 71s-98 -40 -121 -108h167l-39 -77h-148c-4 -19 -6 -35 -7 -54h126l-39 -77h-86c5 -75 41 -99 88 -99c57 0 90 45 103 92h175c-34 -138 -123 -248 -282 -248c-149 0 -248 95 -261 255
h-82l39 77h43c1 19 3 35 7 54h-65z" />
    <glyph glyph-name="sterling.tnum" horiz-adv-x="630" 
d="M290 154h341l-27 -154h-565l27 154h15c44 0 64 34 73 83l5 29h-72l24 135h72l14 85c21 127 96 228 254 228c142 0 222 -85 222 -194c0 -11 -1 -22 -2 -33h-178c0 8 1 17 1 24c0 35 -20 49 -51 49c-35 0 -57 -19 -68 -75l-14 -84h204l-24 -135h-204l-2 -12
c-7 -39 -17 -56 -40 -72z" />
    <glyph glyph-name="yen.tnum" horiz-adv-x="630" 
d="M131 403h80l-72 297h171l56 -297h28l164 297h182l-181 -297h83l-14 -77h-115l-33 -54h138l-13 -77h-171l-34 -195h-172l34 195h-168l13 77h136l-13 54h-113z" />
    <glyph glyph-name="uni20BD.tnum" horiz-adv-x="630" 
d="M389 235h-74l-9 -54h145l-14 -77h-145l-18 -104h-178l18 104h-74l14 77h74l9 54h-74l26 148h74l56 317h252c128 0 229 -74 229 -207c0 -148 -102 -258 -302 -258h-9zM389 552h-18l-30 -169h70c64 0 111 30 111 98c0 47 -39 71 -84 71h-49z" />
    <glyph glyph-name="uni20B4.tnum" horiz-adv-x="630" 
d="M67 247l14 77h581l-14 -77h-353c-7 -14 -10 -30 -10 -48c0 -36 26 -62 69 -62c48 0 73 30 82 62h181c-19 -127 -113 -212 -268 -212c-161 0 -241 88 -241 201c0 19 2 39 7 59h-48zM104 455h354c7 13 11 29 11 48c0 35 -19 62 -59 62c-43 0 -60 -25 -71 -56h-177
c21 128 113 205 254 205c156 0 230 -89 230 -197c0 -20 -3 -41 -8 -62h47l-14 -77h-581z" />
    <glyph glyph-name="uni20B8.tnum" horiz-adv-x="630" 
d="M134 492l13 77h536l-13 -77h-179l-87 -492h-178l87 492h-179zM170 700h536l-13 -77h-536z" />
    <glyph glyph-name="cent.tnum" horiz-adv-x="630" 
d="M442 186h171c-16 -119 -114 -199 -263 -199h-5l-12 -67h-51l12 72c-111 18 -193 101 -193 231c0 179 104 305 289 310l12 67h51l-13 -70c104 -13 183 -84 188 -186h-171c-3 21 -18 39 -42 44l-45 -259c36 1 64 24 72 57zM275 230c0 -47 14 -82 45 -94l44 252
c-59 -11 -89 -86 -89 -158z" />
    <glyph glyph-name="circumflex.cap" horiz-adv-x="444" 
d="M409 767l-31 46h-28l-47 -46h-128l133 129h142l89 -129h-130z" />
    <glyph glyph-name="dieresis.cap" horiz-adv-x="425" 
d="M197 896h139l-22 -129h-139zM403 896h139l-22 -129h-139z" />
    <glyph glyph-name="acute.cap" horiz-adv-x="364" 
d="M178 767l118 129h185l-144 -129h-159z" />
    <glyph glyph-name="grave.cap" horiz-adv-x="364" 
d="M456 767h-152l-100 129h178z" />
    <glyph glyph-name="ring.cap" horiz-adv-x="328" 
d="M313 969c69 0 124 -53 124 -120c0 -66 -55 -119 -124 -119c-68 0 -124 53 -124 119c0 67 56 120 124 120zM313 803c25 0 46 21 46 46c0 27 -21 47 -46 47s-46 -20 -46 -47c0 -25 21 -46 46 -46z" />
    <glyph glyph-name="caron.cap" horiz-adv-x="444" 
d="M327 896l31 -46h28l47 46h128l-133 -129h-142l-89 129h130z" />
    <glyph glyph-name="dotaccent.cap" horiz-adv-x="254" 
d="M197 896h174l-22 -129h-174z" />
    <glyph glyph-name="breve.cap" horiz-adv-x="376" 
d="M396 896h97c-16 -77 -71 -129 -170 -129c-88 0 -128 42 -128 106c0 7 1 15 2 23h98v-6c0 -23 15 -39 43 -39c31 0 53 18 58 45z" />
    <glyph glyph-name="hungarumlaut.cap" horiz-adv-x="519" 
d="M429 896l-120 -129h-134l95 129h159zM631 896l-120 -129h-134l95 129h159z" />
    <glyph glyph-name="tilde.cap" horiz-adv-x="417" 
d="M243 767h-69c13 73 56 131 131 131c62 0 82 -36 124 -36c20 0 32 11 36 34h69c-13 -71 -55 -131 -131 -131c-61 0 -81 37 -124 37c-19 0 -32 -8 -36 -35z" />
    <glyph glyph-name="macron.cap" horiz-adv-x="394" 
d="M178 786l16 93h314l-16 -93h-314z" />
    <glyph glyph-name="cyrbreve" horiz-adv-x="476" 
d="M344 561c-117 0 -179 55 -179 142v11h130c1 -21 17 -46 61 -46s63 23 71 46h134c-23 -92 -94 -153 -217 -153z" />
    <glyph glyph-name="cyrbreve.cap" horiz-adv-x="476" 
d="M378 751c-117 0 -179 55 -179 142v11h130c1 -21 17 -46 61 -46s63 23 71 46h134c-23 -92 -94 -153 -217 -153z" />
    <glyph glyph-name="hyphen.case" horiz-adv-x="413" 
d="M420 297h-323l27 149h322z" />
    <glyph glyph-name="endash.case" horiz-adv-x="623" 
d="M636 308h-541l22 128h541z" />
    <glyph glyph-name="emdash.case" horiz-adv-x="879" 
d="M892 308h-797l22 128h797z" />
    <glyph glyph-name="emdash.ss02.case" horiz-adv-x="1443" 
d="M1457 308h-1361l22 128h1361z" />
    <glyph glyph-name="bracketleft.case" horiz-adv-x="445" 
d="M349 -93h-300l158 900h301l-22 -125h-155l-115 -650h155z" />
    <glyph glyph-name="bracketright.case" horiz-adv-x="301" 
d="M191 807h300l-158 -900h-301l22 125h155l115 650h-155z" />
    <glyph glyph-name="braceleft.case" horiz-adv-x="450" 
d="M283 371l-4 -28c32 -11 56 -42 56 -90c0 -11 -1 -26 -4 -37l-14 -77c-3 -13 -5 -29 -5 -44c0 -44 21 -63 74 -63h37l-22 -125h-49c-117 0 -191 59 -191 151c0 15 2 41 5 53l14 79c3 11 4 27 4 36c0 43 -21 65 -64 65h-29l24 132h29c55 0 82 34 93 95l20 107
c21 112 92 182 241 182h61l-22 -125h-41c-67 0 -91 -39 -103 -110l-16 -89c-11 -64 -50 -99 -94 -112z" />
    <glyph glyph-name="braceright.case" horiz-adv-x="450" 
d="M292 343l4 28c-32 11 -56 42 -56 90c0 11 1 26 4 37l14 77c3 13 5 29 5 44c0 44 -21 63 -74 63h-37l22 125h49c117 0 191 -59 191 -151c0 -15 -2 -41 -5 -53l-14 -79c-3 -11 -4 -27 -4 -36c0 -43 21 -65 64 -65h29l-24 -132h-29c-55 0 -82 -34 -93 -95l-20 -107
c-21 -112 -92 -182 -241 -182h-61l22 125h41c67 0 91 39 103 110l16 89c11 64 50 99 94 112z" />
    <glyph glyph-name="parenleft.case" horiz-adv-x="354" 
d="M330 -93h-141c-51 80 -92 190 -92 349c0 220 97 410 249 551h149c-143 -170 -251 -326 -251 -560c0 -146 45 -256 86 -340z" />
    <glyph glyph-name="parenright.case" horiz-adv-x="354" 
d="M149 807h141c51 -80 92 -190 92 -349c0 -220 -97 -410 -249 -551h-149c143 170 251 326 251 560c0 146 -45 256 -86 340z" />
    <glyph glyph-name="guillemotright.case" horiz-adv-x="720" 
d="M76 155l213 194l4 28l-142 184h177l126 -161l-16 -92l-176 -153h-186zM366 155l213 194l4 28l-142 184h177l126 -161l-16 -92l-176 -153h-186z" />
    <glyph glyph-name="guillemotleft.case" horiz-adv-x="720" 
d="M483 561l-213 -194l-4 -28l142 -184h-177l-126 161l16 92l176 153h186zM773 561l-213 -194l-4 -28l142 -184h-177l-126 161l16 92l176 153h186z" />
    <glyph glyph-name="guilsinglright.case" horiz-adv-x="430" 
d="M76 155l213 194l4 28l-142 184h177l126 -161l-16 -92l-176 -153h-186z" />
    <glyph glyph-name="guilsinglleft.case" horiz-adv-x="430" 
d="M483 561l-213 -194l-4 -28l142 -184h-177l-126 161l16 92l176 153h186z" />
    <glyph glyph-name="exclamdown.case" horiz-adv-x="364" 
d="M269 0h-174l50 287l67 196h110l-3 -196zM215 714h184l-30 -174h-184z" />
    <glyph glyph-name="questiondown.case" horiz-adv-x="592" 
d="M328 -13c-163 0 -248 90 -248 191c0 115 81 162 153 202c51 31 69 51 76 80l5 23h177l-5 -25c-14 -76 -47 -112 -115 -155c-56 -35 -110 -49 -110 -104c0 -35 30 -58 74 -58c55 0 92 32 95 88h176c-11 -127 -101 -242 -278 -242zM350 714h183l-30 -174h-183z" />
    <glyph glyph-name="a.ss03" horiz-adv-x="656" 
d="M335 533c64 0 118 -25 139 -60h28l8 47h168l-91 -520h-168l8 43h-28c-24 -33 -67 -56 -124 -56c-120 0 -188 98 -188 229c0 168 95 317 248 317zM377 393c-73 0 -112 -81 -112 -164c0 -64 26 -102 82 -102c80 0 118 87 118 163c0 64 -32 103 -88 103z" />
    <glyph glyph-name="aacute.ss03" horiz-adv-x="656" 
d="M335 533c64 0 118 -25 139 -60h28l8 47h168l-91 -520h-168l8 43h-28c-24 -33 -67 -56 -124 -56c-120 0 -188 98 -188 229c0 168 95 317 248 317zM377 393c-73 0 -112 -81 -112 -164c0 -64 26 -102 82 -102c80 0 118 87 118 163c0 64 -32 103 -88 103zM492 582h-157
l122 145h183z" />
    <glyph glyph-name="agrave.ss03" horiz-adv-x="656" 
d="M335 533c64 0 118 -25 139 -60h28l8 47h168l-91 -520h-168l8 43h-28c-24 -33 -67 -56 -124 -56c-120 0 -188 98 -188 229c0 168 95 317 248 317zM377 393c-73 0 -112 -81 -112 -164c0 -64 26 -102 82 -102c80 0 118 87 118 163c0 64 -32 103 -88 103zM537 582h-148
l-96 145h174z" />
    <glyph glyph-name="acircumflex.ss03" horiz-adv-x="656" 
d="M441 637l-54 -55h-127l138 145h140l86 -145h-121l-34 55h-28zM335 533c64 0 118 -25 139 -60h28l8 47h168l-91 -520h-168l8 43h-28c-24 -33 -67 -56 -124 -56c-120 0 -188 98 -188 229c0 168 95 317 248 317zM377 393c-73 0 -112 -81 -112 -164c0 -64 26 -102 82 -102
c80 0 118 87 118 163c0 64 -32 103 -88 103z" />
    <glyph glyph-name="adieresis.ss03" horiz-adv-x="656" 
d="M335 533c64 0 118 -25 139 -60h28l8 47h168l-91 -520h-168l8 43h-28c-24 -33 -67 -56 -124 -56c-120 0 -188 98 -188 229c0 168 95 317 248 317zM377 393c-73 0 -112 -81 -112 -164c0 -64 26 -102 82 -102c80 0 118 87 118 163c0 64 -32 103 -88 103zM291 727h139
l-26 -145h-139zM497 727h139l-26 -145h-139z" />
    <glyph glyph-name="atilde.ss03" horiz-adv-x="656" 
d="M335 533c64 0 118 -25 139 -60h28l8 47h168l-91 -520h-168l8 43h-28c-24 -33 -67 -56 -124 -56c-120 0 -188 98 -188 229c0 168 95 317 248 317zM377 393c-73 0 -112 -81 -112 -164c0 -64 26 -102 82 -102c80 0 118 87 118 163c0 64 -32 103 -88 103zM336 582h-69
c16 83 58 145 134 145c62 0 79 -48 121 -48c19 0 34 20 39 48h69c-16 -80 -58 -145 -134 -145c-62 0 -79 48 -121 48c-19 0 -34 -19 -39 -48z" />
    <glyph glyph-name="aring.ss03" horiz-adv-x="656" 
d="M335 533c64 0 118 -25 139 -60h28l8 47h168l-91 -520h-168l8 43h-28c-24 -33 -67 -56 -124 -56c-120 0 -188 98 -188 229c0 168 95 317 248 317zM377 393c-73 0 -112 -81 -112 -164c0 -64 26 -102 82 -102c80 0 118 87 118 163c0 64 -32 103 -88 103zM447 805
c69 0 124 -53 124 -120c0 -66 -55 -119 -124 -119c-68 0 -124 53 -124 119c0 67 56 120 124 120zM447 639c25 0 46 21 46 46c0 27 -21 47 -46 47s-46 -20 -46 -47c0 -25 21 -46 46 -46z" />
    <glyph glyph-name="amacron.ss03" horiz-adv-x="656" 
d="M335 533c64 0 118 -25 139 -60h28l8 47h168l-91 -520h-168l8 43h-28c-24 -33 -67 -56 -124 -56c-120 0 -188 98 -188 229c0 168 95 317 248 317zM377 393c-73 0 -112 -81 -112 -164c0 -64 26 -102 82 -102c80 0 118 87 118 163c0 64 -32 103 -88 103zM278 607l17 98h314
l-17 -98h-314z" />
    <glyph glyph-name="abreve.ss03" horiz-adv-x="656" 
d="M335 533c64 0 118 -25 139 -60h28l8 47h168l-91 -520h-168l8 43h-28c-24 -33 -67 -56 -124 -56c-120 0 -188 98 -188 229c0 168 95 317 248 317zM377 393c-73 0 -112 -81 -112 -164c0 -64 26 -102 82 -102c80 0 118 87 118 163c0 64 -32 103 -88 103zM506 727h98
c-15 -84 -65 -145 -166 -145c-88 0 -134 44 -134 111c0 11 1 22 3 34h97c-1 -3 -1 -8 -1 -15c0 -25 15 -41 44 -41c33 0 52 21 59 56z" />
    <glyph glyph-name="aogonek.ss03" horiz-adv-x="656" 
d="M335 533c64 0 118 -25 139 -60h28l8 47h168l-91 -520c-37 -19 -60 -44 -60 -71c0 -19 12 -34 45 -34l-17 -95h-36c-94 0 -123 41 -123 84c0 56 41 96 93 116h-70l8 43h-28c-24 -33 -67 -56 -124 -56c-120 0 -188 98 -188 229c0 168 95 317 248 317zM377 393
c-73 0 -112 -81 -112 -164c0 -64 26 -102 82 -102c80 0 118 87 118 163c0 64 -32 103 -88 103z" />
    <glyph glyph-name="t.ss04" horiz-adv-x="394" 
d="M263 0h-173l66 378h-68l25 142h68l25 140h173l-25 -140h103l-25 -142h-103z" />
    <glyph glyph-name="tcaron.ss04" horiz-adv-x="477" 
d="M632 656l-106 -90h-95l106 90l5 28h-79l24 134h174zM263 0h-173l66 378h-68l25 142h68l25 140h173l-25 -140h103l-25 -142h-103z" />
    <glyph glyph-name="uni0163.ss04" horiz-adv-x="394" 
d="M263 0h-173l66 378h-68l25 142h68l25 140h173l-25 -140h103l-25 -142h-103zM140 -240h-97l87 63l4 22h-67l18 103h165l-22 -125z" />
    <glyph glyph-name="Y.ss05" horiz-adv-x="713" 
d="M416 429h28l184 285h194l-465 -714h-183l136 210l-175 504h182z" />
    <glyph glyph-name="Yacute.ss05" horiz-adv-x="713" 
d="M416 429h28l184 285h194l-465 -714h-183l136 210l-175 504h182zM382 767l118 129h185l-144 -129h-159z" />
    <glyph glyph-name="Ydieresis.ss05" horiz-adv-x="713" 
d="M416 429h28l184 285h194l-465 -714h-183l136 210l-175 504h182zM327 896h139l-22 -129h-139zM533 896h139l-22 -129h-139z" />
    <glyph glyph-name="ampersand.ss06" horiz-adv-x="694" 
d="M648 524h-175c-4 29 -31 47 -70 47c-48 0 -80 -29 -80 -68c0 -41 33 -60 69 -60h51l-25 -142h-54c-68 0 -111 -29 -111 -89c0 -44 34 -76 102 -76c65 0 110 33 122 98l37 209h238l-25 -142h-65l-14 -75c-24 -136 -129 -239 -305 -239c-158 0 -265 78 -265 204
c0 107 73 166 125 182l4 28c-32 24 -56 53 -56 112c0 120 111 201 256 201c151 0 233 -79 241 -190z" />
    <glyph glyph-name="zero.ss07" horiz-adv-x="664" 
d="M682 441c0 -256 -127 -454 -327 -454c-128 0 -252 77 -252 273c0 256 127 454 327 454c128 0 252 -77 252 -273zM282 252v-10l193 294c-14 14 -32 21 -53 21c-99 0 -140 -177 -140 -305zM363 144c99 0 140 177 140 305v4l-191 -291c14 -12 31 -18 51 -18z" />
    <glyph glyph-name="emdash.ss02" horiz-adv-x="1443" 
d="M1441 223h-1361l22 128h1361z" />
    <glyph glyph-name="uni0430.ss03" horiz-adv-x="656" 
d="M335 533c64 0 118 -25 139 -60h28l8 47h168l-91 -520h-168l8 43h-28c-24 -33 -67 -56 -124 -56c-120 0 -188 98 -188 229c0 168 95 317 248 317zM377 393c-73 0 -112 -81 -112 -164c0 -64 26 -102 82 -102c80 0 118 87 118 163c0 64 -32 103 -88 103z" />
    <glyph glyph-name="uni0423.ss08" horiz-adv-x="707" 
d="M310 219l-172 495h182l97 -281h28l181 281h194l-360 -555c-74 -117 -147 -159 -266 -159h-41l30 173h35c47 0 69 13 85 36z" />
    <glyph glyph-name="uni040E.ss08" horiz-adv-x="707" 
d="M310 219l-172 495h182l97 -281h28l181 281h194l-360 -555c-74 -117 -147 -159 -266 -159h-41l30 173h35c47 0 69 13 85 36zM480 751c-117 0 -179 55 -179 142v11h130c1 -21 17 -46 61 -46s63 23 71 46h134c-23 -92 -94 -153 -217 -153z" />
    <glyph glyph-name="six.numr" horiz-adv-x="389" 
d="M328 592c65 0 109 -46 109 -111c0 -97 -75 -154 -168 -154c-79 0 -147 49 -147 149c0 127 64 245 197 245c76 0 130 -44 130 -111h-102c-1 15 -11 29 -36 29c-32 0 -66 -21 -78 -74h20c13 12 35 27 75 27zM274 412c32 0 55 22 55 58c0 24 -17 43 -44 43
c-31 0 -56 -20 -56 -57c0 -27 18 -44 45 -44z" />
    <glyph glyph-name="five.numr" horiz-adv-x="379" 
d="M323 597c64 0 105 -46 105 -114c0 -88 -67 -156 -164 -156s-151 55 -151 134h106c0 -27 18 -44 49 -44c33 0 52 24 52 55c0 29 -17 46 -44 46c-22 0 -39 -8 -51 -24h-96l57 220h257l-16 -86h-178l-12 -51h20c13 11 31 20 66 20z" />
    <glyph glyph-name="four.numr" horiz-adv-x="376" 
d="M387 494h43l-16 -88h-43l-12 -72h-102l12 72h-175l19 107l195 201h118zM289 494l18 106h-20l-82 -87l-3 -19h87z" />
    <glyph glyph-name="three.numr" horiz-adv-x="376" 
d="M171 714h271l-17 -96l-71 -37l-3 -16c44 -13 71 -40 71 -99c0 -80 -74 -139 -167 -139c-96 0 -153 49 -153 128h103c3 -29 23 -45 54 -45c36 0 60 23 60 54c0 28 -19 47 -51 47c-11 0 -22 -1 -34 -3l14 74l61 36l3 16h-156z" />
    <glyph glyph-name="two.numr" horiz-adv-x="374" 
d="M415 425l-16 -91h-308l19 108l131 66c56 28 80 58 80 87c0 23 -16 36 -39 36c-25 0 -44 -14 -47 -43h-106c12 84 65 133 160 133c80 0 143 -40 143 -116c0 -80 -70 -116 -139 -151l-23 -12l-3 -17h148z" />
    <glyph glyph-name="quotedbl.ss01" horiz-adv-x="317" 
d="M163 473l42 241h34l-42 -241h-34zM286 473l42 241h34l-42 -241h-34z" />
    <glyph glyph-name="numbersign.ss01" horiz-adv-x="551" 
d="M366 0l32 208h-159l-32 -208h-34l32 208h-104v31h110l34 222h-102v31h107l33 208h34l-34 -208h161l33 208h34l-33 -208h104v-31h-109l-35 -222h103v-31h-108l-32 -208h-35zM279 461l-35 -222h160l35 222h-160z" />
    <glyph glyph-name="quotesingle.ss01" horiz-adv-x="194" 
d="M163 473l42 241h34l-42 -241h-34z" />
    <glyph glyph-name="parenleft.ss01" horiz-adv-x="256" 
d="M333 759h45c-152 -144 -246 -331 -246 -552c0 -129 31 -236 87 -348h-37c-57 109 -84 230 -84 349c0 204 84 399 235 551z" />
    <glyph glyph-name="parenright.ss01" horiz-adv-x="256" 
d="M32 -141h-45c152 144 246 331 246 552c0 129 -31 236 -87 348h37c57 -109 84 -230 84 -349c0 -204 -84 -399 -235 -551z" />
    <glyph glyph-name="bracketleft.ss01" horiz-adv-x="255" 
d="M173 -141h-118l158 900h118l-5 -31h-84l-148 -838h84z" />
    <glyph glyph-name="bracketright.ss01" horiz-adv-x="255" 
d="M190 759h118l-158 -900h-118l5 31h84l148 838h-84z" />
    <glyph glyph-name="braceleft.ss01" horiz-adv-x="337" 
d="M193 318l-4 -18c17 -6 25 -22 25 -48c0 -12 -2 -28 -5 -43l-38 -215c-2 -13 -3 -26 -3 -37c0 -48 23 -67 79 -67h30l-5 -31h-30c-68 0 -108 26 -108 95c0 15 1 28 4 41l36 204c4 21 6 38 6 52c0 27 -9 43 -36 43h-13l6 30h13c41 0 51 34 62 95l36 204
c19 101 72 136 152 136h30l-5 -31h-30c-69 0 -100 -32 -112 -104l-38 -215c-11 -60 -28 -82 -52 -91z" />
    <glyph glyph-name="braceright.ss01" horiz-adv-x="337" 
d="M252 300l4 18c-17 6 -25 22 -25 48c0 12 2 28 5 43l38 215c2 13 3 26 3 37c0 48 -23 67 -79 67h-30l5 31h30c68 0 108 -26 108 -95c0 -15 -1 -28 -4 -41l-36 -204c-4 -21 -6 -38 -6 -52c0 -27 9 -43 36 -43h13l-6 -30h-13c-41 0 -51 -34 -62 -95l-36 -204
c-19 -101 -72 -136 -152 -136h-30l5 31h30c69 0 100 32 112 104l38 215c11 60 28 82 52 91z" />
    <glyph glyph-name="asterisk.ss01" horiz-adv-x="448" 
d="M513 559l-178 -50l84 -145l-31 -19l-77 147l-134 -147l-24 25l137 140l-160 54l13 34l158 -63l18 179h36l-25 -179l177 58z" />
    <glyph glyph-name="plus.ss01" horiz-adv-x="667" 
d="M363 308v244h33v-244h242v-31h-242v-244h-33v244h-244v31h244z" />
    <glyph glyph-name="minus.ss01" horiz-adv-x="667" 
d="M638 277h-519v31h519v-31z" />
    <glyph glyph-name="less.ss01" horiz-adv-x="653" 
d="M624 87v-33l-505 216v44l505 216v-33l-455 -196v-18z" />
    <glyph glyph-name="equal.ss01" horiz-adv-x="667" 
d="M638 212v-31h-519v31h519zM638 404v-31h-519v31h519z" />
    <glyph glyph-name="greater.ss01" horiz-adv-x="653" 
d="M119 54v33l455 196v18l-455 196v33l505 -216v-44z" />
    <glyph glyph-name="hyphen.ss01" horiz-adv-x="413" 
d="M416 271h-323l5 31h323z" />
    <glyph glyph-name="endash.ss01" horiz-adv-x="623" 
d="M630 271h-542l6 31h541z" />
    <glyph glyph-name="emdash.ss01" horiz-adv-x="879" 
d="M885 266h-798l6 31h797z" />
    <glyph glyph-name="emdash.ss01.ss02" horiz-adv-x="1443" 
d="M1449 271h-1361l6 31h1361z" />
    <glyph glyph-name="underscore.ss01" horiz-adv-x="517" 
d="M494 -128h-518l6 31h518z" />
    <glyph glyph-name="slash.ss01" horiz-adv-x="363" 
d="M10 -141h-35l459 900h33z" />
    <glyph glyph-name="bar.ss01" horiz-adv-x="214" 
d="M65 -141l158 900h34l-158 -900h-34z" />
    <glyph glyph-name="backslash.ss01" horiz-adv-x="365" 
d="M340 -141h-34l-141 900h31z" />
    <glyph glyph-name="degree.ss01" horiz-adv-x="461" 
d="M131 523c0 114 82 198 190 198s191 -84 191 -198c0 -113 -83 -197 -191 -197s-190 84 -190 197zM165 523c0 -94 65 -166 156 -166c92 0 157 72 157 166c0 96 -65 167 -157 167c-91 0 -156 -71 -156 -167z" />
    <glyph glyph-name="guillemotleft.ss01" horiz-adv-x="484" 
d="M138 298l-3 -18l151 -191h-41l-148 184l7 39l209 183h47zM303 298l-3 -18l151 -191h-41l-148 184l7 39l209 183h47z" />
    <glyph glyph-name="guillemotright.ss01" horiz-adv-x="484" 
d="M454 288l3 18l-149 189h41l146 -182l-7 -39l-212 -185h-47zM289 288l3 18l-149 189h41l146 -182l-7 -39l-212 -185h-47z" />
    <glyph glyph-name="guilsinglleft.ss01" horiz-adv-x="319" 
d="M138 298l-3 -18l151 -191h-41l-148 184l7 39l209 183h47z" />
    <glyph glyph-name="guilsinglright.ss01" horiz-adv-x="319" 
d="M289 288l3 18l-149 189h41l146 -182l-7 -39l-212 -185h-47z" />
    <glyph glyph-name="quoteleft.ss01" horiz-adv-x="224" 
d="M213 610h33l-18 -102h-64l21 119l64 87h31l-64 -87z" />
    <glyph glyph-name="quoteright.ss01" horiz-adv-x="224" 
d="M214 612h-33l18 102h64l-21 -119l-64 -87h-31l64 87z" />
    <glyph glyph-name="quotesinglbase.ss01" horiz-adv-x="224" 
d="M113 0h-33l18 102h64l-21 -119l-64 -87h-31l64 87z" />
    <glyph glyph-name="quotedblleft.ss01" horiz-adv-x="359" 
d="M348 610h33l-18 -102h-64l21 119l64 87h31l-64 -87zM211 610h33l-18 -102h-64l21 119l64 87h31l-64 -87z" />
    <glyph glyph-name="quotedblright.ss01" horiz-adv-x="361" 
d="M214 612h-33l18 102h64l-21 -119l-64 -87h-31l64 87zM351 612h-33l18 102h64l-21 -119l-64 -87h-31l64 87z" />
    <glyph glyph-name="quotedblbase.ss01" horiz-adv-x="361" 
d="M113 0h-33l18 102h64l-21 -119l-64 -87h-31l64 87zM250 0h-33l18 102h64l-21 -119l-64 -87h-31l64 87z" />
    <glyph glyph-name="arrowleft.ss01" horiz-adv-x="802" 
d="M332 520h46l-223 -224v-20h631v-31h-631v-21l223 -224h-46l-260 260z" />
    <glyph glyph-name="arrowup.ss01" horiz-adv-x="668" 
d="M654 454v-46l-224 225h-19v-633h-34v633h-19l-224 -225v46l260 260z" />
    <glyph glyph-name="arrowright.ss01" horiz-adv-x="802" 
d="M512 520h46l260 -260l-260 -260h-46l223 224v21h-631v31h631v20z" />
    <glyph glyph-name="arrowdown.ss01" horiz-adv-x="668" 
d="M654 306v-46l-260 -260l-260 260v46l224 -225h19v633h34v-633h19z" />
    <glyph glyph-name="uni2196.ss01" horiz-adv-x="665" 
d="M525 714l32 -32h-315l-13 -14l446 -448l-23 -23l-448 447l-13 -14v-316l-33 33v367h367z" />
    <glyph glyph-name="uni2197.ss01" horiz-adv-x="665" 
d="M235 682l32 32h367v-367l-33 -33v316l-13 14l-448 -447l-23 23l446 448l-13 14h-315z" />
    <glyph glyph-name="uni2198.ss01" horiz-adv-x="665" 
d="M540 32l-32 -32h-367v367l33 33v-316l13 -14l448 447l23 -23l-446 -448l13 -14h315z" />
    <glyph glyph-name="uni2199.ss01" horiz-adv-x="665" 
d="M262 0l-32 32h315l13 14l-446 448l23 23l448 -447l13 14v316l33 -33v-367h-367z" />
    <glyph glyph-name="parenleft.ss01.case" horiz-adv-x="256" 
d="M348 807h45c-152 -144 -246 -331 -246 -552c0 -129 31 -236 87 -348h-37c-57 109 -84 230 -84 349c0 204 84 399 235 551z" />
    <glyph glyph-name="parenright.ss01.case" horiz-adv-x="257" 
d="M47 -93h-45c152 144 246 331 246 552c0 129 -31 236 -87 348h37c57 -109 84 -230 84 -349c0 -204 -84 -399 -235 -551z" />
    <glyph glyph-name="bracketleft.ss01.case" horiz-adv-x="255" 
d="M181 -93h-118l158 900h118l-5 -31h-84l-148 -838h84z" />
    <glyph glyph-name="bracketright.ss01.case" horiz-adv-x="255" 
d="M198 807h118l-158 -900h-118l5 31h84l148 838h-84z" />
    <glyph glyph-name="braceleft.ss01.case" horiz-adv-x="337" 
d="M201 366l-4 -18c17 -6 25 -22 25 -48c0 -12 -2 -28 -5 -43l-38 -215c-2 -13 -3 -26 -3 -37c0 -48 23 -67 79 -67h30l-5 -31h-30c-68 0 -108 26 -108 95c0 15 1 28 4 41l36 204c4 21 6 38 6 52c0 27 -9 43 -36 43h-13l6 30h13c41 0 51 34 62 95l36 204
c19 101 72 136 152 136h30l-5 -31h-30c-69 0 -100 -32 -112 -104l-38 -215c-11 -60 -28 -82 -52 -91z" />
    <glyph glyph-name="braceright.ss01.case" horiz-adv-x="337" 
d="M261 348l4 18c-17 6 -25 22 -25 48c0 12 2 28 5 43l38 215c2 13 3 26 3 37c0 48 -23 67 -79 67h-30l5 31h30c68 0 108 -26 108 -95c0 -15 -1 -28 -4 -41l-36 -204c-4 -21 -6 -38 -6 -52c0 -27 9 -43 36 -43h13l-6 -30h-13c-41 0 -51 -34 -62 -95l-36 -204
c-19 -101 -72 -136 -152 -136h-30l5 31h30c69 0 100 32 112 104l38 215c11 60 28 82 52 91z" />
    <glyph glyph-name="guillemotleft.ss01.case" horiz-adv-x="484" 
d="M150 364l-3 -18l151 -191h-41l-148 184l7 39l209 183h47zM315 364l-3 -18l151 -191h-41l-148 184l7 39l209 183h47z" />
    <glyph glyph-name="guillemotright.ss01.case" horiz-adv-x="484" 
d="M466 354l3 18l-149 189h41l146 -182l-7 -39l-212 -185h-47zM301 354l3 18l-149 189h41l146 -182l-7 -39l-212 -185h-47z" />
    <glyph glyph-name="guilsinglleft.ss01.case" horiz-adv-x="319" 
d="M150 364l-3 -18l151 -191h-41l-148 184l7 39l209 183h47z" />
    <glyph glyph-name="guilsinglright.ss01.case" horiz-adv-x="319" 
d="M301 354l3 18l-149 189h41l146 -182l-7 -39l-212 -185h-47z" />
    <glyph glyph-name="hyphen.ss01.case" horiz-adv-x="413" 
d="M431 356h-323l5 31h323z" />
    <glyph glyph-name="endash.ss01.case" horiz-adv-x="623" 
d="M644 356h-542l6 31h541z" />
    <glyph glyph-name="emdash.ss01.case" horiz-adv-x="879" 
d="M899 351h-798l6 31h797z" />
    <glyph glyph-name="emdash.ss01.ss02.case" horiz-adv-x="1443" 
d="M1464 356h-1361l6 31h1361z" />
    <glyph glyph-name="one.numr" horiz-adv-x="338" 
d="M300 425h79l-16 -91h-272l16 91h86l32 184h-20l-73 -41l17 96l96 50h106z" />
    <glyph glyph-name="zero.numr" horiz-adv-x="398" 
d="M459 573c0 -139 -74 -246 -190 -246c-75 0 -147 41 -147 148c0 139 74 246 191 246c74 0 146 -41 146 -148zM228 476c0 -37 15 -55 46 -55c53 0 77 87 77 151c0 37 -15 55 -46 55c-55 0 -77 -87 -77 -151z" />
    <glyph glyph-name="four.dnom" horiz-adv-x="376" 
d="M329 160h43l-16 -88h-43l-12 -72h-102l12 72h-175l19 107l195 201h118zM231 160l18 106h-20l-82 -87l-3 -19h87z" />
    </font>
</defs>
</svg>
