<?xml version="1.0" standalone="no"?>
<!DOCTYPE svg PUBLIC "-//W3C//DTD SVG 1.1//EN" "http://www.w3.org/Graphics/SVG/1.1/DTD/svg11.dtd" >
<svg xmlns="http://www.w3.org/2000/svg" xmlns:xlink="http://www.w3.org/1999/xlink" version="1.1">
<metadata>
Created by FontForge 20170910 at Thu Apr 17 09:59:05 2014
 By Jimmy Wärting
Copyright \(c\) 2014 by Vyacheslav Kirilenko, Gayane Bagdasaryan. All rights reserved.
</metadata>
<defs>
<font id="Formular-LightItalic" horiz-adv-x="586" >
  <font-face 
    font-family="Formular"
    font-weight="300"
    font-style="italic"
    font-stretch="normal"
    units-per-em="1000"
    panose-1="2 0 0 0 0 0 0 0 0 0"
    ascent="800"
    descent="-200"
    x-height="500"
    cap-height="714"
    bbox="-97 -215 1463 966"
    underline-thickness="50"
    underline-position="-100"
    slope="-10"
    unicode-range="U+000D-FEFF"
  />
<missing-glyph horiz-adv-x="525" 
d="M113 0v714h412v-714h-412zM179 60h280v594h-280v-594z" />
    <glyph glyph-name="fi" unicode="fi" horiz-adv-x="578" 
d="M397 444h-138l-78 -444h-62l78 444h-91l10 56h91l12 70c19 108 82 157 186 157h42l-10 -56h-41c-73 0 -104 -41 -115 -101l-12 -70h138zM578 500l-88 -500h-63l88 500h63zM607 648h-69l14 79h69z" />
    <glyph glyph-name="fl" unicode="fl" horiz-adv-x="575" 
d="M397 444h-138l-78 -444h-62l78 444h-91l10 56h91l12 70c19 108 82 157 186 157h42l-10 -56h-41c-73 0 -104 -41 -115 -101l-12 -70h138zM618 727l-128 -727h-63l128 727h63z" />
    <glyph glyph-name=".notdef" horiz-adv-x="525" 
d="M113 0v714h412v-714h-412zM179 60h280v594h-280v-594z" />
    <glyph glyph-name="NULL" horiz-adv-x="0" 
 />
    <glyph glyph-name="NULL" horiz-adv-x="0" 
 />
    <glyph glyph-name="CR" unicode="&#xd;" horiz-adv-x="278" 
 />
    <glyph glyph-name="space" unicode=" " horiz-adv-x="278" 
 />
    <glyph glyph-name="exclam" unicode="!" horiz-adv-x="302" 
d="M243 714h66l-52 -297l-55 -239h-41l30 239zM193 0h-84l17 102h84z" />
    <glyph glyph-name="quotedbl" unicode="&#x22;" horiz-adv-x="366" 
d="M163 473l42 241h63l-42 -241h-63zM306 473l42 241h63l-42 -241h-63z" />
    <glyph glyph-name="numbersign" unicode="#" horiz-adv-x="577" 
d="M372 0l31 200h-145l-31 -200h-57l31 200h-100v52h109l31 196h-101v52h109l32 200h56l-32 -200h146l32 200h56l-32 -200h101v-52h-109l-31 -196h101v-52h-109l-31 -200h-57zM297 448l-31 -196h146l31 196h-146z" />
    <glyph glyph-name="dollar" unicode="$" horiz-adv-x="635" 
d="M487 798l-16 -91c87 -18 160 -81 168 -176h-65c-11 63 -53 106 -113 117l-46 -259l32 -10c91 -28 154 -90 154 -187c0 -119 -92 -205 -233 -205c-7 0 -15 0 -24 1l-15 -86h-50l15 90c-104 13 -189 76 -200 195h65c13 -83 66 -121 146 -136l52 293l-29 9
c-72 24 -148 65 -148 164c0 116 90 197 217 197c11 0 21 -1 25 -1l15 85h50zM423 323l-19 6l-50 -283c9 -1 19 -1 24 -1c78 0 158 38 158 145c0 72 -38 110 -113 133zM352 409l15 -5l45 251c-11 1 -16 1 -23 1c-81 0 -144 -48 -144 -136c0 -64 44 -93 107 -111z" />
    <glyph glyph-name="percent" unicode="%" horiz-adv-x="896" 
d="M268 0h-68l548 700h67zM462 563c0 -120 -66 -227 -184 -227c-82 0 -137 65 -137 150c0 119 66 228 184 228c82 0 137 -66 137 -151zM283 387c77 0 121 88 121 172c0 65 -28 104 -85 104c-76 0 -120 -89 -120 -173c0 -65 28 -103 84 -103zM874 214
c0 -120 -66 -227 -184 -227c-82 0 -137 65 -137 150c0 119 66 228 184 228c82 0 137 -66 137 -151zM695 38c77 0 121 88 121 172c0 65 -28 104 -85 104c-76 0 -120 -89 -120 -173c0 -65 28 -103 84 -103z" />
    <glyph glyph-name="ampersand" unicode="&#x26;" horiz-adv-x="683" 
d="M232 376l32 16l3 20l-11 16c-32 47 -48 85 -48 130c0 88 68 156 168 156c93 0 162 -59 162 -143c0 -76 -39 -117 -111 -156l-62 -33l158 -220c36 47 61 103 76 159h65c-19 -79 -55 -149 -106 -208l82 -113h-80l-40 56h-22c-56 -43 -122 -69 -194 -69
c-125 0 -209 72 -209 188c0 104 67 163 137 201zM309 45c64 0 122 26 169 69l-169 238l-46 -24c-60 -32 -106 -78 -106 -153c0 -84 65 -130 152 -130zM273 557c0 -35 18 -73 41 -104l18 -26l54 28c51 27 87 57 87 113s-46 88 -98 88c-63 0 -102 -40 -102 -99z" />
    <glyph glyph-name="quotesingle" unicode="'" horiz-adv-x="223" 
d="M163 473l42 241h63l-42 -241h-63z" />
    <glyph glyph-name="parenleft" unicode="(" horiz-adv-x="290" 
d="M256 -141h-62c-60 91 -99 206 -99 347c0 221 102 411 247 553h74c-153 -153 -256 -331 -256 -553c0 -137 36 -248 96 -347z" />
    <glyph glyph-name="parenright" unicode=")" horiz-adv-x="291" 
d="M144 759h62c60 -91 99 -206 99 -347c0 -221 -102 -411 -247 -553h-74c153 153 256 331 256 553c0 137 -36 248 -96 347z" />
    <glyph glyph-name="asterisk" unicode="*" horiz-adv-x="463" 
d="M529 545l-172 -49l82 -137l-50 -33l-73 143l-126 -142l-40 36l128 137l-151 50l21 51l152 -59l19 172h58l-27 -172l168 57z" />
    <glyph glyph-name="plus" unicode="+" horiz-adv-x="684" 
d="M364 309v225h54v-225h225v-54h-225v-225h-54v225h-225v54h225z" />
    <glyph glyph-name="comma" unicode="," horiz-adv-x="244" 
d="M123 0h-43l18 102h84l-21 -119l-64 -87h-41l64 87z" />
    <glyph glyph-name="hyphen" unicode="-" horiz-adv-x="360" 
d="M353 247h-260l10 57h260z" />
    <glyph glyph-name="period" unicode="." horiz-adv-x="244" 
d="M164 0h-84l17 102h84z" />
    <glyph glyph-name="slash" unicode="/" horiz-adv-x="391" 
d="M38 -141h-63l459 900h61z" />
    <glyph glyph-name="zero" unicode="0" horiz-adv-x="615" 
d="M116 243c0 275 117 471 299 471c124 0 208 -87 208 -256c0 -275 -117 -471 -299 -471c-124 0 -208 87 -208 256zM181 243c0 -128 59 -198 146 -198c172 0 231 235 231 413c0 128 -59 198 -146 198c-171 0 -231 -235 -231 -413z" />
    <glyph glyph-name="one" unicode="1" horiz-adv-x="486" 
d="M60 0l10 58h167l100 570h-20l-165 -102l12 72l166 102h84l-113 -642h155l-10 -58h-386z" />
    <glyph glyph-name="two" unicode="2" horiz-adv-x="564" 
d="M524 58l-10 -58h-459l13 78c41 31 80 62 119 92c66 50 144 111 192 151c54 43 131 106 131 215c0 76 -59 120 -140 120c-88 0 -150 -46 -171 -142h-64c27 140 129 200 246 200c109 0 194 -68 194 -175c0 -120 -90 -200 -173 -270c-29 -25 -89 -71 -144 -114l-100 -77
l-3 -20h369z" />
    <glyph glyph-name="three" unicode="3" horiz-adv-x="554" 
d="M575 622l-220 -170l-3 -20c135 -5 189 -102 189 -194c0 -142 -99 -251 -255 -251c-124 0 -223 79 -223 202h65c7 -91 68 -144 165 -144c111 0 183 86 183 191c0 92 -57 142 -145 142c-24 0 -47 -2 -63 -6l14 84l211 166l4 20h-313l8 58h395z" />
    <glyph glyph-name="four" unicode="4" horiz-adv-x="595" 
d="M490 229h98l-10 -58h-98l-30 -171h-64l30 171h-346l13 78l385 451h105zM155 229h271l69 399h-20l-317 -379z" />
    <glyph glyph-name="five" unicode="5" horiz-adv-x="587" 
d="M598 642h-333l-54 -225h21c27 29 68 52 131 52c128 0 210 -84 210 -205c0 -182 -123 -277 -252 -277c-149 0 -228 99 -228 202h64c5 -92 68 -144 167 -144c91 0 184 69 184 216c0 91 -53 150 -152 150c-64 0 -118 -25 -155 -72h-69l88 361h387z" />
    <glyph glyph-name="six" unicode="6" horiz-adv-x="591" 
d="M374 452c128 0 212 -88 212 -200c0 -143 -92 -265 -251 -265c-115 0 -219 80 -219 253c0 183 73 474 301 474c107 0 181 -60 194 -159h-65c-12 65 -58 101 -131 101c-119 0 -198 -124 -219 -265h20c33 33 89 61 158 61zM344 45c122 0 177 99 177 199
c0 88 -56 150 -156 150c-118 0 -180 -88 -180 -192c0 -87 51 -157 159 -157z" />
    <glyph glyph-name="seven" unicode="7" horiz-adv-x="532" 
d="M586 622l-397 -622h-69l396 622l4 20h-357l10 58h427z" />
    <glyph glyph-name="eight" unicode="8" horiz-adv-x="600" 
d="M493 367l-4 -19c51 -33 86 -86 86 -150c0 -131 -114 -211 -251 -211c-124 0 -233 71 -233 190c0 92 53 155 138 190l4 19c-39 25 -71 69 -71 133c0 115 102 195 234 195c112 0 214 -65 214 -179c0 -75 -46 -139 -117 -168zM227 517c0 -80 72 -123 151 -123
c96 0 167 52 167 139c0 77 -73 123 -151 123c-96 0 -167 -55 -167 -139zM156 181c0 -86 79 -136 171 -136c107 0 183 59 183 153c0 91 -80 138 -173 138c-105 0 -181 -59 -181 -155z" />
    <glyph glyph-name="nine" unicode="9" horiz-adv-x="591" 
d="M341 249c-128 0 -212 88 -212 200c0 143 92 265 251 265c115 0 219 -80 219 -253c0 -183 -73 -474 -301 -474c-107 0 -181 60 -194 159h65c12 -65 58 -101 131 -101c119 0 198 124 219 265h-20c-33 -33 -89 -61 -158 -61zM371 656c-122 0 -177 -99 -177 -199
c0 -88 56 -150 156 -150c118 0 180 88 180 192c0 87 -51 157 -159 157z" />
    <glyph glyph-name="colon" unicode=":" horiz-adv-x="244" 
d="M164 0h-84l17 102h84zM226 398h-84l17 102h84z" />
    <glyph glyph-name="semicolon" unicode=";" horiz-adv-x="244" 
d="M123 0h-43l18 102h84l-21 -119l-64 -87h-41l64 87zM226 398h-84l17 102h84z" />
    <glyph glyph-name="less" unicode="&#x3c;" horiz-adv-x="684" 
d="M643 91v-57l-504 219v57l504 219v-57l-417 -181v-20z" />
    <glyph glyph-name="equal" unicode="=" horiz-adv-x="683" 
d="M642 211v-54h-503v54h503zM642 407v-54h-503v54h503z" />
    <glyph glyph-name="greater" unicode="&#x3e;" horiz-adv-x="684" 
d="M139 34v57l417 180v20l-417 181v57l504 -219v-57z" />
    <glyph glyph-name="question" unicode="?" horiz-adv-x="534" 
d="M372 727c107 0 189 -66 189 -167c0 -97 -51 -159 -146 -217c-61 -37 -90 -61 -103 -136l-5 -29h-63l5 29c16 93 53 127 141 183c72 44 108 92 108 168c0 67 -49 116 -132 116c-92 0 -145 -53 -161 -145h-62c21 120 91 198 229 198zM289 0h-81l17 101h81z" />
    <glyph glyph-name="at" unicode="@" horiz-adv-x="973" 
d="M735 -66l29 -48c-73 -48 -159 -76 -260 -76c-246 0 -398 163 -398 403c0 271 189 481 470 481c208 0 390 -124 390 -356c0 -155 -79 -300 -220 -300c-51 0 -88 19 -103 56h-20c-24 -24 -62 -56 -129 -56c-100 0 -160 69 -160 181c0 132 82 246 214 246
c56 0 96 -27 109 -50h20l8 36h55l-42 -254l-3 -21c-3 -11 -3 -24 -3 -32c0 -33 24 -52 59 -52c80 0 152 96 152 250c0 177 -134 298 -337 298c-225 0 -397 -173 -397 -426c0 -185 101 -350 339 -350c87 0 160 27 227 70zM501 92c89 0 145 80 148 195v5
c0 101 -58 119 -106 119c-91 0 -146 -99 -146 -192c0 -67 27 -127 104 -127z" />
    <glyph glyph-name="A" unicode="A" horiz-adv-x="666" 
d="M516 714l128 -714h-69l-40 231h-322l-120 -231h-72l374 714h121zM427 644l-183 -353h281l-60 353h-38z" />
    <glyph glyph-name="B" unicode="B" horiz-adv-x="686" 
d="M586 380l-4 -21c48 -28 80 -79 80 -139c0 -149 -121 -220 -258 -220h-310l125 714h283c101 0 193 -56 193 -163c0 -78 -44 -144 -109 -171zM275 654l-44 -250h221c97 0 177 36 177 142c0 76 -67 108 -134 108h-220zM170 60h223c109 0 203 46 203 163
c0 88 -78 121 -155 121h-221z" />
    <glyph glyph-name="C" unicode="C" horiz-adv-x="695" 
d="M623 193h70c-42 -119 -144 -206 -290 -206c-167 0 -287 117 -287 298c0 228 129 442 360 442c133 0 230 -73 254 -192h-69c-19 81 -82 132 -187 132c-204 0 -292 -211 -292 -379c0 -136 77 -241 224 -241c112 0 184 62 217 146z" />
    <glyph glyph-name="D" unicode="D" horiz-adv-x="726" 
d="M94 0l125 714h208c179 0 307 -82 307 -287c0 -208 -107 -427 -398 -427h-242zM170 60h182c258 0 316 226 316 369c0 169 -98 225 -237 225h-156z" />
    <glyph glyph-name="E" unicode="E" horiz-adv-x="639" 
d="M170 60h428l-10 -60h-494l125 714h478l-10 -60h-412l-45 -252h335l-10 -60h-335z" />
    <glyph glyph-name="F" unicode="F" horiz-adv-x="621" 
d="M690 654h-415l-46 -262h339l-11 -60h-339l-58 -332h-66l125 714h481z" />
    <glyph glyph-name="G" unicode="G" horiz-adv-x="740" 
d="M406 -13c-168 0 -290 117 -290 298c0 231 133 442 366 442c137 0 231 -75 255 -192h-70c-19 80 -82 132 -189 132c-205 0 -296 -207 -296 -379c0 -136 79 -241 227 -241c141 0 236 91 255 263h-243l12 60h306c-8 -203 -102 -383 -333 -383z" />
    <glyph glyph-name="H" unicode="H" horiz-adv-x="746" 
d="M710 714h66l-125 -714h-66l59 338h-425l-59 -338h-66l125 714h66l-55 -314h425z" />
    <glyph glyph-name="I" unicode="I" horiz-adv-x="269" 
d="M226 714h66l-125 -714h-66z" />
    <glyph glyph-name="J" unicode="J" horiz-adv-x="570" 
d="M275 -13c-112 0 -200 65 -200 185c0 12 1 25 2 38h66c-1 -12 -2 -20 -2 -28c0 -89 50 -135 134 -135c91 0 154 56 177 184l85 483h66l-88 -499c-24 -139 -104 -228 -240 -228z" />
    <glyph glyph-name="K" unicode="K" horiz-adv-x="695" 
d="M94 0l125 714h66l-66 -374l455 374h85l-265 -225l165 -489h-70l-147 432h-20l-218 -178l-44 -254h-66z" />
    <glyph glyph-name="L" unicode="L" horiz-adv-x="604" 
d="M170 62h404l-10 -62h-470l125 714h66z" />
    <glyph glyph-name="M" unicode="M" horiz-adv-x="842" 
d="M94 0l125 714h111l142 -354h19l262 354h119l-125 -714h-66l113 644h-20l-268 -359h-69l-144 359h-20l-113 -644h-66z" />
    <glyph glyph-name="N" unicode="N" horiz-adv-x="749" 
d="M713 714h66l-125 -714h-117l-244 644h-20l-113 -644h-66l125 714h117l245 -644h19z" />
    <glyph glyph-name="O" unicode="O" horiz-adv-x="758" 
d="M478 727c169 0 288 -119 288 -298c0 -224 -127 -442 -362 -442c-169 0 -288 119 -288 298c0 224 127 442 362 442zM407 47c208 0 293 215 293 379c0 133 -76 241 -225 241c-207 0 -293 -215 -293 -379c0 -133 76 -241 225 -241z" />
    <glyph glyph-name="P" unicode="P" horiz-adv-x="661" 
d="M219 714h286c111 0 202 -66 202 -184c0 -161 -122 -232 -270 -232h-225l-52 -298h-66zM494 654h-219l-52 -296h226c109 0 192 52 192 171c0 85 -67 125 -147 125z" />
    <glyph glyph-name="Q" unicode="Q" horiz-adv-x="758" 
d="M478 727c169 0 288 -119 288 -298c0 -138 -50 -275 -141 -358l61 -134h-65l-44 97c-49 -31 -106 -47 -173 -47c-169 0 -288 119 -288 298c0 224 127 442 362 442zM407 47c57 0 105 16 144 43l-98 219h65l80 -178c70 78 102 195 102 295c0 133 -76 241 -225 241
c-207 0 -293 -215 -293 -379c0 -133 76 -241 225 -241z" />
    <glyph glyph-name="R" unicode="R" horiz-adv-x="687" 
d="M214 311l-54 -311h-66l125 714h304c108 0 196 -64 196 -179c0 -108 -57 -174 -141 -205l59 -330h-66l-57 315c-19 -3 -37 -4 -56 -4h-244zM513 654h-238l-50 -283h245c105 0 184 50 184 163c0 83 -64 120 -141 120z" />
    <glyph glyph-name="S" unicode="S" horiz-adv-x="646" 
d="M342 415l129 -32c108 -28 162 -90 162 -185c0 -136 -126 -211 -270 -211c-142 0 -265 59 -281 204h69c16 -107 106 -144 215 -144c94 0 201 40 201 147c0 67 -39 110 -117 130l-135 34c-83 21 -158 67 -158 167c0 132 106 202 249 202c129 0 237 -69 250 -186h-67
c-19 87 -91 126 -187 126c-82 0 -179 -33 -179 -136c0 -68 48 -99 119 -116z" />
    <glyph glyph-name="T" unicode="T" horiz-adv-x="578" 
d="M684 714l-10 -60h-237l-115 -654h-66l115 654h-237l10 60h540z" />
    <glyph glyph-name="U" unicode="U" horiz-adv-x="726" 
d="M693 714h66l-82 -465c-29 -164 -127 -262 -300 -262c-148 0 -246 86 -246 209c0 19 4 51 7 70l79 448h66l-79 -449c-3 -19 -7 -47 -7 -66c0 -95 66 -152 183 -152c141 0 210 80 234 219z" />
    <glyph glyph-name="V" unicode="V" horiz-adv-x="646" 
d="M251 0l-106 714h68l94 -644h51l319 644h72l-356 -714h-142z" />
    <glyph glyph-name="W" unicode="W" horiz-adv-x="848" 
d="M455 458h95l79 -388h19l195 644h65l-216 -714h-111l-78 391h-19l-215 -391h-116l34 714h65l-31 -644h19z" />
    <glyph glyph-name="X" unicode="X" horiz-adv-x="621" 
d="M524 0l-130 337h-38l-253 -337h-80l284 378l-127 336h69l112 -294h38l216 294h78l-246 -332l149 -382h-72z" />
    <glyph glyph-name="Y" unicode="Y" horiz-adv-x="620" 
d="M357 373h28l263 341h74l-331 -434l-49 -280h-66l49 280l-180 434h69z" />
    <glyph glyph-name="Z" unicode="Z" horiz-adv-x="629" 
d="M689 714l-14 -80l-527 -554l-4 -20h444l-10 -60h-528l14 81l528 553l4 20h-405l10 60h488z" />
    <glyph glyph-name="bracketleft" unicode="[" horiz-adv-x="298" 
d="M216 -141h-161l158 900h161l-9 -54h-98l-140 -792h98z" />
    <glyph glyph-name="backslash" unicode="\" horiz-adv-x="393" 
d="M368 -141h-64l-141 900h61z" />
    <glyph glyph-name="bracketright" unicode="]" horiz-adv-x="298" 
d="M193 -141h-161l9 54h98l140 792h-98l9 54h161z" />
    <glyph glyph-name="asciicircum" unicode="^" horiz-adv-x="530" 
d="M158 302h-61l263 389h52l127 -389h-55l-101 312h-16z" />
    <glyph glyph-name="underscore" unicode="_" horiz-adv-x="501" 
d="M480 -125h-503l10 54h503z" />
    <glyph glyph-name="grave" unicode="`" horiz-adv-x="234" 
d="M247 582l-79 145h78l57 -145h-56z" />
    <glyph glyph-name="a" unicode="a" horiz-adv-x="547" 
d="M405 0l9 55h-20c-36 -39 -84 -68 -157 -68c-109 0 -165 69 -165 149c0 105 76 176 201 176h185l3 16c3 11 5 28 5 43c0 49 -35 86 -120 86c-84 0 -135 -34 -144 -86h-63c17 92 100 142 213 142c108 0 176 -55 176 -139c0 -15 -2 -40 -5 -51l-57 -323h-61zM250 43
c96 0 175 77 191 171l8 45h-163c-85 0 -150 -38 -150 -119c0 -60 41 -97 114 -97z" />
    <glyph glyph-name="b" unicode="b" horiz-adv-x="601" 
d="M593 294c0 -141 -82 -307 -257 -307c-65 0 -127 24 -158 79h-20l-12 -66h-61l128 727h63l-50 -282h20c29 39 86 68 149 68c131 0 198 -101 198 -219zM392 457c-136 0 -200 -139 -200 -248c0 -103 49 -166 144 -166s194 86 194 250c0 92 -45 164 -138 164z" />
    <glyph glyph-name="c" unicode="c" horiz-adv-x="529" 
d="M454 143h65c-27 -96 -105 -156 -216 -156c-114 0 -207 83 -207 214c0 164 93 312 256 312c106 0 178 -66 191 -152h-64c-12 56 -56 96 -129 96c-123 0 -191 -128 -191 -253c0 -101 60 -161 149 -161c73 0 127 39 146 100z" />
    <glyph glyph-name="d" unicode="d" horiz-adv-x="601" 
d="M96 206c0 141 82 307 257 307c65 0 125 -24 156 -79h20l52 293h63l-128 -727h-61l10 55h-20c-29 -39 -88 -68 -151 -68c-131 0 -198 101 -198 219zM297 43c136 0 200 139 200 248c0 103 -49 166 -144 166s-194 -86 -194 -250c0 -92 45 -164 138 -164z" />
    <glyph glyph-name="e" unicode="e" horiz-adv-x="550" 
d="M453 132h64c-27 -88 -103 -145 -210 -145c-116 0 -211 84 -211 217c0 173 94 309 262 309c132 0 193 -103 193 -219c0 -11 0 -21 -1 -33h-387c-3 -19 -4 -35 -4 -54c0 -98 61 -164 157 -164c75 0 114 34 137 89zM354 457c-92 0 -151 -59 -178 -140h311
c-5 79 -43 140 -133 140z" />
    <glyph glyph-name="f" unicode="f" horiz-adv-x="350" 
d="M397 444h-138l-78 -444h-62l78 444h-91l10 56h91l12 70c19 108 82 157 186 157h42l-10 -56h-41c-73 0 -104 -41 -115 -101l-12 -70h138z" />
    <glyph glyph-name="g" unicode="g" horiz-adv-x="598" 
d="M96 212c0 139 89 301 262 301c84 0 127 -47 151 -82h20l12 69h61l-82 -466c-26 -156 -126 -240 -259 -240c-108 0 -194 54 -199 147h61c8 -68 72 -91 147 -91c104 0 164 65 187 184l7 35h-19c-29 -39 -91 -69 -152 -69c-131 0 -197 96 -197 212zM299 56
c135 0 199 132 199 239c0 100 -53 162 -144 162c-95 0 -195 -86 -195 -246c0 -91 47 -155 140 -155z" />
    <glyph glyph-name="h" unicode="h" 
d="M509 0h-63l52 295c3 17 6 37 6 56c0 69 -35 106 -116 106c-101 0 -173 -83 -192 -187l-48 -270h-63l129 727h63l-50 -282h17c28 35 79 68 159 68c105 0 164 -60 164 -156c0 -15 -3 -41 -6 -61z" />
    <glyph glyph-name="i" unicode="i" horiz-adv-x="236" 
d="M236 500l-88 -500h-63l88 500h63zM265 648h-69l14 79h69z" />
    <glyph glyph-name="j" unicode="j" horiz-adv-x="245" 
d="M-24 -200h-62l10 56h46c72 0 105 34 118 106l95 538h63l-97 -546c-19 -100 -74 -154 -173 -154zM274 648h-69l14 79h69z" />
    <glyph glyph-name="k" unicode="k" horiz-adv-x="527" 
d="M514 0h-65l-100 287h-20l-156 -142l-25 -145h-63l128 727h63l-88 -497l298 270h80l-170 -154z" />
    <glyph glyph-name="l" unicode="l" horiz-adv-x="233" 
d="M276 727l-128 -727h-63l128 727h63z" />
    <glyph glyph-name="m" unicode="m" horiz-adv-x="823" 
d="M666 513c91 0 138 -56 138 -136c0 -19 -1 -36 -5 -59l-56 -318h-63l55 314c3 17 6 45 6 61c0 56 -31 82 -87 82c-89 0 -140 -68 -156 -155l-53 -302h-63l57 327c3 15 5 33 5 48c0 56 -33 82 -85 82c-94 0 -146 -90 -159 -168l-52 -289h-63l88 500h61l-8 -50h19
c25 35 66 63 129 63c52 0 98 -19 119 -68h20c39 44 88 68 153 68z" />
    <glyph glyph-name="n" unicode="n" 
d="M509 0h-63l52 295c3 17 6 37 6 56c0 69 -35 106 -116 106c-101 0 -173 -83 -192 -187l-48 -270h-63l89 500h61l-10 -55h18c32 36 84 68 160 68c105 0 164 -60 164 -156c0 -15 -3 -41 -6 -61z" />
    <glyph glyph-name="o" unicode="o" horiz-adv-x="594" 
d="M364 513c123 0 222 -79 222 -218c0 -172 -98 -308 -268 -308c-123 0 -222 79 -222 218c0 171 97 308 268 308zM322 43c131 0 201 121 201 250c0 100 -67 164 -163 164c-132 0 -201 -122 -201 -250c0 -101 64 -164 163 -164z" />
    <glyph glyph-name="p" unicode="p" horiz-adv-x="601" 
d="M593 294c0 -141 -82 -307 -257 -307c-65 0 -125 24 -156 79h-20l-47 -266h-63l123 700h61l-10 -55h20c29 39 88 68 151 68c131 0 198 -101 198 -219zM392 457c-136 0 -200 -139 -200 -248c0 -103 49 -166 144 -166s194 86 194 250c0 92 -45 164 -138 164z" />
    <glyph glyph-name="q" unicode="q" horiz-adv-x="600" 
d="M96 206c0 141 82 307 257 307c65 0 127 -24 158 -79h20l12 66h61l-123 -700h-63l45 255h-20c-29 -39 -86 -68 -149 -68c-131 0 -198 101 -198 219zM297 43c136 0 200 139 200 248c0 103 -49 166 -144 166s-194 -86 -194 -250c0 -92 45 -164 138 -164z" />
    <glyph glyph-name="r" unicode="r" horiz-adv-x="372" 
d="M433 500l-11 -58h-37c-95 0 -170 -63 -189 -171l-48 -271h-63l89 500h61l-11 -61h19c35 35 89 61 157 61h33z" />
    <glyph glyph-name="s" unicode="s" horiz-adv-x="502" 
d="M304 457c-63 0 -124 -25 -124 -88c0 -43 33 -54 82 -69l94 -26c83 -23 125 -67 125 -131c0 -91 -83 -156 -203 -156c-104 0 -205 40 -213 152h62c4 -57 64 -96 155 -96c71 0 136 32 136 97c0 36 -28 62 -84 78l-93 26c-76 21 -124 55 -124 124c0 98 87 145 191 145
c99 0 184 -48 192 -139h-62c-7 49 -54 83 -134 83z" />
    <glyph glyph-name="t" unicode="t" horiz-adv-x="370" 
d="M270 500h130l-10 -56h-130l-54 -304c-3 -11 -4 -27 -4 -38c0 -33 27 -46 70 -46h49l-9 -56h-35c-91 0 -138 27 -138 96c0 15 3 37 6 52l52 296h-91l10 56h91l27 155h63z" />
    <glyph glyph-name="u" unicode="u" 
d="M166 500h63l-52 -295c-3 -17 -6 -37 -6 -56c0 -69 35 -106 116 -106c101 0 173 83 192 187l48 270h63l-89 -500h-61l10 55h-18c-32 -36 -84 -68 -160 -68c-105 0 -164 60 -164 156c0 15 3 41 6 61z" />
    <glyph glyph-name="v" unicode="v" horiz-adv-x="517" 
d="M196 0l-84 500h63l74 -438h38l225 438h70l-263 -500h-123z" />
    <glyph glyph-name="w" unicode="w" horiz-adv-x="661" 
d="M341 325h92l45 -263h19l138 438h61l-157 -500h-104l-47 265h-20l-140 -265h-110l19 500h60l-17 -438h20z" />
    <glyph glyph-name="x" unicode="x" horiz-adv-x="524" 
d="M417 0l-95 221h-34l-176 -221h-74l205 256l-100 244h63l86 -209h34l162 209h71l-187 -241l113 -259h-68z" />
    <glyph glyph-name="y" unicode="y" horiz-adv-x="513" 
d="M159 -200h-67l148 248l-128 452h63l99 -353h27l209 353h68z" />
    <glyph glyph-name="z" unicode="z" horiz-adv-x="507" 
d="M448 0h-398l13 76l375 349l4 19h-297l10 56h381l-14 -75l-375 -349l-4 -20h314z" />
    <glyph glyph-name="braceleft" unicode="{" horiz-adv-x="375" 
d="M219 319l-4 -20c23 -8 36 -27 36 -63c0 -12 -3 -35 -6 -46l-30 -174c-3 -13 -4 -33 -4 -42c0 -47 31 -61 75 -61h33l-9 -54h-33c-75 0 -129 30 -129 109c0 11 2 36 5 48l29 169c3 19 5 34 5 47c0 32 -12 50 -48 50h-10l10 54h10c51 0 66 36 77 97l31 177
c19 108 77 149 166 149h45l-9 -54h-36c-52 0 -90 -24 -103 -96l-34 -192c-11 -61 -34 -87 -67 -98z" />
    <glyph glyph-name="bar" unicode="|" horiz-adv-x="243" 
d="M65 -141l158 900h63l-158 -900h-63z" />
    <glyph glyph-name="braceright" unicode="}" horiz-adv-x="375" 
d="M265 299l4 20c-23 8 -36 27 -36 63c0 12 3 35 6 46l30 174c3 13 4 33 4 42c0 47 -31 61 -75 61h-33l9 54h33c75 0 129 -32 129 -109c0 -11 -2 -36 -5 -48l-29 -169c-3 -19 -5 -34 -5 -47c0 -32 12 -50 48 -50h10l-10 -54h-10c-51 0 -66 -36 -77 -97l-31 -177
c-19 -108 -77 -149 -166 -149h-45l9 54h36c52 0 90 24 103 96l34 192c11 61 34 87 67 98z" />
    <glyph glyph-name="asciitilde" unicode="~" horiz-adv-x="669" 
d="M574 333h54c0 -97 -48 -136 -123 -136c-102 0 -167 117 -248 117c-41 0 -64 -25 -64 -85h-54c0 97 48 136 123 136c103 0 168 -117 248 -117c43 0 64 25 64 85z" />
    <glyph glyph-name="uni00A0" unicode="&#xa0;" horiz-adv-x="278" 
 />
    <glyph glyph-name="exclamdown" unicode="&#xa1;" horiz-adv-x="302" 
d="M140 -200h-66l50 283l54 239h41l-29 -239zM253 398h-84l17 102h84z" />
    <glyph glyph-name="cent" unicode="&#xa2;" horiz-adv-x="530" 
d="M454 143h65c-28 -96 -105 -156 -218 -156l-12 -67h-51l13 73c-89 21 -155 96 -155 208c0 162 90 306 247 311l12 68h51l-13 -71c84 -15 139 -73 151 -148h-64c-11 47 -44 84 -97 93l-72 -411c72 0 122 40 143 100zM159 204c0 -83 38 -139 102 -155l72 407
c-112 -8 -174 -133 -174 -252z" />
    <glyph glyph-name="sterling" unicode="&#xa3;" horiz-adv-x="622" 
d="M207 58h385l-10 -58h-517l10 58h21c51 0 76 33 87 94l25 138h-92l10 58h92l28 160c24 137 97 206 219 206c100 0 176 -53 176 -153c0 -13 -1 -27 -3 -42h-64c2 12 3 24 3 35c0 61 -37 102 -114 102c-100 0 -136 -67 -152 -149l-28 -159h212l-10 -58h-212l-23 -129
c-7 -32 -12 -59 -40 -83z" />
    <glyph glyph-name="currency" unicode="&#xa4;" horiz-adv-x="725" 
d="M643 10l-68 67c-45 -36 -100 -58 -163 -58s-119 22 -164 58l-68 -67l-41 41l67 68c-36 45 -58 101 -58 164s22 118 58 163l-67 68l41 41l68 -67c45 35 101 57 164 57s118 -22 163 -57l68 67l41 -41l-67 -68c35 -45 57 -100 57 -163s-22 -119 -57 -164l67 -68zM412 73
c112 0 199 91 199 210c0 117 -87 208 -199 208s-201 -91 -201 -208c0 -119 89 -210 201 -210z" />
    <glyph glyph-name="yen" unicode="&#xa5;" horiz-adv-x="591" 
d="M168 296l9 52h99l-129 352h66l128 -352h28l252 352h72l-255 -352h101l-9 -52h-130l-27 -38l-7 -40h150l-9 -52h-150l-29 -166h-64l29 166h-148l9 52h148l7 40l-14 38h-127z" />
    <glyph glyph-name="brokenbar" unicode="&#xa6;" horiz-adv-x="243" 
d="M163 417l60 342h63l-60 -342h-63zM65 -141l60 342h63l-60 -342h-63z" />
    <glyph glyph-name="section" unicode="&#xa7;" horiz-adv-x="584" 
d="M91 21h64c0 -4 -1 -9 -1 -13c0 -69 47 -124 135 -124c85 0 138 46 138 114c0 47 -23 70 -70 89l-124 49c-87 35 -120 82 -120 142c0 96 70 136 108 150l4 20c-27 24 -36 55 -36 94c0 99 81 172 202 172c116 0 195 -70 195 -177c0 -7 0 -10 -1 -18h-64c1 8 1 12 1 16
c0 71 -48 121 -135 121s-133 -46 -133 -114c0 -45 23 -70 70 -89l124 -49c87 -35 120 -82 120 -141c0 -95 -71 -139 -109 -150l-3 -20c24 -23 36 -55 36 -95c0 -101 -87 -172 -207 -172c-117 0 -195 69 -195 176c0 7 1 12 1 19zM422 351l-148 58c-29 -13 -96 -46 -96 -126
c0 -47 29 -72 81 -93l147 -59c29 11 97 48 97 126c0 47 -29 73 -81 94z" />
    <glyph glyph-name="dieresis" unicode="&#xa8;" horiz-adv-x="318" 
d="M223 648h-69l14 79h69zM399 648h-69l14 79h69z" />
    <glyph glyph-name="copyright" unicode="&#xa9;" horiz-adv-x="863" 
d="M495 727c204 0 367 -166 367 -370s-163 -370 -367 -370s-367 166 -367 370s163 370 367 370zM495 43c173 0 309 140 309 314c0 175 -136 316 -309 316s-309 -141 -309 -316c0 -174 136 -314 309 -314zM610 295h53c-11 -76 -69 -136 -157 -136c-114 0 -179 88 -179 197
c0 112 65 198 179 198c83 0 142 -51 153 -127h-53c-11 49 -40 81 -100 81c-89 0 -126 -72 -126 -152s37 -149 126 -149c61 0 93 37 104 88z" />
    <glyph glyph-name="ordfeminine" unicode="&#xaa;" horiz-adv-x="425" 
d="M377 333v44h-5c-25 -29 -69 -51 -124 -51c-91 0 -138 60 -138 123c0 61 37 123 142 123h123v21c0 44 -28 78 -93 78c-56 0 -87 -27 -90 -64h-57c5 71 65 114 146 114c92 0 149 -47 149 -127v-261h-53zM254 375c64 0 121 49 121 110v40h-111c-63 0 -99 -29 -99 -74
c0 -49 38 -76 89 -76z" />
    <glyph glyph-name="guillemotleft" unicode="&#xab;" horiz-adv-x="526" 
d="M169 289l-4 -20l128 -165h-68l-120 149l10 59l169 148h74zM360 289l-4 -20l128 -165h-68l-120 149l10 59l169 148h74z" />
    <glyph glyph-name="logicalnot" unicode="&#xac;" horiz-adv-x="683" 
d="M569 111v214h-450v53h503v-267h-53z" />
    <glyph glyph-name="uni00AD" unicode="&#xad;" horiz-adv-x="360" 
d="M353 247h-260l10 57h260z" />
    <glyph glyph-name="registered" unicode="&#xae;" horiz-adv-x="863" 
d="M495 727c204 0 367 -166 367 -370s-163 -370 -367 -370s-367 166 -367 370s163 370 367 370zM495 43c173 0 309 140 309 314c0 175 -136 316 -309 316s-309 -141 -309 -316c0 -174 136 -314 309 -314zM359 547h170c80 0 124 -41 124 -110c0 -47 -19 -80 -57 -97l61 -174
h-54l-57 161h-135v-161h-52v381zM411 373h111c57 0 79 25 79 64c0 40 -22 63 -79 63h-111v-127z" />
    <glyph glyph-name="overscore" unicode="&#xaf;" horiz-adv-x="347" 
d="M428 648h-274l9 54h274z" />
    <glyph glyph-name="degree" unicode="&#xb0;" horiz-adv-x="475" 
d="M131 523c0 113 85 198 197 198c113 0 198 -85 198 -198c0 -112 -85 -197 -198 -197c-112 0 -197 85 -197 197zM186 523c0 -84 58 -151 142 -151c85 0 143 67 143 151s-58 152 -143 152c-84 0 -142 -68 -142 -152z" />
    <glyph glyph-name="plusminus" unicode="&#xb1;" horiz-adv-x="684" 
d="M119 0v54h504v-54h-504zM344 354v180h54v-180h225v-54h-225v-180h-54v180h-224v54h224z" />
    <glyph glyph-name="twosuperior" unicode="&#xb2;" horiz-adv-x="352" 
d="M381 382l-10 -49h-272l12 62l169 118c28 19 70 49 70 99c0 35 -27 60 -68 60c-44 0 -76 -22 -87 -77h-55c16 88 74 126 146 126c67 0 119 -41 119 -104c0 -73 -56 -115 -99 -144l-112 -78l-3 -13h190z" />
    <glyph glyph-name="threesuperior" unicode="&#xb3;" horiz-adv-x="367" 
d="M413 659l-101 -74l-2 -12c61 -12 86 -61 86 -106c0 -84 -55 -141 -148 -141c-75 0 -134 49 -134 124h54c3 -47 36 -75 83 -75c57 0 90 40 90 91c0 41 -29 66 -72 66c-15 0 -28 -1 -39 -4l10 58l86 64l3 15h-156l8 49h241z" />
    <glyph glyph-name="acute" unicode="&#xb4;" horiz-adv-x="234" 
d="M331 727l-131 -145h-60l109 145h82z" />
    <glyph glyph-name="mu" unicode="&#xb5;" horiz-adv-x="601" 
d="M126 500h63v-307c0 -100 46 -150 139 -150c98 0 165 86 165 183v274h63v-500h-61v56h-20c-27 -39 -87 -69 -156 -69c-54 0 -97 14 -130 41v-228h-63v700z" />
    <glyph glyph-name="paragraph" unicode="&#xb6;" horiz-adv-x="639" 
d="M399 714h315l-8 -50h-79l-149 -841h-59l149 841h-120l-149 -841h-59l87 491c-117 0 -198 53 -198 169c0 157 123 231 270 231z" />
    <glyph glyph-name="middot" unicode="&#xb7;" horiz-adv-x="244" 
d="M211 264h-84l17 102h84z" />
    <glyph glyph-name="cedilla" unicode="&#xb8;" horiz-adv-x="241" 
d="M102 28h41l-49 -86h13c7 4 13 8 28 8c31 0 54 -26 54 -66c0 -52 -38 -89 -95 -89c-47 0 -78 28 -79 64h47c5 -17 19 -23 35 -23c25 0 43 18 43 45c0 19 -14 32 -34 32c-13 0 -23 -4 -30 -11h-47z" />
    <glyph glyph-name="onesuperior" unicode="&#xb9;" horiz-adv-x="329" 
d="M263 382h97l-8 -49h-249l8 49h97l47 264h-16l-89 -47l10 57l108 58h54z" />
    <glyph glyph-name="ordmasculine" unicode="&#xba;" horiz-adv-x="442" 
d="M291 721c116 0 181 -88 181 -197s-65 -198 -181 -198s-181 89 -181 198s65 197 181 197zM291 375c85 0 126 75 126 149c0 75 -41 147 -126 147s-126 -72 -126 -147c0 -74 41 -149 126 -149z" />
    <glyph glyph-name="guillemotright" unicode="&#xbb;" horiz-adv-x="526" 
d="M455 275l4 20l-128 165h68l120 -149l-10 -59l-169 -148h-74zM264 275l4 20l-128 165h68l120 -149l-10 -59l-169 -148h-74z" />
    <glyph glyph-name="onequarter" unicode="&#xbc;" horiz-adv-x="891" 
d="M285 0h-62l547 700h61zM820 139h55l-9 -49h-55l-15 -90h-55l15 90h-196l9 53l217 238h77zM640 139h125l29 168h-15l-136 -153zM263 382h97l-8 -49h-249l8 49h97l47 264h-16l-89 -47l10 57l108 58h54z" />
    <glyph glyph-name="onehalf" unicode="&#xbd;" horiz-adv-x="909" 
d="M286 0h-62l547 700h61zM263 382h97l-8 -49h-249l8 49h97l47 264h-16l-89 -47l10 57l108 58h54zM879 49l-10 -49h-272l12 62l169 118c28 19 70 49 70 99c0 35 -27 60 -68 60c-44 0 -76 -22 -87 -77h-55c16 88 74 126 146 126c67 0 119 -41 119 -104
c0 -73 -56 -115 -99 -144l-112 -78l-3 -13h190z" />
    <glyph glyph-name="threequarters" unicode="&#xbe;" horiz-adv-x="905" 
d="M299 0h-62l547 700h61zM834 139h55l-9 -49h-55l-15 -90h-55l15 90h-196l9 53l217 238h77zM654 139h125l29 168h-15l-136 -153zM413 659l-101 -74l-2 -12c61 -12 86 -61 86 -106c0 -84 -55 -141 -148 -141c-75 0 -134 49 -134 124h54c3 -47 36 -75 83 -75
c57 0 90 40 90 91c0 41 -29 66 -72 66c-15 0 -28 -1 -39 -4l10 58l86 64l3 15h-156l8 49h241z" />
    <glyph glyph-name="questiondown" unicode="&#xbf;" horiz-adv-x="521" 
d="M245 -206c-107 0 -192 70 -192 170c0 98 47 158 146 214c60 36 88 49 101 126l3 18h63l-3 -18c-16 -94 -49 -123 -139 -175c-72 -41 -108 -88 -108 -164c0 -67 51 -118 135 -118c92 0 142 53 158 145h62c-21 -120 -90 -198 -226 -198zM323 500h81l-17 -101h-81z" />
    <glyph glyph-name="Agrave" unicode="&#xc0;" horiz-adv-x="666" 
d="M516 714l128 -714h-69l-40 231h-322l-120 -231h-72l374 714h121zM427 644l-183 -353h281l-60 353h-38zM431 767l-83 129h78l61 -129h-56z" />
    <glyph glyph-name="Aacute" unicode="&#xc1;" horiz-adv-x="666" 
d="M516 714l128 -714h-69l-40 231h-322l-120 -231h-72l374 714h121zM427 644l-183 -353h281l-60 353h-38zM618 896l-127 -129h-60l105 129h82z" />
    <glyph glyph-name="Acircumflex" unicode="&#xc2;" horiz-adv-x="666" 
d="M516 714l128 -714h-69l-40 231h-322l-120 -231h-72l374 714h121zM427 644l-183 -353h281l-60 353h-38zM322 767l127 129h70l83 -129h-61l-51 79h-20l-79 -79h-69z" />
    <glyph glyph-name="Atilde" unicode="&#xc3;" horiz-adv-x="667" 
d="M516 714l128 -714h-69l-40 231h-322l-120 -231h-72l374 714h121zM427 644l-183 -353h281l-60 353h-38zM597 896h48c-16 -92 -53 -129 -109 -129c-66 0 -95 80 -136 80c-33 0 -48 -40 -55 -80h-48c16 92 53 129 109 129c66 0 95 -80 136 -80c33 0 48 39 55 80z" />
    <glyph glyph-name="Adieresis" unicode="&#xc4;" horiz-adv-x="666" 
d="M516 714l128 -714h-69l-40 231h-322l-120 -231h-72l374 714h121zM427 644l-183 -353h281l-60 353h-38zM417 817h-69l13 79h69zM593 817h-69l13 79h69z" />
    <glyph glyph-name="Aring" unicode="&#xc5;" horiz-adv-x="666" 
d="M467 897c58 0 105 -47 105 -105c0 -40 -22 -74 -54 -93l126 -699h-69l-40 231h-322l-120 -231h-72l374 714c-21 19 -34 47 -34 78c0 58 48 105 106 105zM427 644l-183 -353h281l-60 353h-38zM467 732c35 0 60 25 60 60s-25 60 -60 60s-60 -25 -60 -60s25 -60 60 -60z" />
    <glyph glyph-name="AE" unicode="&#xc6;" horiz-adv-x="978" 
d="M511 714h525l-10 -60h-362l-45 -252h286l-10 -60h-286l-50 -282h379l-10 -60h-445l40 231h-276l-160 -231h-77zM540 654l-252 -363h246l63 363h-57z" />
    <glyph glyph-name="Ccedilla" unicode="&#xc7;" horiz-adv-x="695" 
d="M623 193h70c-42 -119 -144 -206 -290 -206c-11 0 -20 1 -31 2l-26 -47h13c7 4 13 8 28 8c31 0 54 -26 54 -66c0 -52 -38 -89 -95 -89c-47 0 -78 28 -79 64h47c5 -17 19 -23 35 -23c25 0 43 18 43 45c0 19 -14 32 -34 32c-13 0 -23 -4 -30 -11h-47l53 92
c-130 26 -218 136 -218 291c0 228 129 442 360 442c133 0 230 -73 254 -192h-69c-19 81 -82 132 -187 132c-204 0 -292 -211 -292 -379c0 -136 77 -241 224 -241c112 0 184 62 217 146z" />
    <glyph glyph-name="Egrave" unicode="&#xc8;" horiz-adv-x="639" 
d="M170 60h428l-10 -60h-494l125 714h478l-10 -60h-412l-45 -252h335l-10 -60h-335zM466 767l-83 129h78l61 -129h-56z" />
    <glyph glyph-name="Eacute" unicode="&#xc9;" horiz-adv-x="639" 
d="M170 60h428l-10 -60h-494l125 714h478l-10 -60h-412l-45 -252h335l-10 -60h-335zM593 896l-127 -129h-60l105 129h82z" />
    <glyph glyph-name="Ecircumflex" unicode="&#xca;" horiz-adv-x="639" 
d="M170 60h428l-10 -60h-494l125 714h478l-10 -60h-412l-45 -252h335l-10 -60h-335zM329 767l127 129h70l83 -129h-61l-51 79h-20l-79 -79h-69z" />
    <glyph glyph-name="Edieresis" unicode="&#xcb;" horiz-adv-x="639" 
d="M170 60h428l-10 -60h-494l125 714h478l-10 -60h-412l-45 -252h335l-10 -60h-335zM420 817h-69l13 79h69zM596 817h-69l13 79h69z" />
    <glyph glyph-name="Igrave" unicode="&#xcc;" horiz-adv-x="269" 
d="M226 714h66l-125 -714h-66zM241 767l-83 129h78l61 -129h-56z" />
    <glyph glyph-name="Iacute" unicode="&#xcd;" horiz-adv-x="269" 
d="M226 714h66l-125 -714h-66zM427 896l-127 -129h-60l105 129h82z" />
    <glyph glyph-name="Icircumflex" unicode="&#xce;" horiz-adv-x="269" 
d="M226 714h66l-125 -714h-66zM124 767l127 129h70l83 -129h-61l-51 79h-20l-79 -79h-69z" />
    <glyph glyph-name="Idieresis" unicode="&#xcf;" horiz-adv-x="269" 
d="M226 714h66l-125 -714h-66zM220 817h-69l13 79h69zM396 817h-69l13 79h69z" />
    <glyph glyph-name="Eth" unicode="&#xd0;" horiz-adv-x="750" 
d="M80 344l10 56h98l55 314h208c179 0 307 -82 307 -287c0 -208 -107 -427 -398 -427h-242l60 344h-98zM194 60h182c258 0 316 226 316 369c0 169 -98 225 -237 225h-156l-45 -254h228l-10 -56h-228z" />
    <glyph glyph-name="Ntilde" unicode="&#xd1;" horiz-adv-x="749" 
d="M713 714h66l-125 -714h-117l-244 644h-20l-113 -644h-66l125 714h117l245 -644h19zM651 896h48c-16 -92 -53 -129 -109 -129c-66 0 -95 80 -136 80c-33 0 -48 -40 -55 -80h-48c16 92 53 129 109 129c66 0 95 -80 136 -80c33 0 48 39 55 80z" />
    <glyph glyph-name="Ograve" unicode="&#xd2;" horiz-adv-x="758" 
d="M478 727c169 0 288 -119 288 -298c0 -224 -127 -442 -362 -442c-169 0 -288 119 -288 298c0 224 127 442 362 442zM407 47c208 0 293 215 293 379c0 133 -76 241 -225 241c-207 0 -293 -215 -293 -379c0 -133 76 -241 225 -241zM503 767l-83 129h78l61 -129h-56z" />
    <glyph glyph-name="Oacute" unicode="&#xd3;" horiz-adv-x="758" 
d="M478 727c169 0 288 -119 288 -298c0 -224 -127 -442 -362 -442c-169 0 -288 119 -288 298c0 224 127 442 362 442zM407 47c208 0 293 215 293 379c0 133 -76 241 -225 241c-207 0 -293 -215 -293 -379c0 -133 76 -241 225 -241zM672 896l-127 -129h-60l105 129h82z" />
    <glyph glyph-name="Ocircumflex" unicode="&#xd4;" horiz-adv-x="758" 
d="M478 727c169 0 288 -119 288 -298c0 -224 -127 -442 -362 -442c-169 0 -288 119 -288 298c0 224 127 442 362 442zM407 47c208 0 293 215 293 379c0 133 -76 241 -225 241c-207 0 -293 -215 -293 -379c0 -133 76 -241 225 -241zM379 767l127 129h70l83 -129h-61l-51 79
h-20l-79 -79h-69z" />
    <glyph glyph-name="Otilde" unicode="&#xd5;" horiz-adv-x="758" 
d="M478 727c169 0 288 -119 288 -298c0 -224 -127 -442 -362 -442c-169 0 -288 119 -288 298c0 224 127 442 362 442zM407 47c208 0 293 215 293 379c0 133 -76 241 -225 241c-207 0 -293 -215 -293 -379c0 -133 76 -241 225 -241zM657 896h48c-16 -92 -53 -129 -109 -129
c-66 0 -95 80 -136 80c-33 0 -48 -40 -55 -80h-48c16 92 53 129 109 129c66 0 95 -80 136 -80c33 0 48 39 55 80z" />
    <glyph glyph-name="Odieresis" unicode="&#xd6;" horiz-adv-x="758" 
d="M474 817h-69l13 79h69zM650 817h-69l13 79h69zM478 727c169 0 288 -119 288 -298c0 -224 -127 -442 -362 -442c-169 0 -288 119 -288 298c0 224 127 442 362 442zM407 47c208 0 293 215 293 379c0 133 -76 241 -225 241c-207 0 -293 -215 -293 -379
c0 -133 76 -241 225 -241z" />
    <glyph glyph-name="multiply" unicode="&#xd7;" horiz-adv-x="632" 
d="M327 282l-188 189l37 37l189 -189l189 189l37 -37l-189 -189l189 -189l-37 -37l-189 188l-189 -188l-37 37z" />
    <glyph glyph-name="Oslash" unicode="&#xd8;" horiz-adv-x="758" 
d="M478 727c85 0 157 -30 208 -83l69 70h71l-108 -111c31 -47 48 -106 48 -174c0 -224 -127 -442 -362 -442c-85 0 -157 30 -208 82l-68 -69h-71l107 109c-32 49 -48 108 -48 176c0 224 127 442 362 442zM182 288c0 -49 10 -93 29 -130l431 440c-39 43 -94 69 -167 69
c-207 0 -293 -215 -293 -379zM407 47c208 0 293 215 293 379c0 47 -10 90 -29 129l-431 -440c39 -43 94 -68 167 -68z" />
    <glyph glyph-name="Ugrave" unicode="&#xd9;" horiz-adv-x="726" 
d="M693 714h66l-82 -465c-29 -164 -127 -262 -300 -262c-148 0 -246 86 -246 209c0 19 4 51 7 70l79 448h66l-79 -449c-3 -19 -7 -47 -7 -66c0 -95 66 -152 183 -152c141 0 210 80 234 219zM495 767l-83 129h78l61 -129h-56z" />
    <glyph glyph-name="Uacute" unicode="&#xda;" horiz-adv-x="726" 
d="M693 714h66l-82 -465c-29 -164 -127 -262 -300 -262c-148 0 -246 86 -246 209c0 19 4 51 7 70l79 448h66l-79 -449c-3 -19 -7 -47 -7 -66c0 -95 66 -152 183 -152c141 0 210 80 234 219zM634 896l-127 -129h-60l105 129h82z" />
    <glyph glyph-name="Ucircumflex" unicode="&#xdb;" horiz-adv-x="726" 
d="M693 714h66l-82 -465c-29 -164 -127 -262 -300 -262c-148 0 -246 86 -246 209c0 19 4 51 7 70l79 448h66l-79 -449c-3 -19 -7 -47 -7 -66c0 -95 66 -152 183 -152c141 0 210 80 234 219zM356 767l127 129h70l83 -129h-61l-51 79h-20l-79 -79h-69z" />
    <glyph glyph-name="Udieresis" unicode="&#xdc;" horiz-adv-x="726" 
d="M693 714h66l-82 -465c-29 -164 -127 -262 -300 -262c-148 0 -246 86 -246 209c0 19 4 51 7 70l79 448h66l-79 -449c-3 -19 -7 -47 -7 -66c0 -95 66 -152 183 -152c141 0 210 80 234 219zM447 817h-69l13 79h69zM623 817h-69l13 79h69z" />
    <glyph glyph-name="Yacute" unicode="&#xdd;" horiz-adv-x="620" 
d="M357 373h28l263 341h74l-331 -434l-49 -280h-66l49 280l-180 434h69zM581 896l-127 -129h-60l105 129h82z" />
    <glyph glyph-name="Thorn" unicode="&#xde;" horiz-adv-x="633" 
d="M259 556h205c106 0 193 -63 193 -175c0 -155 -117 -222 -258 -222h-210l-29 -159h-66l126 714h67zM454 496h-206l-49 -277h212c101 0 180 49 180 160c0 81 -63 117 -137 117z" />
    <glyph glyph-name="germandbls" unicode="&#xdf;" horiz-adv-x="601" 
d="M204 500l6 34c23 125 96 193 217 193c109 0 187 -67 187 -166c0 -72 -35 -134 -99 -165l-3 -19c59 -32 93 -87 93 -154c0 -137 -106 -223 -249 -223h-77l10 56h69c109 0 184 66 184 170c0 84 -73 133 -150 133h-50l10 56h68c82 0 131 64 131 140c0 75 -57 116 -126 116
c-92 0 -139 -52 -155 -145l-92 -526h-62l78 444h-96l10 56h96z" />
    <glyph glyph-name="agrave" unicode="&#xe0;" horiz-adv-x="547" 
d="M405 0l9 55h-20c-36 -39 -84 -68 -157 -68c-109 0 -165 69 -165 149c0 105 76 176 201 176h185l3 16c3 11 5 28 5 43c0 49 -35 86 -120 86c-84 0 -135 -34 -144 -86h-63c17 92 100 142 213 142c108 0 176 -55 176 -139c0 -15 -2 -40 -5 -51l-57 -323h-61zM250 43
c96 0 175 77 191 171l8 45h-163c-85 0 -150 -38 -150 -119c0 -60 41 -97 114 -97zM369 582l-79 145h78l57 -145h-56z" />
    <glyph glyph-name="aacute" unicode="&#xe1;" horiz-adv-x="547" 
d="M405 0l9 55h-20c-36 -39 -84 -68 -157 -68c-109 0 -165 69 -165 149c0 105 76 176 201 176h185l3 16c3 11 5 28 5 43c0 49 -35 86 -120 86c-84 0 -135 -34 -144 -86h-63c17 92 100 142 213 142c108 0 176 -55 176 -139c0 -15 -2 -40 -5 -51l-57 -323h-61zM250 43
c96 0 175 77 191 171l8 45h-163c-85 0 -150 -38 -150 -119c0 -60 41 -97 114 -97zM523 727l-131 -145h-60l109 145h82z" />
    <glyph glyph-name="acircumflex" unicode="&#xe2;" horiz-adv-x="547" 
d="M405 0l9 55h-20c-36 -39 -84 -68 -157 -68c-109 0 -165 69 -165 149c0 105 76 176 201 176h185l3 16c3 11 5 28 5 43c0 49 -35 86 -120 86c-84 0 -135 -34 -144 -86h-63c17 92 100 142 213 142c108 0 176 -55 176 -139c0 -15 -2 -40 -5 -51l-57 -323h-61zM250 43
c96 0 175 77 191 171l8 45h-163c-85 0 -150 -38 -150 -119c0 -60 41 -97 114 -97zM442 727l79 -145h-60l-51 95h-20l-85 -95h-64l131 145h70z" />
    <glyph glyph-name="atilde" unicode="&#xe3;" horiz-adv-x="541" 
d="M405 0l9 55h-20c-36 -39 -84 -68 -157 -68c-109 0 -165 69 -165 149c0 105 76 176 201 176h185l3 16c3 11 5 28 5 43c0 49 -35 86 -120 86c-84 0 -135 -34 -144 -86h-63c17 92 100 142 213 142c108 0 176 -55 176 -139c0 -15 -2 -40 -5 -51l-57 -323h-61zM250 43
c96 0 175 77 191 171l8 45h-163c-85 0 -150 -38 -150 -119c0 -60 41 -97 114 -97zM517 718h48c-16 -92 -53 -129 -109 -129c-66 0 -95 80 -136 80c-33 0 -48 -40 -55 -80h-48c16 92 53 129 109 129c66 0 95 -80 136 -80c33 0 48 39 55 80z" />
    <glyph glyph-name="adieresis" unicode="&#xe4;" horiz-adv-x="547" 
d="M405 0l9 55h-20c-36 -39 -84 -68 -157 -68c-109 0 -165 69 -165 149c0 105 76 176 201 176h185l3 16c3 11 5 28 5 43c0 49 -35 86 -120 86c-84 0 -135 -34 -144 -86h-63c17 92 100 142 213 142c108 0 176 -55 176 -139c0 -15 -2 -40 -5 -51l-57 -323h-61zM250 43
c96 0 175 77 191 171l8 45h-163c-85 0 -150 -38 -150 -119c0 -60 41 -97 114 -97zM336 648h-69l14 79h69zM512 648h-69l14 79h69z" />
    <glyph glyph-name="aring" unicode="&#xe5;" horiz-adv-x="547" 
d="M405 0l9 55h-20c-36 -39 -84 -68 -157 -68c-109 0 -165 69 -165 149c0 105 76 176 201 176h185l3 16c3 11 5 28 5 43c0 49 -35 86 -120 86c-84 0 -135 -34 -144 -86h-63c17 92 100 142 213 142c108 0 176 -55 176 -139c0 -15 -2 -40 -5 -51l-57 -323h-61zM250 43
c96 0 175 77 191 171l8 45h-163c-85 0 -150 -38 -150 -119c0 -60 41 -97 114 -97zM394 793c58 0 105 -47 105 -105s-47 -106 -105 -106s-106 48 -106 106s48 105 106 105zM394 628c35 0 60 25 60 60s-25 60 -60 60s-60 -25 -60 -60s25 -60 60 -60z" />
    <glyph glyph-name="ae" unicode="&#xe6;" horiz-adv-x="895" 
d="M798 132h64c-29 -87 -107 -145 -211 -145c-77 0 -143 37 -179 101h-32c-56 -69 -132 -101 -205 -101c-108 0 -163 69 -163 149c0 105 76 176 201 176h185l3 16c3 11 5 28 5 43c0 49 -36 86 -121 86c-83 0 -132 -35 -143 -86h-63c19 91 101 142 212 142
c79 0 135 -30 162 -78h18c40 45 99 78 171 78c131 0 194 -103 194 -219c0 -11 0 -23 -1 -35h-388c-2 -17 -3 -35 -3 -52c0 -98 61 -164 157 -164c73 0 113 36 137 89zM250 43c96 0 175 77 191 171l8 45h-163c-85 0 -150 -38 -150 -119c0 -60 41 -97 114 -97zM523 323l-4 -11
h313c-5 80 -40 145 -133 145c-91 0 -148 -57 -176 -134z" />
    <glyph glyph-name="ccedilla" unicode="&#xe7;" horiz-adv-x="529" 
d="M454 143h65c-27 -96 -105 -156 -216 -156c-5 0 -9 1 -13 1l-26 -46h13c7 4 13 8 28 8c31 0 54 -26 54 -66c0 -52 -38 -89 -95 -89c-47 0 -78 28 -79 64h47c5 -17 19 -23 35 -23c25 0 43 18 43 45c0 19 -14 32 -34 32c-13 0 -23 -4 -30 -11h-47l52 91
c-89 21 -155 96 -155 208c0 164 93 312 256 312c106 0 178 -66 191 -152h-64c-12 56 -56 96 -129 96c-123 0 -191 -128 -191 -253c0 -101 60 -161 149 -161c73 0 127 39 146 100z" />
    <glyph glyph-name="egrave" unicode="&#xe8;" horiz-adv-x="550" 
d="M453 132h64c-27 -88 -103 -145 -210 -145c-116 0 -211 84 -211 217c0 173 94 309 262 309c132 0 193 -103 193 -219c0 -11 0 -21 -1 -33h-387c-3 -19 -4 -35 -4 -54c0 -98 61 -164 157 -164c75 0 114 34 137 89zM354 457c-92 0 -151 -59 -178 -140h311
c-5 79 -43 140 -133 140zM364 582l-79 145h78l57 -145h-56z" />
    <glyph glyph-name="eacute" unicode="&#xe9;" horiz-adv-x="550" 
d="M453 132h64c-27 -88 -103 -145 -210 -145c-116 0 -211 84 -211 217c0 173 94 309 262 309c132 0 193 -103 193 -219c0 -11 0 -21 -1 -33h-387c-3 -19 -4 -35 -4 -54c0 -98 61 -164 157 -164c75 0 114 34 137 89zM354 457c-92 0 -151 -59 -178 -140h311
c-5 79 -43 140 -133 140zM523 727l-131 -145h-60l109 145h82z" />
    <glyph glyph-name="ecircumflex" unicode="&#xea;" horiz-adv-x="550" 
d="M453 132h64c-27 -88 -103 -145 -210 -145c-116 0 -211 84 -211 217c0 173 94 309 262 309c132 0 193 -103 193 -219c0 -11 0 -21 -1 -33h-387c-3 -19 -4 -35 -4 -54c0 -98 61 -164 157 -164c75 0 114 34 137 89zM354 457c-92 0 -151 -59 -178 -140h311
c-5 79 -43 140 -133 140zM437 727l79 -145h-60l-51 95h-20l-85 -95h-64l131 145h70z" />
    <glyph glyph-name="edieresis" unicode="&#xeb;" horiz-adv-x="550" 
d="M453 132h64c-27 -88 -103 -145 -210 -145c-116 0 -211 84 -211 217c0 173 94 309 262 309c132 0 193 -103 193 -219c0 -11 0 -21 -1 -33h-387c-3 -19 -4 -35 -4 -54c0 -98 61 -164 157 -164c75 0 114 34 137 89zM354 457c-92 0 -151 -59 -178 -140h311
c-5 79 -43 140 -133 140zM331 648h-69l14 79h69zM507 648h-69l14 79h69z" />
    <glyph glyph-name="igrave" unicode="&#xec;" horiz-adv-x="232" 
d="M236 500l-88 -500h-63l88 500h63zM191 582l-79 145h78l57 -145h-56z" />
    <glyph glyph-name="iacute" unicode="&#xed;" horiz-adv-x="232" 
d="M236 500l-88 -500h-63l88 500h63zM382 727l-131 -145h-60l109 145h82z" />
    <glyph glyph-name="icircumflex" unicode="&#xee;" horiz-adv-x="232" 
d="M236 500l-88 -500h-63l88 500h63zM274 727l79 -145h-60l-51 95h-20l-85 -95h-64l131 145h70z" />
    <glyph glyph-name="idieresis" unicode="&#xef;" horiz-adv-x="232" 
d="M236 500l-88 -500h-63l88 500h63zM173 648h-69l14 79h69zM349 648h-69l14 79h69z" />
    <glyph glyph-name="eth" unicode="&#xf0;" horiz-adv-x="570" 
d="M198 602h179c-35 43 -86 88 -142 125h82c47 -36 92 -78 127 -125h124l-10 -48h-82c52 -85 81 -170 81 -274c0 -163 -92 -293 -254 -293c-120 0 -207 84 -207 201c0 155 94 284 242 284c57 0 99 -25 118 -46h24c-15 45 -46 95 -69 128h-222zM306 43c121 0 190 114 190 229
c0 89 -62 144 -149 144c-120 0 -190 -113 -190 -225c0 -89 62 -148 149 -148z" />
    <glyph glyph-name="ntilde" unicode="&#xf1;" 
d="M509 0h-63l52 295c3 17 6 37 6 56c0 69 -35 106 -116 106c-101 0 -173 -83 -192 -187l-48 -270h-63l89 500h61l-10 -55h18c32 36 84 68 160 68c105 0 164 -60 164 -156c0 -15 -3 -41 -6 -61zM547 718h48c-16 -92 -53 -129 -109 -129c-66 0 -95 80 -136 80
c-33 0 -48 -40 -55 -80h-48c16 92 53 129 109 129c66 0 95 -80 136 -80c33 0 48 39 55 80z" />
    <glyph glyph-name="ograve" unicode="&#xf2;" horiz-adv-x="594" 
d="M364 513c123 0 222 -79 222 -218c0 -172 -98 -308 -268 -308c-123 0 -222 79 -222 218c0 171 97 308 268 308zM322 43c131 0 201 121 201 250c0 100 -67 164 -163 164c-132 0 -201 -122 -201 -250c0 -101 64 -164 163 -164zM379 582l-79 145h78l57 -145h-56z" />
    <glyph glyph-name="oacute" unicode="&#xf3;" horiz-adv-x="594" 
d="M364 513c123 0 222 -79 222 -218c0 -172 -98 -308 -268 -308c-123 0 -222 79 -222 218c0 171 97 308 268 308zM322 43c131 0 201 121 201 250c0 100 -67 164 -163 164c-132 0 -201 -122 -201 -250c0 -101 64 -164 163 -164zM536 727l-131 -145h-60l109 145h82z" />
    <glyph glyph-name="ocircumflex" unicode="&#xf4;" horiz-adv-x="594" 
d="M364 513c123 0 222 -79 222 -218c0 -172 -98 -308 -268 -308c-123 0 -222 79 -222 218c0 171 97 308 268 308zM322 43c131 0 201 121 201 250c0 100 -67 164 -163 164c-132 0 -201 -122 -201 -250c0 -101 64 -164 163 -164zM447 727l79 -145h-60l-51 95h-20l-85 -95h-64
l131 145h70z" />
    <glyph glyph-name="otilde" unicode="&#xf5;" horiz-adv-x="594" 
d="M364 513c123 0 222 -79 222 -218c0 -172 -98 -308 -268 -308c-123 0 -222 79 -222 218c0 171 97 308 268 308zM322 43c131 0 201 121 201 250c0 100 -67 164 -163 164c-132 0 -201 -122 -201 -250c0 -101 64 -164 163 -164zM519 718h48c-16 -92 -53 -129 -109 -129
c-66 0 -95 80 -136 80c-33 0 -48 -40 -55 -80h-48c16 92 53 129 109 129c66 0 95 -80 136 -80c33 0 48 39 55 80z" />
    <glyph glyph-name="odieresis" unicode="&#xf6;" horiz-adv-x="594" 
d="M364 513c123 0 222 -79 222 -218c0 -172 -98 -308 -268 -308c-123 0 -222 79 -222 218c0 171 97 308 268 308zM322 43c131 0 201 121 201 250c0 100 -67 164 -163 164c-132 0 -201 -122 -201 -250c0 -101 64 -164 163 -164zM341 648h-69l14 79h69zM517 648h-69l14 79h69z
" />
    <glyph glyph-name="divide" unicode="&#xf7;" horiz-adv-x="683" 
d="M642 255h-503v54h503v-54zM428 433h-76v101h76v-101zM428 30h-76v101h76v-101z" />
    <glyph glyph-name="oslash" unicode="&#xf8;" horiz-adv-x="594" 
d="M364 513c56 0 105 -16 144 -47l35 34h66l-68 -66c28 -36 45 -83 45 -139c0 -172 -98 -308 -268 -308c-67 0 -125 22 -166 65l-53 -52h-66l91 89c-19 33 -28 72 -28 116c0 171 97 308 268 308zM322 43c131 0 201 121 201 250c0 37 -9 70 -27 97l-300 -295
c28 -33 71 -52 126 -52zM159 207c0 -27 4 -51 13 -71l293 287c-29 23 -64 34 -105 34c-132 0 -201 -122 -201 -250z" />
    <glyph glyph-name="ugrave" unicode="&#xf9;" 
d="M362 582l-79 145h78l57 -145h-56zM166 500h63l-52 -295c-3 -17 -6 -37 -6 -56c0 -69 35 -106 116 -106c101 0 173 83 192 187l48 270h63l-89 -500h-61l10 55h-18c-32 -36 -84 -68 -160 -68c-105 0 -164 60 -164 156c0 15 3 41 6 61z" />
    <glyph glyph-name="uacute" unicode="&#xfa;" 
d="M520 727l-131 -145h-60l109 145h82zM166 500h63l-52 -295c-3 -17 -6 -37 -6 -56c0 -69 35 -106 116 -106c101 0 173 83 192 187l48 270h63l-89 -500h-61l10 55h-18c-32 -36 -84 -68 -160 -68c-105 0 -164 60 -164 156c0 15 3 41 6 61z" />
    <glyph glyph-name="ucircumflex" unicode="&#xfb;" 
d="M445 727l79 -145h-60l-51 95h-20l-85 -95h-64l131 145h70zM166 500h63l-52 -295c-3 -17 -6 -37 -6 -56c0 -69 35 -106 116 -106c101 0 173 83 192 187l48 270h63l-89 -500h-61l10 55h-18c-32 -36 -84 -68 -160 -68c-105 0 -164 60 -164 156c0 15 3 41 6 61z" />
    <glyph glyph-name="udieresis" unicode="&#xfc;" 
d="M339 648h-69l14 79h69zM515 648h-69l14 79h69zM166 500h63l-52 -295c-3 -17 -6 -37 -6 -56c0 -69 35 -106 116 -106c101 0 173 83 192 187l48 270h63l-89 -500h-61l10 55h-18c-32 -36 -84 -68 -160 -68c-105 0 -164 60 -164 156c0 15 3 41 6 61z" />
    <glyph glyph-name="yacute" unicode="&#xfd;" horiz-adv-x="513" 
d="M159 -200h-67l148 248l-128 452h63l99 -353h27l209 353h68zM492 727l-131 -145h-60l109 145h82z" />
    <glyph glyph-name="thorn" unicode="&#xfe;" horiz-adv-x="601" 
d="M593 294c0 -141 -82 -307 -257 -307c-65 0 -125 24 -156 79h-20l-47 -266h-63l163 927h63l-50 -282h20c29 39 86 68 149 68c131 0 198 -101 198 -219zM392 457c-136 0 -200 -139 -200 -248c0 -103 49 -166 144 -166s194 86 194 250c0 92 -45 164 -138 164z" />
    <glyph glyph-name="ydieresis" unicode="&#xff;" horiz-adv-x="513" 
d="M159 -200h-67l148 248l-128 452h63l99 -353h27l209 353h68zM301 648h-69l14 79h69zM477 648h-69l14 79h69z" />
    <glyph glyph-name="Amacron" unicode="&#x100;" horiz-adv-x="666" 
d="M516 714l128 -714h-69l-40 231h-322l-120 -231h-72l374 714h121zM427 644l-183 -353h281l-60 353h-38zM607 817h-274l9 54h274z" />
    <glyph glyph-name="amacron" unicode="&#x101;" horiz-adv-x="547" 
d="M405 0l9 55h-20c-36 -39 -84 -68 -157 -68c-109 0 -165 69 -165 149c0 105 76 176 201 176h185l3 16c3 11 5 28 5 43c0 49 -35 86 -120 86c-84 0 -135 -34 -144 -86h-63c17 92 100 142 213 142c108 0 176 -55 176 -139c0 -15 -2 -40 -5 -51l-57 -323h-61zM250 43
c96 0 175 77 191 171l8 45h-163c-85 0 -150 -38 -150 -119c0 -60 41 -97 114 -97zM528 648h-274l9 54h274z" />
    <glyph glyph-name="Abreve" unicode="&#x102;" horiz-adv-x="666" 
d="M516 714l128 -714h-69l-40 231h-322l-120 -231h-72l374 714h121zM427 644l-183 -353h281l-60 353h-38zM564 896h53c-17 -89 -81 -129 -156 -129c-66 0 -120 38 -120 101c0 11 1 19 2 28h53c-1 -7 -2 -14 -2 -19c0 -43 29 -62 72 -62c47 0 83 21 98 81z" />
    <glyph glyph-name="abreve" unicode="&#x103;" horiz-adv-x="547" 
d="M405 0l9 55h-20c-36 -39 -84 -68 -157 -68c-109 0 -165 69 -165 149c0 105 76 176 201 176h185l3 16c3 11 5 28 5 43c0 49 -35 86 -120 86c-84 0 -135 -34 -144 -86h-63c17 92 100 142 213 142c108 0 176 -55 176 -139c0 -15 -2 -40 -5 -51l-57 -323h-61zM250 43
c96 0 175 77 191 171l8 45h-163c-85 0 -150 -38 -150 -119c0 -60 41 -97 114 -97zM490 727h52c-16 -100 -82 -145 -157 -145c-67 0 -119 39 -119 107c0 13 1 27 4 38h51c-2 -11 -3 -21 -3 -29c0 -45 29 -68 72 -68c48 0 85 26 100 97z" />
    <glyph glyph-name="Aogonek" unicode="&#x104;" horiz-adv-x="666" 
d="M516 714l128 -714c-38 -19 -93 -53 -93 -108c0 -31 27 -45 70 -45l-9 -46c-9 -1 -16 -1 -23 -1c-64 0 -98 30 -98 78c0 52 37 98 84 122l-40 231h-322l-120 -231h-72l374 714h121zM427 644l-183 -353h281l-60 353h-38z" />
    <glyph glyph-name="aogonek" unicode="&#x105;" horiz-adv-x="547" 
d="M523 323l-57 -323c-38 -19 -93 -53 -93 -108c0 -31 27 -45 70 -45l-9 -46c-9 -1 -16 -1 -23 -1c-64 0 -98 30 -98 78c0 56 41 101 92 124l9 53h-20c-36 -39 -84 -68 -157 -68c-109 0 -165 69 -165 149c0 105 76 176 201 176h185l3 16c3 11 5 28 5 43c0 49 -35 86 -120 86
c-84 0 -135 -34 -144 -86h-63c17 92 100 142 213 142c108 0 176 -55 176 -139c0 -15 -2 -40 -5 -51zM250 43c96 0 175 77 191 171l8 45h-163c-85 0 -150 -38 -150 -119c0 -60 41 -97 114 -97z" />
    <glyph glyph-name="Cacute" unicode="&#x106;" horiz-adv-x="695" 
d="M623 193h70c-42 -119 -144 -206 -290 -206c-167 0 -287 117 -287 298c0 228 129 442 360 442c133 0 230 -73 254 -192h-69c-19 81 -82 132 -187 132c-204 0 -292 -211 -292 -379c0 -136 77 -241 224 -241c112 0 184 62 217 146zM653 896l-127 -129h-60l105 129h82z" />
    <glyph glyph-name="cacute" unicode="&#x107;" horiz-adv-x="529" 
d="M454 143h65c-27 -96 -105 -156 -216 -156c-114 0 -207 83 -207 214c0 164 93 312 256 312c106 0 178 -66 191 -152h-64c-12 56 -56 96 -129 96c-123 0 -191 -128 -191 -253c0 -101 60 -161 149 -161c73 0 127 39 146 100zM538 727l-131 -145h-60l109 145h82z" />
    <glyph glyph-name="Ccaron" unicode="&#x10c;" horiz-adv-x="715" 
d="M623 193h70c-42 -119 -144 -206 -290 -206c-167 0 -287 117 -287 298c0 228 129 442 360 442c133 0 230 -73 254 -192h-69c-19 81 -82 132 -187 132c-204 0 -292 -211 -292 -379c0 -136 77 -241 224 -241c112 0 184 62 217 146zM465 767l-83 129h63l52 -79h20l78 79h67
l-127 -129h-70z" />
    <glyph glyph-name="ccaron" unicode="&#x10d;" horiz-adv-x="529" 
d="M454 143h65c-27 -96 -105 -156 -216 -156c-114 0 -207 83 -207 214c0 164 93 312 256 312c106 0 178 -66 191 -152h-64c-12 56 -56 96 -129 96c-123 0 -191 -128 -191 -253c0 -101 60 -161 149 -161c73 0 127 39 146 100zM341 582l-79 145h60l51 -95h20l85 95h64
l-131 -145h-70z" />
    <glyph glyph-name="Dcaron" unicode="&#x10e;" horiz-adv-x="726" 
d="M94 0l125 714h208c179 0 307 -82 307 -287c0 -208 -107 -427 -398 -427h-242zM170 60h182c258 0 316 226 316 369c0 169 -98 225 -237 225h-156zM432 767l-83 129h63l52 -79h20l78 79h67l-127 -129h-70z" />
    <glyph glyph-name="dcaron" unicode="&#x10f;" horiz-adv-x="684" 
d="M770 635h-41l17 92h84l-20 -109l-55 -67h-43l55 67zM96 206c0 141 82 307 257 307c65 0 125 -24 156 -79h20l52 293h63l-128 -727h-61l10 55h-20c-29 -39 -88 -68 -151 -68c-131 0 -198 101 -198 219zM297 43c136 0 200 139 200 248c0 103 -49 166 -144 166
s-194 -86 -194 -250c0 -92 45 -164 138 -164z" />
    <glyph glyph-name="Dcroat" unicode="&#x110;" horiz-adv-x="750" 
d="M80 344l10 56h98l55 314h208c179 0 307 -82 307 -287c0 -208 -107 -427 -398 -427h-242l60 344h-98zM194 60h182c258 0 316 226 316 369c0 169 -98 225 -237 225h-156l-45 -254h228l-10 -56h-228z" />
    <glyph glyph-name="dslash" unicode="&#x111;" horiz-adv-x="611" 
d="M96 206c0 141 82 307 257 307c65 0 125 -24 156 -79h20l27 152h-159l9 50h159l16 91h63l-16 -91h85l-9 -50h-85l-103 -586h-61l10 55h-20c-29 -39 -88 -68 -151 -68c-131 0 -198 101 -198 219zM297 43c136 0 200 139 200 248c0 103 -49 166 -144 166s-194 -86 -194 -250
c0 -92 45 -164 138 -164z" />
    <glyph glyph-name="Emacron" unicode="&#x112;" horiz-adv-x="639" 
d="M170 60h428l-10 -60h-494l125 714h478l-10 -60h-412l-45 -252h335l-10 -60h-335zM616 817h-274l9 54h274z" />
    <glyph glyph-name="emacron" unicode="&#x113;" horiz-adv-x="550" 
d="M453 132h64c-27 -88 -103 -145 -210 -145c-116 0 -211 84 -211 217c0 173 94 309 262 309c132 0 193 -103 193 -219c0 -11 0 -21 -1 -33h-387c-3 -19 -4 -35 -4 -54c0 -98 61 -164 157 -164c75 0 114 34 137 89zM354 457c-92 0 -151 -59 -178 -140h311
c-5 79 -43 140 -133 140zM535 648h-274l9 54h274z" />
    <glyph glyph-name="Edotaccent" unicode="&#x116;" horiz-adv-x="639" 
d="M170 60h428l-10 -60h-494l125 714h478l-10 -60h-412l-45 -252h335l-10 -60h-335zM504 817h-69l13 79h69z" />
    <glyph glyph-name="edotaccent" unicode="&#x117;" horiz-adv-x="550" 
d="M453 132h64c-27 -88 -103 -145 -210 -145c-116 0 -211 84 -211 217c0 173 94 309 262 309c132 0 193 -103 193 -219c0 -11 0 -21 -1 -33h-387c-3 -19 -4 -35 -4 -54c0 -98 61 -164 157 -164c75 0 114 34 137 89zM354 457c-92 0 -151 -59 -178 -140h311
c-5 79 -43 140 -133 140zM421 648h-69l14 79h69z" />
    <glyph glyph-name="Eogonek" unicode="&#x118;" horiz-adv-x="639" 
d="M170 60h428l-10 -60c-38 -19 -93 -53 -93 -108c0 -31 27 -45 70 -45l-9 -46c-9 -1 -16 -1 -23 -1c-64 0 -98 30 -98 78c0 53 40 99 88 122h-429l125 714h478l-10 -60h-412l-45 -252h335l-10 -60h-335z" />
    <glyph glyph-name="eogonek" unicode="&#x119;" horiz-adv-x="550" 
d="M453 132h64c-20 -64 -57 -101 -118 -128c-51 -24 -104 -58 -104 -112c0 -31 27 -45 70 -45l-9 -46c-9 -1 -16 -1 -23 -1c-64 0 -98 30 -98 78c0 45 28 84 65 109c-113 3 -204 86 -204 217c0 173 94 309 262 309c132 0 193 -103 193 -219c0 -11 0 -21 -1 -33h-387
c-3 -19 -4 -35 -4 -54c0 -98 61 -164 157 -164c75 0 114 34 137 89zM354 457c-92 0 -151 -59 -178 -140h311c-5 79 -43 140 -133 140z" />
    <glyph glyph-name="Ecaron" unicode="&#x11a;" horiz-adv-x="639" 
d="M170 60h428l-10 -60h-494l125 714h478l-10 -60h-412l-45 -252h335l-10 -60h-335zM425 767l-83 129h63l52 -79h20l78 79h67l-127 -129h-70z" />
    <glyph glyph-name="ecaron" unicode="&#x11b;" horiz-adv-x="550" 
d="M453 132h64c-27 -88 -103 -145 -210 -145c-116 0 -211 84 -211 217c0 173 94 309 262 309c132 0 193 -103 193 -219c0 -11 0 -21 -1 -33h-387c-3 -19 -4 -35 -4 -54c0 -98 61 -164 157 -164c75 0 114 34 137 89zM354 457c-92 0 -151 -59 -178 -140h311
c-5 79 -43 140 -133 140zM338 582l-79 145h60l51 -95h20l85 95h64l-131 -145h-70z" />
    <glyph glyph-name="uni0122" unicode="&#x122;" horiz-adv-x="740" 
d="M406 -13c-168 0 -290 117 -290 298c0 231 133 442 366 442c137 0 231 -75 255 -192h-70c-19 80 -82 132 -189 132c-205 0 -296 -207 -296 -379c0 -136 79 -241 227 -241c141 0 236 91 255 263h-243l12 60h306c-8 -203 -102 -383 -333 -383zM350 -215h-43l58 60l3 17h-41
l14 79h84l-17 -96z" />
    <glyph glyph-name="uni0123" unicode="&#x123;" horiz-adv-x="598" 
d="M96 212c0 139 89 301 262 301c84 0 127 -47 151 -82h20l12 69h61l-82 -466c-26 -156 -126 -240 -259 -240c-108 0 -194 54 -199 147h61c8 -68 72 -91 147 -91c104 0 164 65 187 184l7 35h-19c-29 -39 -91 -69 -152 -69c-131 0 -197 96 -197 212zM299 56
c135 0 199 132 199 239c0 100 -53 162 -144 162c-95 0 -195 -86 -195 -246c0 -91 47 -155 140 -155zM427 727h43l-58 -60l-3 -17h41l-14 -79h-84l17 96z" />
    <glyph glyph-name="Itilde" unicode="&#x128;" horiz-adv-x="269" 
d="M226 714h66l-125 -714h-66zM406 896h48c-16 -92 -53 -129 -109 -129c-66 0 -95 80 -136 80c-33 0 -48 -40 -55 -80h-48c16 92 53 129 109 129c66 0 95 -80 136 -80c33 0 48 39 55 80z" />
    <glyph glyph-name="itilde" unicode="&#x129;" horiz-adv-x="232" 
d="M236 500l-88 -500h-63l88 500h63zM358 718h48c-16 -92 -53 -129 -109 -129c-66 0 -95 80 -136 80c-33 0 -48 -40 -55 -80h-48c16 92 53 129 109 129c66 0 95 -80 136 -80c33 0 48 39 55 80z" />
    <glyph glyph-name="Imacron" unicode="&#x12a;" horiz-adv-x="269" 
d="M226 714h66l-125 -714h-66zM410 817h-274l9 54h274z" />
    <glyph glyph-name="imacron" unicode="&#x12b;" horiz-adv-x="232" 
d="M236 500l-88 -500h-63l88 500h63zM361 648h-274l9 54h274z" />
    <glyph glyph-name="Iogonek" unicode="&#x12e;" horiz-adv-x="269" 
d="M226 714h66l-125 -714c-38 -19 -93 -53 -93 -108c0 -31 27 -45 70 -45l-9 -46c-9 -1 -16 -1 -23 -1c-64 0 -98 30 -98 78c0 53 40 99 87 122z" />
    <glyph glyph-name="iogonek" unicode="&#x12f;" horiz-adv-x="236" 
d="M236 500l-88 -500c-38 -19 -93 -53 -93 -108c0 -31 27 -45 70 -45l-9 -46c-9 -1 -16 -1 -23 -1c-64 0 -98 30 -98 78c0 55 41 100 90 123l88 499h63zM265 648h-69l14 79h69z" />
    <glyph glyph-name="dotlessi" unicode="&#x131;" horiz-adv-x="232" 
d="M236 500l-88 -500h-63l88 500h63z" />
    <glyph glyph-name="uni0136" unicode="&#x136;" horiz-adv-x="695" 
d="M94 0l125 714h66l-66 -374l455 374h85l-265 -225l165 -489h-70l-147 432h-20l-218 -178l-44 -254h-66zM329 -215h-43l58 60l3 17h-41l14 79h84l-17 -96z" />
    <glyph glyph-name="uni0137" unicode="&#x137;" horiz-adv-x="527" 
d="M514 0h-65l-100 287h-20l-156 -142l-25 -145h-63l128 727h63l-88 -497l298 270h80l-170 -154zM253 -215h-43l58 60l3 17h-41l14 79h84l-17 -96z" />
    <glyph glyph-name="kgreenlandic" unicode="&#x138;" horiz-adv-x="527" 
d="M514 0h-65l-100 287h-20l-156 -142l-25 -145h-63l88 500h63l-48 -270l298 270h80l-170 -154z" />
    <glyph glyph-name="Lacute" unicode="&#x139;" horiz-adv-x="604" 
d="M170 62h404l-10 -62h-470l125 714h66zM418 896l-127 -129h-60l105 129h82z" />
    <glyph glyph-name="lacute" unicode="&#x13a;" horiz-adv-x="233" 
d="M276 727l-128 -727h-63l128 727h63zM407 896l-127 -129h-60l105 129h82z" />
    <glyph glyph-name="uni013B" unicode="&#x13b;" horiz-adv-x="604" 
d="M170 62h404l-10 -62h-470l125 714h66zM296 -215h-43l58 60l3 17h-41l14 79h84l-17 -96z" />
    <glyph glyph-name="uni013C" unicode="&#x13c;" horiz-adv-x="233" 
d="M276 727l-128 -727h-63l128 727h63zM74 -215h-43l58 60l3 17h-41l14 79h84l-17 -96z" />
    <glyph glyph-name="Lcaron" unicode="&#x13d;" horiz-adv-x="604" 
d="M434 622h-41l17 92h84l-20 -109l-55 -67h-43l55 67zM170 62h404l-10 -62h-470l125 714h66z" />
    <glyph glyph-name="lcaron" unicode="&#x13e;" horiz-adv-x="310" 
d="M396 635h-41l17 92h84l-20 -109l-55 -67h-43l55 67zM276 727l-128 -727h-63l128 727h63z" />
    <glyph glyph-name="Lslash" unicode="&#x141;" horiz-adv-x="619" 
d="M185 62h404l-10 -62h-470l53 305l-99 -56l12 65l99 56l60 344h66l-54 -303l187 105l-11 -65l-187 -105z" />
    <glyph glyph-name="lslash" unicode="&#x142;" horiz-adv-x="319" 
d="M321 727l-53 -301l106 61l-11 -65l-107 -60l-63 -362h-63l56 322l-111 -63l12 65l111 63l60 340h63z" />
    <glyph glyph-name="Nacute" unicode="&#x143;" horiz-adv-x="749" 
d="M713 714h66l-125 -714h-117l-244 644h-20l-113 -644h-66l125 714h117l245 -644h19zM655 896l-127 -129h-60l105 129h82z" />
    <glyph glyph-name="nacute" unicode="&#x144;" 
d="M509 0h-63l52 295c3 17 6 37 6 56c0 69 -35 106 -116 106c-101 0 -173 -83 -192 -187l-48 -270h-63l89 500h61l-10 -55h18c32 36 84 68 160 68c105 0 164 -60 164 -156c0 -15 -3 -41 -6 -61zM557 727l-131 -145h-60l109 145h82z" />
    <glyph glyph-name="uni0145" unicode="&#x145;" horiz-adv-x="749" 
d="M713 714h66l-125 -714h-117l-244 644h-20l-113 -644h-66l125 714h117l245 -644h19zM325 -215h-43l58 60l3 17h-41l14 79h84l-17 -96z" />
    <glyph glyph-name="uni0146" unicode="&#x146;" 
d="M509 0h-63l52 295c3 17 6 37 6 56c0 69 -35 106 -116 106c-101 0 -173 -83 -192 -187l-48 -270h-63l89 500h61l-10 -55h18c32 36 84 68 160 68c105 0 164 -60 164 -156c0 -15 -3 -41 -6 -61zM275 -215h-43l58 60l3 17h-41l14 79h84l-17 -96z" />
    <glyph glyph-name="Ncaron" unicode="&#x147;" horiz-adv-x="749" 
d="M713 714h66l-125 -714h-117l-244 644h-20l-113 -644h-66l125 714h117l245 -644h19zM478 767l-83 129h63l52 -79h20l78 79h67l-127 -129h-70z" />
    <glyph glyph-name="ncaron" unicode="&#x148;" 
d="M509 0h-63l52 295c3 17 6 37 6 56c0 69 -35 106 -116 106c-101 0 -173 -83 -192 -187l-48 -270h-63l89 500h61l-10 -55h18c32 36 84 68 160 68c105 0 164 -60 164 -156c0 -15 -3 -41 -6 -61zM366 582l-79 145h60l51 -95h20l85 95h64l-131 -145h-70z" />
    <glyph glyph-name="Eng" unicode="&#x14a;" horiz-adv-x="749" 
d="M537 0l-244 644h-20l-113 -644h-66l125 714h117l245 -644h19l113 644h66l-120 -686c-24 -139 -104 -228 -240 -228h-66l11 60h55c80 0 138 44 167 140h-49z" />
    <glyph glyph-name="eng" unicode="&#x14b;" 
d="M328 -200h-62l10 56h46c72 0 105 34 118 106l58 333c3 17 6 37 6 56c0 69 -35 106 -116 106c-101 0 -173 -83 -192 -187l-48 -270h-63l89 500h61l-10 -55h18c32 36 84 68 160 68c105 0 164 -60 164 -156c0 -15 -3 -41 -6 -61l-60 -342c-19 -100 -74 -154 -173 -154z" />
    <glyph glyph-name="Omacron" unicode="&#x14c;" horiz-adv-x="758" 
d="M478 727c169 0 288 -119 288 -298c0 -224 -127 -442 -362 -442c-169 0 -288 119 -288 298c0 224 127 442 362 442zM407 47c208 0 293 215 293 379c0 133 -76 241 -225 241c-207 0 -293 -215 -293 -379c0 -133 76 -241 225 -241zM665 817h-274l9 54h274z" />
    <glyph glyph-name="omacron" unicode="&#x14d;" horiz-adv-x="594" 
d="M364 513c123 0 222 -79 222 -218c0 -172 -98 -308 -268 -308c-123 0 -222 79 -222 218c0 171 97 308 268 308zM322 43c131 0 201 121 201 250c0 100 -67 164 -163 164c-132 0 -201 -122 -201 -250c0 -101 64 -164 163 -164zM531 648h-274l9 54h274z" />
    <glyph glyph-name="Ohungarumlaut" unicode="&#x150;" horiz-adv-x="758" 
d="M478 727c169 0 288 -119 288 -298c0 -224 -127 -442 -362 -442c-169 0 -288 119 -288 298c0 224 127 442 362 442zM407 47c208 0 293 215 293 379c0 133 -76 241 -225 241c-207 0 -293 -215 -293 -379c0 -133 76 -241 225 -241zM577 896l-117 -129h-56l95 129h78z
M721 896l-117 -129h-56l95 129h78z" />
    <glyph glyph-name="ohungarumlaut" unicode="&#x151;" horiz-adv-x="594" 
d="M364 513c123 0 222 -79 222 -218c0 -172 -98 -308 -268 -308c-123 0 -222 79 -222 218c0 171 97 308 268 308zM322 43c131 0 201 121 201 250c0 100 -67 164 -163 164c-132 0 -201 -122 -201 -250c0 -101 64 -164 163 -164zM453 727l-121 -145h-56l99 145h78zM597 727
l-121 -145h-56l99 145h78z" />
    <glyph glyph-name="OE" unicode="&#x152;" horiz-adv-x="1074" 
d="M654 60h379l-10 -60h-445l9 52h-20c-51 -47 -108 -65 -171 -65c-169 0 -280 111 -280 302c0 224 122 438 365 438c81 0 146 -28 191 -73h20l11 60h429l-10 -60h-363l-45 -252h286l-10 -60h-286zM407 47c101 0 165 57 200 119l67 382c-31 71 -104 119 -200 119
c-204 0 -292 -202 -292 -377c0 -156 84 -243 225 -243z" />
    <glyph glyph-name="oe" unicode="&#x153;" horiz-adv-x="952" 
d="M855 132h65c-28 -87 -103 -145 -206 -145c-76 0 -141 38 -176 102h-21c-45 -64 -114 -102 -203 -102c-121 0 -218 77 -218 218c0 171 95 308 263 308c80 0 149 -34 188 -99h20c43 61 106 99 194 99c128 0 192 -103 192 -219c0 -11 0 -21 -1 -33h-376
c-2 -18 -3 -36 -3 -54c0 -99 56 -164 149 -164c72 0 109 36 133 89zM318 43c128 0 196 121 196 250c0 100 -64 164 -159 164c-129 0 -196 -122 -196 -250c0 -104 63 -164 159 -164zM757 457c-93 0 -146 -59 -170 -140h301c-5 79 -42 140 -131 140z" />
    <glyph glyph-name="Racute" unicode="&#x154;" horiz-adv-x="687" 
d="M214 311l-54 -311h-66l125 714h304c108 0 196 -64 196 -179c0 -108 -57 -174 -141 -205l59 -330h-66l-57 315c-19 -3 -37 -4 -56 -4h-244zM513 654h-238l-50 -283h245c105 0 184 50 184 163c0 83 -64 120 -141 120zM599 896l-127 -129h-60l105 129h82z" />
    <glyph glyph-name="racute" unicode="&#x155;" horiz-adv-x="372" 
d="M433 500l-11 -58h-37c-95 0 -170 -63 -189 -171l-48 -271h-63l89 500h61l-11 -61h19c35 35 89 61 157 61h33zM448 727l-131 -145h-60l109 145h82z" />
    <glyph glyph-name="uni0156" unicode="&#x156;" horiz-adv-x="687" 
d="M214 311l-54 -311h-66l125 714h304c108 0 196 -64 196 -179c0 -108 -57 -174 -141 -205l59 -330h-66l-57 315c-19 -3 -37 -4 -56 -4h-244zM513 654h-238l-50 -283h245c105 0 184 50 184 163c0 83 -64 120 -141 120zM304 -215h-43l58 60l3 17h-41l14 79h84l-17 -96z" />
    <glyph glyph-name="uni0157" unicode="&#x157;" horiz-adv-x="372" 
d="M433 500l-11 -58h-37c-95 0 -170 -63 -189 -171l-48 -271h-63l89 500h61l-11 -61h19c35 35 89 61 157 61h33zM79 -215h-43l58 60l3 17h-41l14 79h84l-17 -96z" />
    <glyph glyph-name="Rcaron" unicode="&#x158;" horiz-adv-x="687" 
d="M214 311l-54 -311h-66l125 714h304c108 0 196 -64 196 -179c0 -108 -57 -174 -141 -205l59 -330h-66l-57 315c-19 -3 -37 -4 -56 -4h-244zM513 654h-238l-50 -283h245c105 0 184 50 184 163c0 83 -64 120 -141 120zM423 767l-83 129h63l52 -79h20l78 79h67l-127 -129h-70
z" />
    <glyph glyph-name="rcaron" unicode="&#x159;" horiz-adv-x="372" 
d="M433 500l-11 -58h-37c-95 0 -170 -63 -189 -171l-48 -271h-63l89 500h61l-11 -61h19c35 35 89 61 157 61h33zM278 582l-79 145h60l51 -95h20l85 95h64l-131 -145h-70z" />
    <glyph glyph-name="Sacute" unicode="&#x15a;" horiz-adv-x="646" 
d="M342 415l129 -32c108 -28 162 -90 162 -185c0 -136 -126 -211 -270 -211c-142 0 -265 59 -281 204h69c16 -107 106 -144 215 -144c94 0 201 40 201 147c0 67 -39 110 -117 130l-135 34c-83 21 -158 67 -158 167c0 132 106 202 249 202c129 0 237 -69 250 -186h-67
c-19 87 -91 126 -187 126c-82 0 -179 -33 -179 -136c0 -68 48 -99 119 -116zM576 896l-127 -129h-60l105 129h82z" />
    <glyph glyph-name="sacute" unicode="&#x15b;" horiz-adv-x="502" 
d="M304 457c-63 0 -124 -25 -124 -88c0 -43 33 -54 82 -69l94 -26c83 -23 125 -67 125 -131c0 -91 -83 -156 -203 -156c-104 0 -205 40 -213 152h62c4 -57 64 -96 155 -96c71 0 136 32 136 97c0 36 -28 62 -84 78l-93 26c-76 21 -124 55 -124 124c0 98 87 145 191 145
c99 0 184 -48 192 -139h-62c-7 49 -54 83 -134 83zM455 727l-131 -145h-60l109 145h82z" />
    <glyph glyph-name="Scedilla" unicode="&#x15e;" horiz-adv-x="646" 
d="M342 415l129 -32c108 -28 162 -90 162 -185c0 -136 -126 -211 -270 -211c-8 0 -15 0 -22 1l-26 -46h13c7 4 13 8 28 8c31 0 54 -26 54 -66c0 -52 -38 -89 -95 -89c-47 0 -78 28 -79 64h47c5 -17 19 -23 35 -23c25 0 43 18 43 45c0 19 -14 32 -34 32c-13 0 -23 -4 -30 -11
h-47l51 89c-114 16 -206 76 -219 200h69c16 -107 106 -144 215 -144c94 0 201 40 201 147c0 67 -39 110 -117 130l-135 34c-83 21 -158 67 -158 167c0 132 106 202 249 202c129 0 237 -69 250 -186h-67c-19 87 -91 126 -187 126c-82 0 -179 -33 -179 -136
c0 -68 48 -99 119 -116z" />
    <glyph glyph-name="scedilla" unicode="&#x15f;" horiz-adv-x="502" 
d="M304 457c-63 0 -124 -25 -124 -88c0 -43 33 -54 82 -69l94 -26c83 -23 125 -67 125 -131c0 -91 -83 -156 -203 -156h-10l-25 -45h13c7 4 13 8 28 8c31 0 54 -26 54 -66c0 -52 -38 -89 -95 -89c-47 0 -78 28 -79 64h47c5 -17 19 -23 35 -23c25 0 43 18 43 45
c0 19 -14 32 -34 32c-13 0 -23 -4 -30 -11h-47l51 89c-84 11 -159 55 -164 148h62c4 -57 64 -96 155 -96c71 0 136 32 136 97c0 36 -28 62 -84 78l-93 26c-76 21 -124 55 -124 124c0 98 87 145 191 145c99 0 184 -48 192 -139h-62c-7 49 -54 83 -134 83z" />
    <glyph glyph-name="Scaron" unicode="&#x160;" horiz-adv-x="646" 
d="M342 415l129 -32c108 -28 162 -90 162 -185c0 -136 -126 -211 -270 -211c-142 0 -265 59 -281 204h69c16 -107 106 -144 215 -144c94 0 201 40 201 147c0 67 -39 110 -117 130l-135 34c-83 21 -158 67 -158 167c0 132 106 202 249 202c129 0 237 -69 250 -186h-67
c-19 87 -91 126 -187 126c-82 0 -179 -33 -179 -136c0 -68 48 -99 119 -116zM393 767l-83 129h63l52 -79h20l78 79h67l-127 -129h-70z" />
    <glyph glyph-name="scaron" unicode="&#x161;" horiz-adv-x="502" 
d="M304 457c-63 0 -124 -25 -124 -88c0 -43 33 -54 82 -69l94 -26c83 -23 125 -67 125 -131c0 -91 -83 -156 -203 -156c-104 0 -205 40 -213 152h62c4 -57 64 -96 155 -96c71 0 136 32 136 97c0 36 -28 62 -84 78l-93 26c-76 21 -124 55 -124 124c0 98 87 145 191 145
c99 0 184 -48 192 -139h-62c-7 49 -54 83 -134 83zM289 582l-79 145h60l51 -95h20l85 95h64l-131 -145h-70z" />
    <glyph glyph-name="uni0162" unicode="&#x162;" horiz-adv-x="578" 
d="M684 714l-10 -60h-237l-115 -654h-66l115 654h-237l10 60h540zM245 -215h-43l58 60l3 17h-41l14 79h84l-17 -96z" />
    <glyph glyph-name="uni0163" unicode="&#x163;" horiz-adv-x="370" 
d="M270 500h130l-10 -56h-130l-54 -304c-3 -11 -4 -27 -4 -38c0 -33 27 -46 70 -46h49l-9 -56h-35c-91 0 -138 27 -138 96c0 15 3 37 6 52l52 296h-91l10 56h91l27 155h63zM169 -215h-43l58 60l3 17h-41l14 79h84l-17 -96z" />
    <glyph glyph-name="Tcaron" unicode="&#x164;" horiz-adv-x="578" 
d="M684 714l-10 -60h-237l-115 -654h-66l115 654h-237l10 60h540zM386 767l-83 129h63l52 -79h20l78 79h67l-127 -129h-70z" />
    <glyph glyph-name="tcaron" unicode="&#x165;" horiz-adv-x="359" 
d="M445 635h-41l17 92h84l-20 -109l-55 -67h-43l55 67zM270 500h130l-10 -56h-130l-54 -304c-3 -11 -4 -27 -4 -38c0 -33 27 -46 70 -46h49l-9 -56h-35c-91 0 -138 27 -138 96c0 15 3 37 6 52l52 296h-91l10 56h91l27 155h63z" />
    <glyph glyph-name="Tbar" unicode="&#x166;" horiz-adv-x="578" 
d="M684 714l-10 -60h-237l-45 -254h167l-10 -56h-167l-60 -344h-66l60 344h-168l10 56h168l45 254h-237l10 60h540z" />
    <glyph glyph-name="tbar" unicode="&#x167;" horiz-adv-x="370" 
d="M270 500h130l-10 -56h-130l-23 -129h129l-10 -56h-129l-21 -119c-3 -11 -4 -27 -4 -38c0 -33 27 -46 70 -46h49l-9 -56h-35c-91 0 -138 27 -138 96c0 15 3 37 6 52l19 111h-90l10 56h90l23 129h-91l10 56h91l27 155h63z" />
    <glyph glyph-name="Utilde" unicode="&#x168;" horiz-adv-x="726" 
d="M693 714h66l-82 -465c-29 -164 -127 -262 -300 -262c-148 0 -246 86 -246 209c0 19 4 51 7 70l79 448h66l-79 -449c-3 -19 -7 -47 -7 -66c0 -95 66 -152 183 -152c141 0 210 80 234 219zM634 896h48c-16 -92 -53 -129 -109 -129c-66 0 -95 80 -136 80
c-33 0 -48 -40 -55 -80h-48c16 92 53 129 109 129c66 0 95 -80 136 -80c33 0 48 39 55 80z" />
    <glyph glyph-name="utilde" unicode="&#x169;" 
d="M166 500h63l-52 -295c-3 -17 -6 -37 -6 -56c0 -69 35 -106 116 -106c101 0 173 83 192 187l48 270h63l-89 -500h-61l10 55h-18c-32 -36 -84 -68 -160 -68c-105 0 -164 60 -164 156c0 15 3 41 6 61zM528 718h48c-16 -92 -53 -129 -109 -129c-66 0 -95 80 -136 80
c-33 0 -48 -40 -55 -80h-48c16 92 53 129 109 129c66 0 95 -80 136 -80c33 0 48 39 55 80z" />
    <glyph glyph-name="Umacron" unicode="&#x16a;" horiz-adv-x="726" 
d="M693 714h66l-82 -465c-29 -164 -127 -262 -300 -262c-148 0 -246 86 -246 209c0 19 4 51 7 70l79 448h66l-79 -449c-3 -19 -7 -47 -7 -66c0 -95 66 -152 183 -152c141 0 210 80 234 219zM637 817h-274l9 54h274z" />
    <glyph glyph-name="umacron" unicode="&#x16b;" 
d="M533 648h-274l9 54h274zM166 500h63l-52 -295c-3 -17 -6 -37 -6 -56c0 -69 35 -106 116 -106c101 0 173 83 192 187l48 270h63l-89 -500h-61l10 55h-18c-32 -36 -84 -68 -160 -68c-105 0 -164 60 -164 156c0 15 3 41 6 61z" />
    <glyph glyph-name="Uring" unicode="&#x16e;" horiz-adv-x="726" 
d="M693 714h66l-82 -465c-29 -164 -127 -262 -300 -262c-148 0 -246 86 -246 209c0 19 4 51 7 70l79 448h66l-79 -449c-3 -19 -7 -47 -7 -66c0 -95 66 -152 183 -152c141 0 210 80 234 219zM498 966c58 0 105 -47 105 -105s-47 -106 -105 -106s-106 48 -106 106
s48 105 106 105zM498 801c35 0 60 25 60 60s-25 60 -60 60s-60 -25 -60 -60s25 -60 60 -60z" />
    <glyph glyph-name="uring" unicode="&#x16f;" 
d="M393 793c58 0 105 -47 105 -105s-47 -106 -105 -106s-106 48 -106 106s48 105 106 105zM393 628c35 0 60 25 60 60s-25 60 -60 60s-60 -25 -60 -60s25 -60 60 -60zM166 500h63l-52 -295c-3 -17 -6 -37 -6 -56c0 -69 35 -106 116 -106c101 0 173 83 192 187l48 270h63
l-89 -500h-61l10 55h-18c-32 -36 -84 -68 -160 -68c-105 0 -164 60 -164 156c0 15 3 41 6 61z" />
    <glyph glyph-name="Uhungarumlaut" unicode="&#x170;" horiz-adv-x="726" 
d="M693 714h66l-82 -465c-29 -164 -127 -262 -300 -262c-148 0 -246 86 -246 209c0 19 4 51 7 70l79 448h66l-79 -449c-3 -19 -7 -47 -7 -66c0 -95 66 -152 183 -152c141 0 210 80 234 219zM552 896l-117 -129h-56l95 129h78zM696 896l-117 -129h-56l95 129h78z" />
    <glyph glyph-name="uhungarumlaut" unicode="&#x171;" 
d="M447 727l-121 -145h-56l99 145h78zM591 727l-121 -145h-56l99 145h78zM166 500h63l-52 -295c-3 -17 -6 -37 -6 -56c0 -69 35 -106 116 -106c101 0 173 83 192 187l48 270h63l-89 -500h-61l10 55h-18c-32 -36 -84 -68 -160 -68c-105 0 -164 60 -164 156c0 15 3 41 6 61z
" />
    <glyph glyph-name="Uogonek" unicode="&#x172;" horiz-adv-x="726" 
d="M693 714h66l-82 -465c-23 -129 -84 -200 -164 -236s-128 -66 -128 -121c0 -31 27 -45 70 -45l-9 -46c-9 -1 -16 -1 -23 -1c-64 0 -98 30 -98 78c0 45 28 84 65 109h-13c-148 0 -246 86 -246 209c0 19 4 51 7 70l79 448h66l-79 -449c-3 -19 -7 -47 -7 -66
c0 -95 66 -152 183 -152c141 0 210 80 234 219z" />
    <glyph glyph-name="uogonek" unicode="&#x173;" 
d="M166 500h63l-52 -295c-3 -17 -6 -37 -6 -56c0 -69 35 -106 116 -106c101 0 173 83 192 187l48 270h63l-89 -500c-38 -19 -93 -53 -93 -108c0 -31 27 -45 70 -45l-9 -46c-9 -1 -16 -1 -23 -1c-64 0 -98 30 -98 78c0 56 41 101 92 124l10 53h-18c-32 -36 -84 -68 -160 -68
c-105 0 -164 60 -164 156c0 15 3 41 6 61z" />
    <glyph glyph-name="Ydieresis" unicode="&#x178;" horiz-adv-x="620" 
d="M357 373h28l263 341h74l-331 -434l-49 -280h-66l49 280l-180 434h69zM380 817h-69l13 79h69zM556 817h-69l13 79h69z" />
    <glyph glyph-name="Zacute" unicode="&#x179;" horiz-adv-x="629" 
d="M689 714l-14 -80l-527 -554l-4 -20h444l-10 -60h-528l14 81l528 553l4 20h-405l10 60h488zM596 896l-127 -129h-60l105 129h82z" />
    <glyph glyph-name="zacute" unicode="&#x17a;" horiz-adv-x="507" 
d="M448 0h-398l13 76l375 349l4 19h-297l10 56h381l-14 -75l-375 -349l-4 -20h314zM496 727l-131 -145h-60l109 145h82z" />
    <glyph glyph-name="Zdotaccent" unicode="&#x17b;" horiz-adv-x="629" 
d="M689 714l-14 -80l-527 -554l-4 -20h444l-10 -60h-528l14 81l528 553l4 20h-405l10 60h488zM487 817h-69l13 79h69z" />
    <glyph glyph-name="zdotaccent" unicode="&#x17c;" horiz-adv-x="507" 
d="M448 0h-398l13 76l375 349l4 19h-297l10 56h381l-14 -75l-375 -349l-4 -20h314zM396 648h-69l14 79h69z" />
    <glyph glyph-name="Zcaron" unicode="&#x17d;" horiz-adv-x="629" 
d="M689 714l-14 -80l-527 -554l-4 -20h444l-10 -60h-528l14 81l528 553l4 20h-405l10 60h488zM415 767l-83 129h63l52 -79h20l78 79h67l-127 -129h-70z" />
    <glyph glyph-name="zcaron" unicode="&#x17e;" horiz-adv-x="507" 
d="M448 0h-398l13 76l375 349l4 19h-297l10 56h381l-14 -75l-375 -349l-4 -20h314zM319 582l-79 145h60l51 -95h20l85 95h64l-131 -145h-70z" />
    <glyph glyph-name="florin" unicode="&#x192;" horiz-adv-x="413" 
d="M175 -200h-63l99 562h-95v56h105l26 148c20 113 80 161 187 161h35v-56h-41c-75 0 -107 -47 -119 -115l-25 -138h127v-56h-137z" />
    <glyph glyph-name="circumflex" unicode="&#x2c6;" horiz-adv-x="353" 
d="M343 727l79 -145h-60l-51 95h-20l-85 -95h-64l131 145h70z" />
    <glyph glyph-name="caron" unicode="&#x2c7;" horiz-adv-x="353" 
d="M247 582l-79 145h60l51 -95h20l85 95h64l-131 -145h-70z" />
    <glyph glyph-name="breve" unicode="&#x2d8;" horiz-adv-x="345" 
d="M388 727h52c-16 -100 -82 -145 -157 -145c-67 0 -119 39 -119 107c0 13 1 27 4 38h51c-2 -11 -3 -21 -3 -29c0 -45 29 -68 72 -68c48 0 85 26 100 97z" />
    <glyph glyph-name="dotaccent" unicode="&#x2d9;" horiz-adv-x="142" 
d="M223 648h-69l14 79h69z" />
    <glyph glyph-name="ring" unicode="&#x2da;" horiz-adv-x="284" 
d="M246 793c58 0 105 -47 105 -105s-47 -106 -105 -106s-106 48 -106 106s48 105 106 105zM246 628c35 0 60 25 60 60s-25 60 -60 60s-60 -25 -60 -60s25 -60 60 -60z" />
    <glyph glyph-name="ogonek" unicode="&#x2db;" horiz-adv-x="209" 
d="M105 6l51 -6c-38 -19 -93 -53 -93 -108c0 -31 27 -45 70 -45l-9 -46c-9 -1 -16 -1 -23 -1c-64 0 -98 30 -98 78c0 58 49 107 102 128z" />
    <glyph glyph-name="tilde" unicode="&#x2dc;" horiz-adv-x="398" 
d="M443 718h48c-16 -92 -53 -129 -109 -129c-66 0 -95 80 -136 80c-33 0 -48 -40 -55 -80h-48c16 92 53 129 109 129c66 0 95 -80 136 -80c33 0 48 39 55 80z" />
    <glyph glyph-name="hungarumlaut" unicode="&#x2dd;" horiz-adv-x="372" 
d="M319 727l-121 -145h-56l99 145h78zM463 727l-121 -145h-56l99 145h78z" />
    <glyph glyph-name="uni03A9" unicode="&#x3a9;" horiz-adv-x="752" 
d="M613 80v-20h139v-60h-267v59c83 48 203 144 203 319s-101 289 -253 289s-253 -114 -253 -289s120 -271 203 -319v-59h-267v60h139v20c-58 50 -141 145 -141 298c0 204 124 349 319 349s319 -145 319 -349c0 -153 -83 -248 -141 -298z" />
    <glyph glyph-name="pi" unicode="&#x3c0;" horiz-adv-x="650" 
d="M629 0h-35c-88 0 -121 45 -121 130v314h-223v-444h-63v444h-81v56h523v-56h-93v-314c0 -51 19 -74 71 -74h22v-56z" />
    <glyph glyph-name="uni0401" unicode="&#x401;" horiz-adv-x="639" 
d="M170 60h428l-10 -60h-494l125 714h478l-10 -60h-412l-45 -252h335l-10 -60h-335zM414 817h-69l13 79h69zM590 817h-69l13 79h69z" />
    <glyph glyph-name="uni0402" unicode="&#x402;" horiz-adv-x="780" 
d="M443 -8l11 60c9 -3 28 -5 63 -5c101 0 180 66 180 167c0 82 -53 144 -193 144c-65 0 -109 -7 -164 -22l-59 -336h-66l115 654h-196l10 60h519l-10 -60h-257l-45 -256c53 13 99 20 164 20c170 0 248 -96 248 -204c0 -139 -100 -227 -256 -227c-20 0 -53 2 -64 5z" />
    <glyph glyph-name="uni0403" unicode="&#x403;" horiz-adv-x="610" 
d="M679 654h-403l-115 -654h-66l125 714h469zM591 902l-131 -145h-60l109 145h82z" />
    <glyph glyph-name="uni0404" unicode="&#x404;" horiz-adv-x="693" 
d="M406 47c108 0 179 59 214 140h71c-45 -116 -143 -200 -288 -200c-167 0 -287 117 -287 298c0 228 129 442 360 442c131 0 227 -70 252 -186h-69c-20 77 -82 126 -185 126c-161 0 -248 -131 -280 -268h352l-11 -60h-351c-3 -19 -2 -35 -2 -51c0 -136 77 -241 224 -241z
" />
    <glyph glyph-name="uni0405" unicode="&#x405;" horiz-adv-x="646" 
d="M342 415l129 -32c108 -28 162 -90 162 -185c0 -136 -126 -211 -270 -211c-142 0 -265 59 -281 204h69c16 -107 106 -144 215 -144c94 0 201 40 201 147c0 67 -39 110 -117 130l-135 34c-83 21 -158 67 -158 167c0 132 106 202 249 202c129 0 237 -69 250 -186h-67
c-19 87 -91 126 -187 126c-82 0 -179 -33 -179 -136c0 -68 48 -99 119 -116z" />
    <glyph glyph-name="uni0406" unicode="&#x406;" horiz-adv-x="269" 
d="M226 714h66l-125 -714h-66z" />
    <glyph glyph-name="uni0407" unicode="&#x407;" horiz-adv-x="269" 
d="M226 714h66l-125 -714h-66zM223 817h-69l13 79h69zM399 817h-69l13 79h69z" />
    <glyph glyph-name="uni0408" unicode="&#x408;" horiz-adv-x="570" 
d="M275 -13c-112 0 -200 65 -200 185c0 12 1 25 2 38h66c-1 -12 -2 -20 -2 -28c0 -89 50 -135 134 -135c91 0 154 56 177 184l85 483h66l-88 -499c-24 -139 -104 -228 -240 -228z" />
    <glyph glyph-name="uni0409" unicode="&#x409;" horiz-adv-x="1088" 
d="M663 429h199c115 0 209 -67 209 -189c0 -167 -126 -240 -279 -240h-270l115 654h-291l-37 -208c-61 -354 -139 -446 -282 -446h-17l11 66h17c94 0 151 62 207 380l47 268h421zM852 369h-200l-54 -309h207c112 0 200 54 200 179c0 88 -69 130 -153 130z" />
    <glyph glyph-name="uni040A" unicode="&#x40a;" horiz-adv-x="1141" 
d="M713 413h210c111 0 201 -65 201 -182c0 -161 -121 -231 -269 -231h-280l62 351h-415l-62 -351h-66l125 714h66l-52 -301h415l52 301h66zM914 351h-212l-51 -291h219c106 0 188 52 188 169c0 83 -66 122 -144 122z" />
    <glyph glyph-name="uni040B" unicode="&#x40b;" horiz-adv-x="783" 
d="M723 0h-66l37 209c3 12 6 38 6 57c0 50 -30 92 -169 92c-69 0 -134 -8 -191 -21l-59 -337h-66l115 654h-196l10 60h519l-10 -60h-257l-45 -256c59 12 130 20 186 20c184 0 229 -66 229 -146c0 -20 -4 -47 -7 -66z" />
    <glyph glyph-name="uni040C" unicode="&#x40c;" horiz-adv-x="667" 
d="M94 0l125 714h66l-55 -315h229l201 315h71l-218 -347l102 -367h-70l-94 339h-232l-59 -339h-66zM580 887l-131 -145h-60l109 145h82z" />
    <glyph glyph-name="uni040E" unicode="&#x40e;" horiz-adv-x="617" 
d="M253 0h-72l140 216l-175 498h70l141 -398h28l260 398h74zM558 904h59c-19 -101 -96 -156 -189 -156c-81 0 -149 43 -149 124c0 10 1 21 3 32h57c-1 -7 -2 -13 -2 -20c0 -51 38 -82 94 -82c64 0 116 38 127 102z" />
    <glyph glyph-name="uni040F" unicode="&#x40f;" horiz-adv-x="735" 
d="M302 -175l30 175h-238l125 714h66l-115 -654h414l115 654h66l-125 -714h-242l-30 -175h-66z" />
    <glyph glyph-name="uni0410" unicode="&#x410;" horiz-adv-x="666" 
d="M516 714l128 -714h-69l-40 231h-322l-120 -231h-72l374 714h121zM427 644l-183 -353h281l-60 353h-38z" />
    <glyph glyph-name="uni0411" unicode="&#x411;" horiz-adv-x="672" 
d="M442 356h-219l-52 -296h226c109 0 192 52 192 171c0 85 -67 125 -147 125zM94 0l125 714h469l-10 -60h-403l-42 -238h220c111 0 202 -66 202 -184c0 -161 -122 -232 -270 -232h-291z" />
    <glyph glyph-name="uni0412" unicode="&#x412;" horiz-adv-x="686" 
d="M586 380l-4 -21c48 -28 80 -79 80 -139c0 -149 -121 -220 -258 -220h-310l125 714h283c101 0 193 -56 193 -163c0 -78 -44 -144 -109 -171zM275 654l-44 -250h221c97 0 177 36 177 142c0 76 -67 108 -134 108h-220zM170 60h223c109 0 203 46 203 163
c0 88 -78 121 -155 121h-221z" />
    <glyph glyph-name="uni0413" unicode="&#x413;" horiz-adv-x="610" 
d="M679 654h-403l-115 -654h-66l125 714h469z" />
    <glyph glyph-name="uni0414" unicode="&#x414;" horiz-adv-x="737" 
d="M618 60h101l-41 -235h-66l31 175h-561l-31 -175h-65l40 235h73c62 102 140 262 185 510l25 144h424zM552 60l105 594h-292l-15 -84c-43 -239 -118 -408 -177 -510h379z" />
    <glyph glyph-name="uni0415" unicode="&#x415;" horiz-adv-x="639" 
d="M170 60h428l-10 -60h-494l125 714h478l-10 -60h-412l-45 -252h335l-10 -60h-335z" />
    <glyph glyph-name="uni0416" unicode="&#x416;" horiz-adv-x="999" 
d="M788 334h-200l-58 -334h-66l58 334h-194l-194 -334h-74l211 362l-77 352h69l70 -320h200l56 320h66l-56 -320h194l182 320h74l-201 -352l85 -362h-68z" />
    <glyph glyph-name="uni0417" unicode="&#x417;" horiz-adv-x="643" 
d="M299 404h121c95 0 166 42 166 138c0 81 -67 125 -158 125c-109 0 -165 -47 -188 -126h-67c27 113 112 186 256 186c140 0 223 -83 223 -174c0 -84 -43 -143 -114 -166l-3 -18c49 -23 90 -64 90 -137c0 -151 -126 -245 -286 -245c-161 0 -249 78 -256 201h68
c8 -95 78 -141 190 -141c110 0 218 55 218 176c0 67 -41 121 -154 121h-117z" />
    <glyph glyph-name="uni0418" unicode="&#x418;" horiz-adv-x="749" 
d="M219 714h66l-113 -644h20l470 644h117l-125 -714h-66l113 644h-20l-472 -644h-115z" />
    <glyph glyph-name="uni0419" unicode="&#x419;" horiz-adv-x="749" 
d="M219 714h66l-113 -644h20l470 644h117l-125 -714h-66l113 644h-20l-472 -644h-115zM633 904h59c-19 -101 -96 -156 -189 -156c-81 0 -149 43 -149 124c0 10 1 21 3 32h57c-1 -7 -2 -13 -2 -20c0 -51 38 -82 94 -82c64 0 116 38 127 102z" />
    <glyph glyph-name="uni041A" unicode="&#x41a;" horiz-adv-x="667" 
d="M94 0l125 714h66l-55 -315h229l201 315h71l-218 -347l102 -367h-70l-94 339h-232l-59 -339h-66z" />
    <glyph glyph-name="uni041B" unicode="&#x41b;" horiz-adv-x="703" 
d="M21 66h17c94 0 151 62 207 380l47 268h441l-125 -714h-66l115 654h-311l-37 -208c-61 -354 -139 -446 -282 -446h-17z" />
    <glyph glyph-name="uni041C" unicode="&#x41c;" horiz-adv-x="842" 
d="M94 0l125 714h111l142 -354h19l262 354h119l-125 -714h-66l113 644h-20l-268 -359h-69l-144 359h-20l-113 -644h-66z" />
    <glyph glyph-name="uni041D" unicode="&#x41d;" horiz-adv-x="746" 
d="M710 714h66l-125 -714h-66l59 338h-425l-59 -338h-66l125 714h66l-55 -314h425z" />
    <glyph glyph-name="uni041E" unicode="&#x41e;" horiz-adv-x="758" 
d="M478 727c169 0 288 -119 288 -298c0 -224 -127 -442 -362 -442c-169 0 -288 119 -288 298c0 224 127 442 362 442zM407 47c208 0 293 215 293 379c0 133 -76 241 -225 241c-207 0 -293 -215 -293 -379c0 -133 76 -241 225 -241z" />
    <glyph glyph-name="uni041F" unicode="&#x41f;" horiz-adv-x="739" 
d="M219 714h550l-125 -714h-66l115 654h-419l-114 -654h-66z" />
    <glyph glyph-name="uni0420" unicode="&#x420;" horiz-adv-x="661" 
d="M219 714h286c111 0 202 -66 202 -184c0 -161 -122 -232 -270 -232h-225l-52 -298h-66zM494 654h-219l-52 -296h226c109 0 192 52 192 171c0 85 -67 125 -147 125z" />
    <glyph glyph-name="uni0421" unicode="&#x421;" horiz-adv-x="695" 
d="M623 193h70c-42 -119 -144 -206 -290 -206c-167 0 -287 117 -287 298c0 228 129 442 360 442c133 0 230 -73 254 -192h-69c-19 81 -82 132 -187 132c-204 0 -292 -211 -292 -379c0 -136 77 -241 224 -241c112 0 184 62 217 146z" />
    <glyph glyph-name="uni0422" unicode="&#x422;" horiz-adv-x="578" 
d="M684 714l-10 -60h-237l-115 -654h-66l115 654h-237l10 60h540z" />
    <glyph glyph-name="uni0423" unicode="&#x423;" horiz-adv-x="617" 
d="M253 0h-72l140 216l-175 498h70l141 -398h28l260 398h74z" />
    <glyph glyph-name="uni0424" unicode="&#x424;" horiz-adv-x="837" 
d="M383 -13l16 91c-177 11 -290 105 -290 253c0 209 144 325 368 325h24l14 81h66l-14 -81c177 -11 290 -107 290 -254c0 -209 -144 -324 -368 -324h-24l-16 -91h-66zM476 138h23c168 0 292 93 292 258c0 120 -83 193 -234 200zM491 596h-23c-168 0 -292 -93 -292 -258
c0 -120 83 -193 234 -200z" />
    <glyph glyph-name="uni0425" unicode="&#x425;" horiz-adv-x="621" 
d="M524 0l-130 337h-38l-253 -337h-80l284 378l-127 336h69l112 -294h38l216 294h78l-246 -332l149 -382h-72z" />
    <glyph glyph-name="uni0426" unicode="&#x426;" horiz-adv-x="769" 
d="M643 -175l31 175h-580l125 714h66l-115 -654h414l115 654h66l-115 -654h100l-41 -235h-66z" />
    <glyph glyph-name="uni0427" unicode="&#x427;" horiz-adv-x="663" 
d="M185 714h66l-37 -209c-3 -12 -6 -38 -6 -57c0 -50 30 -92 169 -92c68 0 134 8 191 21l59 337h66l-125 -714h-66l55 316c-59 -12 -130 -20 -186 -20c-184 0 -229 66 -229 146c0 20 4 47 7 66z" />
    <glyph glyph-name="uni0428" unicode="&#x428;" horiz-adv-x="979" 
d="M884 0h-790l125 714h66l-115 -654h296l115 654h66l-115 -654h296l115 654h66z" />
    <glyph glyph-name="uni0429" unicode="&#x429;" horiz-adv-x="1013" 
d="M888 -175l31 175h-825l125 714h66l-115 -654h296l115 654h66l-115 -654h296l115 654h66l-115 -654h101l-41 -235h-66z" />
    <glyph glyph-name="uni042A" unicode="&#x42a;" horiz-adv-x="759" 
d="M324 429h209c115 0 209 -67 209 -189c0 -167 -126 -240 -279 -240h-280l114 654h-182l10 60h249zM523 369h-210l-54 -309h217c112 0 200 54 200 179c0 88 -69 130 -153 130z" />
    <glyph glyph-name="uni042B" unicode="&#x42b;" horiz-adv-x="866" 
d="M830 714h66l-125 -714h-66zM235 429h199c115 0 209 -67 209 -189c0 -167 -126 -240 -279 -240h-270l125 714h66zM424 369h-200l-54 -309h207c112 0 200 54 200 179c0 88 -69 130 -153 130z" />
    <glyph glyph-name="uni042C" unicode="&#x42c;" horiz-adv-x="670" 
d="M235 429h209c115 0 209 -67 209 -189c0 -167 -126 -240 -279 -240h-280l125 714h66zM434 369h-210l-54 -309h217c112 0 200 54 200 179c0 88 -69 130 -153 130z" />
    <glyph glyph-name="uni042D" unicode="&#x42d;" horiz-adv-x="703" 
d="M83 187h69c15 -85 95 -140 203 -140c164 0 258 144 282 292h-356l11 60h352c1 9 1 18 1 27c0 125 -71 241 -219 241c-111 0 -175 -43 -214 -126h-70c45 125 151 186 290 186c176 0 279 -135 279 -300c0 -229 -128 -440 -366 -440c-138 0 -240 82 -262 200z" />
    <glyph glyph-name="uni042E" unicode="&#x42e;" horiz-adv-x="1003" 
d="M1011 429c0 -224 -124 -442 -352 -442c-164 0 -280 119 -280 298c0 19 1 40 2 53h-162l-59 -338h-66l125 714h66l-55 -314h160c35 179 153 327 341 327c164 0 280 -119 280 -298zM662 47c200 0 283 215 283 379c0 133 -73 241 -217 241c-200 0 -283 -215 -283 -379
c0 -133 74 -241 217 -241z" />
    <glyph glyph-name="uni042F" unicode="&#x42f;" horiz-adv-x="701" 
d="M731 714l-125 -714h-66l54 311h-229c-20 0 -39 2 -57 6l-164 -317h-72l176 339c-51 28 -83 76 -83 148c0 156 118 227 262 227h304zM372 370h233l51 284h-241c-104 0 -184 -49 -184 -164c0 -84 64 -120 141 -120z" />
    <glyph glyph-name="uni0430" unicode="&#x430;" horiz-adv-x="547" 
d="M405 0l9 55h-20c-36 -39 -84 -68 -157 -68c-109 0 -165 69 -165 149c0 105 76 176 201 176h185l3 16c3 11 5 28 5 43c0 49 -35 86 -120 86c-84 0 -135 -34 -144 -86h-63c17 92 100 142 213 142c108 0 176 -55 176 -139c0 -15 -2 -40 -5 -51l-57 -323h-61zM250 43
c96 0 175 77 191 171l8 45h-163c-85 0 -150 -38 -150 -119c0 -60 41 -97 114 -97z" />
    <glyph glyph-name="uni0431" unicode="&#x431;" horiz-adv-x="596" 
d="M391 500c126 0 197 -91 197 -203c0 -153 -89 -310 -265 -310c-124 0 -208 76 -208 231c0 170 48 418 259 447l152 21c33 5 41 10 50 41h62c-9 -56 -36 -90 -112 -101l-152 -21c-101 -13 -150 -94 -171 -179h18c51 56 103 74 170 74zM330 42c127 0 195 129 195 246
c0 96 -60 157 -152 157c-127 0 -195 -129 -195 -246c0 -96 59 -157 152 -157z" />
    <glyph glyph-name="uni0432" unicode="&#x432;" horiz-adv-x="552" 
d="M462 273l-4 -20c40 -16 68 -44 68 -100c0 -95 -77 -153 -188 -153h-253l88 500h225c88 0 139 -41 139 -114c0 -60 -32 -97 -75 -113zM395 444h-168l-28 -159h173c59 0 102 28 102 92c0 47 -35 67 -79 67zM377 229h-188l-31 -173h193c61 0 112 31 112 100
c0 51 -39 73 -86 73z" />
    <glyph glyph-name="uni0433" unicode="&#x433;" horiz-adv-x="484" 
d="M531 500l-10 -56h-295l-78 -444h-63l88 500h358z" />
    <glyph glyph-name="uni0434" unicode="&#x434;" horiz-adv-x="627" 
d="M519 56h91l-35 -199h-63l26 143h-449l-26 -143h-63l34 199h62c47 68 99 174 123 310l24 134h355zM456 56l69 388h-232l-14 -78c-24 -136 -67 -242 -114 -310h291z" />
    <glyph glyph-name="uni0435" unicode="&#x435;" horiz-adv-x="550" 
d="M453 132h64c-27 -88 -103 -145 -210 -145c-116 0 -211 84 -211 217c0 173 94 309 262 309c132 0 193 -103 193 -219c0 -11 0 -21 -1 -33h-387c-3 -19 -4 -35 -4 -54c0 -98 61 -164 157 -164c75 0 114 34 137 89zM354 457c-92 0 -151 -59 -178 -140h311
c-5 79 -43 140 -133 140z" />
    <glyph glyph-name="uni0436" unicode="&#x436;" horiz-adv-x="752" 
d="M246 228l-137 -228h-69l155 257l-60 243h64l53 -216h141l38 216h63l-38 -216h136l130 216h68l-147 -243l66 -257h-65l-58 228h-140l-40 -228h-63l40 228h-137z" />
    <glyph glyph-name="uni0437" unicode="&#x437;" horiz-adv-x="513" 
d="M235 283h86c56 0 122 22 122 92c0 53 -48 82 -112 82c-75 0 -121 -29 -137 -88h-62c20 95 90 144 202 144c108 0 172 -55 172 -127c0 -56 -23 -100 -80 -117l-3 -20c39 -15 61 -46 61 -90c0 -112 -94 -172 -218 -172c-121 0 -193 61 -196 149h62c8 -68 69 -93 139 -93
c72 0 150 34 150 111c0 43 -27 73 -107 73h-88z" />
    <glyph glyph-name="uni0438" unicode="&#x438;" horiz-adv-x="595" 
d="M198 0h-113l88 500h63l-78 -438h20l303 438h118l-88 -500h-63l77 438h-20z" />
    <glyph glyph-name="uni0439" unicode="&#x439;" horiz-adv-x="595" 
d="M198 0h-113l88 500h63l-78 -438h20l303 438h118l-88 -500h-63l77 438h-20zM502 727h53c-16 -95 -84 -145 -165 -145c-72 0 -129 40 -129 116c0 9 1 19 3 29h51c-1 -7 -2 -16 -2 -21c0 -48 33 -75 81 -75c57 0 97 37 108 96z" />
    <glyph glyph-name="uni043A" unicode="&#x43a;" horiz-adv-x="532" 
d="M427 0l-73 230h-166l-40 -230h-63l88 500h63l-38 -214h163l144 214h69l-163 -241l82 -259h-66z" />
    <glyph glyph-name="uni043B" unicode="&#x43b;" 
d="M26 0l10 58h17c69 0 109 56 144 255l33 187h360l-88 -500h-63l78 444h-238l-23 -131c-43 -237 -101 -313 -213 -313h-17z" />
    <glyph glyph-name="uni043C" unicode="&#x43c;" horiz-adv-x="669" 
d="M85 0l88 500h108l88 -242h20l171 242h113l-88 -500h-63l77 438h-17l-170 -238h-83l-86 238h-18l-77 -438h-63z" />
    <glyph glyph-name="uni043D" unicode="&#x43d;" horiz-adv-x="594" 
d="M598 500l-88 -500h-63l40 230h-299l-40 -230h-63l88 500h63l-38 -214h299l38 214h63z" />
    <glyph glyph-name="uni043E" unicode="&#x43e;" horiz-adv-x="594" 
d="M364 513c123 0 222 -79 222 -218c0 -172 -98 -308 -268 -308c-123 0 -222 79 -222 218c0 171 97 308 268 308zM322 43c131 0 201 121 201 250c0 100 -67 164 -163 164c-132 0 -201 -122 -201 -250c0 -101 64 -164 163 -164z" />
    <glyph glyph-name="uni043F" unicode="&#x43f;" horiz-adv-x="590" 
d="M506 0h-63l78 444h-295l-78 -444h-63l88 500h421z" />
    <glyph glyph-name="uni0440" unicode="&#x440;" horiz-adv-x="601" 
d="M593 294c0 -141 -82 -307 -257 -307c-65 0 -125 24 -156 79h-20l-47 -266h-63l123 700h61l-10 -55h20c29 39 88 68 151 68c131 0 198 -101 198 -219zM392 457c-136 0 -200 -139 -200 -248c0 -103 49 -166 144 -166s194 86 194 250c0 92 -45 164 -138 164z" />
    <glyph glyph-name="uni0441" unicode="&#x441;" horiz-adv-x="529" 
d="M454 143h65c-27 -96 -105 -156 -216 -156c-114 0 -207 83 -207 214c0 164 93 312 256 312c106 0 178 -66 191 -152h-64c-12 56 -56 96 -129 96c-123 0 -191 -128 -191 -253c0 -101 60 -161 149 -161c73 0 127 39 146 100z" />
    <glyph glyph-name="uni0442" unicode="&#x442;" horiz-adv-x="471" 
d="M108 444l10 56h411l-10 -56h-174l-78 -444h-63l78 444h-174z" />
    <glyph glyph-name="uni0443" unicode="&#x443;" horiz-adv-x="513" 
d="M159 -200h-67l148 248l-128 452h63l99 -353h27l209 353h68z" />
    <glyph glyph-name="uni0444" unicode="&#x444;" horiz-adv-x="690" 
d="M396 0h-20l-35 -200h-63l35 200c-109 5 -217 71 -217 208c0 196 127 292 286 292h20l40 227h63l-40 -227c109 -5 217 -71 217 -208c0 -196 -127 -292 -286 -292zM159 209c0 -102 77 -150 164 -153l69 388h-20c-148 0 -213 -112 -213 -235zM619 291
c0 102 -77 150 -164 153l-69 -388h20c148 0 213 112 213 235z" />
    <glyph glyph-name="uni0445" unicode="&#x445;" horiz-adv-x="524" 
d="M417 0l-95 221h-34l-176 -221h-74l205 256l-100 244h63l86 -209h34l162 209h71l-187 -241l113 -259h-68z" />
    <glyph glyph-name="uni0446" unicode="&#x446;" horiz-adv-x="619" 
d="M590 500l-78 -444h90l-35 -199h-63l25 143h-444l88 500h63l-78 -444h291l78 444h63z" />
    <glyph glyph-name="uni0447" unicode="&#x447;" horiz-adv-x="537" 
d="M144 500h63l-25 -143c-3 -12 -5 -33 -5 -45c0 -35 21 -63 121 -63c51 0 95 6 138 15l42 236h63l-88 -500h-63l36 208c-43 -9 -95 -15 -138 -15c-140 0 -175 49 -175 110c0 19 3 39 6 56z" />
    <glyph glyph-name="uni0448" unicode="&#x448;" horiz-adv-x="781" 
d="M722 500h63l-88 -500h-612l88 500h63l-78 -444h212l78 444h63l-78 -444h211z" />
    <glyph glyph-name="uni0449" unicode="&#x449;" horiz-adv-x="814" 
d="M722 500h63l-78 -444h90l-35 -199h-63l25 143h-639l88 500h63l-78 -444h212l78 444h63l-78 -444h211z" />
    <glyph glyph-name="uni044A" unicode="&#x44a;" horiz-adv-x="616" 
d="M98 444l10 56h213l-31 -175h156c86 0 158 -51 158 -144c0 -125 -96 -181 -211 -181h-223l78 444h-150zM435 269h-155l-37 -213h160c78 0 138 37 138 123c0 61 -48 90 -106 90z" />
    <glyph glyph-name="uni044B" unicode="&#x44b;" horiz-adv-x="702" 
d="M85 0l88 500h63l-31 -175h144c86 0 158 -51 158 -144c0 -125 -96 -181 -211 -181h-211zM338 269h-143l-37 -213h148c78 0 138 37 138 123c0 61 -48 90 -106 90zM555 0l88 500h63l-88 -500h-63z" />
    <glyph glyph-name="uni044C" unicode="&#x44c;" horiz-adv-x="531" 
d="M350 269h-155l-37 -213h160c78 0 138 37 138 123c0 61 -48 90 -106 90zM85 0l88 500h63l-31 -175h156c86 0 158 -51 158 -144c0 -125 -96 -181 -211 -181h-223z" />
    <glyph glyph-name="uni044D" unicode="&#x44d;" horiz-adv-x="542" 
d="M175 366h-64c28 87 100 147 212 147c128 0 211 -93 211 -217c0 -173 -102 -309 -265 -309c-107 0 -191 64 -196 151h64c7 -55 56 -95 137 -95c88 0 170 55 191 183h-244l10 56h240v16c0 88 -56 159 -149 159c-80 0 -127 -39 -147 -91z" />
    <glyph glyph-name="uni044E" unicode="&#x44e;" horiz-adv-x="784" 
d="M571 513c112 0 205 -83 205 -214c0 -164 -93 -312 -254 -312c-115 0 -206 83 -206 214c0 9 0 18 1 29h-129l-40 -230h-63l88 500h63l-38 -214h126c26 127 114 227 247 227zM525 43c123 0 188 131 188 253c0 99 -58 161 -147 161c-123 0 -187 -131 -187 -253
c0 -97 57 -161 146 -161z" />
    <glyph glyph-name="uni044F" unicode="&#x44f;" horiz-adv-x="562" 
d="M566 500l-88 -500h-63l37 211h-178c-9 0 -17 0 -25 1l-118 -212h-67l128 231c-36 21 -59 57 -59 108c0 111 85 161 188 161h245zM284 267h178l31 177h-182c-64 0 -115 -31 -115 -102c0 -51 41 -75 88 -75z" />
    <glyph glyph-name="uni0451" unicode="&#x451;" horiz-adv-x="550" 
d="M453 132h64c-27 -88 -103 -145 -210 -145c-116 0 -211 84 -211 217c0 173 94 309 262 309c132 0 193 -103 193 -219c0 -11 0 -21 -1 -33h-387c-3 -19 -4 -35 -4 -54c0 -98 61 -164 157 -164c75 0 114 34 137 89zM354 457c-92 0 -151 -59 -178 -140h311
c-5 79 -43 140 -133 140zM331 648h-69l14 79h69zM507 648h-69l14 79h69z" />
    <glyph glyph-name="uni0452" unicode="&#x452;" horiz-adv-x="607" 
d="M123 586l9 50h85l16 91h63l-16 -91h213l-9 -50h-213l-30 -171h17c28 35 79 68 159 68c105 0 164 -60 164 -156c0 -15 -3 -41 -6 -61l-53 -298c-19 -99 -77 -168 -177 -168h-62l10 56h47c73 0 106 41 119 113l53 296c3 17 6 37 6 56c0 69 -35 106 -116 106
c-101 0 -173 -83 -192 -187l-43 -240h-63l104 586h-85z" />
    <glyph glyph-name="uni0453" unicode="&#x453;" horiz-adv-x="484" 
d="M531 500l-10 -56h-295l-78 -444h-63l88 500h358zM519 727l-131 -145h-60l109 145h82z" />
    <glyph glyph-name="uni0454" unicode="&#x454;" horiz-adv-x="528" 
d="M452 138h65c-31 -95 -106 -151 -214 -151c-114 0 -207 83 -207 214c0 164 93 312 256 312c105 0 177 -63 190 -147h-64c-13 57 -58 91 -129 91c-96 0 -159 -81 -181 -175h235l-10 -56h-234v-22c0 -97 58 -161 147 -161c71 0 123 35 146 95z" />
    <glyph glyph-name="uni0455" unicode="&#x455;" horiz-adv-x="502" 
d="M304 457c-63 0 -124 -25 -124 -88c0 -43 33 -54 82 -69l94 -26c83 -23 125 -67 125 -131c0 -91 -83 -156 -203 -156c-104 0 -205 40 -213 152h62c4 -57 64 -96 155 -96c71 0 136 32 136 97c0 36 -28 62 -84 78l-93 26c-76 21 -124 55 -124 124c0 98 87 145 191 145
c99 0 184 -48 192 -139h-62c-7 49 -54 83 -134 83z" />
    <glyph glyph-name="uni0456" unicode="&#x456;" horiz-adv-x="236" 
d="M236 500l-88 -500h-63l88 500h63zM265 648h-69l14 79h69z" />
    <glyph glyph-name="uni0457" unicode="&#x457;" horiz-adv-x="232" 
d="M236 500l-88 -500h-63l88 500h63zM178 648h-69l14 79h69zM354 648h-69l14 79h69z" />
    <glyph glyph-name="uni0458" unicode="&#x458;" horiz-adv-x="245" 
d="M-24 -200h-62l10 56h46c72 0 105 34 118 106l95 538h63l-97 -546c-19 -100 -74 -154 -173 -154zM274 648h-69l14 79h69z" />
    <glyph glyph-name="uni0459" unicode="&#x459;" horiz-adv-x="865" 
d="M429 0l78 444h-228l-23 -131c-43 -237 -101 -313 -213 -313h-17l10 58h17c69 0 109 56 144 255l33 187h350l-31 -175h146c86 0 158 -51 158 -144c0 -125 -96 -181 -211 -181h-213zM684 269h-145l-37 -213h150c78 0 138 37 138 123c0 61 -48 90 -106 90z" />
    <glyph glyph-name="uni045A" unicode="&#x45a;" horiz-adv-x="854" 
d="M417 0l40 230h-269l-40 -230h-63l88 500h63l-38 -214h269l38 214h63l-31 -175h147c86 0 158 -51 158 -144c0 -125 -96 -181 -211 -181h-214zM673 269h-146l-37 -213h151c78 0 138 37 138 123c0 61 -48 90 -106 90z" />
    <glyph glyph-name="uni045B" unicode="&#x45b;" horiz-adv-x="607" 
d="M123 586l9 50h85l16 91h63l-16 -91h213l-9 -50h-213l-30 -171h17c28 35 79 68 159 68c105 0 164 -60 164 -156c0 -15 -3 -41 -6 -61l-47 -266h-63l47 265c3 17 6 37 6 56c0 69 -35 106 -116 106c-101 0 -173 -83 -192 -187l-43 -240h-63l104 586h-85z" />
    <glyph glyph-name="uni045C" unicode="&#x45c;" horiz-adv-x="532" 
d="M427 0l-73 230h-166l-40 -230h-63l88 500h63l-38 -214h163l144 214h69l-163 -241l82 -259h-66zM511 727l-131 -145h-60l109 145h82z" />
    <glyph glyph-name="uni045E" unicode="&#x45e;" horiz-adv-x="513" 
d="M159 -200h-67l148 248l-128 452h63l99 -353h27l209 353h68zM460 727h53c-16 -95 -84 -145 -165 -145c-72 0 -129 40 -129 116c0 9 1 19 3 29h51c-1 -7 -2 -16 -2 -21c0 -48 33 -75 81 -75c57 0 97 37 108 96z" />
    <glyph glyph-name="uni045F" unicode="&#x45f;" 
d="M590 500l-88 -500h-179l-25 -143h-63l25 143h-175l88 500h63l-78 -444h291l78 444h63z" />
    <glyph glyph-name="uni0490" unicode="&#x490;" horiz-adv-x="610" 
d="M275 654l-115 -654h-65l125 714h402l27 150h67l-37 -210h-404z" />
    <glyph glyph-name="uni0491" unicode="&#x491;" horiz-adv-x="484" 
d="M479 615h62l-30 -171h-286l-78 -444h-62l88 500h286z" />
    <glyph glyph-name="uni0492" unicode="&#x492;" horiz-adv-x="641" 
d="M87 327l10 56h97l58 331h468l-10 -60h-402l-48 -271h256l-10 -56h-256l-57 -327h-66l57 327h-97z" />
    <glyph glyph-name="uni0493" unicode="&#x493;" horiz-adv-x="512" 
d="M61 205l10 56h89l42 239h357l-10 -56h-295l-32 -183h196l-10 -56h-196l-36 -205h-62l36 205h-89z" />
    <glyph glyph-name="uni049A" unicode="&#x49a;" horiz-adv-x="699" 
d="M94 0l125 714h66l-55 -315h229l201 315h71l-218 -347l85 -307h86l-41 -235h-65l31 175h-64l-94 339h-232l-59 -339h-66z" />
    <glyph glyph-name="uni049B" unicode="&#x49b;" horiz-adv-x="573" 
d="M427 0l-73 230h-166l-40 -230h-63l88 500h63l-38 -214h163l144 214h69l-163 -241l64 -203h78l-35 -199h-62l26 143h-55z" />
    <glyph glyph-name="uni04A2" unicode="&#x4a2;" horiz-adv-x="780" 
d="M710 714h66l-115 -654h101l-41 -235h-65l31 175h-102l59 338h-425l-59 -338h-66l125 714h66l-55 -314h425z" />
    <glyph glyph-name="uni04A3" unicode="&#x4a3;" horiz-adv-x="627" 
d="M598 500l-79 -444h91l-35 -199h-62l26 143h-92l40 230h-300l-40 -230h-62l88 500h62l-38 -214h300l38 214h63z" />
    <glyph glyph-name="uni04AE" unicode="&#x4ae;" horiz-adv-x="620" 
d="M357 373h28l263 341h74l-331 -434l-49 -280h-66l49 280l-180 434h69z" />
    <glyph glyph-name="uni04AF" unicode="&#x4af;" horiz-adv-x="517" 
d="M190 -34l-78 534h61l69 -478h37l232 478h71l-269 -534h-29l-29 -166h-63l29 166h-31z" />
    <glyph glyph-name="uni04B0" unicode="&#x4b0;" horiz-adv-x="620" 
d="M357 373h28l263 341h74l-304 -398h161l-10 -56h-182l-45 -260h-66l45 260h-183l10 56h162l-165 398h69z" />
    <glyph glyph-name="uni04B1" unicode="&#x4b1;" horiz-adv-x="517" 
d="M75 -56l10 56h100l-73 500h61l69 -478h37l232 478h71l-252 -500h103l-10 -56h-143l-25 -144h-63l25 144h-142z" />
    <glyph glyph-name="uni04BA" unicode="&#x4ba;" horiz-adv-x="663" 
d="M602 0h-66l37 209c3 12 6 38 6 57c0 50 -30 92 -169 92c-68 0 -134 -8 -191 -21l-59 -337h-66l125 714h66l-55 -316c59 12 130 20 186 20c184 0 229 -66 229 -146c0 -20 -4 -47 -7 -66z" />
    <glyph glyph-name="uni04BB" unicode="&#x4bb;" 
d="M509 0h-63l52 295c3 17 6 37 6 56c0 69 -35 106 -116 106c-101 0 -173 -83 -192 -187l-48 -270h-63l129 727h63l-50 -282h17c28 35 79 68 159 68c105 0 164 -60 164 -156c0 -15 -3 -41 -6 -61z" />
    <glyph glyph-name="uni04D8" unicode="&#x4d8;" horiz-adv-x="740" 
d="M251 541h-71c40 110 145 186 287 186c167 0 281 -119 281 -298c0 -224 -121 -442 -353 -442c-167 0 -279 119 -279 298c0 25 2 62 11 114h554c1 9 1 18 1 27c0 133 -71 241 -218 241c-111 0 -184 -57 -213 -126zM398 47c170 0 253 148 277 292h-491c-2 -17 -3 -34 -3 -51
c0 -133 69 -241 217 -241z" />
    <glyph glyph-name="uni04D9" unicode="&#x4d9;" horiz-adv-x="550" 
d="M185 368h-64c29 87 104 145 212 145c111 0 209 -81 209 -217c0 -173 -94 -309 -262 -309c-132 0 -193 104 -193 224c0 20 0 44 3 61h388c1 7 1 14 1 21c0 100 -66 164 -151 164c-83 0 -119 -35 -143 -89zM284 43c105 0 167 73 188 174h-322v-6c0 -97 35 -168 134 -168z
" />
    <glyph glyph-name="uni04E8" unicode="&#x4e8;" horiz-adv-x="758" 
d="M478 727c169 0 288 -119 288 -298c0 -224 -127 -442 -362 -442c-169 0 -288 119 -288 298c0 224 127 442 362 442zM407 47c172 0 261 148 285 292h-508c-3 -19 -2 -35 -2 -51c0 -133 76 -241 225 -241zM475 667c-162 0 -249 -133 -281 -268h505c1 9 1 18 1 27
c0 133 -76 241 -225 241z" />
    <glyph glyph-name="uni04E9" unicode="&#x4e9;" horiz-adv-x="594" 
d="M364 513c123 0 222 -79 222 -218c0 -172 -98 -308 -268 -308c-123 0 -222 79 -222 218c0 171 97 308 268 308zM322 43c109 0 173 82 194 183h-357v-19c0 -101 64 -164 163 -164zM360 457c-106 0 -171 -78 -193 -175h356v11c0 100 -67 164 -163 164z" />
    <glyph glyph-name="endash" unicode="&#x2013;" horiz-adv-x="615" 
d="M608 247h-515l10 57h515z" />
    <glyph glyph-name="emdash" unicode="&#x2014;" horiz-adv-x="875" 
d="M868 247h-775l10 57h775z" />
    <glyph glyph-name="quoteleft" unicode="&#x2018;" horiz-adv-x="244" 
d="M223 610h43l-18 -102h-84l21 119l64 87h41l-64 -87z" />
    <glyph glyph-name="quoteright" unicode="&#x2019;" horiz-adv-x="244" 
d="M224 612h-43l18 102h84l-21 -119l-64 -87h-41l64 87z" />
    <glyph glyph-name="quotesinglbase" unicode="&#x201a;" horiz-adv-x="244" 
d="M123 0h-43l18 102h84l-21 -119l-64 -87h-41l64 87z" />
    <glyph glyph-name="quotedblleft" unicode="&#x201c;" horiz-adv-x="400" 
d="M223 610h43l-18 -102h-84l21 119l64 87h41l-64 -87zM379 610h43l-18 -102h-84l21 119l64 87h41l-64 -87z" />
    <glyph glyph-name="quotedblright" unicode="&#x201d;" horiz-adv-x="400" 
d="M224 612h-43l18 102h84l-21 -119l-64 -87h-41l64 87zM380 612h-43l18 102h84l-21 -119l-64 -87h-41l64 87z" />
    <glyph glyph-name="quotedblbase" unicode="&#x201e;" horiz-adv-x="400" 
d="M123 0h-43l18 102h84l-21 -119l-64 -87h-41l64 87zM279 0h-43l18 102h84l-21 -119l-64 -87h-41l64 87z" />
    <glyph glyph-name="dagger" unicode="&#x2020;" horiz-adv-x="550" 
d="M322 447h-193l10 53h193l37 214h63l-37 -214h194l-10 -53h-194l-105 -599h-63z" />
    <glyph glyph-name="daggerdbl" unicode="&#x2021;" horiz-adv-x="550" 
d="M322 447h-193l10 53h193l37 214h63l-37 -214h194l-10 -53h-194l-58 -332h193l-10 -53h-193l-37 -214h-63l37 214h-194l10 53h194z" />
    <glyph glyph-name="bullet" unicode="&#x2022;" horiz-adv-x="434" 
d="M132 356c0 81 66 147 147 147s147 -66 147 -147s-66 -147 -147 -147s-147 66 -147 147z" />
    <glyph glyph-name="ellipsis" unicode="&#x2026;" horiz-adv-x="712" 
d="M164 0h-84l17 102h84zM164 0h-84l17 102h84zM398 0h-84l17 102h84zM632 0h-84l17 102h84z" />
    <glyph glyph-name="perthousand" unicode="&#x2030;" horiz-adv-x="1268" 
d="M268 0h-68l548 700h67zM462 563c0 -120 -66 -227 -184 -227c-82 0 -137 65 -137 150c0 119 66 228 184 228c82 0 137 -66 137 -151zM283 387c77 0 121 88 121 172c0 65 -28 104 -85 104c-76 0 -120 -89 -120 -173c0 -65 28 -103 84 -103zM1246 214
c0 -120 -66 -227 -184 -227c-82 0 -137 65 -137 150c0 119 66 228 184 228c82 0 137 -66 137 -151zM1067 38c77 0 121 88 121 172c0 65 -28 104 -85 104c-76 0 -120 -89 -120 -173c0 -65 28 -103 84 -103zM874 214c0 -120 -66 -227 -184 -227c-82 0 -137 65 -137 150
c0 119 66 228 184 228c82 0 137 -66 137 -151zM695 38c77 0 121 88 121 172c0 65 -28 104 -85 104c-76 0 -120 -89 -120 -173c0 -65 28 -103 84 -103z" />
    <glyph glyph-name="guilsinglleft" unicode="&#x2039;" horiz-adv-x="335" 
d="M169 289l-4 -20l128 -165h-68l-120 149l10 59l169 148h74z" />
    <glyph glyph-name="guilsinglright" unicode="&#x203a;" horiz-adv-x="335" 
d="M264 275l4 20l-128 165h68l120 -149l-10 -59l-169 -148h-74z" />
    <glyph glyph-name="fraction" unicode="&#x2044;" horiz-adv-x="271" 
d="M-35 0h-62l547 700h61z" />
    <glyph glyph-name="Euro" unicode="&#x20ac;" horiz-adv-x="677" 
d="M110 397l27 52h61c48 160 152 265 293 265c115 0 195 -66 210 -195h-66c-8 91 -71 137 -147 137c-115 0 -189 -93 -223 -207h266l-27 -52h-252c-7 -27 -10 -51 -13 -78h224l-26 -52h-202v-24c0 -125 64 -198 164 -198s162 59 189 146h65c-39 -131 -132 -204 -257 -204
s-226 90 -226 256v24h-83l27 52h59c3 27 7 53 12 78h-75z" />
    <glyph glyph-name="uni20B4" unicode="&#x20b4;" horiz-adv-x="634" 
d="M554 177h67c-28 -117 -116 -190 -261 -190c-147 0 -232 79 -232 187c0 32 9 63 22 90h-67l9 52h553l-9 -52h-418c-15 -23 -25 -52 -25 -87c0 -84 65 -132 169 -132c100 0 169 44 192 132zM659 394h-553l9 52h421c19 23 32 51 32 91c0 76 -69 119 -146 119
c-99 0 -149 -45 -168 -113h-65c19 96 97 171 235 171c124 0 209 -73 209 -177c0 -33 -9 -64 -27 -91h62z" />
    <glyph glyph-name="uni20B8" unicode="&#x20b8;" horiz-adv-x="515" 
d="M112 518l9 52h477l-9 -52h-206l-91 -518h-65l91 518h-206zM135 648l9 52h477l-9 -52h-477z" />
    <glyph glyph-name="uni20BD" unicode="&#x20bd;" horiz-adv-x="664" 
d="M104 304l9 52h98l60 344h247c107 0 192 -63 192 -175c0 -153 -117 -221 -257 -221h-186l-14 -78h264l-9 -52h-264l-31 -174h-64l30 174h-98l9 52h98l14 78h-98zM277 356h185c103 0 183 56 183 168c0 81 -63 118 -139 118h-179z" />
    <glyph glyph-name="uni2116" unicode="&#x2116;" horiz-adv-x="1131" 
d="M702 700h65l-123 -700h-117l-238 631h-19l-111 -631h-65l123 700h116l239 -631h19zM1099 217h-314l9 51h314zM1155 563c0 -120 -66 -227 -184 -227c-82 0 -137 65 -137 150c0 119 66 228 184 228c82 0 137 -66 137 -151zM976 387c77 0 121 88 121 172
c0 65 -28 104 -85 104c-76 0 -120 -89 -120 -173c0 -65 28 -103 84 -103z" />
    <glyph glyph-name="trademark" unicode="&#x2122;" horiz-adv-x="842" 
d="M462 333l67 381h88l63 -181h12l125 181h90l-67 -381h-52l58 328h-10l-128 -184h-60l-66 184h-10l-58 -328h-52zM465 714l-8 -46h-131l-59 -335h-52l59 335h-132l8 46h315z" />
    <glyph glyph-name="Omega" unicode="&#x2126;" horiz-adv-x="752" 
d="M613 80v-20h139v-60h-267v59c83 48 203 144 203 319s-101 289 -253 289s-253 -114 -253 -289s120 -271 203 -319v-59h-267v60h139v20c-58 50 -141 145 -141 298c0 204 124 349 319 349s319 -145 319 -349c0 -153 -83 -248 -141 -298z" />
    <glyph glyph-name="arrowleft" unicode="&#x2190;" horiz-adv-x="822" 
d="M338 500h78l-201 -201v-21h587v-56h-587v-21l201 -201h-78l-250 250z" />
    <glyph glyph-name="arrowup" unicode="&#x2191;" horiz-adv-x="680" 
d="M649 464v-78l-201 201h-21v-587h-56v587h-21l-201 -201v78l250 250z" />
    <glyph glyph-name="arrowright" unicode="&#x2192;" horiz-adv-x="822" 
d="M476 500h78l250 -250l-250 -250h-78l201 201v21h-587v56h587v21z" />
    <glyph glyph-name="arrowdown" unicode="&#x2193;" horiz-adv-x="680" 
d="M649 328v-78l-250 -250l-250 250v78l201 -201h21v587h56v-587h21z" />
    <glyph glyph-name="uni2196" unicode="&#x2196;" horiz-adv-x="704" 
d="M224 306l-55 55v353h353l55 -55h-284l-15 -15l415 -415l-39 -39l-415 415l-15 -15v-284z" />
    <glyph glyph-name="uni2197" unicode="&#x2197;" horiz-adv-x="704" 
d="M663 361l-55 -55v284l-15 15l-415 -415l-39 39l415 415l-15 15h-284l55 55h353v-353z" />
    <glyph glyph-name="uni2198" unicode="&#x2198;" horiz-adv-x="704" 
d="M160 339l55 55v-284l15 -15l415 415l39 -39l-415 -415l15 -15h284l-55 -55h-353v353z" />
    <glyph glyph-name="uni2199" unicode="&#x2199;" horiz-adv-x="704" 
d="M598 394l55 -55v-353h-353l-55 55h284l15 15l-415 415l39 39l415 -415l15 15v284z" />
    <glyph glyph-name="partialdiff" unicode="&#x2202;" horiz-adv-x="582" 
d="M334 43c124 0 176 88 176 186s-52 187 -176 187s-177 -89 -177 -187s53 -186 177 -186zM215 727h79c104 -77 278 -226 278 -472c0 -149 -76 -268 -240 -268c-148 0 -236 112 -236 243s89 242 234 242c53 0 101 -18 130 -47h23c-56 134 -174 232 -268 302z" />
    <glyph glyph-name="increment" unicode="&#x2206;" horiz-adv-x="634" 
d="M387 700l232 -620v-80h-554v80l232 620h90zM555 60v20l-203 550h-20l-203 -550v-20h426z" />
    <glyph glyph-name="product" unicode="&#x220f;" 
d="M539 -200h-68v854h-196v-854h-68v854h-97v60h526v-60h-97v-854z" />
    <glyph glyph-name="summation" unicode="&#x2211;" horiz-adv-x="546" 
d="M168 60h398v-60h-476v81l210 266v20l-201 267v80h451v-60h-373v-20l201 -267v-20l-210 -267v-20z" />
    <glyph glyph-name="minus" unicode="&#x2212;" horiz-adv-x="684" 
d="M139 309h504v-54h-504v54z" />
    <glyph glyph-name="radical" unicode="&#x221a;" horiz-adv-x="634" 
d="M133 500h62l132 -430h20l209 630h144v-54h-101l-216 -646h-94z" />
    <glyph glyph-name="infinity" unicode="&#x221e;" horiz-adv-x="937" 
d="M505 324h25c49 51 111 120 202 120c96 0 164 -63 164 -162s-68 -162 -164 -162c-90 0 -155 67 -202 120h-25c-47 -53 -112 -120 -202 -120c-96 0 -164 63 -164 162s68 162 164 162c91 0 153 -69 202 -120zM474 282c-43 51 -96 111 -168 111c-61 0 -112 -39 -112 -111
s51 -111 112 -111c71 0 126 59 168 111zM561 282c42 -52 97 -111 168 -111c61 0 112 39 112 111s-51 111 -112 111c-72 0 -125 -60 -168 -111z" />
    <glyph glyph-name="integral" unicode="&#x222b;" horiz-adv-x="454" 
d="M475 727h35v-56h-41c-75 0 -107 -47 -119 -115l-105 -595c-20 -113 -81 -161 -186 -161h-35v56h40c75 0 107 47 119 115l105 595c20 113 80 161 187 161z" />
    <glyph glyph-name="approxequal" unicode="&#x2248;" horiz-adv-x="669" 
d="M574 450h54c0 -97 -48 -136 -123 -136c-102 0 -167 117 -248 117c-41 0 -64 -25 -64 -85h-54c0 97 48 136 123 136c103 0 168 -117 248 -117c43 0 64 25 64 85zM574 244h54c0 -97 -48 -136 -123 -136c-102 0 -167 117 -248 117c-41 0 -64 -25 -64 -85h-54
c0 97 48 136 123 136c103 0 168 -117 248 -117c43 0 64 25 64 85z" />
    <glyph glyph-name="notequal" unicode="&#x2260;" horiz-adv-x="683" 
d="M632 407v-54h-175l-92 -142h267v-54h-302l-81 -127h-61l82 127h-141v54h176l93 142h-269v54h304l83 127h57l-82 -127h141z" />
    <glyph glyph-name="lessequal" unicode="&#x2264;" horiz-adv-x="684" 
d="M623 120l-504 175v64l504 175v-60l-417 -137v-20l417 -137v-60zM119 0v54h504v-54h-504z" />
    <glyph glyph-name="greaterequal" unicode="&#x2265;" horiz-adv-x="684" 
d="M643 295l-504 -175v60l417 137v20l-417 137v60l504 -175v-64zM643 54v-54h-504v54h504z" />
    <glyph glyph-name="lozenge" unicode="&#x25ca;" horiz-adv-x="518" 
d="M353 714l162 -357l-162 -357h-74l-162 357l162 357h74zM326 70l124 287l-124 287h-20l-124 -287l124 -287h20z" />
    <glyph glyph-name="commaaccent" unicode="&#xf6c3;" horiz-adv-x="149" 
d="M40 -215h-43l58 60l3 17h-41l14 79h84l-17 -96z" />
    <glyph glyph-name="uniFEFF" unicode="&#xfeff;" horiz-adv-x="0" 
 />
    <glyph glyph-name="seven.numr" horiz-adv-x="306" 
d="M147 714h260l-9 -50l-232 -331h-60l218 311l4 21h-190z" />
    <glyph glyph-name="eight.numr" horiz-adv-x="373" 
d="M424 619c0 -35 -26 -67 -58 -86l-2 -12c23 -17 42 -44 42 -75c0 -76 -68 -120 -149 -120c-75 0 -138 39 -138 108c0 47 26 80 67 99l2 12c-15 15 -29 36 -29 67c0 65 58 109 138 109c67 0 127 -35 127 -102zM258 375c56 0 93 26 93 71c0 40 -39 62 -87 62
c-51 0 -90 -29 -90 -72c0 -40 37 -61 84 -61zM286 557c47 0 83 21 83 61c0 35 -37 54 -73 54c-47 0 -83 -23 -83 -62c0 -36 36 -53 73 -53z" />
    <glyph glyph-name="nine.numr" horiz-adv-x="365" 
d="M255 461c-73 0 -120 48 -120 113c0 79 52 147 146 147c72 0 132 -44 132 -141c0 -88 -39 -254 -173 -254c-64 0 -109 35 -120 99h55c5 -35 31 -50 66 -50c56 0 97 58 105 115h-15c-13 -15 -44 -29 -76 -29zM276 672c-60 0 -86 -46 -86 -94c0 -39 27 -68 76 -68
c60 0 89 40 89 91c0 40 -26 71 -79 71z" />
    <glyph glyph-name="zero.dnom" horiz-adv-x="378" 
d="M245 388c76 0 125 -47 125 -143c0 -148 -68 -252 -175 -252c-76 0 -126 47 -126 142c0 148 69 253 176 253zM197 42c88 0 118 115 118 203c0 61 -30 94 -71 94c-88 0 -120 -116 -120 -204c0 -60 30 -93 73 -93z" />
    <glyph glyph-name="one.dnom" horiz-adv-x="329" 
d="M204 49h97l-8 -49h-249l8 49h97l47 264h-16l-89 -47l10 57l108 58h54z" />
    <glyph glyph-name="two.dnom" horiz-adv-x="352" 
d="M322 49l-10 -49h-272l12 62l169 118c28 19 70 49 70 99c0 35 -27 60 -68 60c-44 0 -76 -22 -87 -77h-55c16 88 74 126 146 126c67 0 119 -41 119 -104c0 -73 -56 -115 -99 -144l-112 -78l-3 -13h190z" />
    <glyph glyph-name="six.numr" horiz-adv-x="365" 
d="M286 586c73 0 120 -48 120 -113c0 -79 -52 -147 -146 -147c-72 0 -132 44 -132 141c0 88 39 254 173 254c64 0 109 -35 120 -99h-55c-5 35 -31 50 -66 50c-56 0 -97 -58 -105 -115h15c13 15 44 29 76 29zM265 375c60 0 86 46 86 94c0 39 -27 68 -76 68
c-60 0 -89 -40 -89 -91c0 -40 26 -71 79 -71z" />
    <glyph glyph-name="four.dnom" horiz-adv-x="387" 
d="M316 139h55l-9 -49h-55l-15 -90h-55l15 90h-196l9 53l217 238h77zM136 139h125l29 168h-15l-136 -153z" />
    <glyph glyph-name="five.dnom" horiz-adv-x="359" 
d="M352 332h-185l-24 -89h20c14 12 34 18 61 18c67 0 115 -46 115 -114c0 -102 -70 -154 -147 -154c-89 0 -136 63 -136 123h53c4 -47 35 -74 84 -74c45 0 91 31 91 98c0 43 -28 72 -75 72c-33 0 -59 -12 -78 -37h-56l52 205h233z" />
    <glyph glyph-name="six.dnom" horiz-adv-x="365" 
d="M227 253c73 0 120 -48 120 -113c0 -79 -52 -147 -146 -147c-72 0 -132 44 -132 141c0 88 39 254 173 254c64 0 109 -35 120 -99h-55c-5 35 -31 50 -66 50c-56 0 -97 -58 -105 -115h15c13 15 44 29 76 29zM206 42c60 0 86 46 86 94c0 39 -27 68 -76 68
c-60 0 -89 -40 -89 -91c0 -40 26 -71 79 -71z" />
    <glyph glyph-name="seven.dnom" horiz-adv-x="306" 
d="M88 381h260l-9 -50l-232 -331h-60l218 311l4 21h-190z" />
    <glyph glyph-name="eight.dnom" horiz-adv-x="373" 
d="M365 286c0 -35 -26 -67 -58 -86l-2 -12c23 -17 42 -44 42 -75c0 -76 -68 -120 -149 -120c-75 0 -138 39 -138 108c0 47 26 80 67 99l2 12c-15 15 -29 36 -29 67c0 65 58 109 138 109c67 0 127 -35 127 -102zM199 42c56 0 93 26 93 71c0 40 -39 62 -87 62
c-51 0 -90 -29 -90 -72c0 -40 37 -61 84 -61zM227 224c47 0 83 21 83 61c0 35 -37 54 -73 54c-47 0 -83 -23 -83 -62c0 -36 36 -53 73 -53z" />
    <glyph glyph-name="nine.dnom" horiz-adv-x="365" 
d="M200 128c-73 0 -120 48 -120 113c0 79 52 147 146 147c72 0 132 -44 132 -141c0 -88 -39 -254 -173 -254c-64 0 -109 35 -120 99h55c5 -35 31 -50 66 -50c56 0 97 58 105 115h-15c-13 -15 -44 -29 -76 -29zM221 339c-60 0 -86 -46 -86 -94c0 -39 27 -68 76 -68
c60 0 89 40 89 91c0 40 -26 71 -79 71z" />
    <glyph glyph-name="zero.onum" horiz-adv-x="608" 
d="M370 513c126 0 230 -82 230 -223c0 -173 -101 -303 -274 -303c-126 0 -230 82 -230 223c0 176 101 303 274 303zM330 43c133 0 207 115 207 246c0 104 -71 168 -171 168c-133 0 -207 -114 -207 -246c0 -103 71 -168 171 -168z" />
    <glyph glyph-name="one.onum" horiz-adv-x="437" 
d="M60 0l10 56h142l67 377h-19l-138 -82l12 68l138 81h82l-79 -444h132l-10 -56h-337z" />
    <glyph glyph-name="two.onum" horiz-adv-x="543" 
d="M500 56l-10 -56h-435l13 75l234 109c77 35 162 80 162 168c0 61 -47 105 -131 105c-99 0 -153 -55 -166 -146h-63c13 111 93 202 232 202c128 0 191 -79 191 -159c0 -114 -101 -170 -201 -216l-136 -63l-3 -19h313z" />
    <glyph glyph-name="three.onum" horiz-adv-x="555" 
d="M540 424l-220 -167l-3 -20c135 -5 188 -101 188 -193c0 -142 -97 -250 -254 -250c-125 0 -222 79 -222 202h63c7 -91 69 -146 166 -146c112 0 184 87 184 192c0 92 -58 143 -146 143c-24 0 -47 -2 -63 -6l14 85l209 160l4 20h-311l8 56h395z" />
    <glyph glyph-name="four.onum" horiz-adv-x="603" 
d="M465 56h100l-10 -56h-100l-35 -200h-63l35 200h-352l13 76l386 424h104zM124 56h278l66 375h-20l-321 -355z" />
    <glyph glyph-name="five.onum" horiz-adv-x="583" 
d="M563 444h-334l-54 -222h21c27 29 69 52 132 52c128 0 209 -84 209 -204c0 -182 -122 -276 -251 -276c-149 0 -224 102 -227 202h62c7 -92 69 -146 168 -146c91 0 185 71 185 217c0 91 -54 150 -153 150c-64 0 -118 -26 -155 -73h-68l88 356h386z" />
    <glyph glyph-name="six.onum" horiz-adv-x="581" 
d="M368 452c128 0 211 -88 211 -200c0 -143 -90 -265 -250 -265c-115 0 -218 80 -218 253c0 169 67 474 295 474c107 0 183 -60 198 -159h-63c-12 65 -64 103 -137 103c-120 0 -193 -134 -214 -267h20c33 33 89 61 158 61zM338 43c123 0 178 102 178 201
c0 87 -57 152 -157 152c-118 0 -181 -90 -181 -194c0 -87 52 -159 160 -159z" />
    <glyph glyph-name="seven.onum" horiz-adv-x="538" 
d="M552 426l-398 -626h-69l397 626l4 20h-357l9 54h427z" />
    <glyph glyph-name="eight.onum" horiz-adv-x="600" 
d="M492 369l-4 -19c51 -33 85 -87 85 -151c0 -130 -114 -212 -250 -212c-125 0 -232 72 -232 191c0 92 52 156 137 191l4 19c-39 25 -68 68 -68 132c0 116 98 194 231 194c112 0 211 -64 211 -178c0 -75 -43 -138 -114 -167zM227 518c0 -81 73 -124 150 -124
c94 0 166 52 166 140c0 77 -73 124 -150 124c-94 0 -166 -56 -166 -140zM154 182c0 -86 80 -139 172 -139c106 0 184 62 184 156c0 92 -81 141 -174 141c-105 0 -182 -62 -182 -158z" />
    <glyph glyph-name="nine.onum" horiz-adv-x="581" 
d="M306 48c-128 0 -211 88 -211 200c0 143 90 265 250 265c115 0 218 -80 218 -253c0 -169 -67 -466 -295 -466c-107 0 -183 60 -198 159h63c12 -65 64 -103 137 -103c120 0 193 125 214 259h-20c-33 -33 -89 -61 -158 -61zM336 457c-123 0 -178 -102 -178 -201
c0 -87 57 -152 157 -152c118 0 181 90 181 194c0 87 -52 159 -160 159z" />
    <glyph glyph-name="zero.tnum" horiz-adv-x="630" 
d="M123 243c0 275 117 471 299 471c124 0 208 -87 208 -256c0 -275 -117 -471 -299 -471c-124 0 -208 87 -208 256zM188 243c0 -43 6 -78 18 -107l311 477c-25 29 -58 43 -98 43c-171 0 -231 -235 -231 -413zM565 458c0 39 -6 73 -17 103l-311 -475c25 -27 58 -41 97 -41
c172 0 231 235 231 413z" />
    <glyph glyph-name="one.tnum" horiz-adv-x="630" 
d="M63 0l10 58h238l101 572h-19l-191 -112l12 70l191 112h84l-113 -642h204l-10 -58h-507z" />
    <glyph glyph-name="two.tnum" horiz-adv-x="630" 
d="M557 58l-10 -58h-459l13 78c41 31 80 62 119 92c66 50 144 111 192 151c54 43 131 106 131 215c0 76 -59 120 -140 120c-88 0 -150 -46 -171 -142h-64c27 140 129 200 246 200c109 0 194 -68 194 -175c0 -120 -90 -200 -173 -270c-29 -25 -89 -71 -144 -114l-100 -77
l-3 -20h369z" />
    <glyph glyph-name="three.tnum" horiz-adv-x="630" 
d="M613 622l-220 -170l-3 -20c135 -5 189 -102 189 -194c0 -142 -99 -251 -255 -251c-124 0 -223 79 -223 202h65c7 -91 68 -144 165 -144c111 0 183 86 183 191c0 92 -57 142 -145 142c-24 0 -47 -2 -63 -6l14 84l211 166l4 20h-313l8 58h395z" />
    <glyph glyph-name="four.tnum" horiz-adv-x="630" 
d="M507 229h98l-10 -58h-98l-30 -171h-64l30 171h-346l13 78l385 451h105zM172 229h271l69 399h-20l-317 -379z" />
    <glyph glyph-name="five.tnum" horiz-adv-x="630" 
d="M620 642h-333l-54 -225h21c27 29 68 52 131 52c128 0 210 -84 210 -205c0 -182 -123 -277 -252 -277c-149 0 -228 99 -228 202h64c5 -92 68 -144 167 -144c91 0 184 69 184 216c0 91 -53 150 -152 150c-64 0 -118 -25 -155 -72h-69l88 361h387z" />
    <glyph glyph-name="six.tnum" horiz-adv-x="630" 
d="M393 452c128 0 212 -88 212 -200c0 -143 -92 -265 -251 -265c-115 0 -219 80 -219 253c0 183 73 474 301 474c107 0 181 -60 194 -159h-65c-12 65 -58 101 -131 101c-119 0 -198 -124 -219 -265h20c33 33 89 61 158 61zM363 45c122 0 177 99 177 199
c0 88 -56 150 -156 150c-118 0 -180 -88 -180 -192c0 -87 51 -157 159 -157z" />
    <glyph glyph-name="seven.tnum" horiz-adv-x="630" 
d="M635 622l-397 -622h-69l396 622l4 20h-357l10 58h427z" />
    <glyph glyph-name="eight.tnum" horiz-adv-x="630" 
d="M508 367l-4 -19c51 -33 86 -86 86 -150c0 -131 -114 -211 -251 -211c-124 0 -233 71 -233 190c0 92 53 155 138 190l4 19c-39 25 -71 69 -71 133c0 115 102 195 234 195c112 0 214 -65 214 -179c0 -75 -46 -139 -117 -168zM242 517c0 -80 72 -123 151 -123
c96 0 167 52 167 139c0 77 -73 123 -151 123c-96 0 -167 -55 -167 -139zM171 181c0 -86 79 -136 171 -136c107 0 183 59 183 153c0 91 -80 138 -173 138c-105 0 -181 -59 -181 -155z" />
    <glyph glyph-name="nine.tnum" horiz-adv-x="630" 
d="M360 249c-128 0 -212 88 -212 200c0 143 92 265 251 265c115 0 219 -80 219 -253c0 -183 -73 -474 -301 -474c-107 0 -181 60 -194 159h65c12 -65 58 -101 131 -101c119 0 198 124 219 265h-20c-33 -33 -89 -61 -158 -61zM390 656c-122 0 -177 -99 -177 -199
c0 -88 56 -150 156 -150c118 0 180 88 180 192c0 87 -51 157 -159 157z" />
    <glyph glyph-name="dollar.tnum" horiz-adv-x="630" 
d="M476 798l-16 -91c84 -19 149 -81 162 -176h-65c-12 63 -51 102 -107 118l-46 -260l31 -10c88 -28 150 -91 150 -187c0 -124 -102 -205 -243 -205h-8l-15 -85h-51l15 90c-98 16 -179 77 -192 195h65c11 -80 62 -122 138 -137l51 294l-26 9c-72 24 -145 66 -145 165
c0 121 103 196 228 196h8l15 84h51zM411 323l-17 5l-50 -283h8c91 0 168 49 168 143c0 72 -36 112 -109 135zM342 409l14 -5l44 252h-6c-83 0 -155 -39 -155 -132c0 -67 40 -95 103 -115z" />
    <glyph glyph-name="Euro.tnum" horiz-adv-x="630" 
d="M86 397l27 52h59c48 160 149 265 287 265c112 0 190 -67 203 -195h-65c-8 91 -66 137 -141 137c-113 0 -182 -93 -216 -207h262l-27 -52h-249c-5 -27 -9 -51 -12 -78h220l-27 -52h-197v-24c0 -125 61 -198 158 -198s156 61 183 146h64c-37 -129 -127 -204 -250 -204
c-120 0 -220 92 -220 256v24h-82l27 52h58c3 27 7 53 12 78h-74z" />
    <glyph glyph-name="sterling.tnum" horiz-adv-x="630" 
d="M211 58h385l-10 -58h-517l10 58h21c51 0 76 33 87 94l25 138h-92l10 58h92l28 160c24 137 97 206 219 206c100 0 176 -53 176 -153c0 -13 -1 -27 -3 -42h-64c2 12 3 24 3 35c0 61 -37 102 -114 102c-100 0 -136 -67 -152 -149l-28 -159h212l-10 -58h-212l-23 -129
c-7 -32 -12 -59 -40 -83z" />
    <glyph glyph-name="yen.tnum" horiz-adv-x="630" 
d="M188 296l9 52h99l-129 352h66l128 -352h28l252 352h72l-255 -352h101l-9 -52h-130l-27 -38l-7 -40h150l-9 -52h-150l-29 -166h-64l29 166h-148l9 52h148l7 40l-14 38h-127z" />
    <glyph glyph-name="uni20BD.tnum" horiz-adv-x="630" 
d="M93 304l9 52h91l60 344h223c107 0 192 -63 192 -175c0 -153 -117 -221 -257 -221h-162l-14 -78h240l-9 -52h-240l-31 -174h-64l30 174h-91l9 52h91l14 78h-91zM259 356h161c103 0 183 56 183 168c0 81 -63 118 -139 118h-155z" />
    <glyph glyph-name="uni20B4.tnum" horiz-adv-x="630" 
d="M541 177h67c-31 -117 -118 -190 -255 -190c-140 0 -219 82 -219 190c0 32 8 60 23 87h-62l8 52h526l-9 -52h-393c-17 -24 -28 -55 -28 -90c0 -76 59 -129 156 -129c93 0 161 44 186 132zM642 394h-525l8 52h397c20 23 33 52 33 91c0 75 -61 119 -129 119
c-93 0 -145 -45 -168 -113h-65c24 96 102 171 234 171c116 0 193 -77 193 -177c0 -31 -11 -64 -28 -91h59z" />
    <glyph glyph-name="uni20B8.tnum" horiz-adv-x="630" 
d="M169 518l9 52h477l-9 -52h-206l-91 -518h-65l91 518h-206zM192 648l9 52h477l-9 -52h-477z" />
    <glyph glyph-name="cent.tnum" horiz-adv-x="630" 
d="M497 143h65c-28 -96 -105 -156 -218 -156l-12 -67h-51l13 73c-89 21 -155 96 -155 208c0 162 90 306 247 311l12 68h51l-13 -71c84 -15 139 -73 151 -148h-64c-11 47 -44 84 -97 93l-72 -411c72 0 122 40 143 100zM202 204c0 -83 38 -139 102 -155l72 407
c-112 -8 -174 -133 -174 -252z" />
    <glyph glyph-name="hungarumlaut.cap" horiz-adv-x="372" 
d="M248 896l-117 -129h-56l95 129h78zM392 896l-117 -129h-56l95 129h78z" />
    <glyph glyph-name="breve.cap" horiz-adv-x="345" 
d="M314 896h53c-17 -89 -81 -129 -156 -129c-66 0 -120 38 -120 101c0 11 1 19 2 28h53c-1 -7 -2 -14 -2 -19c0 -43 29 -62 72 -62c47 0 83 21 98 81z" />
    <glyph glyph-name="dotaccent.cap" horiz-adv-x="142" 
d="M153 817h-69l13 79h69z" />
    <glyph glyph-name="caron.cap" horiz-adv-x="353" 
d="M180 767l-83 129h63l52 -79h20l78 79h67l-127 -129h-70z" />
    <glyph glyph-name="ring.cap" horiz-adv-x="284" 
d="M186 966c58 0 105 -47 105 -105s-47 -106 -105 -106s-106 48 -106 106s48 105 106 105zM186 801c35 0 60 25 60 60s-25 60 -60 60s-60 -25 -60 -60s25 -60 60 -60z" />
    <glyph glyph-name="tilde.cap" horiz-adv-x="398" 
d="M375 896h48c-16 -92 -53 -129 -109 -129c-66 0 -95 80 -136 80c-33 0 -48 -40 -55 -80h-48c16 92 53 129 109 129c66 0 95 -80 136 -80c33 0 48 39 55 80z" />
    <glyph glyph-name="grave.cap" horiz-adv-x="234" 
d="M180 767l-83 129h78l61 -129h-56z" />
    <glyph glyph-name="macron.cap" horiz-adv-x="347" 
d="M358 817h-274l9 54h274z" />
    <glyph glyph-name="acute.cap" horiz-adv-x="234" 
d="M260 896l-127 -129h-60l105 129h82z" />
    <glyph glyph-name="dieresis.cap" horiz-adv-x="318" 
d="M153 817h-69l13 79h69zM329 817h-69l13 79h69z" />
    <glyph glyph-name="circumflex.cap" horiz-adv-x="353" 
d="M75 767l127 129h70l83 -129h-61l-51 79h-20l-79 -79h-69z" />
    <glyph glyph-name="cyrbreve" horiz-adv-x="400" 
d="M423 727h53c-16 -95 -84 -145 -165 -145c-72 0 -129 40 -129 116c0 9 1 19 3 29h51c-1 -7 -2 -16 -2 -21c0 -48 33 -75 81 -75c57 0 97 37 108 96z" />
    <glyph glyph-name="cyrbreve.cap" horiz-adv-x="409" 
d="M376 904h59c-19 -101 -96 -156 -189 -156c-81 0 -149 43 -149 124c0 10 1 21 3 32h57c-1 -7 -2 -13 -2 -20c0 -51 38 -82 94 -82c64 0 116 38 127 102z" />
    <glyph glyph-name="hyphen.case" horiz-adv-x="360" 
d="M368 332h-260l10 57h260z" />
    <glyph glyph-name="endash.case" horiz-adv-x="615" 
d="M623 332h-515l10 57h515z" />
    <glyph glyph-name="emdash.case" horiz-adv-x="875" 
d="M883 332h-775l10 57h775z" />
    <glyph glyph-name="emdash.ss02.case" horiz-adv-x="1445" 
d="M1453 332h-1345l10 57h1345z" />
    <glyph glyph-name="bracketleft.case" horiz-adv-x="298" 
d="M224 -93h-161l158 900h161l-9 -54h-98l-140 -792h98z" />
    <glyph glyph-name="bracketright.case" horiz-adv-x="298" 
d="M198 807h161l-158 -900h-161l9 54h98l140 792h-98z" />
    <glyph glyph-name="braceleft.case" horiz-adv-x="375" 
d="M227 367l-4 -20c23 -8 36 -27 36 -63c0 -12 -3 -35 -6 -46l-30 -174c-3 -13 -4 -33 -4 -42c0 -47 31 -61 75 -61h33l-9 -54h-33c-75 0 -129 30 -129 109c0 11 2 36 5 48l29 169c3 19 5 34 5 47c0 32 -12 50 -48 50h-10l10 54h10c51 0 66 36 77 97l31 177
c19 108 77 149 166 149h45l-9 -54h-36c-52 0 -90 -24 -103 -96l-34 -192c-11 -61 -34 -87 -67 -98z" />
    <glyph glyph-name="braceright.case" horiz-adv-x="375" 
d="M280 347l4 20c-23 8 -36 27 -36 63c0 12 3 35 6 46l30 174c3 13 4 33 4 42c0 47 -31 61 -75 61h-33l9 54h33c75 0 129 -30 129 -109c0 -11 -2 -36 -5 -48l-29 -169c-3 -19 -5 -34 -5 -47c0 -32 12 -50 48 -50h10l-10 -54h-10c-51 0 -66 -36 -77 -97l-31 -177
c-19 -108 -77 -149 -166 -149h-45l9 54h36c52 0 90 24 103 96l34 192c11 61 34 87 67 98z" />
    <glyph glyph-name="parenleft.case" horiz-adv-x="286" 
d="M260 -93h-62c-60 91 -99 206 -99 347c0 221 102 411 247 553h74c-153 -153 -256 -331 -256 -553c0 -137 36 -248 96 -347z" />
    <glyph glyph-name="parenright.case" horiz-adv-x="287" 
d="M143 807h62c60 -91 99 -206 99 -347c0 -221 -102 -411 -247 -553h-74c153 153 256 331 256 553c0 137 -36 248 -96 347z" />
    <glyph glyph-name="guillemotright.case" horiz-adv-x="526" 
d="M465 341l4 20l-128 165h68l120 -149l-10 -59l-169 -148h-74zM274 341l4 20l-128 165h68l120 -149l-10 -59l-169 -148h-74z" />
    <glyph glyph-name="guillemotleft.case" horiz-adv-x="526" 
d="M180 355l-4 -20l128 -165h-68l-120 149l10 59l169 148h74zM371 355l-4 -20l128 -165h-68l-120 149l10 59l169 148h74z" />
    <glyph glyph-name="guilsinglright.case" horiz-adv-x="335" 
d="M274 341l4 20l-128 165h68l120 -149l-10 -59l-169 -148h-74z" />
    <glyph glyph-name="guilsinglleft.case" horiz-adv-x="335" 
d="M180 355l-4 -20l128 -165h-68l-120 149l10 59l169 148h74z" />
    <glyph glyph-name="exclamdown.case" horiz-adv-x="302" 
d="M175 0h-66l52 297l55 239h41l-30 -239zM225 714h84l-17 -102h-84z" />
    <glyph glyph-name="questiondown.case" horiz-adv-x="534" 
d="M289 -13c-107 0 -189 66 -189 167c0 97 51 159 146 217c61 37 90 61 103 136l5 29h63l-5 -29c-16 -93 -53 -127 -141 -183c-72 -44 -108 -92 -108 -168c0 -67 49 -116 132 -116c92 0 145 53 161 145h62c-21 -120 -91 -198 -229 -198zM372 714h81l-17 -101h-81z" />
    <glyph glyph-name="a.ss03" horiz-adv-x="600" 
d="M96 206c0 141 82 307 257 307c65 0 127 -24 158 -79h20l12 66h61l-88 -500h-61l10 55h-20c-29 -39 -88 -68 -151 -68c-131 0 -198 101 -198 219zM297 43c136 0 200 139 200 248c0 103 -49 166 -144 166s-194 -86 -194 -250c0 -92 45 -164 138 -164z" />
    <glyph glyph-name="atilde.ss03" horiz-adv-x="600" 
d="M96 206c0 141 82 307 257 307c65 0 127 -24 158 -79h20l12 66h61l-88 -500h-61l10 55h-20c-29 -39 -88 -68 -151 -68c-131 0 -198 101 -198 219zM297 43c136 0 200 139 200 248c0 103 -49 166 -144 166s-194 -86 -194 -250c0 -92 45 -164 138 -164zM536 718h48
c-16 -92 -53 -129 -109 -129c-66 0 -95 80 -136 80c-33 0 -48 -40 -55 -80h-48c16 92 53 129 109 129c66 0 95 -80 136 -80c33 0 48 39 55 80z" />
    <glyph glyph-name="adieresis.ss03" horiz-adv-x="600" 
d="M96 206c0 141 82 307 257 307c65 0 127 -24 158 -79h20l12 66h61l-88 -500h-61l10 55h-20c-29 -39 -88 -68 -151 -68c-131 0 -198 101 -198 219zM297 43c136 0 200 139 200 248c0 103 -49 166 -144 166s-194 -86 -194 -250c0 -92 45 -164 138 -164zM355 648h-69l14 79h69
zM531 648h-69l14 79h69z" />
    <glyph glyph-name="acircumflex.ss03" horiz-adv-x="600" 
d="M96 206c0 141 82 307 257 307c65 0 127 -24 158 -79h20l12 66h61l-88 -500h-61l10 55h-20c-29 -39 -88 -68 -151 -68c-131 0 -198 101 -198 219zM297 43c136 0 200 139 200 248c0 103 -49 166 -144 166s-194 -86 -194 -250c0 -92 45 -164 138 -164zM458 727l79 -145h-60
l-51 95h-20l-85 -95h-64l131 145h70z" />
    <glyph glyph-name="agrave.ss03" horiz-adv-x="600" 
d="M96 206c0 141 82 307 257 307c65 0 127 -24 158 -79h20l12 66h61l-88 -500h-61l10 55h-20c-29 -39 -88 -68 -151 -68c-131 0 -198 101 -198 219zM297 43c136 0 200 139 200 248c0 103 -49 166 -144 166s-194 -86 -194 -250c0 -92 45 -164 138 -164zM378 582l-79 145h78
l57 -145h-56z" />
    <glyph glyph-name="aacute.ss03" horiz-adv-x="600" 
d="M96 206c0 141 82 307 257 307c65 0 127 -24 158 -79h20l12 66h61l-88 -500h-61l10 55h-20c-29 -39 -88 -68 -151 -68c-131 0 -198 101 -198 219zM297 43c136 0 200 139 200 248c0 103 -49 166 -144 166s-194 -86 -194 -250c0 -92 45 -164 138 -164zM551 727l-131 -145
h-60l109 145h82z" />
    <glyph glyph-name="aring.ss03" horiz-adv-x="600" 
d="M96 206c0 141 82 307 257 307c65 0 127 -24 158 -79h20l12 66h61l-88 -500h-61l10 55h-20c-29 -39 -88 -68 -151 -68c-131 0 -198 101 -198 219zM297 43c136 0 200 139 200 248c0 103 -49 166 -144 166s-194 -86 -194 -250c0 -92 45 -164 138 -164zM411 793
c58 0 105 -47 105 -105s-47 -106 -105 -106s-106 48 -106 106s48 105 106 105zM411 628c35 0 60 25 60 60s-25 60 -60 60s-60 -25 -60 -60s25 -60 60 -60z" />
    <glyph glyph-name="amacron.ss03" horiz-adv-x="600" 
d="M96 206c0 141 82 307 257 307c65 0 127 -24 158 -79h20l12 66h61l-88 -500h-61l10 55h-20c-29 -39 -88 -68 -151 -68c-131 0 -198 101 -198 219zM297 43c136 0 200 139 200 248c0 103 -49 166 -144 166s-194 -86 -194 -250c0 -92 45 -164 138 -164zM558 648h-274l9 54
h274z" />
    <glyph glyph-name="abreve.ss03" horiz-adv-x="600" 
d="M96 206c0 141 82 307 257 307c65 0 127 -24 158 -79h20l12 66h61l-88 -500h-61l10 55h-20c-29 -39 -88 -68 -151 -68c-131 0 -198 101 -198 219zM297 43c136 0 200 139 200 248c0 103 -49 166 -144 166s-194 -86 -194 -250c0 -92 45 -164 138 -164zM510 727h52
c-16 -100 -82 -145 -157 -145c-67 0 -119 39 -119 107c0 13 1 27 4 38h51c-2 -11 -3 -21 -3 -29c0 -45 29 -68 72 -68c48 0 85 26 100 97z" />
    <glyph glyph-name="aogonek.ss03" horiz-adv-x="600" 
d="M96 206c0 141 82 307 257 307c65 0 127 -24 158 -79h20l12 66h61l-88 -500c-38 -19 -93 -53 -93 -108c0 -31 27 -45 70 -45l-9 -46c-9 -1 -16 -1 -23 -1c-64 0 -98 30 -98 78c0 56 41 101 92 124l10 53h-20c-29 -39 -88 -68 -151 -68c-131 0 -198 101 -198 219zM297 43
c136 0 200 139 200 248c0 103 -49 166 -144 166s-194 -86 -194 -250c0 -92 45 -164 138 -164z" />
    <glyph glyph-name="t.ss04" horiz-adv-x="340" 
d="M181 0h-62l78 444h-91l10 56h91l27 155h62l-27 -155h131l-10 -56h-131z" />
    <glyph glyph-name="tcaron.ss04" horiz-adv-x="359" 
d="M445 635h-41l17 92h84l-20 -109l-55 -67h-43l55 67zM181 0h-62l78 444h-91l10 56h91l27 155h62l-27 -155h131l-10 -56h-131z" />
    <glyph glyph-name="uni0163.ss04" horiz-adv-x="340" 
d="M181 0h-62l78 444h-91l10 56h91l27 155h62l-27 -155h131l-10 -56h-131zM111 -215h-43l58 60l3 17h-41l14 79h84l-17 -96z" />
    <glyph glyph-name="Y.ss05" horiz-adv-x="617" 
d="M253 0h-72l140 216l-175 498h70l141 -398h28l260 398h74z" />
    <glyph glyph-name="Ydieresis.ss05" horiz-adv-x="617" 
d="M253 0h-72l140 216l-175 498h70l141 -398h28l260 398h74zM433 817h-69l13 79h69zM609 817h-69l13 79h69z" />
    <glyph glyph-name="Yacute.ss05" horiz-adv-x="617" 
d="M253 0h-72l140 216l-175 498h70l141 -398h28l260 398h74zM605 896l-127 -129h-60l105 129h82z" />
    <glyph glyph-name="ampersand.ss06" horiz-adv-x="639" 
d="M672 407l-10 -58h-70l-24 -139c-25 -143 -124 -223 -267 -223c-131 0 -217 84 -217 190c0 128 83 185 151 203l3 19c-35 17 -70 60 -70 128c0 118 93 187 212 187c104 0 194 -62 202 -154h-64c-13 64 -68 96 -137 96c-96 0 -148 -58 -148 -131c0 -65 43 -118 123 -118h47
l-10 -58h-47c-119 0 -197 -61 -197 -165c0 -84 64 -139 159 -139c120 0 177 64 196 165l34 197h134z" />
    <glyph glyph-name="zero.ss07" horiz-adv-x="615" 
d="M117 243c0 275 117 471 299 471c124 0 208 -87 208 -256c0 -275 -117 -471 -299 -471c-124 0 -208 87 -208 256zM182 243c0 -43 6 -78 18 -107l311 477c-25 29 -58 43 -98 43c-171 0 -231 -235 -231 -413zM559 458c0 39 -6 73 -17 103l-311 -475c25 -27 58 -41 97 -41
c172 0 231 235 231 413z" />
    <glyph glyph-name="uni0430.ss03" horiz-adv-x="600" 
d="M96 206c0 141 82 307 257 307c65 0 127 -24 158 -79h20l12 66h61l-88 -500h-61l10 55h-20c-29 -39 -88 -68 -151 -68c-131 0 -198 101 -198 219zM297 43c136 0 200 139 200 248c0 103 -49 166 -144 166s-194 -86 -194 -250c0 -92 45 -164 138 -164z" />
    <glyph glyph-name="emdash.ss02" horiz-adv-x="1445" 
d="M1438 247h-1345l10 57h1345z" />
    <glyph glyph-name="uni0423.ss08" horiz-adv-x="611" 
d="M104 0l11 64h25c52 0 84 12 127 79l48 73l-175 498h70l141 -398h28l260 398h74l-365 -560c-72 -112 -123 -154 -219 -154h-25z" />
    <glyph glyph-name="uni040E.ss08" horiz-adv-x="611" 
d="M104 0l11 64h25c52 0 84 12 127 79l48 73l-175 498h70l141 -398h28l260 398h74l-365 -560c-72 -112 -123 -154 -219 -154h-25zM555 904h59c-19 -101 -96 -156 -189 -156c-81 0 -149 43 -149 124c0 10 1 21 3 32h57c-1 -7 -2 -13 -2 -20c0 -51 38 -82 94 -82
c64 0 116 38 127 102z" />
    <glyph glyph-name="five.numr" horiz-adv-x="359" 
d="M411 665h-185l-24 -89h20c14 12 34 18 61 18c67 0 115 -46 115 -114c0 -102 -70 -154 -147 -154c-89 0 -136 63 -136 123h53c4 -47 35 -74 84 -74c45 0 91 31 91 98c0 43 -28 72 -75 72c-33 0 -59 -12 -78 -37h-56l52 205h233z" />
    <glyph glyph-name="four.numr" horiz-adv-x="387" 
d="M375 472h55l-9 -49h-55l-15 -90h-55l15 90h-196l9 53l217 238h77zM195 472h125l29 168h-15l-136 -153z" />
    <glyph glyph-name="three.numr" horiz-adv-x="367" 
d="M413 659l-101 -74l-2 -12c61 -12 86 -61 86 -106c0 -84 -55 -141 -148 -141c-75 0 -134 49 -134 124h54c3 -47 36 -75 83 -75c57 0 90 40 90 91c0 41 -29 66 -72 66c-15 0 -28 -1 -39 -4l10 58l86 64l3 15h-156l8 49h241z" />
    <glyph glyph-name="two.numr" horiz-adv-x="352" 
d="M381 382l-10 -49h-272l12 62l169 118c28 19 70 49 70 99c0 35 -27 60 -68 60c-44 0 -76 -22 -87 -77h-55c16 88 74 126 146 126c67 0 119 -41 119 -104c0 -73 -56 -115 -99 -144l-112 -78l-3 -13h190z" />
    <glyph glyph-name="one.numr" horiz-adv-x="329" 
d="M263 382h97l-8 -49h-249l8 49h97l47 264h-16l-89 -47l10 57l108 58h54z" />
    <glyph glyph-name="quotedbl.ss01" horiz-adv-x="317" 
d="M163 473l42 241h34l-42 -241h-34zM286 473l42 241h34l-42 -241h-34z" />
    <glyph glyph-name="numbersign.ss01" horiz-adv-x="551" 
d="M366 0l32 208h-159l-32 -208h-34l32 208h-104v31h110l34 222h-102v31h107l33 208h34l-34 -208h161l33 208h34l-33 -208h104v-31h-109l-35 -222h103v-31h-108l-32 -208h-35zM279 461l-35 -222h160l35 222h-160z" />
    <glyph glyph-name="quotesingle.ss01" horiz-adv-x="194" 
d="M163 473l42 241h34l-42 -241h-34z" />
    <glyph glyph-name="parenleft.ss01" horiz-adv-x="256" 
d="M333 759h45c-152 -144 -246 -331 -246 -552c0 -129 31 -236 87 -348h-37c-57 109 -84 230 -84 349c0 204 84 399 235 551z" />
    <glyph glyph-name="parenright.ss01" horiz-adv-x="256" 
d="M32 -141h-45c152 144 246 331 246 552c0 129 -31 236 -87 348h37c57 -109 84 -230 84 -349c0 -204 -84 -399 -235 -551z" />
    <glyph glyph-name="bracketleft.ss01" horiz-adv-x="255" 
d="M173 -141h-118l158 900h118l-5 -31h-84l-148 -838h84z" />
    <glyph glyph-name="bracketright.ss01" horiz-adv-x="255" 
d="M190 759h118l-158 -900h-118l5 31h84l148 838h-84z" />
    <glyph glyph-name="braceleft.ss01" horiz-adv-x="337" 
d="M193 318l-4 -18c17 -6 25 -22 25 -48c0 -12 -2 -28 -5 -43l-38 -215c-2 -13 -3 -26 -3 -37c0 -48 23 -67 79 -67h30l-5 -31h-30c-68 0 -108 26 -108 95c0 15 1 28 4 41l36 204c4 21 6 38 6 52c0 27 -9 43 -36 43h-13l6 30h13c41 0 51 34 62 95l36 204
c19 101 72 136 152 136h30l-5 -31h-30c-69 0 -100 -32 -112 -104l-38 -215c-11 -60 -28 -82 -52 -91z" />
    <glyph glyph-name="braceright.ss01" horiz-adv-x="337" 
d="M252 300l4 18c-17 6 -25 22 -25 48c0 12 2 28 5 43l38 215c2 13 3 26 3 37c0 48 -23 67 -79 67h-30l5 31h30c68 0 108 -26 108 -95c0 -15 -1 -28 -4 -41l-36 -204c-4 -21 -6 -38 -6 -52c0 -27 9 -43 36 -43h13l-6 -30h-13c-41 0 -51 -34 -62 -95l-36 -204
c-19 -101 -72 -136 -152 -136h-30l5 31h30c69 0 100 32 112 104l38 215c11 60 28 82 52 91z" />
    <glyph glyph-name="asterisk.ss01" horiz-adv-x="448" 
d="M513 559l-178 -50l84 -145l-31 -19l-77 147l-134 -147l-24 25l137 140l-160 54l13 34l158 -63l18 179h36l-25 -179l177 58z" />
    <glyph glyph-name="plus.ss01" horiz-adv-x="684" 
d="M375 298v236h33v-236h235v-31h-235v-237h-33v237h-236v31h236z" />
    <glyph glyph-name="minus.ss01" horiz-adv-x="684" 
d="M139 298h504v-31h-504v31z" />
    <glyph glyph-name="less.ss01" horiz-adv-x="684" 
d="M643 76v-33l-504 216v44l504 216v-33l-454 -196v-18z" />
    <glyph glyph-name="equal.ss01" horiz-adv-x="683" 
d="M642 201v-31h-503v31h503zM642 393v-31h-503v31h503z" />
    <glyph glyph-name="greater.ss01" horiz-adv-x="684" 
d="M139 43v33l454 196v18l-454 196v33l504 -216v-44z" />
    <glyph glyph-name="hyphen.ss01" horiz-adv-x="360" 
d="M355 260h-260l6 31h260z" />
    <glyph glyph-name="endash.ss01" horiz-adv-x="615" 
d="M610 260h-515l6 31h515z" />
    <glyph glyph-name="emdash.ss01" horiz-adv-x="875" 
d="M870 260h-775l6 31h775z" />
    <glyph glyph-name="emdash.ss01.ss02" horiz-adv-x="1445" 
d="M1440 260h-1345l6 31h1345z" />
    <glyph glyph-name="underscore.ss01" horiz-adv-x="501" 
d="M482 -113h-503l6 31h503z" />
    <glyph glyph-name="slash.ss01" horiz-adv-x="363" 
d="M10 -141h-35l459 900h33z" />
    <glyph glyph-name="bar.ss01" horiz-adv-x="214" 
d="M65 -141l158 900h34l-158 -900h-34z" />
    <glyph glyph-name="backslash.ss01" horiz-adv-x="365" 
d="M340 -141h-34l-141 900h31z" />
    <glyph glyph-name="degree.ss01" horiz-adv-x="461" 
d="M131 523c0 114 82 198 190 198s191 -84 191 -198c0 -113 -83 -197 -191 -197s-190 84 -190 197zM165 523c0 -94 65 -166 156 -166c92 0 157 72 157 166c0 96 -65 167 -157 167c-91 0 -156 -71 -156 -167z" />
    <glyph glyph-name="guillemotleft.ss01" horiz-adv-x="483" 
d="M146 287l-3 -18l130 -165h-41l-127 158l7 39l182 159h47zM311 287l-3 -18l130 -165h-41l-127 158l7 39l182 159h47z" />
    <glyph glyph-name="guillemotright.ss01" horiz-adv-x="483" 
d="M435 277l3 18l-130 165h41l127 -158l-7 -39l-182 -159h-47zM270 277l3 18l-130 165h41l127 -158l-7 -39l-182 -159h-47z" />
    <glyph glyph-name="guilsinglleft.ss01" horiz-adv-x="318" 
d="M146 287l-3 -18l130 -165h-41l-127 158l7 39l182 159h47z" />
    <glyph glyph-name="guilsinglright.ss01" horiz-adv-x="318" 
d="M270 277l3 18l-130 165h41l127 -158l-7 -39l-182 -159h-47z" />
    <glyph glyph-name="quoteleft.ss01" horiz-adv-x="224" 
d="M213 610h33l-18 -102h-64l21 119l64 87h31l-64 -87z" />
    <glyph glyph-name="quoteright.ss01" horiz-adv-x="224" 
d="M214 612h-33l18 102h64l-21 -119l-64 -87h-31l64 87z" />
    <glyph glyph-name="quotesinglbase.ss01" horiz-adv-x="224" 
d="M113 0h-33l18 102h64l-21 -119l-64 -87h-31l64 87z" />
    <glyph glyph-name="quotedblleft.ss01" horiz-adv-x="359" 
d="M348 610h33l-18 -102h-64l21 119l64 87h31l-64 -87zM211 610h33l-18 -102h-64l21 119l64 87h31l-64 -87z" />
    <glyph glyph-name="quotedblright.ss01" horiz-adv-x="361" 
d="M214 612h-33l18 102h64l-21 -119l-64 -87h-31l64 87zM351 612h-33l18 102h64l-21 -119l-64 -87h-31l64 87z" />
    <glyph glyph-name="quotedblbase.ss01" horiz-adv-x="361" 
d="M113 0h-33l18 102h64l-21 -119l-64 -87h-31l64 87zM250 0h-33l18 102h64l-21 -119l-64 -87h-31l64 87z" />
    <glyph glyph-name="arrowleft.ss01" horiz-adv-x="822" 
d="M338 500h46l-213 -214v-20h631v-31h-631v-21l213 -214h-46l-250 250z" />
    <glyph glyph-name="arrowup.ss01" horiz-adv-x="680" 
d="M649 464v-46l-214 215h-19v-633h-34v633h-19l-214 -215v46l250 250z" />
    <glyph glyph-name="arrowright.ss01" horiz-adv-x="822" 
d="M508 500h46l250 -250l-250 -250h-46l213 214v21h-631v31h631v20z" />
    <glyph glyph-name="arrowdown.ss01" horiz-adv-x="680" 
d="M149 250v46l214 -215h19v633h34v-633h19l214 215v-46l-250 -250z" />
    <glyph glyph-name="uni2196.ss01" horiz-adv-x="696" 
d="M522 714l32 -32h-301l-13 -14l445 -447l-23 -23l-447 446l-13 -14v-302l-33 33v353h353z" />
    <glyph glyph-name="uni2197.ss01" horiz-adv-x="696" 
d="M270 682l32 32h353v-353l-33 -33v302l-13 14l-447 -446l-23 23l445 447l-13 14h-301z" />
    <glyph glyph-name="uni2198.ss01" horiz-adv-x="696" 
d="M545 32l-32 -32h-353v353l33 33v-302l13 -14l447 446l23 -23l-445 -447l13 -14h301z" />
    <glyph glyph-name="uni2199.ss01" horiz-adv-x="696" 
d="M292 0l-32 32h301l13 14l-445 447l23 23l447 -446l13 14v302l33 -33v-353h-353z" />
    <glyph glyph-name="parenleft.ss01.case" horiz-adv-x="256" 
d="M348 807h45c-152 -144 -246 -331 -246 -552c0 -129 31 -236 87 -348h-37c-57 109 -84 230 -84 349c0 204 84 399 235 551z" />
    <glyph glyph-name="parenright.ss01.case" horiz-adv-x="257" 
d="M47 -93h-45c152 144 246 331 246 552c0 129 -31 236 -87 348h37c57 -109 84 -230 84 -349c0 -204 -84 -399 -235 -551z" />
    <glyph glyph-name="bracketleft.ss01.case" horiz-adv-x="255" 
d="M181 -93h-118l158 900h118l-5 -31h-84l-148 -838h84z" />
    <glyph glyph-name="bracketright.ss01.case" horiz-adv-x="255" 
d="M198 807h118l-158 -900h-118l5 31h84l148 838h-84z" />
    <glyph glyph-name="braceleft.ss01.case" horiz-adv-x="337" 
d="M201 366l-4 -18c17 -6 25 -22 25 -48c0 -12 -2 -28 -5 -43l-38 -215c-2 -13 -3 -26 -3 -37c0 -48 23 -67 79 -67h30l-5 -31h-30c-68 0 -108 26 -108 95c0 15 1 28 4 41l36 204c4 21 6 38 6 52c0 27 -9 43 -36 43h-13l6 30h13c41 0 51 34 62 95l36 204
c19 101 72 136 152 136h30l-5 -31h-30c-69 0 -100 -32 -112 -104l-38 -215c-11 -60 -28 -82 -52 -91z" />
    <glyph glyph-name="braceright.ss01.case" horiz-adv-x="337" 
d="M261 348l4 18c-17 6 -25 22 -25 48c0 12 2 28 5 43l38 215c2 13 3 26 3 37c0 48 -23 67 -79 67h-30l5 31h30c68 0 108 -26 108 -95c0 -15 -1 -28 -4 -41l-36 -204c-4 -21 -6 -38 -6 -52c0 -27 9 -43 36 -43h13l-6 -30h-13c-41 0 -51 -34 -62 -95l-36 -204
c-19 -101 -72 -136 -152 -136h-30l5 31h30c69 0 100 32 112 104l38 215c11 60 28 82 52 91z" />
    <glyph glyph-name="guillemotleft.ss01.case" horiz-adv-x="483" 
d="M157 353l-3 -18l130 -165h-41l-127 158l7 39l182 159h47zM322 353l-3 -18l130 -165h-41l-127 158l7 39l182 159h47z" />
    <glyph glyph-name="guillemotright.ss01.case" horiz-adv-x="483" 
d="M445 343l3 18l-130 165h41l127 -158l-7 -39l-182 -159h-47zM280 343l3 18l-130 165h41l127 -158l-7 -39l-182 -159h-47z" />
    <glyph glyph-name="guilsinglleft.ss01.case" horiz-adv-x="318" 
d="M157 353l-3 -18l130 -165h-41l-127 158l7 39l182 159h47z" />
    <glyph glyph-name="guilsinglright.ss01.case" horiz-adv-x="318" 
d="M280 343l3 18l-130 165h41l127 -158l-7 -39l-182 -159h-47z" />
    <glyph glyph-name="hyphen.ss01.case" horiz-adv-x="356" 
d="M368 345h-260l6 31h260z" />
    <glyph glyph-name="endash.ss01.case" horiz-adv-x="611" 
d="M623 345h-515l6 31h515z" />
    <glyph glyph-name="emdash.ss01.case" horiz-adv-x="871" 
d="M883 345h-775l6 31h775z" />
    <glyph glyph-name="emdash.ss01.ss02.case" horiz-adv-x="1441" 
d="M1453 345h-1345l6 31h1345z" />
    <glyph glyph-name="zero.numr" horiz-adv-x="378" 
d="M304 721c76 0 125 -47 125 -143c0 -148 -68 -252 -175 -252c-76 0 -126 47 -126 142c0 148 69 253 176 253zM256 375c88 0 118 115 118 203c0 61 -30 94 -71 94c-88 0 -120 -116 -120 -204c0 -60 30 -93 73 -93z" />
    <glyph glyph-name="three.dnom" horiz-adv-x="367" 
d="M354 326l-101 -74l-2 -12c61 -12 86 -61 86 -106c0 -84 -55 -141 -148 -141c-75 0 -134 49 -134 124h54c3 -47 36 -75 83 -75c57 0 90 40 90 91c0 41 -29 66 -72 66c-15 0 -28 -1 -39 -4l10 58l86 64l3 15h-156l8 49h241z" />
    </font>
</defs>
</svg>
